M48
; DRILL file {KiCad 5.1.10} date Fri Apr  1 14:38:20 2022
; FORMAT={-:-/ absolute / inch / decimal}
; #@! TF.CreationDate,2022-04-01T14:38:20+02:00
; #@! TF.GenerationSoftware,Kicad,Pcbnew,5.1.10
FMAT,2
INCH
T1C0.0315
T2C0.1260
%
G90
G05
T1
X5.4193Y-4.1969
X5.4193Y-4.2969
X5.4193Y-4.3969
X5.4193Y-4.4969
X5.5193Y-4.2469
X5.5193Y-4.3469
X5.5193Y-4.4469
X5.5193Y-4.5469
X5.9807Y-4.2988
X5.9823Y-4.5433
X6.0307Y-4.1988
X6.0323Y-4.4433
X6.0807Y-4.2988
X6.0823Y-4.5433
X6.1307Y-4.1988
X6.1323Y-4.4433
X6.1807Y-4.2988
X6.1823Y-4.5433
X6.2307Y-4.1988
X6.2323Y-4.4433
X6.2807Y-4.2988
X6.2823Y-4.5433
X6.3307Y-4.1988
X6.3323Y-4.4433
T2
X5.1693Y-4.1469
X5.1693Y-4.5969
X5.9307Y-3.9488
X5.9323Y-4.7933
X6.3807Y-3.9488
X6.3823Y-4.7933
T0
M30
