<?xml version="1.0" encoding="UTF-8" standalone="no"?>
<svg
   version="1.1"
   width="29.700220cm"
   height="21.000720cm"
   viewBox="0 0 116930 82680"
   id="svg146"
   sodipodi:docname="coupleur-B_Mask.svg"
   inkscape:version="1.1.1 (3bf5ae0d25, 2021-09-20)"
   xmlns:inkscape="http://www.inkscape.org/namespaces/inkscape"
   xmlns:sodipodi="http://sodipodi.sourceforge.net/DTD/sodipodi-0.dtd"
   xmlns="http://www.w3.org/2000/svg"
   xmlns:svg="http://www.w3.org/2000/svg">
  <defs
     id="defs150" />
  <sodipodi:namedview
     id="namedview148"
     pagecolor="#ffffff"
     bordercolor="#666666"
     borderopacity="1.0"
     inkscape:pageshadow="2"
     inkscape:pageopacity="0.0"
     inkscape:pagecheckerboard="0"
     inkscape:document-units="cm"
     showgrid="false"
     inkscape:zoom="4.5833011"
     inkscape:cx="559.31303"
     inkscape:cy="419.56659"
     inkscape:window-width="1474"
     inkscape:window-height="901"
     inkscape:window-x="321"
     inkscape:window-y="47"
     inkscape:window-maximized="0"
     inkscape:current-layer="svg146" />
  <title
     id="title2">SVG Picture created as coupleur-B_Mask.svg date 2022/04/01 14:39:43 </title>
  <desc
     id="desc4">Picture generated by PCBNEW </desc>
  <g
     style="fill:#000000; fill-opacity:1;stroke:#000000; stroke-opacity:1; stroke-linecap:round; stroke-linejoin:round;"
     transform="translate(0 0) scale(1 1)"
     id="g6" />
  <g
     style="fill:#000000; fill-opacity:0.0;  stroke:#000000; stroke-width:-0.000393701; stroke-opacity:1;  stroke-linecap:round; stroke-linejoin:round;"
     id="g8" />
  <path
     d="M 68111,36417 H 48426"
     id="path10"
     style="fill:none;fill-opacity:0;stroke:#ff0000;stroke-width:19.6850404;stroke-linecap:round;stroke-linejoin:round;stroke-opacity:1;stroke-miterlimit:4;stroke-dasharray:none" />
  <path
     d="M 68111,50984 V 36417"
     id="path12"
     style="fill:none;fill-opacity:0;stroke:#ff0000;stroke-width:19.6850404;stroke-linecap:round;stroke-linejoin:round;stroke-opacity:1;stroke-miterlimit:4;stroke-dasharray:none" />
  <path
     d="M 48426,50984 H 68111"
     id="path14"
     style="fill:none;fill-opacity:0;stroke:#ff0000;stroke-width:19.6850404;stroke-linecap:round;stroke-linejoin:round;stroke-opacity:1;stroke-miterlimit:4;stroke-dasharray:none" />
  <path
     d="M 48426,36417 V 50984"
     id="path16"
     style="fill:none;fill-opacity:0;stroke:#ff0000;stroke-width:19.6850404;stroke-linecap:round;stroke-linejoin:round;stroke-opacity:1;stroke-miterlimit:4;stroke-dasharray:none" />
  <path
     d="M 51762.8,48860.4 A 1377.95,1377.95 0 0 0 50409.1,47506.7"
     id="path20"
     style="fill:none;fill-opacity:0;stroke:#ffff00;stroke-width:39.37008081;stroke-linecap:round;stroke-linejoin:round;stroke-opacity:1;stroke-miterlimit:4;stroke-dasharray:none" />
  <path
     d="m 50409.1,39947.2 a 1377.95,1377.95 0 0 0 1353.7,-1353.7"
     id="path22"
     style="fill:none;fill-opacity:0;stroke:#ffff00;stroke-width:39.37008081;stroke-linecap:round;stroke-linejoin:round;stroke-opacity:1;stroke-miterlimit:4;stroke-dasharray:none" />
  <path
     d="m 64834.1,38593.5 a 1377.95,1377.95 0 0 0 1353.8,1353.7"
     id="path24"
     style="fill:none;fill-opacity:0;stroke:#ffff00;stroke-width:39.37008081;stroke-linecap:round;stroke-linejoin:round;stroke-opacity:1;stroke-miterlimit:4;stroke-dasharray:none" />
  <path
     d="m 66187.9,47506.7 a 1377.95,1377.95 0 0 0 -1353.8,1353.7"
     id="path26"
     style="fill:none;fill-opacity:0;stroke:#ffff00;stroke-width:39.37008081;stroke-linecap:round;stroke-linejoin:round;stroke-opacity:1;stroke-miterlimit:4;stroke-dasharray:none" />
  <path
     d="m 50409,39947 v 7559"
     id="path28"
     style="fill:none;fill-opacity:0;stroke:#ffff00;stroke-width:39.37008081;stroke-linecap:round;stroke-linejoin:round;stroke-opacity:1;stroke-miterlimit:4;stroke-dasharray:none" />
  <path
     d="M 64834,38593 H 51762"
     id="path30"
     style="fill:none;fill-opacity:0;stroke:#ffff00;stroke-width:39.37008081;stroke-linecap:round;stroke-linejoin:round;stroke-opacity:1;stroke-miterlimit:4;stroke-dasharray:none" />
  <path
     d="M 51762,48860 H 64834"
     id="path32"
     style="fill:none;fill-opacity:0;stroke:#ffff00;stroke-width:39.37008081;stroke-linecap:round;stroke-linejoin:round;stroke-opacity:1;stroke-miterlimit:4;stroke-dasharray:none" />
  <path
     d="M 66187,47506 V 39947"
     id="path34"
     style="fill:none;fill-opacity:0;stroke:#ffff00;stroke-width:39.37008081;stroke-linecap:round;stroke-linejoin:round;stroke-opacity:1;stroke-miterlimit:4;stroke-dasharray:none" />
  <g
     id="g36"
     style="fill:#000000;fill-opacity:0;stroke:#000000;stroke-width:39.3701;stroke-linecap:round;stroke-linejoin:round;stroke-opacity:1" />
  <g
     style="fill:#00ff00;stroke:none;stroke-width:0;stroke-linecap:round;stroke-linejoin:round;fill-opacity:1"
     id="g40">
    <g
       id="circle38"
       style="fill:#00ff00;fill-opacity:1;stroke:none">
      <path
         style="color:#000000;stroke:none;stroke-linecap:butt;stroke-linejoin:miter;-inkscape-stroke:none;fill:#00ff00;fill-opacity:1"
         d="m 65867.023,45968.5 a 629.92102,629.92102 0 0 1 -629.921,629.921 629.92102,629.92102 0 0 1 -629.921,-629.921 629.92102,629.92102 0 0 1 629.921,-629.921 629.92102,629.92102 0 0 1 629.921,629.921 z"
         id="path1311" />
      <path
         style="color:#000000;stroke:none;stroke-linecap:butt;stroke-linejoin:miter;-inkscape-stroke:none;fill:#00ff00;fill-opacity:1"
         d="m 65867.023,45968.5 c 0,167.065 -66.367,327.288 -184.5,445.421 -118.133,118.133 -278.356,184.5 -445.421,184.5 -167.065,0 -327.288,-66.367 -445.421,-184.5 -118.133,-118.133 -184.5,-278.356 -184.5,-445.421 0,-167.065 66.367,-327.288 184.5,-445.421 118.133,-118.133 278.356,-184.5 445.421,-184.5 167.065,0 327.288,66.367 445.421,184.5 118.133,118.133 184.5,278.356 184.5,445.421 z"
         id="path1313" />
    </g>
  </g>
  <g
     style="fill:#000000;fill-opacity:1;stroke:#000000;stroke-width:39.3701;stroke-linecap:round;stroke-linejoin:round;stroke-opacity:1"
     id="g42" />
  <g
     style="fill:#00ff00;stroke:none;stroke-width:0;stroke-linecap:round;stroke-linejoin:round;fill-opacity:1"
     id="g46">
    <g
       id="circle44"
       style="fill:#00ff00;fill-opacity:1;stroke:none">
      <path
         style="color:#000000;stroke:none;stroke-linecap:butt;stroke-linejoin:miter;-inkscape-stroke:none;fill:#00ff00;fill-opacity:1"
         d="m 65867.023,41468.5 a 629.92102,629.92102 0 0 1 -629.921,629.921 629.92102,629.92102 0 0 1 -629.921,-629.921 629.92102,629.92102 0 0 1 629.921,-629.921 629.92102,629.92102 0 0 1 629.921,629.921 z"
         id="path1305" />
      <path
         style="color:#000000;stroke:none;stroke-linecap:butt;stroke-linejoin:miter;-inkscape-stroke:none;fill:#00ff00;fill-opacity:1"
         d="m 65867.023,41468.5 c 0,167.065 -66.367,327.288 -184.5,445.421 -118.133,118.133 -278.356,184.5 -445.421,184.5 -167.065,0 -327.288,-66.367 -445.421,-184.5 -118.133,-118.133 -184.5,-278.356 -184.5,-445.421 0,-167.065 66.367,-327.288 184.5,-445.421 118.133,-118.133 278.356,-184.5 445.421,-184.5 167.065,0 327.288,66.367 445.421,184.5 118.133,118.133 184.5,278.356 184.5,445.421 z"
         id="path1307" />
    </g>
  </g>
  <g
     style="fill:#000000;fill-opacity:1;stroke:#000000;stroke-width:39.3701;stroke-linecap:round;stroke-linejoin:round;stroke-opacity:1"
     id="g48" />
  <g
     style="fill:#000000;fill-opacity:1;stroke:#000000;stroke-width:669.291;stroke-linecap:round;stroke-linejoin:round;stroke-opacity:1"
     id="g50" />
  <g
     style="fill:#00ff00;fill-opacity:1;stroke:none;stroke-width:669.291;stroke-linecap:round;stroke-linejoin:round"
     id="g68">
    <g
       id="path52"
       style="fill:#00ff00;fill-opacity:1;stroke:none">
      <path
         style="color:#000000;stroke:none;stroke-linecap:butt;stroke-linejoin:miter;-inkscape-stroke:none;fill:#00ff00;fill-opacity:1"
         d="m 62678,41968 h 118"
         id="path1149" />
      <path
         style="color:#000000;fill-opacity:1;stroke:none;stroke-linecap:butt;stroke-linejoin:miter;-inkscape-stroke:none;fill:#00ff00"
         d="M 62678,41633.355 A 334.64551,334.64551 0 0 0 62343.355,41968 334.64551,334.64551 0 0 0 62678,42302.645 h 118 A 334.64551,334.64551 0 0 0 63130.645,41968 334.64551,334.64551 0 0 0 62796,41633.355 Z"
         id="path1151" />
    </g>
    <g
       id="path54"
       style="fill:#00ff00;fill-opacity:1;stroke:none">
      <path
         style="color:#000000;stroke:none;stroke-linecap:butt;stroke-linejoin:miter;-inkscape-stroke:none;fill:#00ff00;fill-opacity:1"
         d="m 61678,42468 h 118"
         id="path1155" />
      <path
         style="color:#000000;fill-opacity:1;stroke:none;stroke-linecap:butt;stroke-linejoin:miter;-inkscape-stroke:none;fill:#00ff00"
         d="M 61678,42133.355 A 334.64551,334.64551 0 0 0 61343.355,42468 334.64551,334.64551 0 0 0 61678,42802.645 h 118 A 334.64551,334.64551 0 0 0 62130.645,42468 334.64551,334.64551 0 0 0 61796,42133.355 Z"
         id="path1157" />
    </g>
    <g
       id="path56"
       style="fill:#00ff00;fill-opacity:1;stroke:none">
      <path
         style="color:#000000;stroke:none;stroke-linecap:butt;stroke-linejoin:miter;-inkscape-stroke:none;fill:#00ff00;fill-opacity:1"
         d="m 62678,42968 h 118"
         id="path1161" />
      <path
         style="color:#000000;fill-opacity:1;stroke:none;stroke-linecap:butt;stroke-linejoin:miter;-inkscape-stroke:none;fill:#00ff00"
         d="M 62678,42633.355 A 334.64551,334.64551 0 0 0 62343.355,42968 334.64551,334.64551 0 0 0 62678,43302.645 h 118 A 334.64551,334.64551 0 0 0 63130.645,42968 334.64551,334.64551 0 0 0 62796,42633.355 Z"
         id="path1163" />
    </g>
    <g
       id="path58"
       style="fill:#00ff00;fill-opacity:1;stroke:none">
      <path
         style="color:#000000;stroke:none;stroke-linecap:butt;stroke-linejoin:miter;-inkscape-stroke:none;fill:#00ff00;fill-opacity:1"
         d="m 61678,43468 h 118"
         id="path1167" />
      <path
         style="color:#000000;fill-opacity:1;stroke:none;stroke-linecap:butt;stroke-linejoin:miter;-inkscape-stroke:none;fill:#00ff00"
         d="M 61678,43133.355 A 334.64551,334.64551 0 0 0 61343.355,43468 334.64551,334.64551 0 0 0 61678,43802.645 h 118 A 334.64551,334.64551 0 0 0 62130.645,43468 334.64551,334.64551 0 0 0 61796,43133.355 Z"
         id="path1169" />
    </g>
    <g
       id="path60"
       style="fill:#00ff00;fill-opacity:1;stroke:none">
      <path
         style="color:#000000;stroke:none;stroke-linecap:butt;stroke-linejoin:miter;-inkscape-stroke:none;fill:#00ff00;fill-opacity:1"
         d="m 62678,43968 h 118"
         id="path1173" />
      <path
         style="color:#000000;fill-opacity:1;stroke:none;stroke-linecap:butt;stroke-linejoin:miter;-inkscape-stroke:none;fill:#00ff00"
         d="M 62678,43633.355 A 334.64551,334.64551 0 0 0 62343.355,43968 334.64551,334.64551 0 0 0 62678,44302.645 h 118 A 334.64551,334.64551 0 0 0 63130.645,43968 334.64551,334.64551 0 0 0 62796,43633.355 Z"
         id="path1175" />
    </g>
    <g
       id="path62"
       style="fill:#00ff00;fill-opacity:1;stroke:none">
      <path
         style="color:#000000;stroke:none;stroke-linecap:butt;stroke-linejoin:miter;-inkscape-stroke:none;fill:#00ff00;fill-opacity:1"
         d="m 61678,44468 h 118"
         id="path1179" />
      <path
         style="color:#000000;fill-opacity:1;stroke:none;stroke-linecap:butt;stroke-linejoin:miter;-inkscape-stroke:none;fill:#00ff00"
         d="M 61678,44133.355 A 334.64551,334.64551 0 0 0 61343.355,44468 334.64551,334.64551 0 0 0 61678,44802.645 h 118 A 334.64551,334.64551 0 0 0 62130.645,44468 334.64551,334.64551 0 0 0 61796,44133.355 Z"
         id="path1181" />
    </g>
    <g
       id="path64"
       style="fill:#00ff00;fill-opacity:1;stroke:none">
      <path
         style="color:#000000;stroke:none;stroke-linecap:butt;stroke-linejoin:miter;-inkscape-stroke:none;fill:#00ff00;fill-opacity:1"
         d="m 62678,44968 h 118"
         id="path1185" />
      <path
         style="color:#000000;fill-opacity:1;stroke:none;stroke-linecap:butt;stroke-linejoin:miter;-inkscape-stroke:none;fill:#00ff00"
         d="M 62678,44633.355 A 334.64551,334.64551 0 0 0 62343.355,44968 334.64551,334.64551 0 0 0 62678,45302.645 h 118 A 334.64551,334.64551 0 0 0 63130.645,44968 334.64551,334.64551 0 0 0 62796,44633.355 Z"
         id="path1187" />
    </g>
    <g
       id="path66"
       style="fill:#00ff00;fill-opacity:1;stroke:none">
      <path
         style="color:#000000;stroke:none;stroke-linecap:butt;stroke-linejoin:miter;-inkscape-stroke:none;fill:#00ff00;fill-opacity:1"
         d="m 61678,45468 h 118"
         id="path1191" />
      <path
         style="color:#000000;fill-opacity:1;stroke:none;stroke-linecap:butt;stroke-linejoin:miter;-inkscape-stroke:none;fill:#00ff00"
         d="M 61678,45133.355 A 334.64551,334.64551 0 0 0 61343.355,45468 334.64551,334.64551 0 0 0 61678,45802.645 h 118 A 334.64551,334.64551 0 0 0 62130.645,45468 334.64551,334.64551 0 0 0 61796,45133.355 Z"
         id="path1193" />
    </g>
  </g>
  <g
     id="g70"
     style="fill:#000000;fill-opacity:0;stroke:#000000;stroke-width:39.3701;stroke-linecap:round;stroke-linejoin:round;stroke-opacity:1" />
  <g
     style="fill:#000000;fill-opacity:0;stroke:#000000;stroke-width:669.291;stroke-linecap:round;stroke-linejoin:round;stroke-opacity:1"
     id="g72" />
  <g
     style="fill:#00ff00;stroke:none;stroke-width:0;stroke-linecap:round;stroke-linejoin:round;fill-opacity:1"
     id="g76">
    <g
       id="circle74"
       style="fill:#00ff00;fill-opacity:1;stroke:none">
      <path
         style="color:#000000;stroke:none;stroke-linecap:butt;stroke-linejoin:miter;-inkscape-stroke:none;fill:#00ff00;fill-opacity:1"
         d="m 53737.12,47933.102 a 629.92102,629.92102 0 0 1 -629.921,629.921 629.92102,629.92102 0 0 1 -629.921,-629.921 629.92102,629.92102 0 0 1 629.921,-629.921 629.92102,629.92102 0 0 1 629.921,629.921 z"
         id="path1323" />
      <path
         style="color:#000000;stroke:none;stroke-linecap:butt;stroke-linejoin:miter;-inkscape-stroke:none;fill:#00ff00;fill-opacity:1"
         d="m 53737.12,47933.102 c 0,167.065 -66.367,327.288 -184.5,445.421 -118.133,118.133 -278.356,184.5 -445.421,184.5 -167.065,0 -327.288,-66.367 -445.421,-184.5 -118.133,-118.133 -184.5,-278.356 -184.5,-445.421 0,-167.065 66.367,-327.288 184.5,-445.421 118.133,-118.133 278.356,-184.5 445.421,-184.5 167.065,0 327.288,66.367 445.421,184.5 118.133,118.133 184.5,278.356 184.5,445.421 z"
         id="path1325" />
    </g>
  </g>
  <g
     style="fill:#000000;fill-opacity:1;stroke:#000000;stroke-width:39.3701;stroke-linecap:round;stroke-linejoin:round;stroke-opacity:1"
     id="g78" />
  <g
     style="fill:#00ff00;stroke:none;stroke-width:0;stroke-linecap:round;stroke-linejoin:round;fill-opacity:1"
     id="g82">
    <g
       id="circle80"
       style="fill:#00ff00;fill-opacity:1;stroke:none">
      <path
         style="color:#000000;stroke:none;stroke-linecap:butt;stroke-linejoin:miter;-inkscape-stroke:none;fill:#00ff00;fill-opacity:1"
         d="m 58237.12,47933.102 a 629.92102,629.92102 0 0 1 -629.921,629.921 629.92102,629.92102 0 0 1 -629.921,-629.921 629.92102,629.92102 0 0 1 629.921,-629.921 629.92102,629.92102 0 0 1 629.921,629.921 z"
         id="path1317" />
      <path
         style="color:#000000;stroke:none;stroke-linecap:butt;stroke-linejoin:miter;-inkscape-stroke:none;fill:#00ff00;fill-opacity:1"
         d="m 58237.12,47933.102 c 0,167.065 -66.367,327.288 -184.5,445.421 -118.133,118.133 -278.356,184.5 -445.421,184.5 -167.065,0 -327.288,-66.367 -445.421,-184.5 -118.133,-118.133 -184.5,-278.356 -184.5,-445.421 0,-167.065 66.367,-327.288 184.5,-445.421 118.133,-118.133 278.356,-184.5 445.421,-184.5 167.065,0 327.288,66.367 445.421,184.5 118.133,118.133 184.5,278.356 184.5,445.421 z"
         id="path1319" />
    </g>
  </g>
  <g
     style="fill:#000000;fill-opacity:1;stroke:#000000;stroke-width:39.3701;stroke-linecap:round;stroke-linejoin:round;stroke-opacity:1"
     id="g84" />
  <g
     style="fill:#000000;fill-opacity:1;stroke:#000000;stroke-width:669.291;stroke-linecap:round;stroke-linejoin:round;stroke-opacity:1"
     id="g86" />
  <g
     style="fill:#00ff00;fill-opacity:1;stroke:none;stroke-width:669.291;stroke-linecap:round;stroke-linejoin:round"
     id="g104">
    <g
       id="path88"
       style="fill:#00ff00;fill-opacity:1;stroke:none">
      <path
         style="color:#000000;stroke:none;stroke-linecap:butt;stroke-linejoin:miter;-inkscape-stroke:none;fill:#00ff00;fill-opacity:1"
         d="m 57107,45374 v 118"
         id="path1197" />
      <path
         style="color:#000000;fill-opacity:1;stroke:none;stroke-linecap:butt;stroke-linejoin:miter;-inkscape-stroke:none;fill:#00ff00"
         d="M 57107,45039.355 A 334.64551,334.64551 0 0 0 56772.355,45374 v 118 A 334.64551,334.64551 0 0 0 57107,45826.645 334.64551,334.64551 0 0 0 57441.645,45492 v -118 A 334.64551,334.64551 0 0 0 57107,45039.355 Z"
         id="path1199" />
    </g>
    <g
       id="path90"
       style="fill:#00ff00;fill-opacity:1;stroke:none">
      <path
         style="color:#000000;stroke:none;stroke-linecap:butt;stroke-linejoin:miter;-inkscape-stroke:none;fill:#00ff00;fill-opacity:1"
         d="m 56607,44374 v 118"
         id="path1203" />
      <path
         style="color:#000000;fill-opacity:1;stroke:none;stroke-linecap:butt;stroke-linejoin:miter;-inkscape-stroke:none;fill:#00ff00"
         d="M 56607,44039.355 A 334.64551,334.64551 0 0 0 56272.355,44374 v 118 A 334.64551,334.64551 0 0 0 56607,44826.645 334.64551,334.64551 0 0 0 56941.645,44492 v -118 A 334.64551,334.64551 0 0 0 56607,44039.355 Z"
         id="path1205" />
    </g>
    <g
       id="path92"
       style="fill:#00ff00;fill-opacity:1;stroke:none">
      <path
         style="color:#000000;stroke:none;stroke-linecap:butt;stroke-linejoin:miter;-inkscape-stroke:none;fill:#00ff00;fill-opacity:1"
         d="m 56107,45374 v 118"
         id="path1209" />
      <path
         style="color:#000000;fill-opacity:1;stroke:none;stroke-linecap:butt;stroke-linejoin:miter;-inkscape-stroke:none;fill:#00ff00"
         d="M 56107,45039.355 A 334.64551,334.64551 0 0 0 55772.355,45374 v 118 A 334.64551,334.64551 0 0 0 56107,45826.645 334.64551,334.64551 0 0 0 56441.645,45492 v -118 A 334.64551,334.64551 0 0 0 56107,45039.355 Z"
         id="path1211" />
    </g>
    <g
       id="path94"
       style="fill:#00ff00;fill-opacity:1;stroke:none">
      <path
         style="color:#000000;stroke:none;stroke-linecap:butt;stroke-linejoin:miter;-inkscape-stroke:none;fill:#00ff00;fill-opacity:1"
         d="m 55607,44374 v 118"
         id="path1215" />
      <path
         style="color:#000000;fill-opacity:1;stroke:none;stroke-linecap:butt;stroke-linejoin:miter;-inkscape-stroke:none;fill:#00ff00"
         d="M 55607,44039.355 A 334.64551,334.64551 0 0 0 55272.355,44374 v 118 A 334.64551,334.64551 0 0 0 55607,44826.645 334.64551,334.64551 0 0 0 55941.645,44492 v -118 A 334.64551,334.64551 0 0 0 55607,44039.355 Z"
         id="path1217" />
    </g>
    <g
       id="path96"
       style="fill:#00ff00;fill-opacity:1;stroke:none">
      <path
         style="color:#000000;stroke:none;stroke-linecap:butt;stroke-linejoin:miter;-inkscape-stroke:none;fill:#00ff00;fill-opacity:1"
         d="m 55107,45374 v 118"
         id="path1221" />
      <path
         style="color:#000000;fill-opacity:1;stroke:none;stroke-linecap:butt;stroke-linejoin:miter;-inkscape-stroke:none;fill:#00ff00"
         d="M 55107,45039.355 A 334.64551,334.64551 0 0 0 54772.355,45374 v 118 A 334.64551,334.64551 0 0 0 55107,45826.645 334.64551,334.64551 0 0 0 55441.645,45492 v -118 A 334.64551,334.64551 0 0 0 55107,45039.355 Z"
         id="path1223" />
    </g>
    <g
       id="path98"
       style="fill:#00ff00;fill-opacity:1;stroke:none">
      <path
         style="color:#000000;stroke:none;stroke-linecap:butt;stroke-linejoin:miter;-inkscape-stroke:none;fill:#00ff00;fill-opacity:1"
         d="m 54607,44374 v 118"
         id="path1227" />
      <path
         style="color:#000000;fill-opacity:1;stroke:none;stroke-linecap:butt;stroke-linejoin:miter;-inkscape-stroke:none;fill:#00ff00"
         d="M 54607,44039.355 A 334.64551,334.64551 0 0 0 54272.355,44374 v 118 A 334.64551,334.64551 0 0 0 54607,44826.645 334.64551,334.64551 0 0 0 54941.645,44492 v -118 A 334.64551,334.64551 0 0 0 54607,44039.355 Z"
         id="path1229" />
    </g>
    <g
       id="path100"
       style="fill:#00ff00;fill-opacity:1;stroke:none">
      <path
         style="color:#000000;stroke:none;stroke-linecap:butt;stroke-linejoin:miter;-inkscape-stroke:none;fill:#00ff00;fill-opacity:1"
         d="m 54107,45374 v 118"
         id="path1233" />
      <path
         style="color:#000000;fill-opacity:1;stroke:none;stroke-linecap:butt;stroke-linejoin:miter;-inkscape-stroke:none;fill:#00ff00"
         d="M 54107,45039.355 A 334.64551,334.64551 0 0 0 53772.355,45374 v 118 A 334.64551,334.64551 0 0 0 54107,45826.645 334.64551,334.64551 0 0 0 54441.645,45492 v -118 A 334.64551,334.64551 0 0 0 54107,45039.355 Z"
         id="path1235" />
    </g>
    <g
       id="path102"
       style="fill:#00ff00;fill-opacity:1;stroke:none">
      <path
         style="color:#000000;stroke:none;stroke-linecap:butt;stroke-linejoin:miter;-inkscape-stroke:none;fill:#00ff00;fill-opacity:1"
         d="m 53607,44374 v 118"
         id="path1239" />
      <path
         style="color:#000000;fill-opacity:1;stroke:none;stroke-linecap:butt;stroke-linejoin:miter;-inkscape-stroke:none;fill:#00ff00"
         d="M 53607,44039.355 A 334.64551,334.64551 0 0 0 53272.355,44374 v 118 A 334.64551,334.64551 0 0 0 53607,44826.645 334.64551,334.64551 0 0 0 53941.645,44492 v -118 A 334.64551,334.64551 0 0 0 53607,44039.355 Z"
         id="path1241" />
    </g>
  </g>
  <g
     id="g106"
     style="fill:#000000;fill-opacity:0;stroke:#000000;stroke-width:39.3701;stroke-linecap:round;stroke-linejoin:round;stroke-opacity:1" />
  <g
     style="fill:#00ff00;fill-opacity:1;stroke:none;stroke-width:669.291;stroke-linecap:round;stroke-linejoin:round"
     id="g124">
    <g
       id="path108"
       style="fill:#00ff00;fill-opacity:1;stroke:none">
      <path
         style="color:#000000;stroke:none;stroke-linecap:butt;stroke-linejoin:miter;-inkscape-stroke:none;fill:#00ff00;fill-opacity:1"
         d="m 57122,43047 v -118"
         id="path1245" />
      <path
         style="color:#000000;fill-opacity:1;stroke:none;stroke-linecap:butt;stroke-linejoin:miter;-inkscape-stroke:none;fill:#00ff00"
         d="M 57122,42594.355 A 334.64551,334.64551 0 0 0 56787.355,42929 v 118 A 334.64551,334.64551 0 0 0 57122,43381.645 334.64551,334.64551 0 0 0 57456.645,43047 v -118 A 334.64551,334.64551 0 0 0 57122,42594.355 Z"
         id="path1247" />
    </g>
    <g
       id="path110"
       style="fill:#00ff00;fill-opacity:1;stroke:none">
      <path
         style="color:#000000;stroke:none;stroke-linecap:butt;stroke-linejoin:miter;-inkscape-stroke:none;fill:#00ff00;fill-opacity:1"
         d="m 56622,42047 v -118"
         id="path1251" />
      <path
         style="color:#000000;fill-opacity:1;stroke:none;stroke-linecap:butt;stroke-linejoin:miter;-inkscape-stroke:none;fill:#00ff00"
         d="M 56622,41594.355 A 334.64551,334.64551 0 0 0 56287.355,41929 v 118 A 334.64551,334.64551 0 0 0 56622,42381.645 334.64551,334.64551 0 0 0 56956.645,42047 v -118 A 334.64551,334.64551 0 0 0 56622,41594.355 Z"
         id="path1253" />
    </g>
    <g
       id="path112"
       style="fill:#00ff00;fill-opacity:1;stroke:none">
      <path
         style="color:#000000;stroke:none;stroke-linecap:butt;stroke-linejoin:miter;-inkscape-stroke:none;fill:#00ff00;fill-opacity:1"
         d="m 56122,43047 v -118"
         id="path1257" />
      <path
         style="color:#000000;fill-opacity:1;stroke:none;stroke-linecap:butt;stroke-linejoin:miter;-inkscape-stroke:none;fill:#00ff00"
         d="M 56122,42594.355 A 334.64551,334.64551 0 0 0 55787.355,42929 v 118 A 334.64551,334.64551 0 0 0 56122,43381.645 334.64551,334.64551 0 0 0 56456.645,43047 v -118 A 334.64551,334.64551 0 0 0 56122,42594.355 Z"
         id="path1259" />
    </g>
    <g
       id="path114"
       style="fill:#00ff00;fill-opacity:1;stroke:none">
      <path
         style="color:#000000;stroke:none;stroke-linecap:butt;stroke-linejoin:miter;-inkscape-stroke:none;fill:#00ff00;fill-opacity:1"
         d="m 55622,42047 v -118"
         id="path1263" />
      <path
         style="color:#000000;fill-opacity:1;stroke:none;stroke-linecap:butt;stroke-linejoin:miter;-inkscape-stroke:none;fill:#00ff00"
         d="M 55622,41594.355 A 334.64551,334.64551 0 0 0 55287.355,41929 v 118 A 334.64551,334.64551 0 0 0 55622,42381.645 334.64551,334.64551 0 0 0 55956.645,42047 v -118 A 334.64551,334.64551 0 0 0 55622,41594.355 Z"
         id="path1265" />
    </g>
    <g
       id="path116"
       style="fill:#00ff00;fill-opacity:1;stroke:none">
      <path
         style="color:#000000;stroke:none;stroke-linecap:butt;stroke-linejoin:miter;-inkscape-stroke:none;fill:#00ff00;fill-opacity:1"
         d="m 55122,43047 v -118"
         id="path1269" />
      <path
         style="color:#000000;fill-opacity:1;stroke:none;stroke-linecap:butt;stroke-linejoin:miter;-inkscape-stroke:none;fill:#00ff00"
         d="M 55122,42594.355 A 334.64551,334.64551 0 0 0 54787.355,42929 v 118 A 334.64551,334.64551 0 0 0 55122,43381.645 334.64551,334.64551 0 0 0 55456.645,43047 v -118 A 334.64551,334.64551 0 0 0 55122,42594.355 Z"
         id="path1271" />
    </g>
    <g
       id="path118"
       style="fill:#00ff00;fill-opacity:1;stroke:none">
      <path
         style="color:#000000;stroke:none;stroke-linecap:butt;stroke-linejoin:miter;-inkscape-stroke:none;fill:#00ff00;fill-opacity:1"
         d="m 54622,42047 v -118"
         id="path1275" />
      <path
         style="color:#000000;fill-opacity:1;stroke:none;stroke-linecap:butt;stroke-linejoin:miter;-inkscape-stroke:none;fill:#00ff00"
         d="M 54622,41594.355 A 334.64551,334.64551 0 0 0 54287.355,41929 v 118 A 334.64551,334.64551 0 0 0 54622,42381.645 334.64551,334.64551 0 0 0 54956.645,42047 v -118 A 334.64551,334.64551 0 0 0 54622,41594.355 Z"
         id="path1277" />
    </g>
    <g
       id="path120"
       style="fill:#00ff00;fill-opacity:1;stroke:none">
      <path
         style="color:#000000;stroke:none;stroke-linecap:butt;stroke-linejoin:miter;-inkscape-stroke:none;fill:#00ff00;fill-opacity:1"
         d="m 54122,43047 v -118"
         id="path1281" />
      <path
         style="color:#000000;fill-opacity:1;stroke:none;stroke-linecap:butt;stroke-linejoin:miter;-inkscape-stroke:none;fill:#00ff00"
         d="M 54122,42594.355 A 334.64551,334.64551 0 0 0 53787.355,42929 v 118 A 334.64551,334.64551 0 0 0 54122,43381.645 334.64551,334.64551 0 0 0 54456.645,43047 v -118 A 334.64551,334.64551 0 0 0 54122,42594.355 Z"
         id="path1283" />
    </g>
    <g
       id="path122"
       style="fill:#00ff00;fill-opacity:1;stroke:none">
      <path
         style="color:#000000;stroke:none;stroke-linecap:butt;stroke-linejoin:miter;-inkscape-stroke:none;fill:#00ff00;fill-opacity:1"
         d="m 53622,42047 v -118"
         id="path1287" />
      <path
         style="color:#000000;fill-opacity:1;stroke:none;stroke-linecap:butt;stroke-linejoin:miter;-inkscape-stroke:none;fill:#00ff00"
         d="M 53622,41594.355 A 334.64551,334.64551 0 0 0 53287.355,41929 v 118 A 334.64551,334.64551 0 0 0 53622,42381.645 334.64551,334.64551 0 0 0 53956.645,42047 v -118 A 334.64551,334.64551 0 0 0 53622,41594.355 Z"
         id="path1289" />
    </g>
  </g>
  <g
     style="fill:#00ff00;stroke:none;stroke-width:0;stroke-linecap:round;stroke-linejoin:round;fill-opacity:1"
     id="g128">
    <g
       id="circle126"
       style="fill:#00ff00;fill-opacity:1;stroke:none">
      <path
         style="color:#000000;stroke:none;stroke-linecap:butt;stroke-linejoin:miter;-inkscape-stroke:none;fill:#00ff00;fill-opacity:1"
         d="m 53752.819,39488.199 a 629.92102,629.92102 0 0 1 -629.921,629.921 629.92102,629.92102 0 0 1 -629.921,-629.921 629.92102,629.92102 0 0 1 629.921,-629.921 629.92102,629.92102 0 0 1 629.921,629.921 z"
         id="path1293" />
      <path
         style="color:#000000;stroke:none;stroke-linecap:butt;stroke-linejoin:miter;-inkscape-stroke:none;fill:#00ff00;fill-opacity:1"
         d="m 53752.819,39488.199 c 0,167.065 -66.367,327.288 -184.5,445.421 -118.133,118.133 -278.356,184.5 -445.421,184.5 -167.065,0 -327.288,-66.367 -445.421,-184.5 -118.133,-118.133 -184.5,-278.356 -184.5,-445.421 0,-167.065 66.367,-327.288 184.5,-445.421 118.133,-118.133 278.356,-184.5 445.421,-184.5 167.065,0 327.288,66.367 445.421,184.5 118.133,118.133 184.5,278.356 184.5,445.421 z"
         id="path1295" />
    </g>
  </g>
  <g
     style="fill:#000000;fill-opacity:1;stroke:#000000;stroke-width:39.3701;stroke-linecap:round;stroke-linejoin:round;stroke-opacity:1"
     id="g130" />
  <g
     style="fill:#00ff00;stroke:none;stroke-width:0;stroke-linecap:round;stroke-linejoin:round;fill-opacity:1"
     id="g134">
    <g
       id="circle132"
       style="fill:#00ff00;fill-opacity:1;stroke:none">
      <path
         style="color:#000000;stroke:none;stroke-linecap:butt;stroke-linejoin:miter;-inkscape-stroke:none;fill:#00ff00;fill-opacity:1"
         d="m 58252.819,39488.199 a 629.92102,629.92102 0 0 1 -629.921,629.921 629.92102,629.92102 0 0 1 -629.921,-629.921 629.92102,629.92102 0 0 1 629.921,-629.921 629.92102,629.92102 0 0 1 629.921,629.921 z"
         id="path1299" />
      <path
         style="color:#000000;stroke:none;stroke-linecap:butt;stroke-linejoin:miter;-inkscape-stroke:none;fill:#00ff00;fill-opacity:1"
         d="m 58252.819,39488.199 c 0,167.065 -66.367,327.288 -184.5,445.421 -118.133,118.133 -278.356,184.5 -445.421,184.5 -167.065,0 -327.288,-66.367 -445.421,-184.5 -118.133,-118.133 -184.5,-278.356 -184.5,-445.421 0,-167.065 66.367,-327.288 184.5,-445.421 118.133,-118.133 278.356,-184.5 445.421,-184.5 167.065,0 327.288,66.367 445.421,184.5 118.133,118.133 184.5,278.356 184.5,445.421 z"
         id="path1301" />
    </g>
  </g>
  <g
     style="fill:#000000;fill-opacity:1;stroke:#000000;stroke-width:39.3701;stroke-linecap:round;stroke-linejoin:round;stroke-opacity:1"
     id="g136" />
  <g
     id="g138"
     style="fill:#000000;fill-opacity:0;stroke:#000000;stroke-width:39.3701;stroke-linecap:round;stroke-linejoin:round;stroke-opacity:1" />
  <g
     id="g140"
     style="fill:#000000;fill-opacity:0;stroke:#000000;stroke-width:39.3701;stroke-linecap:round;stroke-linejoin:round;stroke-opacity:1" />
  <g
     id="g142"
     style="fill:#000000;fill-opacity:0;stroke:#000000;stroke-width:39.3701;stroke-linecap:round;stroke-linejoin:round;stroke-opacity:1" />
</svg>
