<?xml version="1.0" encoding="UTF-8" standalone="no"?>
<svg
   version="1.1"
   width="29.700220cm"
   height="21.000720cm"
   viewBox="0 0 116930 82680"
   id="svg1205"
   sodipodi:docname="keys-B_Paste.svg"
   inkscape:version="1.1.1 (3bf5ae0d25, 2021-09-20)"
   xmlns:inkscape="http://www.inkscape.org/namespaces/inkscape"
   xmlns:sodipodi="http://sodipodi.sourceforge.net/DTD/sodipodi-0.dtd"
   xmlns="http://www.w3.org/2000/svg"
   xmlns:svg="http://www.w3.org/2000/svg">
  <defs
     id="defs1209" />
  <sodipodi:namedview
     id="namedview1207"
     pagecolor="#ffffff"
     bordercolor="#666666"
     borderopacity="1.0"
     inkscape:pageshadow="2"
     inkscape:pageopacity="0.0"
     inkscape:pagecheckerboard="0"
     inkscape:document-units="cm"
     showgrid="false"
     inkscape:zoom="6.2075677"
     inkscape:cx="718.63897"
     inkscape:cy="442.28273"
     inkscape:window-width="1461"
     inkscape:window-height="1080"
     inkscape:window-x="235"
     inkscape:window-y="0"
     inkscape:window-maximized="0"
     inkscape:current-layer="svg1205" />
  <title
     id="title1099">SVG Picture created as keys-B_Paste.svg date 2022/04/01 14:26:03 </title>
  <desc
     id="desc1101">Picture generated by PCBNEW </desc>
  <g
     style="fill:#000000; fill-opacity:1;stroke:#000000; stroke-opacity:1; stroke-linecap:round; stroke-linejoin:round;"
     transform="translate(0 0) scale(1 1)"
     id="g1103" />
  <g
     style="fill:#000000; fill-opacity:0.0;  stroke:#000000; stroke-width:-0.000393701; stroke-opacity:1;  stroke-linecap:round; stroke-linejoin:round;"
     id="g1105" />
  <path
     d="M 85237,29921 H 67914"
     id="path1107"
     style="fill:none;fill-opacity:0;stroke:#ff0000;stroke-width:19.6850404;stroke-linecap:round;stroke-linejoin:round;stroke-opacity:1;stroke-miterlimit:4;stroke-dasharray:none" />
  <path
     d="M 85237,49015 V 29921"
     id="path1109"
     style="fill:none;fill-opacity:0;stroke:#ff0000;stroke-width:19.6850404;stroke-linecap:round;stroke-linejoin:round;stroke-opacity:1;stroke-miterlimit:4;stroke-dasharray:none" />
  <path
     d="M 67914,49015 H 85237"
     id="path1111"
     style="fill:none;fill-opacity:0;stroke:#ff0000;stroke-width:19.6850404;stroke-linecap:round;stroke-linejoin:round;stroke-opacity:1;stroke-miterlimit:4;stroke-dasharray:none" />
  <path
     d="M 67914,29921 V 49015"
     id="path1113"
     style="fill:none;fill-opacity:0;stroke:#ff0000;stroke-width:19.6850404;stroke-linecap:round;stroke-linejoin:round;stroke-opacity:1;stroke-miterlimit:4;stroke-dasharray:none" />
  <path
     d="m 72441,47047 h 1378"
     id="path1115"
     style="fill:none;fill-opacity:0;stroke:#ffff00;stroke-width:19.685;stroke-linecap:round;stroke-linejoin:round;stroke-opacity:1" />
  <path
     d="m 72441,44685 v 2362"
     id="path1117"
     style="fill:none;fill-opacity:0;stroke:#ffff00;stroke-width:19.685;stroke-linecap:round;stroke-linejoin:round;stroke-opacity:1" />
  <path
     d="m 69882,44685 h 2559"
     id="path1119"
     style="fill:none;fill-opacity:0;stroke:#ffff00;stroke-width:19.685;stroke-linecap:round;stroke-linejoin:round;stroke-opacity:1" />
  <path
     d="m 83268,31889 v 8386"
     id="path1121"
     style="fill:none;fill-opacity:0;stroke:#ffff00;stroke-width:19.685;stroke-linecap:round;stroke-linejoin:round;stroke-opacity:1" />
  <path
     d="M 69882,31889 H 83268"
     id="path1123"
     style="fill:none;fill-opacity:0;stroke:#ffff00;stroke-width:19.685;stroke-linecap:round;stroke-linejoin:round;stroke-opacity:1" />
  <path
     d="M 69882,33661 V 31889"
     id="path1125"
     style="fill:none;fill-opacity:0;stroke:#ffff00;stroke-width:19.685;stroke-linecap:round;stroke-linejoin:round;stroke-opacity:1" />
  <path
     d="M 69882,44685 V 33661"
     id="path1127"
     style="fill:none;fill-opacity:0;stroke:#ffff00;stroke-width:19.685;stroke-linecap:round;stroke-linejoin:round;stroke-opacity:1" />
  <path
     d="M 83268,47047 H 73819"
     id="path1129"
     style="fill:none;fill-opacity:0;stroke:#ffff00;stroke-width:19.685;stroke-linecap:round;stroke-linejoin:round;stroke-opacity:1" />
  <path
     d="m 83268,40275 v 6772"
     id="path1131"
     style="fill:none;fill-opacity:0;stroke:#ffff00;stroke-width:19.685;stroke-linecap:round;stroke-linejoin:round;stroke-opacity:1" />
  <g
     id="g1133"
     style="fill:#000000;fill-opacity:0;stroke:#000000;stroke-width:19.685;stroke-linecap:round;stroke-linejoin:round;stroke-opacity:1" />
  <g
     id="g1135"
     style="fill:#000000;fill-opacity:0;stroke:#000000;stroke-width:19.685;stroke-linecap:round;stroke-linejoin:round;stroke-opacity:1" />
  <g
     id="g1137"
     style="fill:#000000;fill-opacity:0;stroke:#000000;stroke-width:19.685;stroke-linecap:round;stroke-linejoin:round;stroke-opacity:1" />
  <g
     id="g1139"
     style="fill:#000000;fill-opacity:0;stroke:#000000;stroke-width:19.685;stroke-linecap:round;stroke-linejoin:round;stroke-opacity:1" />
  <g
     id="g1141"
     style="fill:#000000;fill-opacity:0;stroke:#000000;stroke-width:19.685;stroke-linecap:round;stroke-linejoin:round;stroke-opacity:1" />
  <g
     style="fill:#000000;fill-opacity:0;stroke:#000000;stroke-width:19.685;stroke-linecap:round;stroke-linejoin:round;stroke-opacity:1"
     id="g1143" />
  <g
     style="fill:#000000;fill-opacity:0;stroke:#000000;stroke-width:0;stroke-linecap:round;stroke-linejoin:round;stroke-opacity:1"
     id="g1145" />
  <g
     style="fill:#000000;stroke:none;stroke-width:0;stroke-linecap:round;stroke-linejoin:round"
     id="g1151">
    <g
       id="path1147"
       style="stroke:none">
      <path
         style="color:#000000;fill-rule:evenodd;stroke:none;-inkscape-stroke:none"
         d="m 74538.5,40984.7 -9.6,1.4 -9.4,2.4 -9.1,3.2 -8.7,4.2 -8.3,4.9 -7.7,5.8 -7.2,6.5 -6.5,7.1 -5.7,7.8 -5,8.3 -4.1,8.7 -3.3,9.1 -2.3,9.4 -1.4,9.5 -0.5,9.7 v 354.3 l 0.5,9.7 1.4,9.5 2.3,9.4 3.3,9.1 4.1,8.7 5,8.3 5.7,7.7 6.5,7.2 7.2,6.5 7.7,5.7 8.3,5 8.7,4.1 9.1,3.3 9.4,2.3 9.6,1.5 9.6,0.4 h 275.6 l 9.6,-0.4 9.6,-1.5 9.4,-2.3 9.1,-3.3 8.7,-4.1 8.3,-5 7.7,-5.7 7.2,-6.5 6.5,-7.2 5.7,-7.7 5,-8.3 4.1,-8.7 3.3,-9.1 2.3,-9.4 1.5,-9.5 0.4,-9.7 v -354.3 l -0.4,-9.7 -1.5,-9.5 -2.3,-9.4 -3.3,-9.1 -4.1,-8.7 -5,-8.3 -5.7,-7.8 -6.5,-7.1 -7.2,-6.5 -7.7,-5.8 -8.3,-4.9 -8.7,-4.2 -9.1,-3.2 -9.4,-2.4 -9.6,-1.4 -9.6,-0.4 h -275.6 z"
         id="path1408" />
      <path
         style="color:#000000;fill-rule:evenodd;stroke:none;-inkscape-stroke:none"
         d="m 74538.5,40984.7 -9.6,1.4 -9.4,2.4 -9.1,3.2 -8.7,4.2 -8.3,4.9 -7.7,5.8 -7.2,6.5 -6.5,7.1 -5.7,7.8 -5,8.3 -4.1,8.7 -3.3,9.1 -2.3,9.4 -1.4,9.5 -0.5,9.7 v 354.3 l 0.5,9.7 1.4,9.5 2.3,9.4 3.3,9.1 4.1,8.7 5,8.3 5.7,7.7 6.5,7.2 7.2,6.5 7.7,5.7 8.3,5 8.7,4.1 9.1,3.3 9.4,2.3 9.6,1.5 9.6,0.4 h 275.6 l 9.6,-0.4 9.6,-1.5 9.4,-2.3 9.1,-3.3 8.7,-4.1 8.3,-5 7.7,-5.7 7.2,-6.5 6.5,-7.2 5.7,-7.7 5,-8.3 4.1,-8.7 3.3,-9.1 2.3,-9.4 1.5,-9.5 0.4,-9.7 v -354.3 l -0.4,-9.7 -1.5,-9.5 -2.3,-9.4 -3.3,-9.1 -4.1,-8.7 -5,-8.3 -5.7,-7.8 -6.5,-7.1 -7.2,-6.5 -7.7,-5.8 -8.3,-4.9 -8.7,-4.2 -9.1,-3.2 -9.4,-2.4 -9.6,-1.4 -9.6,-0.4 h -275.6 z"
         id="path1410" />
    </g>
    <g
       id="path1149"
       style="stroke:none">
      <path
         style="color:#000000;fill-rule:evenodd;stroke:none;-inkscape-stroke:none"
         d="m 75325.9,40984.7 -9.6,1.4 -9.4,2.4 -9.1,3.2 -8.7,4.2 -8.3,4.9 -7.7,5.8 -7.2,6.5 -6.5,7.1 -5.7,7.8 -5,8.3 -4.1,8.7 -3.3,9.1 -2.3,9.4 -1.4,9.5 -0.5,9.7 v 354.3 l 0.5,9.7 1.4,9.5 2.3,9.4 3.3,9.1 4.1,8.7 5,8.3 5.7,7.7 6.5,7.2 7.2,6.5 7.7,5.7 8.3,5 8.7,4.1 9.1,3.3 9.4,2.3 9.6,1.5 9.6,0.4 h 275.6 l 9.7,-0.4 9.5,-1.5 9.4,-2.3 9.1,-3.3 8.7,-4.1 8.3,-5 7.7,-5.7 7.2,-6.5 6.5,-7.2 5.7,-7.7 5,-8.3 4.1,-8.7 3.3,-9.1 2.3,-9.4 1.5,-9.5 0.4,-9.7 v -354.3 l -0.4,-9.7 -1.5,-9.5 -2.3,-9.4 -3.3,-9.1 -4.1,-8.7 -5,-8.3 -5.7,-7.8 -6.5,-7.1 -7.2,-6.5 -7.7,-5.8 -8.3,-4.9 -8.7,-4.2 -9.1,-3.2 -9.4,-2.4 -9.5,-1.4 -9.7,-0.4 h -275.6 z"
         id="path1414" />
      <path
         style="color:#000000;fill-rule:evenodd;stroke:none;-inkscape-stroke:none"
         d="m 75325.9,40984.7 -9.6,1.4 -9.4,2.4 -9.1,3.2 -8.7,4.2 -8.3,4.9 -7.7,5.8 -7.2,6.5 -6.5,7.1 -5.7,7.8 -5,8.3 -4.1,8.7 -3.3,9.1 -2.3,9.4 -1.4,9.5 -0.5,9.7 v 354.3 l 0.5,9.7 1.4,9.5 2.3,9.4 3.3,9.1 4.1,8.7 5,8.3 5.7,7.7 6.5,7.2 7.2,6.5 7.7,5.7 8.3,5 8.7,4.1 9.1,3.3 9.4,2.3 9.6,1.5 9.6,0.4 h 275.6 l 9.7,-0.4 9.5,-1.5 9.4,-2.3 9.1,-3.3 8.7,-4.1 8.3,-5 7.7,-5.7 7.2,-6.5 6.5,-7.2 5.7,-7.7 5,-8.3 4.1,-8.7 3.3,-9.1 2.3,-9.4 1.5,-9.5 0.4,-9.7 v -354.3 l -0.4,-9.7 -1.5,-9.5 -2.3,-9.4 -3.3,-9.1 -4.1,-8.7 -5,-8.3 -5.7,-7.8 -6.5,-7.1 -7.2,-6.5 -7.7,-5.8 -8.3,-4.9 -8.7,-4.2 -9.1,-3.2 -9.4,-2.4 -9.5,-1.4 -9.7,-0.4 h -275.6 z"
         id="path1416" />
    </g>
  </g>
  <g
     id="g1153"
     style="fill:#000000;fill-opacity:0;stroke:#000000;stroke-width:19.685;stroke-linecap:round;stroke-linejoin:round;stroke-opacity:1" />
  <g
     style="fill:#000000;stroke:none;stroke-width:0;stroke-linecap:round;stroke-linejoin:round"
     id="g1159">
    <g
       id="path1155"
       style="stroke:none">
      <path
         style="color:#000000;fill-rule:evenodd;stroke:none;-inkscape-stroke:none"
         d="m 75325.9,39134.3 -9.6,1.4 -9.4,2.4 -9.1,3.3 -8.7,4.1 -8.3,4.9 -7.7,5.8 -7.2,6.5 -6.5,7.1 -5.7,7.8 -5,8.3 -4.1,8.7 -3.3,9.1 -2.3,9.4 -1.4,9.5 -0.5,9.7 v 354.3 l 0.5,9.7 1.4,9.5 2.3,9.4 3.3,9.1 4.1,8.7 5,8.3 5.7,7.8 6.5,7.1 7.2,6.5 7.7,5.8 8.3,4.9 8.7,4.1 9.1,3.3 9.4,2.3 9.6,1.5 9.6,0.4 h 275.6 l 9.7,-0.4 9.5,-1.5 9.4,-2.3 9.1,-3.3 8.7,-4.1 8.3,-4.9 7.7,-5.8 7.2,-6.5 6.5,-7.1 5.7,-7.8 5,-8.3 4.1,-8.7 3.3,-9.1 2.3,-9.4 1.5,-9.5 0.4,-9.7 v -354.3 l -0.4,-9.7 -1.5,-9.5 -2.3,-9.4 -3.3,-9.1 -4.1,-8.7 -5,-8.3 -5.7,-7.8 -6.5,-7.1 -7.2,-6.5 -7.7,-5.8 -8.3,-4.9 -8.7,-4.1 -9.1,-3.3 -9.4,-2.4 -9.5,-1.4 -9.7,-0.4 h -275.6 z"
         id="path1420" />
      <path
         style="color:#000000;fill-rule:evenodd;stroke:none;-inkscape-stroke:none"
         d="m 75325.9,39134.3 -9.6,1.4 -9.4,2.4 -9.1,3.3 -8.7,4.1 -8.3,4.9 -7.7,5.8 -7.2,6.5 -6.5,7.1 -5.7,7.8 -5,8.3 -4.1,8.7 -3.3,9.1 -2.3,9.4 -1.4,9.5 -0.5,9.7 v 354.3 l 0.5,9.7 1.4,9.5 2.3,9.4 3.3,9.1 4.1,8.7 5,8.3 5.7,7.8 6.5,7.1 7.2,6.5 7.7,5.8 8.3,4.9 8.7,4.1 9.1,3.3 9.4,2.3 9.6,1.5 9.6,0.4 h 275.6 l 9.7,-0.4 9.5,-1.5 9.4,-2.3 9.1,-3.3 8.7,-4.1 8.3,-4.9 7.7,-5.8 7.2,-6.5 6.5,-7.1 5.7,-7.8 5,-8.3 4.1,-8.7 3.3,-9.1 2.3,-9.4 1.5,-9.5 0.4,-9.7 v -354.3 l -0.4,-9.7 -1.5,-9.5 -2.3,-9.4 -3.3,-9.1 -4.1,-8.7 -5,-8.3 -5.7,-7.8 -6.5,-7.1 -7.2,-6.5 -7.7,-5.8 -8.3,-4.9 -8.7,-4.1 -9.1,-3.3 -9.4,-2.4 -9.5,-1.4 -9.7,-0.4 h -275.6 z"
         id="path1422" />
    </g>
    <g
       id="path1157"
       style="stroke:none">
      <path
         style="color:#000000;fill-rule:evenodd;stroke:none;-inkscape-stroke:none"
         d="m 74538.5,39134.3 -9.6,1.4 -9.4,2.4 -9.1,3.3 -8.7,4.1 -8.3,4.9 -7.7,5.8 -7.2,6.5 -6.5,7.1 -5.7,7.8 -5,8.3 -4.1,8.7 -3.3,9.1 -2.3,9.4 -1.4,9.5 -0.5,9.7 v 354.3 l 0.5,9.7 1.4,9.5 2.3,9.4 3.3,9.1 4.1,8.7 5,8.3 5.7,7.8 6.5,7.1 7.2,6.5 7.7,5.8 8.3,4.9 8.7,4.1 9.1,3.3 9.4,2.3 9.6,1.5 9.6,0.4 h 275.6 l 9.6,-0.4 9.6,-1.5 9.4,-2.3 9.1,-3.3 8.7,-4.1 8.3,-4.9 7.7,-5.8 7.2,-6.5 6.5,-7.1 5.7,-7.8 5,-8.3 4.1,-8.7 3.3,-9.1 2.3,-9.4 1.5,-9.5 0.4,-9.7 v -354.3 l -0.4,-9.7 -1.5,-9.5 -2.3,-9.4 -3.3,-9.1 -4.1,-8.7 -5,-8.3 -5.7,-7.8 -6.5,-7.1 -7.2,-6.5 -7.7,-5.8 -8.3,-4.9 -8.7,-4.1 -9.1,-3.3 -9.4,-2.4 -9.6,-1.4 -9.6,-0.4 h -275.6 z"
         id="path1426" />
      <path
         style="color:#000000;fill-rule:evenodd;stroke:none;-inkscape-stroke:none"
         d="m 74538.5,39134.3 -9.6,1.4 -9.4,2.4 -9.1,3.3 -8.7,4.1 -8.3,4.9 -7.7,5.8 -7.2,6.5 -6.5,7.1 -5.7,7.8 -5,8.3 -4.1,8.7 -3.3,9.1 -2.3,9.4 -1.4,9.5 -0.5,9.7 v 354.3 l 0.5,9.7 1.4,9.5 2.3,9.4 3.3,9.1 4.1,8.7 5,8.3 5.7,7.8 6.5,7.1 7.2,6.5 7.7,5.8 8.3,4.9 8.7,4.1 9.1,3.3 9.4,2.3 9.6,1.5 9.6,0.4 h 275.6 l 9.6,-0.4 9.6,-1.5 9.4,-2.3 9.1,-3.3 8.7,-4.1 8.3,-4.9 7.7,-5.8 7.2,-6.5 6.5,-7.1 5.7,-7.8 5,-8.3 4.1,-8.7 3.3,-9.1 2.3,-9.4 1.5,-9.5 0.4,-9.7 v -354.3 l -0.4,-9.7 -1.5,-9.5 -2.3,-9.4 -3.3,-9.1 -4.1,-8.7 -5,-8.3 -5.7,-7.8 -6.5,-7.1 -7.2,-6.5 -7.7,-5.8 -8.3,-4.9 -8.7,-4.1 -9.1,-3.3 -9.4,-2.4 -9.6,-1.4 -9.6,-0.4 h -275.6 z"
         id="path1428" />
    </g>
  </g>
  <g
     id="g1161"
     style="fill:#000000;fill-opacity:0;stroke:#000000;stroke-width:19.685;stroke-linecap:round;stroke-linejoin:round;stroke-opacity:1" />
  <g
     style="fill:#000000;stroke:none;stroke-width:0;stroke-linecap:round;stroke-linejoin:round"
     id="g1167">
    <g
       id="path1163"
       style="stroke:none">
      <path
         style="color:#000000;fill-rule:evenodd;stroke:none;-inkscape-stroke:none"
         d="m 77373.1,41260.3 -9.5,1.4 -9.4,2.4 -9.1,3.2 -8.7,4.2 -8.3,4.9 -7.8,5.8 -7.1,6.5 -6.5,7.1 -5.8,7.8 -4.9,8.3 -4.2,8.7 -3.2,9.1 -2.4,9.4 -1.4,9.5 -0.5,9.7 v 354.3 l 0.5,9.6 1.4,9.6 2.4,9.4 3.2,9.1 4.2,8.7 4.9,8.3 5.8,7.7 6.5,7.2 7.1,6.5 7.8,5.7 8.3,5 8.7,4.1 9.1,3.3 9.4,2.3 9.5,1.4 9.7,0.5 h 275.5 l 9.7,-0.5 9.5,-1.4 9.4,-2.3 9.1,-3.3 8.7,-4.1 8.3,-5 7.8,-5.7 7.1,-6.5 6.5,-7.2 5.8,-7.7 4.9,-8.3 4.2,-8.7 3.2,-9.1 2.4,-9.4 1.4,-9.6 0.5,-9.6 v -354.3 l -0.5,-9.7 -1.4,-9.5 -2.4,-9.4 -3.2,-9.1 -4.2,-8.7 -4.9,-8.3 -5.8,-7.8 -6.5,-7.1 -7.1,-6.5 -7.8,-5.8 -8.3,-4.9 -8.7,-4.2 -9.1,-3.2 -9.4,-2.4 -9.5,-1.4 -9.7,-0.5 h -275.5 z"
         id="path1432" />
      <path
         style="color:#000000;fill-rule:evenodd;stroke:none;-inkscape-stroke:none"
         d="m 77373.1,41260.3 -9.5,1.4 -9.4,2.4 -9.1,3.2 -8.7,4.2 -8.3,4.9 -7.8,5.8 -7.1,6.5 -6.5,7.1 -5.8,7.8 -4.9,8.3 -4.2,8.7 -3.2,9.1 -2.4,9.4 -1.4,9.5 -0.5,9.7 v 354.3 l 0.5,9.6 1.4,9.6 2.4,9.4 3.2,9.1 4.2,8.7 4.9,8.3 5.8,7.7 6.5,7.2 7.1,6.5 7.8,5.7 8.3,5 8.7,4.1 9.1,3.3 9.4,2.3 9.5,1.4 9.7,0.5 h 275.5 l 9.7,-0.5 9.5,-1.4 9.4,-2.3 9.1,-3.3 8.7,-4.1 8.3,-5 7.8,-5.7 7.1,-6.5 6.5,-7.2 5.8,-7.7 4.9,-8.3 4.2,-8.7 3.2,-9.1 2.4,-9.4 1.4,-9.6 0.5,-9.6 v -354.3 l -0.5,-9.7 -1.4,-9.5 -2.4,-9.4 -3.2,-9.1 -4.2,-8.7 -4.9,-8.3 -5.8,-7.8 -6.5,-7.1 -7.1,-6.5 -7.8,-5.8 -8.3,-4.9 -8.7,-4.2 -9.1,-3.2 -9.4,-2.4 -9.5,-1.4 -9.7,-0.5 h -275.5 z"
         id="path1434" />
    </g>
    <g
       id="path1165"
       style="stroke:none">
      <path
         style="color:#000000;fill-rule:evenodd;stroke:none;-inkscape-stroke:none"
         d="m 76585.7,41260.3 -9.5,1.4 -9.4,2.4 -9.1,3.2 -8.7,4.2 -8.3,4.9 -7.8,5.8 -7.1,6.5 -6.5,7.1 -5.8,7.8 -4.9,8.3 -4.2,8.7 -3.2,9.1 -2.4,9.4 -1.4,9.5 -0.5,9.7 v 354.3 l 0.5,9.6 1.4,9.6 2.4,9.4 3.2,9.1 4.2,8.7 4.9,8.3 5.8,7.7 6.5,7.2 7.1,6.5 7.8,5.7 8.3,5 8.7,4.1 9.1,3.3 9.4,2.3 9.5,1.4 9.7,0.5 h 275.5 l 9.7,-0.5 9.5,-1.4 9.4,-2.3 9.1,-3.3 8.7,-4.1 8.3,-5 7.8,-5.7 7.1,-6.5 6.5,-7.2 5.8,-7.7 4.9,-8.3 4.2,-8.7 3.2,-9.1 2.4,-9.4 1.4,-9.6 0.5,-9.6 v -354.3 l -0.5,-9.7 -1.4,-9.5 -2.4,-9.4 -3.2,-9.1 -4.2,-8.7 -4.9,-8.3 -5.8,-7.8 -6.5,-7.1 -7.1,-6.5 -7.8,-5.8 -8.3,-4.9 -8.7,-4.2 -9.1,-3.2 -9.4,-2.4 -9.5,-1.4 -9.7,-0.5 h -275.5 z"
         id="path1438" />
      <path
         style="color:#000000;fill-rule:evenodd;stroke:none;-inkscape-stroke:none"
         d="m 76585.7,41260.3 -9.5,1.4 -9.4,2.4 -9.1,3.2 -8.7,4.2 -8.3,4.9 -7.8,5.8 -7.1,6.5 -6.5,7.1 -5.8,7.8 -4.9,8.3 -4.2,8.7 -3.2,9.1 -2.4,9.4 -1.4,9.5 -0.5,9.7 v 354.3 l 0.5,9.6 1.4,9.6 2.4,9.4 3.2,9.1 4.2,8.7 4.9,8.3 5.8,7.7 6.5,7.2 7.1,6.5 7.8,5.7 8.3,5 8.7,4.1 9.1,3.3 9.4,2.3 9.5,1.4 9.7,0.5 h 275.5 l 9.7,-0.5 9.5,-1.4 9.4,-2.3 9.1,-3.3 8.7,-4.1 8.3,-5 7.8,-5.7 7.1,-6.5 6.5,-7.2 5.8,-7.7 4.9,-8.3 4.2,-8.7 3.2,-9.1 2.4,-9.4 1.4,-9.6 0.5,-9.6 v -354.3 l -0.5,-9.7 -1.4,-9.5 -2.4,-9.4 -3.2,-9.1 -4.2,-8.7 -4.9,-8.3 -5.8,-7.8 -6.5,-7.1 -7.1,-6.5 -7.8,-5.8 -8.3,-4.9 -8.7,-4.2 -9.1,-3.2 -9.4,-2.4 -9.5,-1.4 -9.7,-0.5 h -275.5 z"
         id="path1440" />
    </g>
  </g>
  <g
     id="g1169"
     style="fill:#000000;fill-opacity:0;stroke:#000000;stroke-width:19.685;stroke-linecap:round;stroke-linejoin:round;stroke-opacity:1" />
  <g
     style="fill:#000000;stroke:none;stroke-width:0;stroke-linecap:round;stroke-linejoin:round"
     id="g1175">
    <g
       id="path1171"
       style="stroke:none">
      <path
         style="color:#000000;fill-rule:evenodd;stroke:none;-inkscape-stroke:none"
         d="m 76625.1,40158 -9.6,1.4 -9.3,2.3 -9.1,3.3 -8.8,4.1 -8.3,5 -7.7,5.7 -7.2,6.5 -6.5,7.2 -5.7,7.7 -5,8.3 -4.1,8.7 -3.3,9.1 -2.3,9.4 -1.4,9.6 -0.5,9.6 v 354.3 l 0.5,9.7 1.4,9.5 2.3,9.4 3.3,9.1 4.1,8.7 5,8.3 5.7,7.8 6.5,7.1 7.2,6.5 7.7,5.8 8.3,4.9 8.8,4.2 9.1,3.2 9.3,2.4 9.6,1.4 9.6,0.5 h 275.6 l 9.7,-0.5 9.5,-1.4 9.4,-2.4 9.1,-3.2 8.7,-4.2 8.3,-4.9 7.8,-5.8 7.1,-6.5 6.5,-7.1 5.8,-7.8 4.9,-8.3 4.1,-8.7 3.3,-9.1 2.3,-9.4 1.5,-9.5 0.4,-9.7 v -354.3 l -0.4,-9.6 -1.5,-9.6 -2.3,-9.4 -3.3,-9.1 -4.1,-8.7 -4.9,-8.3 -5.8,-7.7 -6.5,-7.2 -7.1,-6.5 -7.8,-5.7 -8.3,-5 -8.7,-4.1 -9.1,-3.3 -9.4,-2.3 -9.5,-1.4 -9.7,-0.5 h -275.6 z"
         id="path1444" />
      <path
         style="color:#000000;fill-rule:evenodd;stroke:none;-inkscape-stroke:none"
         d="m 76625.1,40158 -9.6,1.4 -9.3,2.3 -9.1,3.3 -8.8,4.1 -8.3,5 -7.7,5.7 -7.2,6.5 -6.5,7.2 -5.7,7.7 -5,8.3 -4.1,8.7 -3.3,9.1 -2.3,9.4 -1.4,9.6 -0.5,9.6 v 354.3 l 0.5,9.7 1.4,9.5 2.3,9.4 3.3,9.1 4.1,8.7 5,8.3 5.7,7.8 6.5,7.1 7.2,6.5 7.7,5.8 8.3,4.9 8.8,4.2 9.1,3.2 9.3,2.4 9.6,1.4 9.6,0.5 h 275.6 l 9.7,-0.5 9.5,-1.4 9.4,-2.4 9.1,-3.2 8.7,-4.2 8.3,-4.9 7.8,-5.8 7.1,-6.5 6.5,-7.1 5.8,-7.8 4.9,-8.3 4.1,-8.7 3.3,-9.1 2.3,-9.4 1.5,-9.5 0.4,-9.7 v -354.3 l -0.4,-9.6 -1.5,-9.6 -2.3,-9.4 -3.3,-9.1 -4.1,-8.7 -4.9,-8.3 -5.8,-7.7 -6.5,-7.2 -7.1,-6.5 -7.8,-5.7 -8.3,-5 -8.7,-4.1 -9.1,-3.3 -9.4,-2.3 -9.5,-1.4 -9.7,-0.5 h -275.6 z"
         id="path1446" />
    </g>
    <g
       id="path1173"
       style="stroke:none">
      <path
         style="color:#000000;fill-rule:evenodd;stroke:none;-inkscape-stroke:none"
         d="m 77412.5,40158 -9.6,1.4 -9.3,2.3 -9.1,3.3 -8.8,4.1 -8.3,5 -7.7,5.7 -7.2,6.5 -6.5,7.2 -5.7,7.7 -5,8.3 -4.1,8.7 -3.3,9.1 -2.3,9.4 -1.4,9.6 -0.5,9.6 v 354.3 l 0.5,9.7 1.4,9.5 2.3,9.4 3.3,9.1 4.1,8.7 5,8.3 5.7,7.8 6.5,7.1 7.2,6.5 7.7,5.8 8.3,4.9 8.8,4.2 9.1,3.2 9.3,2.4 9.6,1.4 9.6,0.5 h 275.6 l 9.7,-0.5 9.5,-1.4 9.4,-2.4 9.1,-3.2 8.7,-4.2 8.3,-4.9 7.8,-5.8 7.1,-6.5 6.5,-7.1 5.8,-7.8 4.9,-8.3 4.1,-8.7 3.3,-9.1 2.4,-9.4 1.4,-9.5 0.4,-9.7 v -354.3 l -0.4,-9.6 -1.4,-9.6 -2.4,-9.4 -3.3,-9.1 -4.1,-8.7 -4.9,-8.3 -5.8,-7.7 -6.5,-7.2 -7.1,-6.5 -7.8,-5.7 -8.3,-5 -8.7,-4.1 -9.1,-3.3 -9.4,-2.3 -9.5,-1.4 -9.7,-0.5 h -275.6 z"
         id="path1450" />
      <path
         style="color:#000000;fill-rule:evenodd;stroke:none;-inkscape-stroke:none"
         d="m 77412.5,40158 -9.6,1.4 -9.3,2.3 -9.1,3.3 -8.8,4.1 -8.3,5 -7.7,5.7 -7.2,6.5 -6.5,7.2 -5.7,7.7 -5,8.3 -4.1,8.7 -3.3,9.1 -2.3,9.4 -1.4,9.6 -0.5,9.6 v 354.3 l 0.5,9.7 1.4,9.5 2.3,9.4 3.3,9.1 4.1,8.7 5,8.3 5.7,7.8 6.5,7.1 7.2,6.5 7.7,5.8 8.3,4.9 8.8,4.2 9.1,3.2 9.3,2.4 9.6,1.4 9.6,0.5 h 275.6 l 9.7,-0.5 9.5,-1.4 9.4,-2.4 9.1,-3.2 8.7,-4.2 8.3,-4.9 7.8,-5.8 7.1,-6.5 6.5,-7.1 5.8,-7.8 4.9,-8.3 4.1,-8.7 3.3,-9.1 2.4,-9.4 1.4,-9.5 0.4,-9.7 v -354.3 l -0.4,-9.6 -1.4,-9.6 -2.4,-9.4 -3.3,-9.1 -4.1,-8.7 -4.9,-8.3 -5.8,-7.7 -6.5,-7.2 -7.1,-6.5 -7.8,-5.7 -8.3,-5 -8.7,-4.1 -9.1,-3.3 -9.4,-2.3 -9.5,-1.4 -9.7,-0.5 h -275.6 z"
         id="path1452" />
    </g>
  </g>
  <g
     id="g1177"
     style="fill:#000000;fill-opacity:0;stroke:#000000;stroke-width:19.685;stroke-linecap:round;stroke-linejoin:round;stroke-opacity:1" />
  <g
     style="fill:#000000;stroke:none;stroke-width:0;stroke-linecap:round;stroke-linejoin:round"
     id="g1183">
    <g
       id="path1179"
       style="stroke:none">
      <path
         style="color:#000000;fill-rule:evenodd;stroke:none;-inkscape-stroke:none"
         d="m 78199.9,39055.6 -9.6,1.4 -9.3,2.4 -9.1,3.2 -8.8,4.1 -8.3,5 -7.7,5.8 -7.2,6.4 -6.5,7.2 -5.7,7.8 -5,8.2 -4.1,8.8 -3.3,9.1 -2.3,9.3 -1.4,9.6 -0.5,9.6 v 354.4 l 0.5,9.6 1.4,9.6 2.3,9.3 3.3,9.1 4.1,8.8 5,8.3 5.7,7.7 6.5,7.2 7.2,6.5 7.7,5.7 8.3,5 8.8,4.1 9.1,3.3 9.3,2.3 9.6,1.4 9.6,0.5 h 275.6 l 9.7,-0.5 9.5,-1.4 9.4,-2.3 9.1,-3.3 8.7,-4.1 8.3,-5 7.8,-5.7 7.1,-6.5 6.5,-7.2 5.8,-7.7 4.9,-8.3 4.2,-8.8 3.2,-9.1 2.4,-9.3 1.4,-9.6 0.4,-9.6 v -354.4 l -0.4,-9.6 -1.4,-9.6 -2.4,-9.3 -3.2,-9.1 -4.2,-8.8 -4.9,-8.2 -5.8,-7.8 -6.5,-7.2 -7.1,-6.4 -7.8,-5.8 -8.3,-5 -8.7,-4.1 -9.1,-3.2 -9.4,-2.4 -9.5,-1.4 -9.7,-0.5 h -275.6 z"
         id="path1456" />
      <path
         style="color:#000000;fill-rule:evenodd;stroke:none;-inkscape-stroke:none"
         d="m 78199.9,39055.6 -9.6,1.4 -9.3,2.4 -9.1,3.2 -8.8,4.1 -8.3,5 -7.7,5.8 -7.2,6.4 -6.5,7.2 -5.7,7.8 -5,8.2 -4.1,8.8 -3.3,9.1 -2.3,9.3 -1.4,9.6 -0.5,9.6 v 354.4 l 0.5,9.6 1.4,9.6 2.3,9.3 3.3,9.1 4.1,8.8 5,8.3 5.7,7.7 6.5,7.2 7.2,6.5 7.7,5.7 8.3,5 8.8,4.1 9.1,3.3 9.3,2.3 9.6,1.4 9.6,0.5 h 275.6 l 9.7,-0.5 9.5,-1.4 9.4,-2.3 9.1,-3.3 8.7,-4.1 8.3,-5 7.8,-5.7 7.1,-6.5 6.5,-7.2 5.8,-7.7 4.9,-8.3 4.2,-8.8 3.2,-9.1 2.4,-9.3 1.4,-9.6 0.4,-9.6 v -354.4 l -0.4,-9.6 -1.4,-9.6 -2.4,-9.3 -3.2,-9.1 -4.2,-8.8 -4.9,-8.2 -5.8,-7.8 -6.5,-7.2 -7.1,-6.4 -7.8,-5.8 -8.3,-5 -8.7,-4.1 -9.1,-3.2 -9.4,-2.4 -9.5,-1.4 -9.7,-0.5 h -275.6 z"
         id="path1458" />
    </g>
    <g
       id="path1181"
       style="stroke:none">
      <path
         style="color:#000000;fill-rule:evenodd;stroke:none;-inkscape-stroke:none"
         d="m 77412.5,39055.6 -9.6,1.4 -9.3,2.4 -9.1,3.2 -8.8,4.1 -8.3,5 -7.7,5.8 -7.2,6.4 -6.5,7.2 -5.7,7.8 -5,8.2 -4.1,8.8 -3.3,9.1 -2.3,9.3 -1.4,9.6 -0.5,9.6 v 354.4 l 0.5,9.6 1.4,9.6 2.3,9.3 3.3,9.1 4.1,8.8 5,8.3 5.7,7.7 6.5,7.2 7.2,6.5 7.7,5.7 8.3,5 8.8,4.1 9.1,3.3 9.3,2.3 9.6,1.4 9.6,0.5 h 275.6 l 9.7,-0.5 9.5,-1.4 9.4,-2.3 9.1,-3.3 8.7,-4.1 8.3,-5 7.8,-5.7 7.1,-6.5 6.5,-7.2 5.8,-7.7 4.9,-8.3 4.1,-8.8 3.3,-9.1 2.4,-9.3 1.4,-9.6 0.4,-9.6 v -354.4 l -0.4,-9.6 -1.4,-9.6 -2.4,-9.3 -3.3,-9.1 -4.1,-8.8 -4.9,-8.2 -5.8,-7.8 -6.5,-7.2 -7.1,-6.4 -7.8,-5.8 -8.3,-5 -8.7,-4.1 -9.1,-3.2 -9.4,-2.4 -9.5,-1.4 -9.7,-0.5 h -275.6 z"
         id="path1462" />
      <path
         style="color:#000000;fill-rule:evenodd;stroke:none;-inkscape-stroke:none"
         d="m 77412.5,39055.6 -9.6,1.4 -9.3,2.4 -9.1,3.2 -8.8,4.1 -8.3,5 -7.7,5.8 -7.2,6.4 -6.5,7.2 -5.7,7.8 -5,8.2 -4.1,8.8 -3.3,9.1 -2.3,9.3 -1.4,9.6 -0.5,9.6 v 354.4 l 0.5,9.6 1.4,9.6 2.3,9.3 3.3,9.1 4.1,8.8 5,8.3 5.7,7.7 6.5,7.2 7.2,6.5 7.7,5.7 8.3,5 8.8,4.1 9.1,3.3 9.3,2.3 9.6,1.4 9.6,0.5 h 275.6 l 9.7,-0.5 9.5,-1.4 9.4,-2.3 9.1,-3.3 8.7,-4.1 8.3,-5 7.8,-5.7 7.1,-6.5 6.5,-7.2 5.8,-7.7 4.9,-8.3 4.1,-8.8 3.3,-9.1 2.4,-9.3 1.4,-9.6 0.4,-9.6 v -354.4 l -0.4,-9.6 -1.4,-9.6 -2.4,-9.3 -3.3,-9.1 -4.1,-8.8 -4.9,-8.2 -5.8,-7.8 -6.5,-7.2 -7.1,-6.4 -7.8,-5.8 -8.3,-5 -8.7,-4.1 -9.1,-3.2 -9.4,-2.4 -9.5,-1.4 -9.7,-0.5 h -275.6 z"
         id="path1464" />
    </g>
  </g>
  <g
     id="g1185"
     style="fill:#000000;fill-opacity:0;stroke:#000000;stroke-width:19.685;stroke-linecap:round;stroke-linejoin:round;stroke-opacity:1" />
  <g
     id="g1187"
     style="fill:#000000;fill-opacity:0;stroke:#000000;stroke-width:19.685;stroke-linecap:round;stroke-linejoin:round;stroke-opacity:1" />
  <g
     id="g1189"
     style="fill:#000000;fill-opacity:0;stroke:#000000;stroke-width:19.685;stroke-linecap:round;stroke-linejoin:round;stroke-opacity:1" />
  <g
     id="g1191"
     style="fill:#000000;fill-opacity:0;stroke:#000000;stroke-width:19.685;stroke-linecap:round;stroke-linejoin:round;stroke-opacity:1" />
  <g
     id="g1193"
     style="fill:#000000;fill-opacity:0;stroke:#000000;stroke-width:19.685;stroke-linecap:round;stroke-linejoin:round;stroke-opacity:1" />
  <g
     id="g1195"
     style="fill:#000000;fill-opacity:0;stroke:#000000;stroke-width:19.685;stroke-linecap:round;stroke-linejoin:round;stroke-opacity:1" />
  <g
     id="g1197"
     style="fill:#000000;fill-opacity:0;stroke:#000000;stroke-width:19.685;stroke-linecap:round;stroke-linejoin:round;stroke-opacity:1" />
  <g
     id="g1199"
     style="fill:#000000;fill-opacity:0;stroke:#000000;stroke-width:19.685;stroke-linecap:round;stroke-linejoin:round;stroke-opacity:1" />
  <g
     id="g1201"
     style="fill:#000000;fill-opacity:0;stroke:#000000;stroke-width:19.685;stroke-linecap:round;stroke-linejoin:round;stroke-opacity:1" />
</svg>
