<?xml version="1.0" encoding="UTF-8" standalone="no"?>
<svg
   version="1.1"
   width="29.700220cm"
   height="21.000720cm"
   viewBox="0 0 116930 82680"
   id="svg3147"
   sodipodi:docname="keys-B_Mask.svg"
   inkscape:version="1.1 (c68e22c387, 2021-05-23)"
   xmlns:inkscape="http://www.inkscape.org/namespaces/inkscape"
   xmlns:sodipodi="http://sodipodi.sourceforge.net/DTD/sodipodi-0.dtd"
   xmlns="http://www.w3.org/2000/svg"
   xmlns:svg="http://www.w3.org/2000/svg">
  <defs
     id="defs3151" />
  <sodipodi:namedview
     id="namedview3149"
     pagecolor="#ffffff"
     bordercolor="#666666"
     borderopacity="1.0"
     inkscape:pageshadow="2"
     inkscape:pageopacity="0.0"
     inkscape:pagecheckerboard="0"
     inkscape:document-units="cm"
     showgrid="false"
     inkscape:zoom="4.3162793"
     inkscape:cx="735.23972"
     inkscape:cy="378.79847"
     inkscape:window-width="1462"
     inkscape:window-height="1001"
     inkscape:window-x="444"
     inkscape:window-y="-39"
     inkscape:window-maximized="0"
     inkscape:current-layer="svg3147" />
  <title
     id="title2859">SVG Picture created as keys-B_Mask.svg date 2022/04/06 13:28:47 </title>
  <desc
     id="desc2861">Picture generated by PCBNEW </desc>
  <g
     style="fill:#000000; fill-opacity:1;stroke:#000000; stroke-opacity:1; stroke-linecap:round; stroke-linejoin:round;"
     transform="translate(0 0) scale(1 1)"
     id="g2863" />
  <g
     style="fill:#000000; fill-opacity:0.0;  stroke:#000000; stroke-width:-0.000393701; stroke-opacity:1;  stroke-linecap:round; stroke-linejoin:round;"
     id="g2865" />
  <path
     d="m 72441,44685 v 2362"
     id="path2867"
     style="fill:none;fill-opacity:0;stroke:#00ffff;stroke-width:19.685;stroke-linecap:round;stroke-linejoin:round;stroke-opacity:1" />
  <path
     d="m 69882,44685 h 2559"
     id="path2869"
     style="fill:none;fill-opacity:0;stroke:#00ffff;stroke-width:19.685;stroke-linecap:round;stroke-linejoin:round;stroke-opacity:1" />
  <path
     d="M 85237,29921 H 67914"
     id="path2871"
     style="fill:none;fill-opacity:0;stroke:#ff0000;stroke-width:19.6850404;stroke-linecap:round;stroke-linejoin:round;stroke-opacity:1;stroke-miterlimit:4;stroke-dasharray:none" />
  <path
     d="M 85237,49015 V 29921"
     id="path2873"
     style="fill:none;fill-opacity:0;stroke:#ff0000;stroke-width:19.6850404;stroke-linecap:round;stroke-linejoin:round;stroke-opacity:1;stroke-miterlimit:4;stroke-dasharray:none" />
  <path
     d="M 67914,49015 H 85237"
     id="path2875"
     style="fill:none;fill-opacity:0;stroke:#ff0000;stroke-width:19.6850404;stroke-linecap:round;stroke-linejoin:round;stroke-opacity:1;stroke-miterlimit:4;stroke-dasharray:none" />
  <path
     d="M 67914,29921 V 49015"
     id="path2877"
     style="fill:none;fill-opacity:0;stroke:#ff0000;stroke-width:19.6850404;stroke-linecap:round;stroke-linejoin:round;stroke-opacity:1;stroke-miterlimit:4;stroke-dasharray:none" />
  <path
     d="m 72441,47047 h 1378"
     id="path2879"
     style="fill:none;fill-opacity:0;stroke:#00ffff;stroke-width:19.685;stroke-linecap:round;stroke-linejoin:round;stroke-opacity:1" />
  <path
     d="m 83268,31889 v 8386"
     id="path2881"
     style="fill:none;fill-opacity:0;stroke:#00ffff;stroke-width:19.685;stroke-linecap:round;stroke-linejoin:round;stroke-opacity:1" />
  <path
     d="M 69882,31889 H 83268"
     id="path2883"
     style="fill:none;fill-opacity:0;stroke:#00ffff;stroke-width:19.685;stroke-linecap:round;stroke-linejoin:round;stroke-opacity:1" />
  <path
     d="M 69882,33661 V 31889"
     id="path2885"
     style="fill:none;fill-opacity:0;stroke:#00ffff;stroke-width:19.685;stroke-linecap:round;stroke-linejoin:round;stroke-opacity:1" />
  <path
     d="M 69882,44685 V 33661"
     id="path2887"
     style="fill:none;fill-opacity:0;stroke:#00ffff;stroke-width:19.685;stroke-linecap:round;stroke-linejoin:round;stroke-opacity:1" />
  <path
     d="M 83268,47047 H 73819"
     id="path2889"
     style="fill:none;fill-opacity:0;stroke:#00ffff;stroke-width:19.685;stroke-linecap:round;stroke-linejoin:round;stroke-opacity:1" />
  <path
     d="m 83268,40275 v 6772"
     id="path2891"
     style="fill:none;fill-opacity:0;stroke:#00ffff;stroke-width:19.685;stroke-linecap:round;stroke-linejoin:round;stroke-opacity:1" />
  <g
     id="g2893"
     style="fill:#000000;fill-opacity:0;stroke:#000000;stroke-width:19.685;stroke-linecap:round;stroke-linejoin:round;stroke-opacity:1" />
  <g
     style="fill:#000000;fill-opacity:0;stroke:#000000;stroke-width:0;stroke-linecap:round;stroke-linejoin:round;stroke-opacity:1"
     id="g2895" />
  <g
     style="fill:#00ff00;stroke:none;stroke-width:0;stroke-linecap:round;stroke-linejoin:round;fill-opacity:1"
     id="g2901">
    <g
       id="path2897"
       style="stroke:none;fill:#00ff00;fill-opacity:1">
      <path
         style="color:#000000;fill-rule:evenodd;stroke:none;-inkscape-stroke:none;fill:#00ff00;fill-opacity:1"
         d="m 79538.5,43661.9 -9.6,1.4 -9.4,2.4 -9.1,3.2 -8.7,4.1 -8.3,5 -7.7,5.8 -7.2,6.4 -6.5,7.2 -5.7,7.8 -5,8.2 -4.1,8.8 -3.3,9.1 -2.3,9.3 -1.4,9.6 -0.5,9.6 v 275.6 l 0.5,9.7 1.4,9.5 2.3,9.4 3.3,9.1 4.1,8.7 5,8.3 5.7,7.8 6.5,7.1 7.2,6.5 7.7,5.8 8.3,4.9 8.7,4.2 9.1,3.2 9.4,2.4 9.6,1.4 9.6,0.5 h 354.3 l 9.7,-0.5 9.5,-1.4 9.4,-2.4 9.1,-3.2 8.7,-4.2 8.3,-4.9 7.8,-5.8 7.1,-6.5 6.5,-7.1 5.8,-7.8 4.9,-8.3 4.2,-8.7 3.2,-9.1 2.4,-9.4 1.4,-9.5 0.5,-9.7 v -275.6 l -0.5,-9.6 -1.4,-9.6 -2.4,-9.3 -3.2,-9.1 -4.2,-8.8 -4.9,-8.2 -5.8,-7.8 -6.5,-7.2 -7.1,-6.4 -7.8,-5.8 -8.3,-5 -8.7,-4.1 -9.1,-3.2 -9.4,-2.4 -9.5,-1.4 -9.7,-0.5 h -354.3 z"
         id="path4209" />
      <path
         style="color:#000000;fill-rule:evenodd;stroke:none;-inkscape-stroke:none;fill:#00ff00;fill-opacity:1"
         d="m 79538.5,43661.9 -9.6,1.4 -9.4,2.4 -9.1,3.2 -8.7,4.1 -8.3,5 -7.7,5.8 -7.2,6.4 -6.5,7.2 -5.7,7.8 -5,8.2 -4.1,8.8 -3.3,9.1 -2.3,9.3 -1.4,9.6 -0.5,9.6 v 275.6 l 0.5,9.7 1.4,9.5 2.3,9.4 3.3,9.1 4.1,8.7 5,8.3 5.7,7.8 6.5,7.1 7.2,6.5 7.7,5.8 8.3,4.9 8.7,4.2 9.1,3.2 9.4,2.4 9.6,1.4 9.6,0.5 h 354.3 l 9.7,-0.5 9.5,-1.4 9.4,-2.4 9.1,-3.2 8.7,-4.2 8.3,-4.9 7.8,-5.8 7.1,-6.5 6.5,-7.1 5.8,-7.8 4.9,-8.3 4.2,-8.7 3.2,-9.1 2.4,-9.4 1.4,-9.5 0.5,-9.7 v -275.6 l -0.5,-9.6 -1.4,-9.6 -2.4,-9.3 -3.2,-9.1 -4.2,-8.8 -4.9,-8.2 -5.8,-7.8 -6.5,-7.2 -7.1,-6.4 -7.8,-5.8 -8.3,-5 -8.7,-4.1 -9.1,-3.2 -9.4,-2.4 -9.5,-1.4 -9.7,-0.5 h -354.3 z"
         id="path4211" />
    </g>
    <g
       id="path2899"
       style="stroke:none;fill:#00ff00;fill-opacity:1">
      <path
         style="color:#000000;fill-rule:evenodd;stroke:none;-inkscape-stroke:none;fill:#00ff00;fill-opacity:1"
         d="m 79538.5,42874.5 -9.6,1.4 -9.4,2.4 -9.1,3.2 -8.7,4.1 -8.3,5 -7.7,5.8 -7.2,6.4 -6.5,7.2 -5.7,7.8 -5,8.2 -4.1,8.8 -3.3,9.1 -2.3,9.3 -1.4,9.6 -0.5,9.6 v 275.6 l 0.5,9.7 1.4,9.5 2.3,9.4 3.3,9.1 4.1,8.7 5,8.3 5.7,7.8 6.5,7.1 7.2,6.5 7.7,5.8 8.3,4.9 8.7,4.2 9.1,3.2 9.4,2.4 9.6,1.4 9.6,0.5 h 354.3 l 9.7,-0.5 9.5,-1.4 9.4,-2.4 9.1,-3.2 8.7,-4.2 8.3,-4.9 7.8,-5.8 7.1,-6.5 6.5,-7.1 5.8,-7.8 4.9,-8.3 4.2,-8.7 3.2,-9.1 2.4,-9.4 1.4,-9.5 0.5,-9.7 v -275.6 l -0.5,-9.6 -1.4,-9.6 -2.4,-9.3 -3.2,-9.1 -4.2,-8.8 -4.9,-8.2 -5.8,-7.8 -6.5,-7.2 -7.1,-6.4 -7.8,-5.8 -8.3,-5 -8.7,-4.1 -9.1,-3.2 -9.4,-2.4 -9.5,-1.4 -9.7,-0.5 h -354.3 z"
         id="path4217" />
      <path
         style="color:#000000;fill-rule:evenodd;stroke:none;-inkscape-stroke:none;fill:#00ff00;fill-opacity:1"
         d="m 79538.5,42874.5 -9.6,1.4 -9.4,2.4 -9.1,3.2 -8.7,4.1 -8.3,5 -7.7,5.8 -7.2,6.4 -6.5,7.2 -5.7,7.8 -5,8.2 -4.1,8.8 -3.3,9.1 -2.3,9.3 -1.4,9.6 -0.5,9.6 v 275.6 l 0.5,9.7 1.4,9.5 2.3,9.4 3.3,9.1 4.1,8.7 5,8.3 5.7,7.8 6.5,7.1 7.2,6.5 7.7,5.8 8.3,4.9 8.7,4.2 9.1,3.2 9.4,2.4 9.6,1.4 9.6,0.5 h 354.3 l 9.7,-0.5 9.5,-1.4 9.4,-2.4 9.1,-3.2 8.7,-4.2 8.3,-4.9 7.8,-5.8 7.1,-6.5 6.5,-7.1 5.8,-7.8 4.9,-8.3 4.2,-8.7 3.2,-9.1 2.4,-9.4 1.4,-9.5 0.5,-9.7 v -275.6 l -0.5,-9.6 -1.4,-9.6 -2.4,-9.3 -3.2,-9.1 -4.2,-8.8 -4.9,-8.2 -5.8,-7.8 -6.5,-7.2 -7.1,-6.4 -7.8,-5.8 -8.3,-5 -8.7,-4.1 -9.1,-3.2 -9.4,-2.4 -9.5,-1.4 -9.7,-0.5 h -354.3 z"
         id="path4219" />
    </g>
  </g>
  <g
     id="g2903"
     style="fill:#000000;fill-opacity:0;stroke:#000000;stroke-width:19.685;stroke-linecap:round;stroke-linejoin:round;stroke-opacity:1" />
  <g
     style="fill:#00ff00;stroke:none;stroke-width:0;stroke-linecap:round;stroke-linejoin:round;fill-opacity:1"
     id="g2909">
    <g
       id="path2905"
       style="stroke:none;fill:#00ff00;fill-opacity:1">
      <path
         style="color:#000000;fill-rule:evenodd;stroke:none;-inkscape-stroke:none;fill:#00ff00;fill-opacity:1"
         d="m 79538.5,36378.4 -9.6,1.4 -9.4,2.4 -9.1,3.2 -8.7,4.2 -8.3,4.9 -7.7,5.8 -7.2,6.5 -6.5,7.1 -5.7,7.8 -5,8.3 -4.1,8.7 -3.3,9.1 -2.3,9.4 -1.4,9.5 -0.5,9.7 v 275.6 l 0.5,9.6 1.4,9.6 2.3,9.3 3.3,9.1 4.1,8.8 5,8.3 5.7,7.7 6.5,7.2 7.2,6.5 7.7,5.7 8.3,5 8.7,4.1 9.1,3.3 9.4,2.3 9.6,1.4 9.6,0.5 h 354.3 l 9.7,-0.5 9.5,-1.4 9.4,-2.3 9.1,-3.3 8.7,-4.1 8.3,-5 7.8,-5.7 7.1,-6.5 6.5,-7.2 5.8,-7.7 4.9,-8.3 4.2,-8.8 3.2,-9.1 2.4,-9.3 1.4,-9.6 0.5,-9.6 v -275.6 l -0.5,-9.7 -1.4,-9.5 -2.4,-9.4 -3.2,-9.1 -4.2,-8.7 -4.9,-8.3 -5.8,-7.8 -6.5,-7.1 -7.1,-6.5 -7.8,-5.8 -8.3,-4.9 -8.7,-4.2 -9.1,-3.2 -9.4,-2.4 -9.5,-1.4 -9.7,-0.4 h -354.3 z"
         id="path4225" />
      <path
         style="color:#000000;fill-rule:evenodd;stroke:none;-inkscape-stroke:none;fill:#00ff00;fill-opacity:1"
         d="m 79538.5,36378.4 -9.6,1.4 -9.4,2.4 -9.1,3.2 -8.7,4.2 -8.3,4.9 -7.7,5.8 -7.2,6.5 -6.5,7.1 -5.7,7.8 -5,8.3 -4.1,8.7 -3.3,9.1 -2.3,9.4 -1.4,9.5 -0.5,9.7 v 275.6 l 0.5,9.6 1.4,9.6 2.3,9.3 3.3,9.1 4.1,8.8 5,8.3 5.7,7.7 6.5,7.2 7.2,6.5 7.7,5.7 8.3,5 8.7,4.1 9.1,3.3 9.4,2.3 9.6,1.4 9.6,0.5 h 354.3 l 9.7,-0.5 9.5,-1.4 9.4,-2.3 9.1,-3.3 8.7,-4.1 8.3,-5 7.8,-5.7 7.1,-6.5 6.5,-7.2 5.8,-7.7 4.9,-8.3 4.2,-8.8 3.2,-9.1 2.4,-9.3 1.4,-9.6 0.5,-9.6 v -275.6 l -0.5,-9.7 -1.4,-9.5 -2.4,-9.4 -3.2,-9.1 -4.2,-8.7 -4.9,-8.3 -5.8,-7.8 -6.5,-7.1 -7.1,-6.5 -7.8,-5.8 -8.3,-4.9 -8.7,-4.2 -9.1,-3.2 -9.4,-2.4 -9.5,-1.4 -9.7,-0.4 h -354.3 z"
         id="path4227" />
    </g>
    <g
       id="path2907"
       style="stroke:none;fill:#00ff00;fill-opacity:1">
      <path
         style="color:#000000;fill-rule:evenodd;stroke:none;-inkscape-stroke:none;fill:#00ff00;fill-opacity:1"
         d="m 79538.5,37165.8 -9.6,1.4 -9.4,2.4 -9.1,3.2 -8.7,4.2 -8.3,4.9 -7.7,5.8 -7.2,6.5 -6.5,7.1 -5.7,7.8 -5,8.3 -4.1,8.7 -3.3,9.1 -2.3,9.4 -1.4,9.5 -0.5,9.7 v 275.6 l 0.5,9.6 1.4,9.6 2.3,9.3 3.3,9.1 4.1,8.8 5,8.3 5.7,7.7 6.5,7.2 7.2,6.5 7.7,5.7 8.3,5 8.7,4.1 9.1,3.3 9.4,2.3 9.6,1.4 9.6,0.5 h 354.3 l 9.7,-0.5 9.5,-1.4 9.4,-2.3 9.1,-3.3 8.7,-4.1 8.3,-5 7.8,-5.7 7.1,-6.5 6.5,-7.2 5.8,-7.7 4.9,-8.3 4.2,-8.8 3.2,-9.1 2.4,-9.3 1.4,-9.6 0.5,-9.6 v -275.6 l -0.5,-9.7 -1.4,-9.5 -2.4,-9.4 -3.2,-9.1 -4.2,-8.7 -4.9,-8.3 -5.8,-7.8 -6.5,-7.1 -7.1,-6.5 -7.8,-5.8 -8.3,-4.9 -8.7,-4.2 -9.1,-3.2 -9.4,-2.4 -9.5,-1.4 -9.7,-0.4 h -354.3 z"
         id="path4233" />
      <path
         style="color:#000000;fill-rule:evenodd;stroke:none;-inkscape-stroke:none;fill:#00ff00;fill-opacity:1"
         d="m 79538.5,37165.8 -9.6,1.4 -9.4,2.4 -9.1,3.2 -8.7,4.2 -8.3,4.9 -7.7,5.8 -7.2,6.5 -6.5,7.1 -5.7,7.8 -5,8.3 -4.1,8.7 -3.3,9.1 -2.3,9.4 -1.4,9.5 -0.5,9.7 v 275.6 l 0.5,9.6 1.4,9.6 2.3,9.3 3.3,9.1 4.1,8.8 5,8.3 5.7,7.7 6.5,7.2 7.2,6.5 7.7,5.7 8.3,5 8.7,4.1 9.1,3.3 9.4,2.3 9.6,1.4 9.6,0.5 h 354.3 l 9.7,-0.5 9.5,-1.4 9.4,-2.3 9.1,-3.3 8.7,-4.1 8.3,-5 7.8,-5.7 7.1,-6.5 6.5,-7.2 5.8,-7.7 4.9,-8.3 4.2,-8.8 3.2,-9.1 2.4,-9.3 1.4,-9.6 0.5,-9.6 v -275.6 l -0.5,-9.7 -1.4,-9.5 -2.4,-9.4 -3.2,-9.1 -4.2,-8.7 -4.9,-8.3 -5.8,-7.8 -6.5,-7.1 -7.1,-6.5 -7.8,-5.8 -8.3,-4.9 -8.7,-4.2 -9.1,-3.2 -9.4,-2.4 -9.5,-1.4 -9.7,-0.4 h -354.3 z"
         id="path4235" />
    </g>
  </g>
  <g
     id="g2911"
     style="fill:#000000;fill-opacity:0;stroke:#000000;stroke-width:19.685;stroke-linecap:round;stroke-linejoin:round;stroke-opacity:1" />
  <g
     style="fill:#00ff00;stroke:none;stroke-width:0;stroke-linecap:round;stroke-linejoin:round;fill-opacity:1"
     id="g2915">
    <g
       id="circle2913"
       style="stroke:none;fill:#00ff00;fill-opacity:1">
      <path
         style="color:#000000;stroke:none;stroke-linecap:butt;stroke-linejoin:miter;-inkscape-stroke:none;fill:#00ff00;fill-opacity:1"
         d="m 77205.624,40354.301 a 629.92102,629.92102 0 0 1 -629.921,629.921 629.92102,629.92102 0 0 1 -629.921,-629.921 629.92102,629.92102 0 0 1 629.921,-629.921 629.92102,629.92102 0 0 1 629.921,629.921 z"
         id="path4241" />
      <path
         style="color:#000000;stroke:none;stroke-linecap:butt;stroke-linejoin:miter;-inkscape-stroke:none;fill:#00ff00;fill-opacity:1"
         d="m 77205.624,40354.301 c 0,167.065 -66.367,327.288 -184.5,445.421 -118.133,118.133 -278.356,184.5 -445.421,184.5 -167.065,0 -327.288,-66.367 -445.421,-184.5 -118.133,-118.133 -184.5,-278.356 -184.5,-445.421 0,-167.065 66.367,-327.288 184.5,-445.421 118.133,-118.133 278.356,-184.5 445.421,-184.5 167.065,0 327.288,66.367 445.421,184.5 118.133,118.133 184.5,278.356 184.5,445.421 z"
         id="path4243" />
    </g>
  </g>
  <g
     style="fill:#000000;fill-opacity:1;stroke:#000000;stroke-width:78.7402;stroke-linecap:round;stroke-linejoin:round;stroke-opacity:1"
     id="g2917" />
  <g
     id="g2919"
     style="fill:#000000;fill-opacity:0;stroke:#000000;stroke-width:19.685;stroke-linecap:round;stroke-linejoin:round;stroke-opacity:1" />
  <g
     style="fill:#000000;fill-opacity:1;stroke:#000000;stroke-width:78.7402;stroke-linecap:round;stroke-linejoin:round;stroke-opacity:1"
     id="g2921" />
  <g
     style="fill:#00ff00;stroke:none;stroke-width:0;stroke-linecap:round;stroke-linejoin:round;fill-opacity:1"
     id="g2925">
    <g
       id="circle2923"
       style="stroke:none;fill:#00ff00;fill-opacity:1">
      <path
         style="color:#000000;stroke:none;stroke-linecap:butt;stroke-linejoin:miter;-inkscape-stroke:none;fill:#00ff00;fill-opacity:1"
         d="m 73977.254,41338.602 a 590.55103,590.55103 0 0 1 -590.551,590.551 590.55103,590.55103 0 0 1 -590.551,-590.551 590.55103,590.55103 0 0 1 590.551,-590.551 590.55103,590.55103 0 0 1 590.551,590.551 z"
         id="path4249" />
      <path
         style="color:#000000;stroke:none;stroke-linecap:butt;stroke-linejoin:miter;-inkscape-stroke:none;fill:#00ff00;fill-opacity:1"
         d="m 73977.254,41338.602 c 0,156.624 -62.219,306.833 -172.968,417.583 -110.75,110.749 -260.959,172.968 -417.583,172.968 -156.624,0 -306.833,-62.219 -417.583,-172.968 -110.749,-110.75 -172.968,-260.959 -172.968,-417.583 0,-156.624 62.219,-306.833 172.968,-417.583 110.75,-110.749 260.959,-172.968 417.583,-172.968 156.624,0 306.833,62.219 417.583,172.968 110.749,110.75 172.968,260.959 172.968,417.583 z"
         id="path4251" />
    </g>
  </g>
  <g
     style="fill:#000000;fill-opacity:1;stroke:#000000;stroke-width:78.7402;stroke-linecap:round;stroke-linejoin:round;stroke-opacity:1"
     id="g2927" />
  <g
     style="fill:#00ff00;stroke:none;stroke-width:0;stroke-linecap:round;stroke-linejoin:round;fill-opacity:1"
     id="g2931">
    <g
       id="circle2929"
       style="stroke:none;fill:#00ff00;fill-opacity:1">
      <path
         style="color:#000000;stroke:none;stroke-linecap:butt;stroke-linejoin:miter;-inkscape-stroke:none;fill:#00ff00;fill-opacity:1"
         d="m 72008.754,41338.602 a 590.55103,590.55103 0 0 1 -590.551,590.551 590.55103,590.55103 0 0 1 -590.551,-590.551 590.55103,590.55103 0 0 1 590.551,-590.551 590.55103,590.55103 0 0 1 590.551,590.551 z"
         id="path4257" />
      <path
         style="color:#000000;stroke:none;stroke-linecap:butt;stroke-linejoin:miter;-inkscape-stroke:none;fill:#00ff00;fill-opacity:1"
         d="m 72008.754,41338.602 c 0,156.624 -62.219,306.833 -172.968,417.583 -110.75,110.749 -260.959,172.968 -417.583,172.968 -156.624,0 -306.833,-62.219 -417.583,-172.968 -110.749,-110.75 -172.968,-260.959 -172.968,-417.583 0,-156.624 62.219,-306.833 172.968,-417.583 110.75,-110.749 260.959,-172.968 417.583,-172.968 156.624,0 306.833,62.219 417.583,172.968 110.749,110.75 172.968,260.959 172.968,417.583 z"
         id="path4259" />
    </g>
  </g>
  <g
     style="fill:#000000;fill-opacity:1;stroke:#000000;stroke-width:78.7402;stroke-linecap:round;stroke-linejoin:round;stroke-opacity:1"
     id="g2933" />
  <g
     style="fill:#00ff00;stroke:none;stroke-width:0;stroke-linecap:round;stroke-linejoin:round;fill-opacity:1"
     id="g2937">
    <g
       id="circle2935"
       style="stroke:none;fill:#00ff00;fill-opacity:1">
      <path
         style="color:#000000;stroke:none;stroke-linecap:butt;stroke-linejoin:miter;-inkscape-stroke:none;fill:#00ff00;fill-opacity:1"
         d="m 72008.754,39370.102 a 590.55103,590.55103 0 0 1 -590.551,590.551 590.55103,590.55103 0 0 1 -590.551,-590.551 590.55103,590.55103 0 0 1 590.551,-590.551 590.55103,590.55103 0 0 1 590.551,590.551 z"
         id="path4265" />
      <path
         style="color:#000000;stroke:none;stroke-linecap:butt;stroke-linejoin:miter;-inkscape-stroke:none;fill:#00ff00;fill-opacity:1"
         d="m 72008.754,39370.102 c 0,156.624 -62.219,306.833 -172.968,417.583 -110.75,110.749 -260.959,172.968 -417.583,172.968 -156.624,0 -306.833,-62.219 -417.583,-172.968 -110.749,-110.75 -172.968,-260.959 -172.968,-417.583 0,-156.624 62.219,-306.833 172.968,-417.583 110.75,-110.749 260.959,-172.968 417.583,-172.968 156.624,0 306.833,62.219 417.583,172.968 110.749,110.75 172.968,260.959 172.968,417.583 z"
         id="path4267" />
    </g>
  </g>
  <g
     style="fill:#000000;fill-opacity:1;stroke:#000000;stroke-width:78.7402;stroke-linecap:round;stroke-linejoin:round;stroke-opacity:1"
     id="g2939" />
  <g
     style="fill:#00ff00;stroke:none;stroke-width:0;stroke-linecap:round;stroke-linejoin:round;fill-opacity:1"
     id="g2943">
    <g
       id="circle2941"
       style="stroke:none;fill:#00ff00;fill-opacity:1">
      <path
         style="color:#000000;stroke:none;stroke-linecap:butt;stroke-linejoin:miter;-inkscape-stroke:none;fill:#00ff00;fill-opacity:1"
         d="m 73977.254,39370.102 a 590.55103,590.55103 0 0 1 -590.551,590.551 590.55103,590.55103 0 0 1 -590.551,-590.551 590.55103,590.55103 0 0 1 590.551,-590.551 590.55103,590.55103 0 0 1 590.551,590.551 z"
         id="path4273" />
      <path
         style="color:#000000;stroke:none;stroke-linecap:butt;stroke-linejoin:miter;-inkscape-stroke:none;fill:#00ff00;fill-opacity:1"
         d="m 73977.254,39370.102 c 0,156.624 -62.219,306.833 -172.968,417.583 -110.75,110.749 -260.959,172.968 -417.583,172.968 -156.624,0 -306.833,-62.219 -417.583,-172.968 -110.749,-110.75 -172.968,-260.959 -172.968,-417.583 0,-156.624 62.219,-306.833 172.968,-417.583 110.75,-110.749 260.959,-172.968 417.583,-172.968 156.624,0 306.833,62.219 417.583,172.968 110.749,110.75 172.968,260.959 172.968,417.583 z"
         id="path4275" />
    </g>
  </g>
  <g
     style="fill:#000000;fill-opacity:1;stroke:#000000;stroke-width:78.7402;stroke-linecap:round;stroke-linejoin:round;stroke-opacity:1"
     id="g2945" />
  <g
     id="g2947"
     style="fill:#000000;fill-opacity:0;stroke:#000000;stroke-width:19.685;stroke-linecap:round;stroke-linejoin:round;stroke-opacity:1" />
  <g
     style="fill:#000000;fill-opacity:1;stroke:#000000;stroke-width:78.7402;stroke-linecap:round;stroke-linejoin:round;stroke-opacity:1"
     id="g2949" />
  <g
     style="fill:#00ff00;stroke:none;stroke-width:0;stroke-linecap:round;stroke-linejoin:round;fill-opacity:1"
     id="g2953">
    <g
       id="circle2951"
       style="stroke:none;fill:#00ff00;fill-opacity:1">
      <path
         style="color:#000000;stroke:none;stroke-linecap:butt;stroke-linejoin:miter;-inkscape-stroke:none;fill:#00ff00;fill-opacity:1"
         d="m 78150.449,45511.801 a 590.55103,590.55103 0 0 1 -590.551,590.551 590.55103,590.55103 0 0 1 -590.551,-590.551 590.55103,590.55103 0 0 1 590.551,-590.551 590.55103,590.55103 0 0 1 590.551,590.551 z"
         id="path4537" />
      <path
         style="color:#000000;stroke:none;stroke-linecap:butt;stroke-linejoin:miter;-inkscape-stroke:none;fill:#00ff00;fill-opacity:1"
         d="m 78150.449,45511.801 c 0,156.624 -62.219,306.833 -172.968,417.583 -110.75,110.749 -260.959,172.968 -417.583,172.968 -156.624,0 -306.833,-62.219 -417.583,-172.968 -110.749,-110.75 -172.968,-260.959 -172.968,-417.583 0,-156.624 62.219,-306.833 172.968,-417.583 110.75,-110.749 260.959,-172.968 417.583,-172.968 156.624,0 306.833,62.219 417.583,172.968 110.749,110.75 172.968,260.959 172.968,417.583 z"
         id="path4539" />
    </g>
  </g>
  <g
     style="fill:#000000;fill-opacity:1;stroke:#000000;stroke-width:78.7402;stroke-linecap:round;stroke-linejoin:round;stroke-opacity:1"
     id="g2955" />
  <g
     style="fill:#00ff00;stroke:none;stroke-width:0;stroke-linecap:round;stroke-linejoin:round;fill-opacity:1"
     id="g2959">
    <g
       id="circle2957"
       style="stroke:none;fill:#00ff00;fill-opacity:1">
      <path
         style="color:#000000;stroke:none;stroke-linecap:butt;stroke-linejoin:miter;-inkscape-stroke:none;fill:#00ff00;fill-opacity:1"
         d="m 76181.949,45511.801 a 590.55103,590.55103 0 0 1 -590.551,590.551 590.55103,590.55103 0 0 1 -590.551,-590.551 590.55103,590.55103 0 0 1 590.551,-590.551 590.55103,590.55103 0 0 1 590.551,590.551 z"
         id="path4529" />
      <path
         style="color:#000000;stroke:none;stroke-linecap:butt;stroke-linejoin:miter;-inkscape-stroke:none;fill:#00ff00;fill-opacity:1"
         d="m 76181.949,45511.801 c 0,156.624 -62.219,306.833 -172.968,417.583 -110.75,110.749 -260.959,172.968 -417.583,172.968 -156.624,0 -306.833,-62.219 -417.583,-172.968 -110.749,-110.75 -172.968,-260.959 -172.968,-417.583 0,-156.624 62.219,-306.833 172.968,-417.583 110.75,-110.749 260.959,-172.968 417.583,-172.968 156.624,0 306.833,62.219 417.583,172.968 110.749,110.75 172.968,260.959 172.968,417.583 z"
         id="path4531" />
    </g>
  </g>
  <g
     style="fill:#000000;fill-opacity:1;stroke:#000000;stroke-width:78.7402;stroke-linecap:round;stroke-linejoin:round;stroke-opacity:1"
     id="g2961" />
  <g
     style="fill:#00ff00;stroke:none;stroke-width:0;stroke-linecap:round;stroke-linejoin:round;fill-opacity:1"
     id="g2965">
    <g
       id="circle2963"
       style="stroke:none;fill:#00ff00;fill-opacity:1">
      <path
         style="color:#000000;stroke:none;stroke-linecap:butt;stroke-linejoin:miter;-inkscape-stroke:none;fill:#00ff00;fill-opacity:1"
         d="m 76181.949,43543.301 a 590.55103,590.55103 0 0 1 -590.551,590.551 590.55103,590.55103 0 0 1 -590.551,-590.551 590.55103,590.55103 0 0 1 590.551,-590.551 590.55103,590.55103 0 0 1 590.551,590.551 z"
         id="path4281" />
      <path
         style="color:#000000;stroke:none;stroke-linecap:butt;stroke-linejoin:miter;-inkscape-stroke:none;fill:#00ff00;fill-opacity:1"
         d="m 76181.949,43543.301 c 0,156.624 -62.219,306.833 -172.968,417.583 -110.75,110.749 -260.959,172.968 -417.583,172.968 -156.624,0 -306.833,-62.219 -417.583,-172.968 -110.749,-110.75 -172.968,-260.959 -172.968,-417.583 0,-156.624 62.219,-306.833 172.968,-417.583 110.75,-110.749 260.959,-172.968 417.583,-172.968 156.624,0 306.833,62.219 417.583,172.968 110.749,110.75 172.968,260.959 172.968,417.583 z"
         id="path4283" />
    </g>
  </g>
  <g
     style="fill:#000000;fill-opacity:1;stroke:#000000;stroke-width:78.7402;stroke-linecap:round;stroke-linejoin:round;stroke-opacity:1"
     id="g2967" />
  <g
     style="fill:#00ff00;stroke:none;stroke-width:0;stroke-linecap:round;stroke-linejoin:round;fill-opacity:1"
     id="g2971">
    <g
       id="circle2969"
       style="stroke:none;fill:#00ff00;fill-opacity:1">
      <path
         style="color:#000000;stroke:none;stroke-linecap:butt;stroke-linejoin:miter;-inkscape-stroke:none;fill:#00ff00;fill-opacity:1"
         d="m 78150.449,43543.301 a 590.55103,590.55103 0 0 1 -590.551,590.551 590.55103,590.55103 0 0 1 -590.551,-590.551 590.55103,590.55103 0 0 1 590.551,-590.551 590.55103,590.55103 0 0 1 590.551,590.551 z"
         id="path4289" />
      <path
         style="color:#000000;stroke:none;stroke-linecap:butt;stroke-linejoin:miter;-inkscape-stroke:none;fill:#00ff00;fill-opacity:1"
         d="m 78150.449,43543.301 c 0,156.624 -62.219,306.833 -172.968,417.583 -110.75,110.749 -260.959,172.968 -417.583,172.968 -156.624,0 -306.833,-62.219 -417.583,-172.968 -110.749,-110.75 -172.968,-260.959 -172.968,-417.583 0,-156.624 62.219,-306.833 172.968,-417.583 110.75,-110.749 260.959,-172.968 417.583,-172.968 156.624,0 306.833,62.219 417.583,172.968 110.749,110.75 172.968,260.959 172.968,417.583 z"
         id="path4291" />
    </g>
  </g>
  <g
     style="fill:#000000;fill-opacity:1;stroke:#000000;stroke-width:78.7402;stroke-linecap:round;stroke-linejoin:round;stroke-opacity:1"
     id="g2973" />
  <g
     id="g2975"
     style="fill:#000000;fill-opacity:0;stroke:#000000;stroke-width:19.685;stroke-linecap:round;stroke-linejoin:round;stroke-opacity:1" />
  <g
     style="fill:#000000;fill-opacity:1;stroke:#000000;stroke-width:78.7402;stroke-linecap:round;stroke-linejoin:round;stroke-opacity:1"
     id="g2977" />
  <g
     style="fill:#00ff00;stroke:none;stroke-width:0;stroke-linecap:round;stroke-linejoin:round;fill-opacity:1"
     id="g2981">
    <g
       id="circle2979"
       style="stroke:none;fill:#00ff00;fill-opacity:1">
      <path
         style="color:#000000;stroke:none;stroke-linecap:butt;stroke-linejoin:miter;-inkscape-stroke:none;fill:#00ff00;fill-opacity:1"
         d="m 78150.449,37165.398 a 590.55103,590.55103 0 0 1 -590.551,590.551 590.55103,590.55103 0 0 1 -590.551,-590.551 590.55103,590.55103 0 0 1 590.551,-590.551 590.55103,590.55103 0 0 1 590.551,590.551 z"
         id="path4297" />
      <path
         style="color:#000000;stroke:none;stroke-linecap:butt;stroke-linejoin:miter;-inkscape-stroke:none;fill:#00ff00;fill-opacity:1"
         d="m 78150.449,37165.398 c 0,156.624 -62.219,306.833 -172.968,417.583 -110.75,110.749 -260.959,172.968 -417.583,172.968 -156.624,0 -306.833,-62.219 -417.583,-172.968 -110.749,-110.75 -172.968,-260.959 -172.968,-417.583 0,-156.624 62.219,-306.833 172.968,-417.583 110.75,-110.749 260.959,-172.968 417.583,-172.968 156.624,0 306.833,62.219 417.583,172.968 110.749,110.75 172.968,260.959 172.968,417.583 z"
         id="path4299" />
    </g>
  </g>
  <g
     style="fill:#000000;fill-opacity:1;stroke:#000000;stroke-width:78.7402;stroke-linecap:round;stroke-linejoin:round;stroke-opacity:1"
     id="g2983" />
  <g
     style="fill:#00ff00;stroke:none;stroke-width:0;stroke-linecap:round;stroke-linejoin:round;fill-opacity:1"
     id="g2987">
    <g
       id="circle2985"
       style="stroke:none;fill:#00ff00;fill-opacity:1">
      <path
         style="color:#000000;stroke:none;stroke-linecap:butt;stroke-linejoin:miter;-inkscape-stroke:none;fill:#00ff00;fill-opacity:1"
         d="m 76181.949,37165.398 a 590.55103,590.55103 0 0 1 -590.551,590.551 590.55103,590.55103 0 0 1 -590.551,-590.551 590.55103,590.55103 0 0 1 590.551,-590.551 590.55103,590.55103 0 0 1 590.551,590.551 z"
         id="path4305" />
      <path
         style="color:#000000;stroke:none;stroke-linecap:butt;stroke-linejoin:miter;-inkscape-stroke:none;fill:#00ff00;fill-opacity:1"
         d="m 76181.949,37165.398 c 0,156.624 -62.219,306.833 -172.968,417.583 -110.75,110.749 -260.959,172.968 -417.583,172.968 -156.624,0 -306.833,-62.219 -417.583,-172.968 -110.749,-110.75 -172.968,-260.959 -172.968,-417.583 0,-156.624 62.219,-306.833 172.968,-417.583 110.75,-110.749 260.959,-172.968 417.583,-172.968 156.624,0 306.833,62.219 417.583,172.968 110.749,110.75 172.968,260.959 172.968,417.583 z"
         id="path4307" />
    </g>
  </g>
  <g
     style="fill:#000000;fill-opacity:1;stroke:#000000;stroke-width:78.7402;stroke-linecap:round;stroke-linejoin:round;stroke-opacity:1"
     id="g2989" />
  <g
     style="fill:#00ff00;stroke:none;stroke-width:0;stroke-linecap:round;stroke-linejoin:round;fill-opacity:1"
     id="g2993">
    <g
       id="circle2991"
       style="stroke:none;fill:#00ff00;fill-opacity:1">
      <path
         style="color:#000000;stroke:none;stroke-linecap:butt;stroke-linejoin:miter;-inkscape-stroke:none;fill:#00ff00;fill-opacity:1"
         d="m 76181.949,35196.898 a 590.55103,590.55103 0 0 1 -590.551,590.551 590.55103,590.55103 0 0 1 -590.551,-590.551 590.55103,590.55103 0 0 1 590.551,-590.551 590.55103,590.55103 0 0 1 590.551,590.551 z"
         id="path4313" />
      <path
         style="color:#000000;stroke:none;stroke-linecap:butt;stroke-linejoin:miter;-inkscape-stroke:none;fill:#00ff00;fill-opacity:1"
         d="m 76181.949,35196.898 c 0,156.624 -62.219,306.833 -172.968,417.583 -110.75,110.749 -260.959,172.968 -417.583,172.968 -156.624,0 -306.833,-62.219 -417.583,-172.968 -110.749,-110.75 -172.968,-260.959 -172.968,-417.583 0,-156.624 62.219,-306.833 172.968,-417.583 110.75,-110.749 260.959,-172.968 417.583,-172.968 156.624,0 306.833,62.219 417.583,172.968 110.749,110.75 172.968,260.959 172.968,417.583 z"
         id="path4315" />
    </g>
  </g>
  <g
     style="fill:#000000;fill-opacity:1;stroke:#000000;stroke-width:78.7402;stroke-linecap:round;stroke-linejoin:round;stroke-opacity:1"
     id="g2995" />
  <g
     style="fill:#00ff00;stroke:none;stroke-width:0;stroke-linecap:round;stroke-linejoin:round;fill-opacity:1"
     id="g2999">
    <g
       id="circle2997"
       style="stroke:none;fill:#00ff00;fill-opacity:1">
      <path
         style="color:#000000;stroke:none;stroke-linecap:butt;stroke-linejoin:miter;-inkscape-stroke:none;fill:#00ff00;fill-opacity:1"
         d="m 78150.449,35196.898 a 590.55103,590.55103 0 0 1 -590.551,590.551 590.55103,590.55103 0 0 1 -590.551,-590.551 590.55103,590.55103 0 0 1 590.551,-590.551 590.55103,590.55103 0 0 1 590.551,590.551 z"
         id="path4321" />
      <path
         style="color:#000000;stroke:none;stroke-linecap:butt;stroke-linejoin:miter;-inkscape-stroke:none;fill:#00ff00;fill-opacity:1"
         d="m 78150.449,35196.898 c 0,156.624 -62.219,306.833 -172.968,417.583 -110.75,110.749 -260.959,172.968 -417.583,172.968 -156.624,0 -306.833,-62.219 -417.583,-172.968 -110.749,-110.75 -172.968,-260.959 -172.968,-417.583 0,-156.624 62.219,-306.833 172.968,-417.583 110.75,-110.749 260.959,-172.968 417.583,-172.968 156.624,0 306.833,62.219 417.583,172.968 110.749,110.75 172.968,260.959 172.968,417.583 z"
         id="path4323" />
    </g>
  </g>
  <g
     style="fill:#000000;fill-opacity:1;stroke:#000000;stroke-width:78.7402;stroke-linecap:round;stroke-linejoin:round;stroke-opacity:1"
     id="g3001" />
  <g
     id="g3003"
     style="fill:#000000;fill-opacity:0;stroke:#000000;stroke-width:19.685;stroke-linecap:round;stroke-linejoin:round;stroke-opacity:1" />
  <g
     style="fill:#000000;fill-opacity:1;stroke:#000000;stroke-width:78.7402;stroke-linecap:round;stroke-linejoin:round;stroke-opacity:1"
     id="g3005" />
  <g
     style="fill:#00ff00;stroke:none;stroke-width:0;stroke-linecap:round;stroke-linejoin:round;fill-opacity:1"
     id="g3009">
    <g
       id="circle3007"
       style="stroke:none;fill:#00ff00;fill-opacity:1">
      <path
         style="color:#000000;stroke:none;stroke-linecap:butt;stroke-linejoin:miter;-inkscape-stroke:none;fill:#00ff00;fill-opacity:1"
         d="m 82323.653,41338.602 a 590.55103,590.55103 0 0 1 -590.551,590.551 590.55103,590.55103 0 0 1 -590.551,-590.551 590.55103,590.55103 0 0 1 590.551,-590.551 590.55103,590.55103 0 0 1 590.551,590.551 z"
         id="path4329" />
      <path
         style="color:#000000;stroke:none;stroke-linecap:butt;stroke-linejoin:miter;-inkscape-stroke:none;fill:#00ff00;fill-opacity:1"
         d="m 82323.653,41338.602 c 0,156.624 -62.219,306.833 -172.968,417.583 -110.75,110.749 -260.959,172.968 -417.583,172.968 -156.624,0 -306.833,-62.219 -417.583,-172.968 -110.749,-110.75 -172.968,-260.959 -172.968,-417.583 0,-156.624 62.219,-306.833 172.968,-417.583 110.75,-110.749 260.959,-172.968 417.583,-172.968 156.624,0 306.833,62.219 417.583,172.968 110.749,110.75 172.968,260.959 172.968,417.583 z"
         id="path4331" />
    </g>
  </g>
  <g
     style="fill:#000000;fill-opacity:1;stroke:#000000;stroke-width:78.7402;stroke-linecap:round;stroke-linejoin:round;stroke-opacity:1"
     id="g3011" />
  <g
     style="fill:#00ff00;stroke:none;stroke-width:0;stroke-linecap:round;stroke-linejoin:round;fill-opacity:1"
     id="g3015">
    <g
       id="circle3013"
       style="stroke:none;fill:#00ff00;fill-opacity:1">
      <path
         style="color:#000000;stroke:none;stroke-linecap:butt;stroke-linejoin:miter;-inkscape-stroke:none;fill:#00ff00;fill-opacity:1"
         d="m 80355.153,41338.602 a 590.55103,590.55103 0 0 1 -590.551,590.551 590.55103,590.55103 0 0 1 -590.551,-590.551 590.55103,590.55103 0 0 1 590.551,-590.551 590.55103,590.55103 0 0 1 590.551,590.551 z"
         id="path4337" />
      <path
         style="color:#000000;stroke:none;stroke-linecap:butt;stroke-linejoin:miter;-inkscape-stroke:none;fill:#00ff00;fill-opacity:1"
         d="m 80355.153,41338.602 c 0,156.624 -62.219,306.833 -172.968,417.583 -110.75,110.749 -260.959,172.968 -417.583,172.968 -156.624,0 -306.833,-62.219 -417.583,-172.968 -110.749,-110.75 -172.968,-260.959 -172.968,-417.583 0,-156.624 62.219,-306.833 172.968,-417.583 110.75,-110.749 260.959,-172.968 417.583,-172.968 156.624,0 306.833,62.219 417.583,172.968 110.749,110.75 172.968,260.959 172.968,417.583 z"
         id="path4339" />
    </g>
  </g>
  <g
     style="fill:#000000;fill-opacity:1;stroke:#000000;stroke-width:78.7402;stroke-linecap:round;stroke-linejoin:round;stroke-opacity:1"
     id="g3017" />
  <g
     style="fill:#00ff00;stroke:none;stroke-width:0;stroke-linecap:round;stroke-linejoin:round;fill-opacity:1"
     id="g3021">
    <g
       id="circle3019"
       style="stroke:none;fill:#00ff00;fill-opacity:1">
      <path
         style="color:#000000;stroke:none;stroke-linecap:butt;stroke-linejoin:miter;-inkscape-stroke:none;fill:#00ff00;fill-opacity:1"
         d="m 80355.153,39370.102 a 590.55103,590.55103 0 0 1 -590.551,590.551 590.55103,590.55103 0 0 1 -590.551,-590.551 590.55103,590.55103 0 0 1 590.551,-590.551 590.55103,590.55103 0 0 1 590.551,590.551 z"
         id="path4345" />
      <path
         style="color:#000000;stroke:none;stroke-linecap:butt;stroke-linejoin:miter;-inkscape-stroke:none;fill:#00ff00;fill-opacity:1"
         d="m 80355.153,39370.102 c 0,156.624 -62.219,306.833 -172.968,417.583 -110.75,110.749 -260.959,172.968 -417.583,172.968 -156.624,0 -306.833,-62.219 -417.583,-172.968 -110.749,-110.75 -172.968,-260.959 -172.968,-417.583 0,-156.624 62.219,-306.833 172.968,-417.583 110.75,-110.749 260.959,-172.968 417.583,-172.968 156.624,0 306.833,62.219 417.583,172.968 110.749,110.75 172.968,260.959 172.968,417.583 z"
         id="path4347" />
    </g>
  </g>
  <g
     style="fill:#000000;fill-opacity:1;stroke:#000000;stroke-width:78.7402;stroke-linecap:round;stroke-linejoin:round;stroke-opacity:1"
     id="g3023" />
  <g
     style="fill:#00ff00;stroke:none;stroke-width:0;stroke-linecap:round;stroke-linejoin:round;fill-opacity:1"
     id="g3027">
    <g
       id="circle3025"
       style="stroke:none;fill:#00ff00;fill-opacity:1">
      <path
         style="color:#000000;stroke:none;stroke-linecap:butt;stroke-linejoin:miter;-inkscape-stroke:none;fill:#00ff00;fill-opacity:1"
         d="m 82323.653,39370.102 a 590.55103,590.55103 0 0 1 -590.551,590.551 590.55103,590.55103 0 0 1 -590.551,-590.551 590.55103,590.55103 0 0 1 590.551,-590.551 590.55103,590.55103 0 0 1 590.551,590.551 z"
         id="path4353" />
      <path
         style="color:#000000;stroke:none;stroke-linecap:butt;stroke-linejoin:miter;-inkscape-stroke:none;fill:#00ff00;fill-opacity:1"
         d="m 82323.653,39370.102 c 0,156.624 -62.219,306.833 -172.968,417.583 -110.75,110.749 -260.959,172.968 -417.583,172.968 -156.624,0 -306.833,-62.219 -417.583,-172.968 -110.749,-110.75 -172.968,-260.959 -172.968,-417.583 0,-156.624 62.219,-306.833 172.968,-417.583 110.75,-110.749 260.959,-172.968 417.583,-172.968 156.624,0 306.833,62.219 417.583,172.968 110.749,110.75 172.968,260.959 172.968,417.583 z"
         id="path4355" />
    </g>
  </g>
  <g
     style="fill:#000000;fill-opacity:1;stroke:#000000;stroke-width:78.7402;stroke-linecap:round;stroke-linejoin:round;stroke-opacity:1"
     id="g3029" />
  <g
     id="g3031"
     style="fill:#000000;fill-opacity:0;stroke:#000000;stroke-width:19.685;stroke-linecap:round;stroke-linejoin:round;stroke-opacity:1" />
  <g
     style="fill:#000000;fill-opacity:1;stroke:#000000;stroke-width:78.7402;stroke-linecap:round;stroke-linejoin:round;stroke-opacity:1"
     id="g3033" />
  <g
     style="fill:#00ff00;stroke:none;stroke-width:0;stroke-linecap:round;stroke-linejoin:round;fill-opacity:1"
     id="g3039">
    <g
       id="path3035"
       style="stroke:none;fill:#00ff00;fill-opacity:1">
      <path
         style="color:#000000;fill-rule:evenodd;stroke:none;-inkscape-stroke:none;fill:#00ff00;fill-opacity:1"
         d="m 71900.7,42343 -9.6,1.4 -9.4,2.4 -9.1,3.2 -8.7,4.1 -8.3,5 -7.7,5.8 -7.2,6.4 -6.5,7.2 -5.7,7.8 -5,8.2 -4.1,8.8 -3.3,9.1 -2.3,9.3 -1.4,9.6 -0.5,9.6 v 354.4 l 0.5,9.6 1.4,9.6 2.3,9.3 3.3,9.1 4.1,8.8 5,8.3 5.7,7.7 6.5,7.2 7.2,6.5 7.7,5.7 8.3,5 8.7,4.1 9.1,3.3 9.4,2.3 9.6,1.4 9.6,0.5 h 275.6 l 9.7,-0.5 9.5,-1.4 9.4,-2.3 9.1,-3.3 8.7,-4.1 8.3,-5 7.7,-5.7 7.2,-6.5 6.5,-7.2 5.7,-7.7 5,-8.3 4.1,-8.8 3.3,-9.1 2.3,-9.3 1.5,-9.6 0.4,-9.6 v -354.4 l -0.4,-9.6 -1.5,-9.6 -2.3,-9.3 -3.3,-9.1 -4.1,-8.8 -5,-8.2 -5.7,-7.8 -6.5,-7.2 -7.2,-6.4 -7.7,-5.8 -8.3,-5 -8.7,-4.1 -9.1,-3.2 -9.4,-2.4 -9.5,-1.4 -9.7,-0.5 h -275.6 z"
         id="path4361" />
      <path
         style="color:#000000;fill-rule:evenodd;stroke:none;-inkscape-stroke:none;fill:#00ff00;fill-opacity:1"
         d="m 71900.7,42343 -9.6,1.4 -9.4,2.4 -9.1,3.2 -8.7,4.1 -8.3,5 -7.7,5.8 -7.2,6.4 -6.5,7.2 -5.7,7.8 -5,8.2 -4.1,8.8 -3.3,9.1 -2.3,9.3 -1.4,9.6 -0.5,9.6 v 354.4 l 0.5,9.6 1.4,9.6 2.3,9.3 3.3,9.1 4.1,8.8 5,8.3 5.7,7.7 6.5,7.2 7.2,6.5 7.7,5.7 8.3,5 8.7,4.1 9.1,3.3 9.4,2.3 9.6,1.4 9.6,0.5 h 275.6 l 9.7,-0.5 9.5,-1.4 9.4,-2.3 9.1,-3.3 8.7,-4.1 8.3,-5 7.7,-5.7 7.2,-6.5 6.5,-7.2 5.7,-7.7 5,-8.3 4.1,-8.8 3.3,-9.1 2.3,-9.3 1.5,-9.6 0.4,-9.6 v -354.4 l -0.4,-9.6 -1.5,-9.6 -2.3,-9.3 -3.3,-9.1 -4.1,-8.8 -5,-8.2 -5.7,-7.8 -6.5,-7.2 -7.2,-6.4 -7.7,-5.8 -8.3,-5 -8.7,-4.1 -9.1,-3.2 -9.4,-2.4 -9.5,-1.4 -9.7,-0.5 h -275.6 z"
         id="path4363" />
    </g>
    <g
       id="path3037"
       style="stroke:none;fill:#00ff00;fill-opacity:1">
      <path
         style="color:#000000;fill-rule:evenodd;stroke:none;-inkscape-stroke:none;fill:#00ff00;fill-opacity:1"
         d="m 72688.1,42343 -9.6,1.4 -9.4,2.4 -9,3.2 -8.8,4.1 -8.3,5 -7.7,5.8 -7.2,6.4 -6.5,7.2 -5.7,7.8 -5,8.2 -4.1,8.8 -3.3,9.1 -2.3,9.3 -1.4,9.6 -0.5,9.6 v 354.4 l 0.5,9.6 1.4,9.6 2.3,9.3 3.3,9.1 4.1,8.8 5,8.3 5.7,7.7 6.5,7.2 7.2,6.5 7.7,5.7 8.3,5 8.8,4.1 9,3.3 9.4,2.3 9.6,1.4 9.6,0.5 h 275.6 l 9.7,-0.5 9.5,-1.4 9.4,-2.3 9.1,-3.3 8.7,-4.1 8.3,-5 7.7,-5.7 7.2,-6.5 6.5,-7.2 5.7,-7.7 5,-8.3 4.1,-8.8 3.3,-9.1 2.3,-9.3 1.5,-9.6 0.4,-9.6 v -354.4 l -0.4,-9.6 -1.5,-9.6 -2.3,-9.3 -3.3,-9.1 -4.1,-8.8 -5,-8.2 -5.7,-7.8 -6.5,-7.2 -7.2,-6.4 -7.7,-5.8 -8.3,-5 -8.7,-4.1 -9.1,-3.2 -9.4,-2.4 -9.5,-1.4 -9.7,-0.5 h -275.6 z"
         id="path4369" />
      <path
         style="color:#000000;fill-rule:evenodd;stroke:none;-inkscape-stroke:none;fill:#00ff00;fill-opacity:1"
         d="m 72688.1,42343 -9.6,1.4 -9.4,2.4 -9,3.2 -8.8,4.1 -8.3,5 -7.7,5.8 -7.2,6.4 -6.5,7.2 -5.7,7.8 -5,8.2 -4.1,8.8 -3.3,9.1 -2.3,9.3 -1.4,9.6 -0.5,9.6 v 354.4 l 0.5,9.6 1.4,9.6 2.3,9.3 3.3,9.1 4.1,8.8 5,8.3 5.7,7.7 6.5,7.2 7.2,6.5 7.7,5.7 8.3,5 8.8,4.1 9,3.3 9.4,2.3 9.6,1.4 9.6,0.5 h 275.6 l 9.7,-0.5 9.5,-1.4 9.4,-2.3 9.1,-3.3 8.7,-4.1 8.3,-5 7.7,-5.7 7.2,-6.5 6.5,-7.2 5.7,-7.7 5,-8.3 4.1,-8.8 3.3,-9.1 2.3,-9.3 1.5,-9.6 0.4,-9.6 v -354.4 l -0.4,-9.6 -1.5,-9.6 -2.3,-9.3 -3.3,-9.1 -4.1,-8.8 -5,-8.2 -5.7,-7.8 -6.5,-7.2 -7.2,-6.4 -7.7,-5.8 -8.3,-5 -8.7,-4.1 -9.1,-3.2 -9.4,-2.4 -9.5,-1.4 -9.7,-0.5 h -275.6 z"
         id="path4371" />
    </g>
  </g>
  <g
     id="g3041"
     style="fill:#000000;fill-opacity:0;stroke:#000000;stroke-width:19.685;stroke-linecap:round;stroke-linejoin:round;stroke-opacity:1" />
  <g
     style="fill:#00ff00;stroke:none;stroke-width:0;stroke-linecap:round;stroke-linejoin:round;fill-opacity:1"
     id="g3047">
    <g
       id="path3043"
       style="stroke:none;fill:#00ff00;fill-opacity:1">
      <path
         style="color:#000000;fill-rule:evenodd;stroke:none;-inkscape-stroke:none;fill:#00ff00;fill-opacity:1"
         d="m 80424.3,42874.5 -9.6,1.4 -9.3,2.4 -9.1,3.2 -8.8,4.1 -8.2,5 -7.8,5.8 -7.2,6.4 -6.4,7.2 -5.8,7.8 -5,8.2 -4.1,8.8 -3.2,9.1 -2.4,9.3 -1.4,9.6 -0.5,9.6 v 275.6 l 0.5,9.7 1.4,9.5 2.4,9.4 3.2,9.1 4.1,8.7 5,8.3 5.8,7.8 6.4,7.1 7.2,6.5 7.8,5.8 8.2,4.9 8.8,4.2 9.1,3.2 9.3,2.4 9.6,1.4 9.6,0.5 h 354.4 l 9.6,-0.5 9.6,-1.4 9.3,-2.4 9.1,-3.2 8.8,-4.2 8.2,-4.9 7.8,-5.8 7.2,-6.5 6.5,-7.1 5.7,-7.8 5,-8.3 4.1,-8.7 3.3,-9.1 2.3,-9.4 1.4,-9.5 0.5,-9.7 v -275.6 l -0.5,-9.6 -1.4,-9.6 -2.3,-9.3 -3.3,-9.1 -4.1,-8.8 -5,-8.2 -5.7,-7.8 -6.5,-7.2 -7.2,-6.4 -7.8,-5.8 -8.2,-5 -8.8,-4.1 -9.1,-3.2 -9.3,-2.4 -9.6,-1.4 -9.6,-0.5 h -354.4 z"
         id="path4377" />
      <path
         style="color:#000000;fill-rule:evenodd;stroke:none;-inkscape-stroke:none;fill:#00ff00;fill-opacity:1"
         d="m 80424.3,42874.5 -9.6,1.4 -9.3,2.4 -9.1,3.2 -8.8,4.1 -8.2,5 -7.8,5.8 -7.2,6.4 -6.4,7.2 -5.8,7.8 -5,8.2 -4.1,8.8 -3.2,9.1 -2.4,9.3 -1.4,9.6 -0.5,9.6 v 275.6 l 0.5,9.7 1.4,9.5 2.4,9.4 3.2,9.1 4.1,8.7 5,8.3 5.8,7.8 6.4,7.1 7.2,6.5 7.8,5.8 8.2,4.9 8.8,4.2 9.1,3.2 9.3,2.4 9.6,1.4 9.6,0.5 h 354.4 l 9.6,-0.5 9.6,-1.4 9.3,-2.4 9.1,-3.2 8.8,-4.2 8.2,-4.9 7.8,-5.8 7.2,-6.5 6.5,-7.1 5.7,-7.8 5,-8.3 4.1,-8.7 3.3,-9.1 2.3,-9.4 1.4,-9.5 0.5,-9.7 v -275.6 l -0.5,-9.6 -1.4,-9.6 -2.3,-9.3 -3.3,-9.1 -4.1,-8.8 -5,-8.2 -5.7,-7.8 -6.5,-7.2 -7.2,-6.4 -7.8,-5.8 -8.2,-5 -8.8,-4.1 -9.1,-3.2 -9.3,-2.4 -9.6,-1.4 -9.6,-0.5 h -354.4 z"
         id="path4379" />
    </g>
    <g
       id="path3045"
       style="stroke:none;fill:#00ff00;fill-opacity:1">
      <path
         style="color:#000000;fill-rule:evenodd;stroke:none;-inkscape-stroke:none;fill:#00ff00;fill-opacity:1"
         d="m 80424.3,43661.9 -9.6,1.4 -9.3,2.4 -9.1,3.2 -8.8,4.1 -8.2,5 -7.8,5.8 -7.2,6.4 -6.4,7.2 -5.8,7.8 -5,8.2 -4.1,8.8 -3.2,9.1 -2.4,9.3 -1.4,9.6 -0.5,9.6 v 275.6 l 0.5,9.7 1.4,9.5 2.4,9.4 3.2,9.1 4.1,8.7 5,8.3 5.8,7.8 6.4,7.1 7.2,6.5 7.8,5.8 8.2,4.9 8.8,4.2 9.1,3.2 9.3,2.4 9.6,1.4 9.6,0.5 h 354.4 l 9.6,-0.5 9.6,-1.4 9.3,-2.4 9.1,-3.2 8.8,-4.2 8.2,-4.9 7.8,-5.8 7.2,-6.5 6.5,-7.1 5.7,-7.8 5,-8.3 4.1,-8.7 3.3,-9.1 2.3,-9.4 1.4,-9.5 0.5,-9.7 v -275.6 l -0.5,-9.6 -1.4,-9.6 -2.3,-9.3 -3.3,-9.1 -4.1,-8.8 -5,-8.2 -5.7,-7.8 -6.5,-7.2 -7.2,-6.4 -7.8,-5.8 -8.2,-5 -8.8,-4.1 -9.1,-3.2 -9.3,-2.4 -9.6,-1.4 -9.6,-0.5 h -354.4 z"
         id="path4385" />
      <path
         style="color:#000000;fill-rule:evenodd;stroke:none;-inkscape-stroke:none;fill:#00ff00;fill-opacity:1"
         d="m 80424.3,43661.9 -9.6,1.4 -9.3,2.4 -9.1,3.2 -8.8,4.1 -8.2,5 -7.8,5.8 -7.2,6.4 -6.4,7.2 -5.8,7.8 -5,8.2 -4.1,8.8 -3.2,9.1 -2.4,9.3 -1.4,9.6 -0.5,9.6 v 275.6 l 0.5,9.7 1.4,9.5 2.4,9.4 3.2,9.1 4.1,8.7 5,8.3 5.8,7.8 6.4,7.1 7.2,6.5 7.8,5.8 8.2,4.9 8.8,4.2 9.1,3.2 9.3,2.4 9.6,1.4 9.6,0.5 h 354.4 l 9.6,-0.5 9.6,-1.4 9.3,-2.4 9.1,-3.2 8.8,-4.2 8.2,-4.9 7.8,-5.8 7.2,-6.5 6.5,-7.1 5.7,-7.8 5,-8.3 4.1,-8.7 3.3,-9.1 2.3,-9.4 1.4,-9.5 0.5,-9.7 v -275.6 l -0.5,-9.6 -1.4,-9.6 -2.3,-9.3 -3.3,-9.1 -4.1,-8.8 -5,-8.2 -5.7,-7.8 -6.5,-7.2 -7.2,-6.4 -7.8,-5.8 -8.2,-5 -8.8,-4.1 -9.1,-3.2 -9.3,-2.4 -9.6,-1.4 -9.6,-0.5 h -354.4 z"
         id="path4387" />
    </g>
  </g>
  <g
     id="g3049"
     style="fill:#000000;fill-opacity:0;stroke:#000000;stroke-width:19.685;stroke-linecap:round;stroke-linejoin:round;stroke-opacity:1" />
  <g
     style="fill:#00ff00;stroke:none;stroke-width:0;stroke-linecap:round;stroke-linejoin:round;fill-opacity:1"
     id="g3055">
    <g
       id="path3051"
       style="stroke:none;fill:#00ff00;fill-opacity:1">
      <path
         style="color:#000000;fill-rule:evenodd;stroke:none;-inkscape-stroke:none;fill:#00ff00;fill-opacity:1"
         d="m 81900.7,37165.8 -9.6,1.4 -9.4,2.4 -9.1,3.2 -8.7,4.2 -8.3,4.9 -7.7,5.8 -7.2,6.5 -6.5,7.1 -5.7,7.8 -5,8.3 -4.1,8.7 -3.3,9.1 -2.3,9.4 -1.4,9.5 -0.5,9.7 v 275.6 l 0.5,9.6 1.4,9.6 2.3,9.3 3.3,9.1 4.1,8.8 5,8.3 5.7,7.7 6.5,7.2 7.2,6.5 7.7,5.7 8.3,5 8.7,4.1 9.1,3.3 9.4,2.3 9.6,1.4 9.6,0.5 h 354.3 l 9.7,-0.5 9.5,-1.4 9.4,-2.3 9.1,-3.3 8.7,-4.1 8.3,-5 7.8,-5.7 7.1,-6.5 6.5,-7.2 5.8,-7.7 4.9,-8.3 4.2,-8.8 3.2,-9.1 2.4,-9.3 1.4,-9.6 0.5,-9.6 v -275.6 l -0.5,-9.7 -1.4,-9.5 -2.4,-9.4 -3.2,-9.1 -4.2,-8.7 -4.9,-8.3 -5.8,-7.8 -6.5,-7.1 -7.1,-6.5 -7.8,-5.8 -8.3,-4.9 -8.7,-4.2 -9.1,-3.2 -9.4,-2.4 -9.5,-1.4 -9.7,-0.4 h -354.3 z"
         id="path4393" />
      <path
         style="color:#000000;fill-rule:evenodd;stroke:none;-inkscape-stroke:none;fill:#00ff00;fill-opacity:1"
         d="m 81900.7,37165.8 -9.6,1.4 -9.4,2.4 -9.1,3.2 -8.7,4.2 -8.3,4.9 -7.7,5.8 -7.2,6.5 -6.5,7.1 -5.7,7.8 -5,8.3 -4.1,8.7 -3.3,9.1 -2.3,9.4 -1.4,9.5 -0.5,9.7 v 275.6 l 0.5,9.6 1.4,9.6 2.3,9.3 3.3,9.1 4.1,8.8 5,8.3 5.7,7.7 6.5,7.2 7.2,6.5 7.7,5.7 8.3,5 8.7,4.1 9.1,3.3 9.4,2.3 9.6,1.4 9.6,0.5 h 354.3 l 9.7,-0.5 9.5,-1.4 9.4,-2.3 9.1,-3.3 8.7,-4.1 8.3,-5 7.8,-5.7 7.1,-6.5 6.5,-7.2 5.8,-7.7 4.9,-8.3 4.2,-8.8 3.2,-9.1 2.4,-9.3 1.4,-9.6 0.5,-9.6 v -275.6 l -0.5,-9.7 -1.4,-9.5 -2.4,-9.4 -3.2,-9.1 -4.2,-8.7 -4.9,-8.3 -5.8,-7.8 -6.5,-7.1 -7.1,-6.5 -7.8,-5.8 -8.3,-4.9 -8.7,-4.2 -9.1,-3.2 -9.4,-2.4 -9.5,-1.4 -9.7,-0.4 h -354.3 z"
         id="path4395" />
    </g>
    <g
       id="path3053"
       style="stroke:none;fill:#00ff00;fill-opacity:1">
      <path
         style="color:#000000;fill-rule:evenodd;stroke:none;-inkscape-stroke:none;fill:#00ff00;fill-opacity:1"
         d="m 81900.7,36378.4 -9.6,1.4 -9.4,2.4 -9.1,3.2 -8.7,4.2 -8.3,4.9 -7.7,5.8 -7.2,6.5 -6.5,7.1 -5.7,7.8 -5,8.3 -4.1,8.7 -3.3,9.1 -2.3,9.4 -1.4,9.5 -0.5,9.7 v 275.6 l 0.5,9.6 1.4,9.6 2.3,9.3 3.3,9.1 4.1,8.8 5,8.3 5.7,7.7 6.5,7.2 7.2,6.5 7.7,5.7 8.3,5 8.7,4.1 9.1,3.3 9.4,2.3 9.6,1.4 9.6,0.5 h 354.3 l 9.7,-0.5 9.5,-1.4 9.4,-2.3 9.1,-3.3 8.7,-4.1 8.3,-5 7.8,-5.7 7.1,-6.5 6.5,-7.2 5.8,-7.7 4.9,-8.3 4.2,-8.8 3.2,-9.1 2.4,-9.3 1.4,-9.6 0.5,-9.6 v -275.6 l -0.5,-9.7 -1.4,-9.5 -2.4,-9.4 -3.2,-9.1 -4.2,-8.7 -4.9,-8.3 -5.8,-7.8 -6.5,-7.1 -7.1,-6.5 -7.8,-5.8 -8.3,-4.9 -8.7,-4.2 -9.1,-3.2 -9.4,-2.4 -9.5,-1.4 -9.7,-0.4 h -354.3 z"
         id="path4401" />
      <path
         style="color:#000000;fill-rule:evenodd;stroke:none;-inkscape-stroke:none;fill:#00ff00;fill-opacity:1"
         d="m 81900.7,36378.4 -9.6,1.4 -9.4,2.4 -9.1,3.2 -8.7,4.2 -8.3,4.9 -7.7,5.8 -7.2,6.5 -6.5,7.1 -5.7,7.8 -5,8.3 -4.1,8.7 -3.3,9.1 -2.3,9.4 -1.4,9.5 -0.5,9.7 v 275.6 l 0.5,9.6 1.4,9.6 2.3,9.3 3.3,9.1 4.1,8.8 5,8.3 5.7,7.7 6.5,7.2 7.2,6.5 7.7,5.7 8.3,5 8.7,4.1 9.1,3.3 9.4,2.3 9.6,1.4 9.6,0.5 h 354.3 l 9.7,-0.5 9.5,-1.4 9.4,-2.3 9.1,-3.3 8.7,-4.1 8.3,-5 7.8,-5.7 7.1,-6.5 6.5,-7.2 5.8,-7.7 4.9,-8.3 4.2,-8.8 3.2,-9.1 2.4,-9.3 1.4,-9.6 0.5,-9.6 v -275.6 l -0.5,-9.7 -1.4,-9.5 -2.4,-9.4 -3.2,-9.1 -4.2,-8.7 -4.9,-8.3 -5.8,-7.8 -6.5,-7.1 -7.1,-6.5 -7.8,-5.8 -8.3,-4.9 -8.7,-4.2 -9.1,-3.2 -9.4,-2.4 -9.5,-1.4 -9.7,-0.4 h -354.3 z"
         id="path4403" />
    </g>
  </g>
  <g
     id="g3057"
     style="fill:#000000;fill-opacity:0;stroke:#000000;stroke-width:19.685;stroke-linecap:round;stroke-linejoin:round;stroke-opacity:1" />
  <g
     style="fill:#00ff00;stroke:none;stroke-width:0;stroke-linecap:round;stroke-linejoin:round;fill-opacity:1"
     id="g3061">
    <g
       id="circle3059"
       style="stroke:none;fill:#00ff00;fill-opacity:1">
      <path
         style="color:#000000;stroke:none;stroke-linecap:butt;stroke-linejoin:miter;-inkscape-stroke:none;fill:#00ff00;fill-opacity:1"
         d="m 73248.878,36535.398 a 295.276,295.276 0 0 1 -295.276,295.276 295.276,295.276 0 0 1 -295.276,-295.276 295.276,295.276 0 0 1 295.276,-295.276 295.276,295.276 0 0 1 295.276,295.276 z"
         id="path4409" />
      <path
         style="color:#000000;stroke:none;stroke-linecap:butt;stroke-linejoin:miter;-inkscape-stroke:none;fill:#00ff00;fill-opacity:1"
         d="m 72671.602,36447.592 c -2.876,9.246 -5.311,18.686 -7.278,28.297 1.967,-9.611 4.402,-19.051 7.278,-28.297 z m -7.278,147.314 c 1.967,9.611 4.402,19.051 7.278,28.297 -2.876,-9.246 -5.311,-18.686 -7.278,-28.297 z m 201.473,222.492 c 9.246,2.876 18.686,5.311 28.297,7.278 -9.611,-1.967 -19.051,-4.402 -28.297,-7.278 z m 175.611,0 c -9.246,2.876 -18.686,5.311 -28.297,7.278 9.611,-1.967 19.051,-4.402 28.297,-7.278 z"
         id="path4411" />
    </g>
  </g>
  <g
     style="fill:#000000;fill-opacity:1;stroke:#000000;stroke-width:78.7402;stroke-linecap:round;stroke-linejoin:round;stroke-opacity:1"
     id="g3063" />
  <g
     style="fill:#00ff00;stroke:none;stroke-width:0;stroke-linecap:round;stroke-linejoin:round;fill-opacity:1"
     id="g3067">
    <g
       id="path3065"
       style="stroke:none;fill:#00ff00;fill-opacity:1">
      <path
         style="color:#000000;fill-rule:evenodd;stroke:none;-inkscape-stroke:none;fill:#00ff00;fill-opacity:1"
         d="m 72656.6,33760.5 -12.5,1.8 -12.3,3.1 -11.9,4.3 -11.5,5.4 -10.8,6.5 -10.2,7.5 -9.4,8.5 -8.5,9.4 -7.5,10.2 -6.5,10.8 -5.4,11.5 -4.3,11.9 -3.1,12.3 -1.8,12.5 -0.7,12.6 v 568.8 l 0.7,12.7 1.8,12.5 3.1,12.3 4.3,11.9 5.4,11.4 6.5,10.9 7.5,10.2 8.5,9.3 9.4,8.5 10.2,7.6 10.8,6.5 11.5,5.4 11.9,4.3 12.3,3 12.5,1.9 12.6,0.6 h 568.8 l 12.7,-0.6 12.5,-1.9 12.3,-3 11.9,-4.3 11.4,-5.4 10.9,-6.5 10.2,-7.6 9.3,-8.5 8.5,-9.3 7.6,-10.2 6.5,-10.9 5.4,-11.4 4.3,-11.9 3,-12.3 1.9,-12.5 0.6,-12.7 v -568.8 l -0.6,-12.6 -1.9,-12.5 -3,-12.3 -4.3,-11.9 -5.4,-11.5 -6.5,-10.8 -7.6,-10.2 -8.5,-9.4 -9.3,-8.5 -10.2,-7.5 -10.9,-6.5 -11.4,-5.4 -11.9,-4.3 -12.3,-3.1 -12.5,-1.8 -12.7,-0.7 h -568.8 z"
         id="path4417" />
      <path
         style="color:#000000;fill-rule:evenodd;stroke:none;-inkscape-stroke:none;fill:#00ff00;fill-opacity:1"
         d="m 72656.6,33760.5 -12.5,1.8 -12.3,3.1 -11.9,4.3 -11.5,5.4 -10.8,6.5 -10.2,7.5 -9.4,8.5 -8.5,9.4 -7.5,10.2 -6.5,10.8 -5.4,11.5 -4.3,11.9 -3.1,12.3 -1.8,12.5 -0.7,12.6 v 568.8 l 0.7,12.7 1.8,12.5 3.1,12.3 4.3,11.9 5.4,11.4 6.5,10.9 7.5,10.2 8.5,9.3 9.4,8.5 10.2,7.6 10.8,6.5 11.5,5.4 11.9,4.3 12.3,3 12.5,1.9 12.6,0.6 h 568.8 l 12.7,-0.6 12.5,-1.9 12.3,-3 11.9,-4.3 11.4,-5.4 10.9,-6.5 10.2,-7.6 9.3,-8.5 8.5,-9.3 7.6,-10.2 6.5,-10.9 5.4,-11.4 4.3,-11.9 3,-12.3 1.9,-12.5 0.6,-12.7 v -568.8 l -0.6,-12.6 -1.9,-12.5 -3,-12.3 -4.3,-11.9 -5.4,-11.5 -6.5,-10.8 -7.6,-10.2 -8.5,-9.4 -9.3,-8.5 -10.2,-7.5 -10.9,-6.5 -11.4,-5.4 -11.9,-4.3 -12.3,-3.1 -12.5,-1.8 -12.7,-0.7 h -568.8 z"
         id="path4419" />
    </g>
  </g>
  <g
     id="g3069"
     style="fill:#000000;fill-opacity:0;stroke:#000000;stroke-width:19.685;stroke-linecap:round;stroke-linejoin:round;stroke-opacity:1" />
  <g
     style="fill:#00ff00;stroke:none;stroke-width:0;stroke-linecap:round;stroke-linejoin:round;fill-opacity:1"
     id="g3073">
    <g
       id="circle3071"
       style="stroke:none;fill:#00ff00;fill-opacity:1">
      <path
         style="color:#000000;stroke:none;stroke-linecap:butt;stroke-linejoin:miter;-inkscape-stroke:none;fill:#00ff00;fill-opacity:1"
         d="m 82737.073,35669.301 a 295.276,295.276 0 0 1 -295.276,295.276 295.276,295.276 0 0 1 -295.276,-295.276 295.276,295.276 0 0 1 295.276,-295.276 295.276,295.276 0 0 1 295.276,295.276 z"
         id="path4425" />
      <path
         style="color:#000000;stroke:none;stroke-linecap:butt;stroke-linejoin:miter;-inkscape-stroke:none;fill:#00ff00;fill-opacity:1"
         d="m 82737.073,35669.301 c 0,163.076 -132.2,295.276 -295.276,295.276 -163.076,0 -295.276,-132.2 -295.276,-295.276 0,-163.076 132.2,-295.276 295.276,-295.276 163.076,0 295.276,132.2 295.276,295.276 z"
         id="path4427" />
    </g>
  </g>
  <g
     style="fill:#000000;fill-opacity:1;stroke:#000000;stroke-width:78.7402;stroke-linecap:round;stroke-linejoin:round;stroke-opacity:1"
     id="g3075" />
  <g
     style="fill:#00ff00;stroke:none;stroke-width:0;stroke-linecap:round;stroke-linejoin:round;fill-opacity:1"
     id="g3079">
    <g
       id="path3077"
       style="stroke:none;fill:#00ff00;fill-opacity:1">
      <path
         style="color:#000000;fill-rule:evenodd;stroke:none;-inkscape-stroke:none;fill:#00ff00;fill-opacity:1"
         d="m 79782.6,35256.5 -12.6,1.9 -12.2,3.1 -12,4.2 -11.4,5.4 -10.9,6.5 -10.1,7.6 -9.4,8.5 -8.5,9.4 -7.5,10.1 -6.6,10.9 -5.4,11.4 -4.2,11.9 -3.1,12.3 -1.9,12.5 -0.6,12.7 v 568.8 l 0.6,12.6 1.9,12.6 3.1,12.2 4.2,12 5.4,11.4 6.6,10.9 7.5,10.1 8.5,9.4 9.4,8.5 10.1,7.5 10.9,6.5 11.4,5.5 12,4.2 12.2,3.1 12.6,1.9 12.6,0.6 h 568.8 l 12.7,-0.6 12.5,-1.9 12.3,-3.1 11.9,-4.2 11.4,-5.5 10.9,-6.5 10.1,-7.5 9.4,-8.5 8.5,-9.4 7.6,-10.1 6.5,-10.9 5.4,-11.4 4.2,-12 3.1,-12.2 1.9,-12.6 0.6,-12.6 v -568.8 l -0.6,-12.7 -1.9,-12.5 -3.1,-12.3 -4.2,-11.9 -5.4,-11.4 -6.5,-10.9 -7.6,-10.1 -8.5,-9.4 -9.4,-8.5 -10.1,-7.6 -10.9,-6.5 -11.4,-5.4 -11.9,-4.2 -12.3,-3.1 -12.5,-1.9 -12.7,-0.6 h -568.8 z"
         id="path4433" />
      <path
         style="color:#000000;fill-rule:evenodd;stroke:none;-inkscape-stroke:none;fill:#00ff00;fill-opacity:1"
         d="m 79782.6,35256.5 -12.6,1.9 -12.2,3.1 -12,4.2 -11.4,5.4 -10.9,6.5 -10.1,7.6 -9.4,8.5 -8.5,9.4 -7.5,10.1 -6.6,10.9 -5.4,11.4 -4.2,11.9 -3.1,12.3 -1.9,12.5 -0.6,12.7 v 568.8 l 0.6,12.6 1.9,12.6 3.1,12.2 4.2,12 5.4,11.4 6.6,10.9 7.5,10.1 8.5,9.4 9.4,8.5 10.1,7.5 10.9,6.5 11.4,5.5 12,4.2 12.2,3.1 12.6,1.9 12.6,0.6 h 568.8 l 12.7,-0.6 12.5,-1.9 12.3,-3.1 11.9,-4.2 11.4,-5.5 10.9,-6.5 10.1,-7.5 9.4,-8.5 8.5,-9.4 7.6,-10.1 6.5,-10.9 5.4,-11.4 4.2,-12 3.1,-12.2 1.9,-12.6 0.6,-12.6 v -568.8 l -0.6,-12.7 -1.9,-12.5 -3.1,-12.3 -4.2,-11.9 -5.4,-11.4 -6.5,-10.9 -7.6,-10.1 -8.5,-9.4 -9.4,-8.5 -10.1,-7.6 -10.9,-6.5 -11.4,-5.4 -11.9,-4.2 -12.3,-3.1 -12.5,-1.9 -12.7,-0.6 h -568.8 z"
         id="path4435" />
    </g>
  </g>
  <g
     id="g3081"
     style="fill:#000000;fill-opacity:0;stroke:#000000;stroke-width:19.685;stroke-linecap:round;stroke-linejoin:round;stroke-opacity:1" />
  <g
     style="fill:#00ff00;stroke:none;stroke-width:0;stroke-linecap:round;stroke-linejoin:round;fill-opacity:1"
     id="g3085">
    <g
       id="circle3083"
       style="stroke:none;fill:#00ff00;fill-opacity:1">
      <path
         style="color:#000000;stroke:none;stroke-linecap:butt;stroke-linejoin:miter;-inkscape-stroke:none;fill:#00ff00;fill-opacity:1"
         d="m 82737.073,34409.398 a 295.276,295.276 0 0 1 -295.276,295.276 295.276,295.276 0 0 1 -295.276,-295.276 295.276,295.276 0 0 1 295.276,-295.276 295.276,295.276 0 0 1 295.276,295.276 z"
         id="path4441" />
      <path
         style="color:#000000;stroke:none;stroke-linecap:butt;stroke-linejoin:miter;-inkscape-stroke:none;fill:#00ff00;fill-opacity:1"
         d="m 82353.99,34691.398 c 9.246,2.876 18.688,5.311 28.299,7.278 -9.611,-1.967 -19.053,-4.402 -28.299,-7.278 z m 175.614,0 c -9.246,2.876 -18.688,5.311 -28.299,7.278 9.611,-1.967 19.053,-4.402 28.299,-7.278 z"
         id="path4443" />
    </g>
  </g>
  <g
     style="fill:#000000;fill-opacity:1;stroke:#000000;stroke-width:78.7402;stroke-linecap:round;stroke-linejoin:round;stroke-opacity:1"
     id="g3087" />
  <g
     style="fill:#00ff00;stroke:none;stroke-width:0;stroke-linecap:round;stroke-linejoin:round;fill-opacity:1"
     id="g3091">
    <g
       id="path3089"
       style="stroke:none;fill:#00ff00;fill-opacity:1">
      <path
         style="color:#000000;fill-rule:evenodd;stroke:none;-inkscape-stroke:none;fill:#00ff00;fill-opacity:1"
         d="m 79782.6,33996.7 -12.6,1.8 -12.2,3.1 -12,4.3 -11.4,5.4 -10.9,6.5 -10.1,7.5 -9.4,8.5 -8.5,9.4 -7.5,10.2 -6.6,10.8 -5.4,11.5 -4.2,11.9 -3.1,12.3 -1.9,12.5 -0.6,12.6 v 568.9 l 0.6,12.6 1.9,12.5 3.1,12.3 4.2,11.9 5.4,11.5 6.6,10.8 7.5,10.2 8.5,9.4 9.4,8.5 10.1,7.5 10.9,6.5 11.4,5.4 12,4.3 12.2,3.1 12.6,1.8 12.6,0.6 h 568.8 l 12.7,-0.6 12.5,-1.8 12.3,-3.1 11.9,-4.3 11.4,-5.4 10.9,-6.5 10.1,-7.5 9.4,-8.5 8.5,-9.4 7.6,-10.2 6.5,-10.8 5.4,-11.5 4.2,-11.9 3.1,-12.3 1.9,-12.5 0.6,-12.6 V 34125 l -0.6,-12.6 -1.9,-12.5 -3.1,-12.3 -4.2,-11.9 -5.4,-11.5 -6.5,-10.8 -7.6,-10.2 -8.5,-9.4 -9.4,-8.5 -10.1,-7.5 -10.9,-6.5 -11.4,-5.4 -11.9,-4.3 -12.3,-3.1 -12.5,-1.8 -12.7,-0.6 h -568.8 z"
         id="path4449" />
      <path
         style="color:#000000;fill-rule:evenodd;stroke:none;-inkscape-stroke:none;fill:#00ff00;fill-opacity:1"
         d="m 79782.6,33996.7 -12.6,1.8 -12.2,3.1 -12,4.3 -11.4,5.4 -10.9,6.5 -10.1,7.5 -9.4,8.5 -8.5,9.4 -7.5,10.2 -6.6,10.8 -5.4,11.5 -4.2,11.9 -3.1,12.3 -1.9,12.5 -0.6,12.6 v 568.9 l 0.6,12.6 1.9,12.5 3.1,12.3 4.2,11.9 5.4,11.5 6.6,10.8 7.5,10.2 8.5,9.4 9.4,8.5 10.1,7.5 10.9,6.5 11.4,5.4 12,4.3 12.2,3.1 12.6,1.8 12.6,0.6 h 568.8 l 12.7,-0.6 12.5,-1.8 12.3,-3.1 11.9,-4.3 11.4,-5.4 10.9,-6.5 10.1,-7.5 9.4,-8.5 8.5,-9.4 7.6,-10.2 6.5,-10.8 5.4,-11.5 4.2,-11.9 3.1,-12.3 1.9,-12.5 0.6,-12.6 V 34125 l -0.6,-12.6 -1.9,-12.5 -3.1,-12.3 -4.2,-11.9 -5.4,-11.5 -6.5,-10.8 -7.6,-10.2 -8.5,-9.4 -9.4,-8.5 -10.1,-7.5 -10.9,-6.5 -11.4,-5.4 -11.9,-4.3 -12.3,-3.1 -12.5,-1.8 -12.7,-0.6 h -568.8 z"
         id="path4451" />
    </g>
  </g>
  <g
     id="g3093"
     style="fill:#000000;fill-opacity:0;stroke:#000000;stroke-width:19.685;stroke-linecap:round;stroke-linejoin:round;stroke-opacity:1" />
  <g
     style="fill:#000000;fill-opacity:1;stroke:#000000;stroke-width:0;stroke-linecap:round;stroke-linejoin:round;stroke-opacity:1"
     id="g3095" />
  <g
     style="fill:#000000;fill-opacity:1;stroke:#000000;stroke-width:787.402;stroke-linecap:round;stroke-linejoin:round;stroke-opacity:1"
     id="g3097" />
  <g
     style="fill:#00ff00;fill-opacity:1;stroke:none;stroke-width:787.402;stroke-linecap:round;stroke-linejoin:round"
     id="g3111">
    <g
       id="path3099"
       style="stroke:none;fill:#00ff00;fill-opacity:1">
      <path
         style="color:#000000;stroke:none;stroke-linecap:butt;stroke-linejoin:miter;-inkscape-stroke:none;fill:#00ff00;fill-opacity:1"
         d="m 74055,33070 v -315"
         id="path4457" />
      <path
         style="color:#000000;fill-opacity:1;stroke:none;stroke-linecap:butt;stroke-linejoin:miter;-inkscape-stroke:none;fill:#00ff00"
         d="M 74055,32361.299 A 393.70099,393.70099 0 0 0 73661.299,32755 v 315 A 393.70099,393.70099 0 0 0 74055,33463.701 393.70099,393.70099 0 0 0 74448.701,33070 v -315 A 393.70099,393.70099 0 0 0 74055,32361.299 Z"
         id="path4459" />
    </g>
    <g
       id="path3101"
       style="stroke:none;fill:#00ff00;fill-opacity:1">
      <path
         style="color:#000000;stroke:none;stroke-linecap:butt;stroke-linejoin:miter;-inkscape-stroke:none;fill:#00ff00;fill-opacity:1"
         d="m 75055,33070 v -315"
         id="path4465" />
      <path
         style="color:#000000;fill-opacity:1;stroke:none;stroke-linecap:butt;stroke-linejoin:miter;-inkscape-stroke:none;fill:#00ff00"
         d="M 75055,32361.299 A 393.70099,393.70099 0 0 0 74661.299,32755 v 315 A 393.70099,393.70099 0 0 0 75055,33463.701 393.70099,393.70099 0 0 0 75448.701,33070 v -315 A 393.70099,393.70099 0 0 0 75055,32361.299 Z"
         id="path4467" />
    </g>
    <g
       id="path3103"
       style="stroke:none;fill:#00ff00;fill-opacity:1">
      <path
         style="color:#000000;stroke:none;stroke-linecap:butt;stroke-linejoin:miter;-inkscape-stroke:none;fill:#00ff00;fill-opacity:1"
         d="m 76055,33070 v -315"
         id="path4473" />
      <path
         style="color:#000000;fill-opacity:1;stroke:none;stroke-linecap:butt;stroke-linejoin:miter;-inkscape-stroke:none;fill:#00ff00"
         d="M 76055,32361.299 A 393.70099,393.70099 0 0 0 75661.299,32755 v 315 A 393.70099,393.70099 0 0 0 76055,33463.701 393.70099,393.70099 0 0 0 76448.701,33070 v -315 A 393.70099,393.70099 0 0 0 76055,32361.299 Z"
         id="path4475" />
    </g>
    <g
       id="path3105"
       style="stroke:none;fill:#00ff00;fill-opacity:1">
      <path
         style="color:#000000;stroke:none;stroke-linecap:butt;stroke-linejoin:miter;-inkscape-stroke:none;fill:#00ff00;fill-opacity:1"
         d="m 77055,33070 v -315"
         id="path4481" />
      <path
         style="color:#000000;fill-opacity:1;stroke:none;stroke-linecap:butt;stroke-linejoin:miter;-inkscape-stroke:none;fill:#00ff00"
         d="M 77055,32361.299 A 393.70099,393.70099 0 0 0 76661.299,32755 v 315 A 393.70099,393.70099 0 0 0 77055,33463.701 393.70099,393.70099 0 0 0 77448.701,33070 v -315 A 393.70099,393.70099 0 0 0 77055,32361.299 Z"
         id="path4483" />
    </g>
    <g
       id="path3107"
       style="stroke:none;fill:#00ff00;fill-opacity:1">
      <path
         style="color:#000000;stroke:none;stroke-linecap:butt;stroke-linejoin:miter;-inkscape-stroke:none;fill:#00ff00;fill-opacity:1"
         d="m 78055,33070 v -315"
         id="path4489" />
      <path
         style="color:#000000;fill-opacity:1;stroke:none;stroke-linecap:butt;stroke-linejoin:miter;-inkscape-stroke:none;fill:#00ff00"
         d="M 78055,32361.299 A 393.70099,393.70099 0 0 0 77661.299,32755 v 315 A 393.70099,393.70099 0 0 0 78055,33463.701 393.70099,393.70099 0 0 0 78448.701,33070 v -315 A 393.70099,393.70099 0 0 0 78055,32361.299 Z"
         id="path4491" />
    </g>
    <g
       id="path3109"
       style="stroke:none;fill:#00ff00;fill-opacity:1">
      <path
         style="color:#000000;stroke:none;stroke-linecap:butt;stroke-linejoin:miter;-inkscape-stroke:none;fill:#00ff00;fill-opacity:1"
         d="m 79055,33070 v -315"
         id="path4497" />
      <path
         style="color:#000000;fill-opacity:1;stroke:none;stroke-linecap:butt;stroke-linejoin:miter;-inkscape-stroke:none;fill:#00ff00"
         d="M 79055,32361.299 A 393.70099,393.70099 0 0 0 78661.299,32755 v 315 A 393.70099,393.70099 0 0 0 79055,33463.701 393.70099,393.70099 0 0 0 79448.701,33070 v -315 A 393.70099,393.70099 0 0 0 79055,32361.299 Z"
         id="path4499" />
    </g>
  </g>
  <g
     id="g3113"
     style="fill:#000000;fill-opacity:0;stroke:#000000;stroke-width:19.685;stroke-linecap:round;stroke-linejoin:round;stroke-opacity:1" />
  <g
     style="fill:#000000;fill-opacity:0;stroke:#000000;stroke-width:787.402;stroke-linecap:round;stroke-linejoin:round;stroke-opacity:1"
     id="g3115" />
  <g
     style="fill:#00ff00;stroke:none;stroke-width:0;stroke-linecap:round;stroke-linejoin:round;fill-opacity:1"
     id="g3119">
    <g
       id="circle3117"
       style="stroke:none;fill:#00ff00;fill-opacity:1">
      <path
         style="color:#000000;stroke:none;stroke-linecap:butt;stroke-linejoin:miter;-inkscape-stroke:none;fill:#00ff00;fill-opacity:1"
         d="m 82579.573,45984.301 a 295.276,295.276 0 0 1 -295.276,295.276 295.276,295.276 0 0 1 -295.276,-295.276 295.276,295.276 0 0 1 295.276,-295.276 295.276,295.276 0 0 1 295.276,295.276 z"
         id="path4545" />
      <path
         style="color:#000000;stroke:none;stroke-linecap:butt;stroke-linejoin:miter;-inkscape-stroke:none;fill:#00ff00;fill-opacity:1"
         d="m 82579.573,45984.301 c 0,163.076 -132.2,295.276 -295.276,295.276 -163.076,0 -295.276,-132.2 -295.276,-295.276 0,-163.076 132.2,-295.276 295.276,-295.276 163.076,0 295.276,132.2 295.276,295.276 z"
         id="path4547" />
    </g>
  </g>
  <g
     style="fill:#000000;fill-opacity:1;stroke:#000000;stroke-width:78.7402;stroke-linecap:round;stroke-linejoin:round;stroke-opacity:1"
     id="g3121" />
  <g
     style="fill:#00ff00;stroke:none;stroke-width:0;stroke-linecap:round;stroke-linejoin:round;fill-opacity:1"
     id="g3125">
    <g
       id="path3123"
       style="stroke:none;fill:#00ff00;fill-opacity:1">
      <path
         style="color:#000000;fill-rule:evenodd;stroke:none;-inkscape-stroke:none;fill:#00ff00;fill-opacity:1"
         d="m 81987.3,43209.3 -12.5,1.8 -12.3,3.1 -11.9,4.3 -11.5,5.4 -10.8,6.5 -10.2,7.5 -9.4,8.5 -8.5,9.4 -7.5,10.2 -6.5,10.8 -5.4,11.5 -4.3,11.9 -3.1,12.3 -1.8,12.5 -0.7,12.6 v 568.9 l 0.7,12.6 1.8,12.5 3.1,12.3 4.3,11.9 5.4,11.5 6.5,10.8 7.5,10.2 8.5,9.4 9.4,8.5 10.2,7.5 10.8,6.5 11.5,5.4 11.9,4.3 12.3,3.1 12.5,1.8 12.6,0.6 h 568.8 l 12.7,-0.6 12.5,-1.8 12.3,-3.1 11.9,-4.3 11.4,-5.4 10.9,-6.5 10.2,-7.5 9.3,-8.5 8.5,-9.4 7.6,-10.2 6.5,-10.8 5.4,-11.5 4.3,-11.9 3,-12.3 1.9,-12.5 0.6,-12.6 v -568.9 l -0.6,-12.6 -1.9,-12.5 -3,-12.3 -4.3,-11.9 -5.4,-11.5 -6.5,-10.8 -7.6,-10.2 -8.5,-9.4 -9.3,-8.5 -10.2,-7.5 -10.9,-6.5 -11.4,-5.4 -11.9,-4.3 -12.3,-3.1 -12.5,-1.8 -12.7,-0.6 h -568.8 z"
         id="path4505" />
      <path
         style="color:#000000;fill-rule:evenodd;stroke:none;-inkscape-stroke:none;fill:#00ff00;fill-opacity:1"
         d="m 81987.3,43209.3 -12.5,1.8 -12.3,3.1 -11.9,4.3 -11.5,5.4 -10.8,6.5 -10.2,7.5 -9.4,8.5 -8.5,9.4 -7.5,10.2 -6.5,10.8 -5.4,11.5 -4.3,11.9 -3.1,12.3 -1.8,12.5 -0.7,12.6 v 568.9 l 0.7,12.6 1.8,12.5 3.1,12.3 4.3,11.9 5.4,11.5 6.5,10.8 7.5,10.2 8.5,9.4 9.4,8.5 10.2,7.5 10.8,6.5 11.5,5.4 11.9,4.3 12.3,3.1 12.5,1.8 12.6,0.6 h 568.8 l 12.7,-0.6 12.5,-1.8 12.3,-3.1 11.9,-4.3 11.4,-5.4 10.9,-6.5 10.2,-7.5 9.3,-8.5 8.5,-9.4 7.6,-10.2 6.5,-10.8 5.4,-11.5 4.3,-11.9 3,-12.3 1.9,-12.5 0.6,-12.6 v -568.9 l -0.6,-12.6 -1.9,-12.5 -3,-12.3 -4.3,-11.9 -5.4,-11.5 -6.5,-10.8 -7.6,-10.2 -8.5,-9.4 -9.3,-8.5 -10.2,-7.5 -10.9,-6.5 -11.4,-5.4 -11.9,-4.3 -12.3,-3.1 -12.5,-1.8 -12.7,-0.6 h -568.8 z"
         id="path4507" />
    </g>
  </g>
  <g
     id="g3127"
     style="fill:#000000;fill-opacity:0;stroke:#000000;stroke-width:19.685;stroke-linecap:round;stroke-linejoin:round;stroke-opacity:1" />
  <g
     style="fill:#00ff00;stroke:none;stroke-width:0;stroke-linecap:round;stroke-linejoin:round;fill-opacity:1"
     id="g3131">
    <g
       id="circle3129"
       style="stroke:none;fill:#00ff00;fill-opacity:1">
      <path
         style="color:#000000;stroke:none;stroke-linecap:butt;stroke-linejoin:miter;-inkscape-stroke:none;fill:#00ff00;fill-opacity:1"
         d="m 73681.979,45984.301 a 295.276,295.276 0 0 1 -295.276,295.276 295.276,295.276 0 0 1 -295.276,-295.276 295.276,295.276 0 0 1 295.276,-295.276 295.276,295.276 0 0 1 295.276,295.276 z"
         id="path4521" />
      <path
         style="color:#000000;stroke:none;stroke-linecap:butt;stroke-linejoin:miter;-inkscape-stroke:none;fill:#00ff00;fill-opacity:1"
         d="m 73681.979,45984.301 c 0,163.076 -132.2,295.276 -295.276,295.276 -163.076,0 -295.276,-132.2 -295.276,-295.276 0,-163.076 132.2,-295.276 295.276,-295.276 163.076,0 295.276,132.2 295.276,295.276 z"
         id="path4523" />
    </g>
  </g>
  <g
     style="fill:#000000;fill-opacity:1;stroke:#000000;stroke-width:78.7402;stroke-linecap:round;stroke-linejoin:round;stroke-opacity:1"
     id="g3133" />
  <g
     style="fill:#00ff00;stroke:none;stroke-width:0;stroke-linecap:round;stroke-linejoin:round;fill-opacity:1"
     id="g3137">
    <g
       id="path3135"
       style="stroke:none;fill:#00ff00;fill-opacity:1">
      <path
         style="color:#000000;fill-rule:evenodd;stroke:none;-inkscape-stroke:none;fill:#00ff00;fill-opacity:1"
         d="m 73089.6,43209.3 -12.5,1.8 -12.3,3.1 -11.9,4.3 -11.4,5.4 -10.9,6.5 -10.1,7.5 -9.4,8.5 -8.5,9.4 -7.6,10.2 -6.5,10.8 -5.4,11.5 -4.2,11.9 -3.1,12.3 -1.9,12.5 -0.6,12.6 v 568.9 l 0.6,12.6 1.9,12.5 3.1,12.3 4.2,11.9 5.4,11.5 6.5,10.8 7.6,10.2 8.5,9.4 9.4,8.5 10.1,7.5 10.9,6.5 11.4,5.4 11.9,4.3 12.3,3.1 12.5,1.8 12.7,0.6 h 568.8 l 12.6,-0.6 12.6,-1.8 12.2,-3.1 12,-4.3 11.4,-5.4 10.9,-6.5 10.1,-7.5 9.4,-8.5 8.5,-9.4 7.5,-10.2 6.5,-10.8 5.5,-11.5 4.2,-11.9 3.1,-12.3 1.9,-12.5 0.6,-12.6 v -568.9 l -0.6,-12.6 -1.9,-12.5 -3.1,-12.3 -4.2,-11.9 -5.5,-11.5 -6.5,-10.8 -7.5,-10.2 -8.5,-9.4 -9.4,-8.5 -10.1,-7.5 -10.9,-6.5 -11.4,-5.4 -12,-4.3 -12.2,-3.1 -12.6,-1.8 -12.6,-0.6 h -568.8 z"
         id="path4513" />
      <path
         style="color:#000000;fill-rule:evenodd;stroke:none;-inkscape-stroke:none;fill:#00ff00;fill-opacity:1"
         d="m 73089.6,43209.3 -12.5,1.8 -12.3,3.1 -11.9,4.3 -11.4,5.4 -10.9,6.5 -10.1,7.5 -9.4,8.5 -8.5,9.4 -7.6,10.2 -6.5,10.8 -5.4,11.5 -4.2,11.9 -3.1,12.3 -1.9,12.5 -0.6,12.6 v 568.9 l 0.6,12.6 1.9,12.5 3.1,12.3 4.2,11.9 5.4,11.5 6.5,10.8 7.6,10.2 8.5,9.4 9.4,8.5 10.1,7.5 10.9,6.5 11.4,5.4 11.9,4.3 12.3,3.1 12.5,1.8 12.7,0.6 h 568.8 l 12.6,-0.6 12.6,-1.8 12.2,-3.1 12,-4.3 11.4,-5.4 10.9,-6.5 10.1,-7.5 9.4,-8.5 8.5,-9.4 7.5,-10.2 6.5,-10.8 5.5,-11.5 4.2,-11.9 3.1,-12.3 1.9,-12.5 0.6,-12.6 v -568.9 l -0.6,-12.6 -1.9,-12.5 -3.1,-12.3 -4.2,-11.9 -5.5,-11.5 -6.5,-10.8 -7.5,-10.2 -8.5,-9.4 -9.4,-8.5 -10.1,-7.5 -10.9,-6.5 -11.4,-5.4 -12,-4.3 -12.2,-3.1 -12.6,-1.8 -12.6,-0.6 h -568.8 z"
         id="path4515" />
    </g>
  </g>
  <g
     id="g3139"
     style="fill:#000000;fill-opacity:0;stroke:#000000;stroke-width:19.685;stroke-linecap:round;stroke-linejoin:round;stroke-opacity:1" />
  <g
     id="g3141"
     style="fill:#000000;fill-opacity:0;stroke:#000000;stroke-width:19.685;stroke-linecap:round;stroke-linejoin:round;stroke-opacity:1" />
  <g
     id="g3143"
     style="fill:#000000;fill-opacity:0;stroke:#000000;stroke-width:19.685;stroke-linecap:round;stroke-linejoin:round;stroke-opacity:1" />
</svg>
