<?xml version="1.0" encoding="UTF-8" standalone="no"?>
<svg
   version="1.1"
   width="29.700220cm"
   height="21.000720cm"
   viewBox="0 0 116930 82680"
   id="svg278"
   sodipodi:docname="keys-B_Mask.svg"
   inkscape:version="1.1.1 (3bf5ae0d25, 2021-09-20)"
   xmlns:inkscape="http://www.inkscape.org/namespaces/inkscape"
   xmlns:sodipodi="http://sodipodi.sourceforge.net/DTD/sodipodi-0.dtd"
   xmlns="http://www.w3.org/2000/svg"
   xmlns:svg="http://www.w3.org/2000/svg">
  <defs
     id="defs282" />
  <sodipodi:namedview
     id="namedview280"
     pagecolor="#ffffff"
     bordercolor="#666666"
     borderopacity="1.0"
     inkscape:pageshadow="2"
     inkscape:pageopacity="0.0"
     inkscape:pagecheckerboard="0"
     inkscape:document-units="cm"
     showgrid="false"
     inkscape:zoom="2.1442596"
     inkscape:cx="690.44811"
     inkscape:cy="396.6404"
     inkscape:window-width="1458"
     inkscape:window-height="996"
     inkscape:window-x="110"
     inkscape:window-y="45"
     inkscape:window-maximized="0"
     inkscape:current-layer="svg278" />
  <title
     id="title2">SVG Picture created as keys-B_Mask.svg date 2022/04/01 14:26:03 </title>
  <desc
     id="desc4">Picture generated by PCBNEW </desc>
  <g
     style="fill:#000000; fill-opacity:1;stroke:#000000; stroke-opacity:1; stroke-linecap:round; stroke-linejoin:round;"
     transform="translate(0 0) scale(1 1)"
     id="g6" />
  <g
     style="fill:#000000; fill-opacity:0.0;  stroke:#000000; stroke-width:-0.000393701; stroke-opacity:1;  stroke-linecap:round; stroke-linejoin:round;"
     id="g8" />
  <path
     d="M 85237,29921 H 67914"
     id="path10"
     style="fill:none;fill-opacity:0;stroke:#ff0000;stroke-width:19.6850404;stroke-linecap:round;stroke-linejoin:round;stroke-opacity:1;stroke-miterlimit:4;stroke-dasharray:none" />
  <path
     d="M 85237,49015 V 29921"
     id="path12"
     style="fill:none;fill-opacity:0;stroke:#ff0000;stroke-width:19.6850404;stroke-linecap:round;stroke-linejoin:round;stroke-opacity:1;stroke-miterlimit:4;stroke-dasharray:none" />
  <path
     d="M 67914,49015 H 85237"
     id="path14"
     style="fill:none;fill-opacity:0;stroke:#ff0000;stroke-width:19.6850404;stroke-linecap:round;stroke-linejoin:round;stroke-opacity:1;stroke-miterlimit:4;stroke-dasharray:none" />
  <path
     d="M 67914,29921 V 49015"
     id="path16"
     style="fill:none;fill-opacity:0;stroke:#ff0000;stroke-width:19.6850404;stroke-linecap:round;stroke-linejoin:round;stroke-opacity:1;stroke-miterlimit:4;stroke-dasharray:none" />
  <path
     d="m 72441,47047 h 1378"
     id="path18"
     style="fill:#000000;fill-opacity:0;stroke:#ffff00;stroke-width:19.685;stroke-linecap:round;stroke-linejoin:round;stroke-opacity:1" />
  <path
     d="m 72441,44685 v 2362"
     id="path20"
     style="fill:#000000;fill-opacity:0;stroke:#ffff00;stroke-width:19.685;stroke-linecap:round;stroke-linejoin:round;stroke-opacity:1" />
  <path
     d="m 69882,44685 h 2559"
     id="path22"
     style="fill:#000000;fill-opacity:0;stroke:#ffff00;stroke-width:19.685;stroke-linecap:round;stroke-linejoin:round;stroke-opacity:1" />
  <path
     d="m 83268,31889 v 8386"
     id="path24"
     style="fill:#000000;fill-opacity:0;stroke:#ffff00;stroke-width:19.685;stroke-linecap:round;stroke-linejoin:round;stroke-opacity:1" />
  <path
     d="M 69882,31889 H 83268"
     id="path26"
     style="fill:#000000;fill-opacity:0;stroke:#ffff00;stroke-width:19.685;stroke-linecap:round;stroke-linejoin:round;stroke-opacity:1" />
  <path
     d="M 69882,33661 V 31889"
     id="path28"
     style="fill:#000000;fill-opacity:0;stroke:#ffff00;stroke-width:19.685;stroke-linecap:round;stroke-linejoin:round;stroke-opacity:1" />
  <path
     d="M 69882,44685 V 33661"
     id="path30"
     style="fill:#000000;fill-opacity:0;stroke:#ffff00;stroke-width:19.685;stroke-linecap:round;stroke-linejoin:round;stroke-opacity:1" />
  <path
     d="M 83268,47047 H 73819"
     id="path32"
     style="fill:#000000;fill-opacity:0;stroke:#ffff00;stroke-width:19.685;stroke-linecap:round;stroke-linejoin:round;stroke-opacity:1" />
  <path
     d="m 83268,40275 v 6772"
     id="path34"
     style="fill:#000000;fill-opacity:0;stroke:#ffff00;stroke-width:19.685;stroke-linecap:round;stroke-linejoin:round;stroke-opacity:1" />
  <g
     id="g36"
     style="fill:#000000;fill-opacity:0;stroke:#000000;stroke-width:19.685;stroke-linecap:round;stroke-linejoin:round;stroke-opacity:1" />
  <g
     style="fill:#00ff00;stroke:none;stroke-width:0;stroke-linecap:round;stroke-linejoin:round;fill-opacity:1"
     id="g40">
    <g
       id="circle38"
       style="fill:#00ff00;fill-opacity:1;stroke:none">
      <path
         style="color:#000000;stroke:none;stroke-linecap:butt;stroke-linejoin:miter;-inkscape-stroke:none;fill:#00ff00;fill-opacity:1"
         d="m 73977.254,41338.602 a 590.55103,590.55103 0 0 1 -590.551,590.551 590.55103,590.55103 0 0 1 -590.551,-590.551 590.55103,590.55103 0 0 1 590.551,-590.551 590.55103,590.55103 0 0 1 590.551,590.551 z"
         id="path1441" />
      <path
         style="color:#000000;stroke:none;stroke-linecap:butt;stroke-linejoin:miter;-inkscape-stroke:none;fill:#00ff00;fill-opacity:1"
         d="m 73977.254,41338.602 c 0,156.624 -62.219,306.833 -172.968,417.583 -110.75,110.749 -260.959,172.968 -417.583,172.968 -156.624,0 -306.833,-62.219 -417.583,-172.968 -110.749,-110.75 -172.968,-260.959 -172.968,-417.583 0,-156.624 62.219,-306.833 172.968,-417.583 110.75,-110.749 260.959,-172.968 417.583,-172.968 156.624,0 306.833,62.219 417.583,172.968 110.749,110.75 172.968,260.959 172.968,417.583 z"
         id="path1443" />
    </g>
  </g>
  <g
     style="fill:#000000;fill-opacity:1;stroke:#000000;stroke-width:39.3701;stroke-linecap:round;stroke-linejoin:round;stroke-opacity:1"
     id="g42" />
  <g
     style="fill:#00ff00;stroke:none;stroke-width:0;stroke-linecap:round;stroke-linejoin:round;fill-opacity:1"
     id="g46">
    <g
       id="circle44"
       style="fill:#00ff00;fill-opacity:1;stroke:none">
      <path
         style="color:#000000;stroke:none;stroke-linecap:butt;stroke-linejoin:miter;-inkscape-stroke:none;fill:#00ff00;fill-opacity:1"
         d="m 72008.754,41338.602 a 590.55103,590.55103 0 0 1 -590.551,590.551 590.55103,590.55103 0 0 1 -590.551,-590.551 590.55103,590.55103 0 0 1 590.551,-590.551 590.55103,590.55103 0 0 1 590.551,590.551 z"
         id="path1447" />
      <path
         style="color:#000000;stroke:none;stroke-linecap:butt;stroke-linejoin:miter;-inkscape-stroke:none;fill:#00ff00;fill-opacity:1"
         d="m 72008.754,41338.602 c 0,156.624 -62.219,306.833 -172.968,417.583 -110.75,110.749 -260.959,172.968 -417.583,172.968 -156.624,0 -306.833,-62.219 -417.583,-172.968 -110.749,-110.75 -172.968,-260.959 -172.968,-417.583 0,-156.624 62.219,-306.833 172.968,-417.583 110.75,-110.749 260.959,-172.968 417.583,-172.968 156.624,0 306.833,62.219 417.583,172.968 110.749,110.75 172.968,260.959 172.968,417.583 z"
         id="path1449" />
    </g>
  </g>
  <g
     style="fill:#000000;fill-opacity:1;stroke:#000000;stroke-width:39.3701;stroke-linecap:round;stroke-linejoin:round;stroke-opacity:1"
     id="g48" />
  <g
     style="fill:#00ff00;stroke:none;stroke-width:0;stroke-linecap:round;stroke-linejoin:round;fill-opacity:1"
     id="g52">
    <g
       id="circle50"
       style="fill:#00ff00;fill-opacity:1;stroke:none">
      <path
         style="color:#000000;stroke:none;stroke-linecap:butt;stroke-linejoin:miter;-inkscape-stroke:none;fill:#00ff00;fill-opacity:1"
         d="m 72008.754,39370.102 a 590.55103,590.55103 0 0 1 -590.551,590.551 590.55103,590.55103 0 0 1 -590.551,-590.551 590.55103,590.55103 0 0 1 590.551,-590.551 590.55103,590.55103 0 0 1 590.551,590.551 z"
         id="path1453" />
      <path
         style="color:#000000;stroke:none;stroke-linecap:butt;stroke-linejoin:miter;-inkscape-stroke:none;fill:#00ff00;fill-opacity:1"
         d="m 72008.754,39370.102 c 0,156.624 -62.219,306.833 -172.968,417.583 -110.75,110.749 -260.959,172.968 -417.583,172.968 -156.624,0 -306.833,-62.219 -417.583,-172.968 -110.749,-110.75 -172.968,-260.959 -172.968,-417.583 0,-156.624 62.219,-306.833 172.968,-417.583 110.75,-110.749 260.959,-172.968 417.583,-172.968 156.624,0 306.833,62.219 417.583,172.968 110.749,110.75 172.968,260.959 172.968,417.583 z"
         id="path1455" />
    </g>
  </g>
  <g
     style="fill:#000000;fill-opacity:1;stroke:#000000;stroke-width:39.3701;stroke-linecap:round;stroke-linejoin:round;stroke-opacity:1"
     id="g54" />
  <g
     style="fill:#00ff00;stroke:none;stroke-width:0;stroke-linecap:round;stroke-linejoin:round;fill-opacity:1"
     id="g58">
    <g
       id="circle56"
       style="fill:#00ff00;fill-opacity:1;stroke:none">
      <path
         style="color:#000000;stroke:none;stroke-linecap:butt;stroke-linejoin:miter;-inkscape-stroke:none;fill:#00ff00;fill-opacity:1"
         d="m 73977.254,39370.102 a 590.55103,590.55103 0 0 1 -590.551,590.551 590.55103,590.55103 0 0 1 -590.551,-590.551 590.55103,590.55103 0 0 1 590.551,-590.551 590.55103,590.55103 0 0 1 590.551,590.551 z"
         id="path1459" />
      <path
         style="color:#000000;stroke:none;stroke-linecap:butt;stroke-linejoin:miter;-inkscape-stroke:none;fill:#00ff00;fill-opacity:1"
         d="m 73977.254,39370.102 c 0,156.624 -62.219,306.833 -172.968,417.583 -110.75,110.749 -260.959,172.968 -417.583,172.968 -156.624,0 -306.833,-62.219 -417.583,-172.968 -110.749,-110.75 -172.968,-260.959 -172.968,-417.583 0,-156.624 62.219,-306.833 172.968,-417.583 110.75,-110.749 260.959,-172.968 417.583,-172.968 156.624,0 306.833,62.219 417.583,172.968 110.749,110.75 172.968,260.959 172.968,417.583 z"
         id="path1461" />
    </g>
  </g>
  <g
     style="fill:#000000;fill-opacity:1;stroke:#000000;stroke-width:39.3701;stroke-linecap:round;stroke-linejoin:round;stroke-opacity:1"
     id="g60" />
  <g
     id="g62"
     style="fill:#000000;fill-opacity:0;stroke:#000000;stroke-width:19.685;stroke-linecap:round;stroke-linejoin:round;stroke-opacity:1" />
  <g
     style="fill:#000000;fill-opacity:1;stroke:#000000;stroke-width:39.3701;stroke-linecap:round;stroke-linejoin:round;stroke-opacity:1"
     id="g64" />
  <g
     style="fill:#00ff00;stroke:none;stroke-width:0;stroke-linecap:round;stroke-linejoin:round;fill-opacity:1"
     id="g68">
    <g
       id="circle66"
       style="fill:#00ff00;fill-opacity:1;stroke:none">
      <path
         style="color:#000000;stroke:none;stroke-linecap:butt;stroke-linejoin:miter;-inkscape-stroke:none;fill:#00ff00;fill-opacity:1"
         d="m 78150.449,45511.801 a 590.55103,590.55103 0 0 1 -590.551,590.551 590.55103,590.55103 0 0 1 -590.551,-590.551 590.55103,590.55103 0 0 1 590.551,-590.551 590.55103,590.55103 0 0 1 590.551,590.551 z"
         id="path1465" />
      <path
         style="color:#000000;stroke:none;stroke-linecap:butt;stroke-linejoin:miter;-inkscape-stroke:none;fill:#00ff00;fill-opacity:1"
         d="m 78150.449,45511.801 c 0,156.624 -62.219,306.833 -172.968,417.583 -110.75,110.749 -260.959,172.968 -417.583,172.968 -156.624,0 -306.833,-62.219 -417.583,-172.968 -110.749,-110.75 -172.968,-260.959 -172.968,-417.583 0,-156.624 62.219,-306.833 172.968,-417.583 110.75,-110.749 260.959,-172.968 417.583,-172.968 156.624,0 306.833,62.219 417.583,172.968 110.749,110.75 172.968,260.959 172.968,417.583 z"
         id="path1467" />
    </g>
  </g>
  <g
     style="fill:#000000;fill-opacity:1;stroke:#000000;stroke-width:39.3701;stroke-linecap:round;stroke-linejoin:round;stroke-opacity:1"
     id="g70" />
  <g
     style="fill:#00ff00;stroke:none;stroke-width:0;stroke-linecap:round;stroke-linejoin:round;fill-opacity:1"
     id="g74">
    <g
       id="circle72"
       style="fill:#00ff00;fill-opacity:1;stroke:none">
      <path
         style="color:#000000;stroke:none;stroke-linecap:butt;stroke-linejoin:miter;-inkscape-stroke:none;fill:#00ff00;fill-opacity:1"
         d="m 76181.949,45511.801 a 590.55103,590.55103 0 0 1 -590.551,590.551 590.55103,590.55103 0 0 1 -590.551,-590.551 590.55103,590.55103 0 0 1 590.551,-590.551 590.55103,590.55103 0 0 1 590.551,590.551 z"
         id="path1471" />
      <path
         style="color:#000000;stroke:none;stroke-linecap:butt;stroke-linejoin:miter;-inkscape-stroke:none;fill:#00ff00;fill-opacity:1"
         d="m 76181.949,45511.801 c 0,156.624 -62.219,306.833 -172.968,417.583 -110.75,110.749 -260.959,172.968 -417.583,172.968 -156.624,0 -306.833,-62.219 -417.583,-172.968 -110.749,-110.75 -172.968,-260.959 -172.968,-417.583 0,-156.624 62.219,-306.833 172.968,-417.583 110.75,-110.749 260.959,-172.968 417.583,-172.968 156.624,0 306.833,62.219 417.583,172.968 110.749,110.75 172.968,260.959 172.968,417.583 z"
         id="path1473" />
    </g>
  </g>
  <g
     style="fill:#000000;fill-opacity:1;stroke:#000000;stroke-width:39.3701;stroke-linecap:round;stroke-linejoin:round;stroke-opacity:1"
     id="g76" />
  <g
     style="fill:#00ff00;stroke:none;stroke-width:0;stroke-linecap:round;stroke-linejoin:round;fill-opacity:1"
     id="g80">
    <g
       id="circle78"
       style="fill:#00ff00;fill-opacity:1;stroke:none">
      <path
         style="color:#000000;stroke:none;stroke-linecap:butt;stroke-linejoin:miter;-inkscape-stroke:none;fill:#00ff00;fill-opacity:1"
         d="m 76181.949,43543.301 a 590.55103,590.55103 0 0 1 -590.551,590.551 590.55103,590.55103 0 0 1 -590.551,-590.551 590.55103,590.55103 0 0 1 590.551,-590.551 590.55103,590.55103 0 0 1 590.551,590.551 z"
         id="path1477" />
      <path
         style="color:#000000;stroke:none;stroke-linecap:butt;stroke-linejoin:miter;-inkscape-stroke:none;fill:#00ff00;fill-opacity:1"
         d="m 76181.949,43543.301 c 0,156.624 -62.219,306.833 -172.968,417.583 -110.75,110.749 -260.959,172.968 -417.583,172.968 -156.624,0 -306.833,-62.219 -417.583,-172.968 -110.749,-110.75 -172.968,-260.959 -172.968,-417.583 0,-156.624 62.219,-306.833 172.968,-417.583 110.75,-110.749 260.959,-172.968 417.583,-172.968 156.624,0 306.833,62.219 417.583,172.968 110.749,110.75 172.968,260.959 172.968,417.583 z"
         id="path1479" />
    </g>
  </g>
  <g
     style="fill:#000000;fill-opacity:1;stroke:#000000;stroke-width:39.3701;stroke-linecap:round;stroke-linejoin:round;stroke-opacity:1"
     id="g82" />
  <g
     style="fill:#00ff00;stroke:none;stroke-width:0;stroke-linecap:round;stroke-linejoin:round;fill-opacity:1"
     id="g86">
    <g
       id="circle84"
       style="fill:#00ff00;fill-opacity:1;stroke:none">
      <path
         style="color:#000000;stroke:none;stroke-linecap:butt;stroke-linejoin:miter;-inkscape-stroke:none;fill:#00ff00;fill-opacity:1"
         d="m 78150.449,43543.301 a 590.55103,590.55103 0 0 1 -590.551,590.551 590.55103,590.55103 0 0 1 -590.551,-590.551 590.55103,590.55103 0 0 1 590.551,-590.551 590.55103,590.55103 0 0 1 590.551,590.551 z"
         id="path1483" />
      <path
         style="color:#000000;stroke:none;stroke-linecap:butt;stroke-linejoin:miter;-inkscape-stroke:none;fill:#00ff00;fill-opacity:1"
         d="m 78150.449,43543.301 c 0,156.624 -62.219,306.833 -172.968,417.583 -110.75,110.749 -260.959,172.968 -417.583,172.968 -156.624,0 -306.833,-62.219 -417.583,-172.968 -110.749,-110.75 -172.968,-260.959 -172.968,-417.583 0,-156.624 62.219,-306.833 172.968,-417.583 110.75,-110.749 260.959,-172.968 417.583,-172.968 156.624,0 306.833,62.219 417.583,172.968 110.749,110.75 172.968,260.959 172.968,417.583 z"
         id="path1485" />
    </g>
  </g>
  <g
     style="fill:#000000;fill-opacity:1;stroke:#000000;stroke-width:39.3701;stroke-linecap:round;stroke-linejoin:round;stroke-opacity:1"
     id="g88" />
  <g
     id="g90"
     style="fill:#000000;fill-opacity:0;stroke:#000000;stroke-width:19.685;stroke-linecap:round;stroke-linejoin:round;stroke-opacity:1" />
  <g
     style="fill:#000000;fill-opacity:1;stroke:#000000;stroke-width:39.3701;stroke-linecap:round;stroke-linejoin:round;stroke-opacity:1"
     id="g92" />
  <g
     style="fill:#00ff00;stroke:none;stroke-width:0;stroke-linecap:round;stroke-linejoin:round;fill-opacity:1"
     id="g96">
    <g
       id="circle94"
       style="fill:#00ff00;fill-opacity:1;stroke:none">
      <path
         style="color:#000000;stroke:none;stroke-linecap:butt;stroke-linejoin:miter;-inkscape-stroke:none;fill:#00ff00;fill-opacity:1"
         d="m 78150.449,37165.398 a 590.55103,590.55103 0 0 1 -590.551,590.551 590.55103,590.55103 0 0 1 -590.551,-590.551 590.55103,590.55103 0 0 1 590.551,-590.551 590.55103,590.55103 0 0 1 590.551,590.551 z"
         id="path1489" />
      <path
         style="color:#000000;stroke:none;stroke-linecap:butt;stroke-linejoin:miter;-inkscape-stroke:none;fill:#00ff00;fill-opacity:1"
         d="m 78150.449,37165.398 c 0,156.624 -62.219,306.833 -172.968,417.583 -110.75,110.749 -260.959,172.968 -417.583,172.968 -156.624,0 -306.833,-62.219 -417.583,-172.968 -110.749,-110.75 -172.968,-260.959 -172.968,-417.583 0,-156.624 62.219,-306.833 172.968,-417.583 110.75,-110.749 260.959,-172.968 417.583,-172.968 156.624,0 306.833,62.219 417.583,172.968 110.749,110.75 172.968,260.959 172.968,417.583 z"
         id="path1491" />
    </g>
  </g>
  <g
     style="fill:#000000;fill-opacity:1;stroke:#000000;stroke-width:39.3701;stroke-linecap:round;stroke-linejoin:round;stroke-opacity:1"
     id="g98" />
  <g
     style="fill:#00ff00;stroke:none;stroke-width:0;stroke-linecap:round;stroke-linejoin:round;fill-opacity:1"
     id="g102">
    <g
       id="circle100"
       style="fill:#00ff00;fill-opacity:1;stroke:none">
      <path
         style="color:#000000;stroke:none;stroke-linecap:butt;stroke-linejoin:miter;-inkscape-stroke:none;fill:#00ff00;fill-opacity:1"
         d="m 76181.949,37165.398 a 590.55103,590.55103 0 0 1 -590.551,590.551 590.55103,590.55103 0 0 1 -590.551,-590.551 590.55103,590.55103 0 0 1 590.551,-590.551 590.55103,590.55103 0 0 1 590.551,590.551 z"
         id="path1495" />
      <path
         style="color:#000000;stroke:none;stroke-linecap:butt;stroke-linejoin:miter;-inkscape-stroke:none;fill:#00ff00;fill-opacity:1"
         d="m 76181.949,37165.398 c 0,156.624 -62.219,306.833 -172.968,417.583 -110.75,110.749 -260.959,172.968 -417.583,172.968 -156.624,0 -306.833,-62.219 -417.583,-172.968 -110.749,-110.75 -172.968,-260.959 -172.968,-417.583 0,-156.624 62.219,-306.833 172.968,-417.583 110.75,-110.749 260.959,-172.968 417.583,-172.968 156.624,0 306.833,62.219 417.583,172.968 110.749,110.75 172.968,260.959 172.968,417.583 z"
         id="path1497" />
    </g>
  </g>
  <g
     style="fill:#000000;fill-opacity:1;stroke:#000000;stroke-width:39.3701;stroke-linecap:round;stroke-linejoin:round;stroke-opacity:1"
     id="g104" />
  <g
     style="fill:#00ff00;stroke:none;stroke-width:0;stroke-linecap:round;stroke-linejoin:round;fill-opacity:1"
     id="g108">
    <g
       id="circle106"
       style="fill:#00ff00;fill-opacity:1;stroke:none">
      <path
         style="color:#000000;stroke:none;stroke-linecap:butt;stroke-linejoin:miter;-inkscape-stroke:none;fill:#00ff00;fill-opacity:1"
         d="m 76181.949,35196.898 a 590.55103,590.55103 0 0 1 -590.551,590.551 590.55103,590.55103 0 0 1 -590.551,-590.551 590.55103,590.55103 0 0 1 590.551,-590.551 590.55103,590.55103 0 0 1 590.551,590.551 z"
         id="path1501" />
      <path
         style="color:#000000;stroke:none;stroke-linecap:butt;stroke-linejoin:miter;-inkscape-stroke:none;fill:#00ff00;fill-opacity:1"
         d="m 76181.949,35196.898 c 0,156.624 -62.219,306.833 -172.968,417.583 -110.75,110.749 -260.959,172.968 -417.583,172.968 -156.624,0 -306.833,-62.219 -417.583,-172.968 -110.749,-110.75 -172.968,-260.959 -172.968,-417.583 0,-156.624 62.219,-306.833 172.968,-417.583 110.75,-110.749 260.959,-172.968 417.583,-172.968 156.624,0 306.833,62.219 417.583,172.968 110.749,110.75 172.968,260.959 172.968,417.583 z"
         id="path1503" />
    </g>
  </g>
  <g
     style="fill:#000000;fill-opacity:1;stroke:#000000;stroke-width:39.3701;stroke-linecap:round;stroke-linejoin:round;stroke-opacity:1"
     id="g110" />
  <g
     style="fill:#00ff00;stroke:none;stroke-width:0;stroke-linecap:round;stroke-linejoin:round;fill-opacity:1"
     id="g114">
    <g
       id="circle112"
       style="fill:#00ff00;fill-opacity:1;stroke:none">
      <path
         style="color:#000000;stroke:none;stroke-linecap:butt;stroke-linejoin:miter;-inkscape-stroke:none;fill:#00ff00;fill-opacity:1"
         d="m 78150.449,35196.898 a 590.55103,590.55103 0 0 1 -590.551,590.551 590.55103,590.55103 0 0 1 -590.551,-590.551 590.55103,590.55103 0 0 1 590.551,-590.551 590.55103,590.55103 0 0 1 590.551,590.551 z"
         id="path1507" />
      <path
         style="color:#000000;stroke:none;stroke-linecap:butt;stroke-linejoin:miter;-inkscape-stroke:none;fill:#00ff00;fill-opacity:1"
         d="m 78150.449,35196.898 c 0,156.624 -62.219,306.833 -172.968,417.583 -110.75,110.749 -260.959,172.968 -417.583,172.968 -156.624,0 -306.833,-62.219 -417.583,-172.968 -110.749,-110.75 -172.968,-260.959 -172.968,-417.583 0,-156.624 62.219,-306.833 172.968,-417.583 110.75,-110.749 260.959,-172.968 417.583,-172.968 156.624,0 306.833,62.219 417.583,172.968 110.749,110.75 172.968,260.959 172.968,417.583 z"
         id="path1509" />
    </g>
  </g>
  <g
     style="fill:#000000;fill-opacity:1;stroke:#000000;stroke-width:39.3701;stroke-linecap:round;stroke-linejoin:round;stroke-opacity:1"
     id="g116" />
  <g
     id="g118"
     style="fill:#000000;fill-opacity:0;stroke:#000000;stroke-width:19.685;stroke-linecap:round;stroke-linejoin:round;stroke-opacity:1" />
  <g
     style="fill:#000000;fill-opacity:1;stroke:#000000;stroke-width:39.3701;stroke-linecap:round;stroke-linejoin:round;stroke-opacity:1"
     id="g120" />
  <g
     style="fill:#00ff00;stroke:none;stroke-width:0;stroke-linecap:round;stroke-linejoin:round;fill-opacity:1"
     id="g124">
    <g
       id="circle122"
       style="fill:#00ff00;fill-opacity:1;stroke:none">
      <path
         style="color:#000000;stroke:none;stroke-linecap:butt;stroke-linejoin:miter;-inkscape-stroke:none;fill:#00ff00;fill-opacity:1"
         d="m 82323.653,41338.602 a 590.55103,590.55103 0 0 1 -590.551,590.551 590.55103,590.55103 0 0 1 -590.551,-590.551 590.55103,590.55103 0 0 1 590.551,-590.551 590.55103,590.55103 0 0 1 590.551,590.551 z"
         id="path1513" />
      <path
         style="color:#000000;stroke:none;stroke-linecap:butt;stroke-linejoin:miter;-inkscape-stroke:none;fill:#00ff00;fill-opacity:1"
         d="m 82323.653,41338.602 c 0,156.624 -62.219,306.833 -172.968,417.583 -110.75,110.749 -260.959,172.968 -417.583,172.968 -156.624,0 -306.833,-62.219 -417.583,-172.968 -110.749,-110.75 -172.968,-260.959 -172.968,-417.583 0,-156.624 62.219,-306.833 172.968,-417.583 110.75,-110.749 260.959,-172.968 417.583,-172.968 156.624,0 306.833,62.219 417.583,172.968 110.749,110.75 172.968,260.959 172.968,417.583 z"
         id="path1515" />
    </g>
  </g>
  <g
     style="fill:#000000;fill-opacity:1;stroke:#000000;stroke-width:39.3701;stroke-linecap:round;stroke-linejoin:round;stroke-opacity:1"
     id="g126" />
  <g
     style="fill:#00ff00;stroke:none;stroke-width:0;stroke-linecap:round;stroke-linejoin:round;fill-opacity:1"
     id="g130">
    <g
       id="circle128"
       style="fill:#00ff00;fill-opacity:1;stroke:none">
      <path
         style="color:#000000;stroke:none;stroke-linecap:butt;stroke-linejoin:miter;-inkscape-stroke:none;fill:#00ff00;fill-opacity:1"
         d="m 80355.153,41338.602 a 590.55103,590.55103 0 0 1 -590.551,590.551 590.55103,590.55103 0 0 1 -590.551,-590.551 590.55103,590.55103 0 0 1 590.551,-590.551 590.55103,590.55103 0 0 1 590.551,590.551 z"
         id="path1519" />
      <path
         style="color:#000000;stroke:none;stroke-linecap:butt;stroke-linejoin:miter;-inkscape-stroke:none;fill:#00ff00;fill-opacity:1"
         d="m 80355.153,41338.602 c 0,156.624 -62.219,306.833 -172.968,417.583 -110.75,110.749 -260.959,172.968 -417.583,172.968 -156.624,0 -306.833,-62.219 -417.583,-172.968 -110.749,-110.75 -172.968,-260.959 -172.968,-417.583 0,-156.624 62.219,-306.833 172.968,-417.583 110.75,-110.749 260.959,-172.968 417.583,-172.968 156.624,0 306.833,62.219 417.583,172.968 110.749,110.75 172.968,260.959 172.968,417.583 z"
         id="path1521" />
    </g>
  </g>
  <g
     style="fill:#000000;fill-opacity:1;stroke:#000000;stroke-width:39.3701;stroke-linecap:round;stroke-linejoin:round;stroke-opacity:1"
     id="g132" />
  <g
     style="fill:#00ff00;stroke:none;stroke-width:0;stroke-linecap:round;stroke-linejoin:round;fill-opacity:1"
     id="g136">
    <g
       id="circle134"
       style="fill:#00ff00;fill-opacity:1;stroke:none">
      <path
         style="color:#000000;stroke:none;stroke-linecap:butt;stroke-linejoin:miter;-inkscape-stroke:none;fill:#00ff00;fill-opacity:1"
         d="m 80355.153,39370.102 a 590.55103,590.55103 0 0 1 -590.551,590.551 590.55103,590.55103 0 0 1 -590.551,-590.551 590.55103,590.55103 0 0 1 590.551,-590.551 590.55103,590.55103 0 0 1 590.551,590.551 z"
         id="path1525" />
      <path
         style="color:#000000;stroke:none;stroke-linecap:butt;stroke-linejoin:miter;-inkscape-stroke:none;fill:#00ff00;fill-opacity:1"
         d="m 80355.153,39370.102 c 0,156.624 -62.219,306.833 -172.968,417.583 -110.75,110.749 -260.959,172.968 -417.583,172.968 -156.624,0 -306.833,-62.219 -417.583,-172.968 -110.749,-110.75 -172.968,-260.959 -172.968,-417.583 0,-156.624 62.219,-306.833 172.968,-417.583 110.75,-110.749 260.959,-172.968 417.583,-172.968 156.624,0 306.833,62.219 417.583,172.968 110.749,110.75 172.968,260.959 172.968,417.583 z"
         id="path1527" />
    </g>
  </g>
  <g
     style="fill:#000000;fill-opacity:1;stroke:#000000;stroke-width:39.3701;stroke-linecap:round;stroke-linejoin:round;stroke-opacity:1"
     id="g138" />
  <g
     style="fill:#00ff00;stroke:none;stroke-width:0;stroke-linecap:round;stroke-linejoin:round;fill-opacity:1"
     id="g142">
    <g
       id="circle140"
       style="fill:#00ff00;fill-opacity:1;stroke:none">
      <path
         style="color:#000000;stroke:none;stroke-linecap:butt;stroke-linejoin:miter;-inkscape-stroke:none;fill:#00ff00;fill-opacity:1"
         d="m 82323.653,39370.102 a 590.55103,590.55103 0 0 1 -590.551,590.551 590.55103,590.55103 0 0 1 -590.551,-590.551 590.55103,590.55103 0 0 1 590.551,-590.551 590.55103,590.55103 0 0 1 590.551,590.551 z"
         id="path1531" />
      <path
         style="color:#000000;stroke:none;stroke-linecap:butt;stroke-linejoin:miter;-inkscape-stroke:none;fill:#00ff00;fill-opacity:1"
         d="m 82323.653,39370.102 c 0,156.624 -62.219,306.833 -172.968,417.583 -110.75,110.749 -260.959,172.968 -417.583,172.968 -156.624,0 -306.833,-62.219 -417.583,-172.968 -110.749,-110.75 -172.968,-260.959 -172.968,-417.583 0,-156.624 62.219,-306.833 172.968,-417.583 110.75,-110.749 260.959,-172.968 417.583,-172.968 156.624,0 306.833,62.219 417.583,172.968 110.749,110.75 172.968,260.959 172.968,417.583 z"
         id="path1533" />
    </g>
  </g>
  <g
     style="fill:#000000;fill-opacity:1;stroke:#000000;stroke-width:39.3701;stroke-linecap:round;stroke-linejoin:round;stroke-opacity:1"
     id="g144" />
  <g
     id="g146"
     style="fill:#000000;fill-opacity:0;stroke:#000000;stroke-width:19.685;stroke-linecap:round;stroke-linejoin:round;stroke-opacity:1" />
  <g
     style="fill:#000000;fill-opacity:1;stroke:#000000;stroke-width:39.3701;stroke-linecap:round;stroke-linejoin:round;stroke-opacity:1"
     id="g148" />
  <g
     style="fill:#00ff00;stroke:none;stroke-width:0;stroke-linecap:round;stroke-linejoin:round;fill-opacity:1"
     id="g154">
    <g
       id="path150"
       style="fill:#00ff00;fill-opacity:1;stroke:none">
      <path
         style="color:#000000;fill-rule:evenodd;stroke:none;-inkscape-stroke:none;fill:#00ff00;fill-opacity:1"
         d="m 74538.5,40984.7 -9.6,1.4 -9.4,2.4 -9.1,3.2 -8.7,4.2 -8.3,4.9 -7.7,5.8 -7.2,6.5 -6.5,7.1 -5.7,7.8 -5,8.3 -4.1,8.7 -3.3,9.1 -2.3,9.4 -1.4,9.5 -0.5,9.7 v 354.3 l 0.5,9.7 1.4,9.5 2.3,9.4 3.3,9.1 4.1,8.7 5,8.3 5.7,7.7 6.5,7.2 7.2,6.5 7.7,5.7 8.3,5 8.7,4.1 9.1,3.3 9.4,2.3 9.6,1.5 9.6,0.4 h 275.6 l 9.6,-0.4 9.6,-1.5 9.4,-2.3 9.1,-3.3 8.7,-4.1 8.3,-5 7.7,-5.7 7.2,-6.5 6.5,-7.2 5.7,-7.7 5,-8.3 4.1,-8.7 3.3,-9.1 2.3,-9.4 1.5,-9.5 0.4,-9.7 v -354.3 l -0.4,-9.7 -1.5,-9.5 -2.3,-9.4 -3.3,-9.1 -4.1,-8.7 -5,-8.3 -5.7,-7.8 -6.5,-7.1 -7.2,-6.5 -7.7,-5.8 -8.3,-4.9 -8.7,-4.2 -9.1,-3.2 -9.4,-2.4 -9.6,-1.4 -9.6,-0.4 h -275.6 z"
         id="path1537" />
      <path
         style="color:#000000;fill-rule:evenodd;stroke:none;-inkscape-stroke:none;fill:#00ff00;fill-opacity:1"
         d="m 74538.5,40984.7 -9.6,1.4 -9.4,2.4 -9.1,3.2 -8.7,4.2 -8.3,4.9 -7.7,5.8 -7.2,6.5 -6.5,7.1 -5.7,7.8 -5,8.3 -4.1,8.7 -3.3,9.1 -2.3,9.4 -1.4,9.5 -0.5,9.7 v 354.3 l 0.5,9.7 1.4,9.5 2.3,9.4 3.3,9.1 4.1,8.7 5,8.3 5.7,7.7 6.5,7.2 7.2,6.5 7.7,5.7 8.3,5 8.7,4.1 9.1,3.3 9.4,2.3 9.6,1.5 9.6,0.4 h 275.6 l 9.6,-0.4 9.6,-1.5 9.4,-2.3 9.1,-3.3 8.7,-4.1 8.3,-5 7.7,-5.7 7.2,-6.5 6.5,-7.2 5.7,-7.7 5,-8.3 4.1,-8.7 3.3,-9.1 2.3,-9.4 1.5,-9.5 0.4,-9.7 v -354.3 l -0.4,-9.7 -1.5,-9.5 -2.3,-9.4 -3.3,-9.1 -4.1,-8.7 -5,-8.3 -5.7,-7.8 -6.5,-7.1 -7.2,-6.5 -7.7,-5.8 -8.3,-4.9 -8.7,-4.2 -9.1,-3.2 -9.4,-2.4 -9.6,-1.4 -9.6,-0.4 h -275.6 z"
         id="path1539" />
    </g>
    <g
       id="path152"
       style="fill:#00ff00;fill-opacity:1;stroke:none">
      <path
         style="color:#000000;fill-rule:evenodd;stroke:none;-inkscape-stroke:none;fill:#00ff00;fill-opacity:1"
         d="m 75325.9,40984.7 -9.6,1.4 -9.4,2.4 -9.1,3.2 -8.7,4.2 -8.3,4.9 -7.7,5.8 -7.2,6.5 -6.5,7.1 -5.7,7.8 -5,8.3 -4.1,8.7 -3.3,9.1 -2.3,9.4 -1.4,9.5 -0.5,9.7 v 354.3 l 0.5,9.7 1.4,9.5 2.3,9.4 3.3,9.1 4.1,8.7 5,8.3 5.7,7.7 6.5,7.2 7.2,6.5 7.7,5.7 8.3,5 8.7,4.1 9.1,3.3 9.4,2.3 9.6,1.5 9.6,0.4 h 275.6 l 9.7,-0.4 9.5,-1.5 9.4,-2.3 9.1,-3.3 8.7,-4.1 8.3,-5 7.7,-5.7 7.2,-6.5 6.5,-7.2 5.7,-7.7 5,-8.3 4.1,-8.7 3.3,-9.1 2.3,-9.4 1.5,-9.5 0.4,-9.7 v -354.3 l -0.4,-9.7 -1.5,-9.5 -2.3,-9.4 -3.3,-9.1 -4.1,-8.7 -5,-8.3 -5.7,-7.8 -6.5,-7.1 -7.2,-6.5 -7.7,-5.8 -8.3,-4.9 -8.7,-4.2 -9.1,-3.2 -9.4,-2.4 -9.5,-1.4 -9.7,-0.4 h -275.6 z"
         id="path1543" />
      <path
         style="color:#000000;fill-rule:evenodd;stroke:none;-inkscape-stroke:none;fill:#00ff00;fill-opacity:1"
         d="m 75325.9,40984.7 -9.6,1.4 -9.4,2.4 -9.1,3.2 -8.7,4.2 -8.3,4.9 -7.7,5.8 -7.2,6.5 -6.5,7.1 -5.7,7.8 -5,8.3 -4.1,8.7 -3.3,9.1 -2.3,9.4 -1.4,9.5 -0.5,9.7 v 354.3 l 0.5,9.7 1.4,9.5 2.3,9.4 3.3,9.1 4.1,8.7 5,8.3 5.7,7.7 6.5,7.2 7.2,6.5 7.7,5.7 8.3,5 8.7,4.1 9.1,3.3 9.4,2.3 9.6,1.5 9.6,0.4 h 275.6 l 9.7,-0.4 9.5,-1.5 9.4,-2.3 9.1,-3.3 8.7,-4.1 8.3,-5 7.7,-5.7 7.2,-6.5 6.5,-7.2 5.7,-7.7 5,-8.3 4.1,-8.7 3.3,-9.1 2.3,-9.4 1.5,-9.5 0.4,-9.7 v -354.3 l -0.4,-9.7 -1.5,-9.5 -2.3,-9.4 -3.3,-9.1 -4.1,-8.7 -5,-8.3 -5.7,-7.8 -6.5,-7.1 -7.2,-6.5 -7.7,-5.8 -8.3,-4.9 -8.7,-4.2 -9.1,-3.2 -9.4,-2.4 -9.5,-1.4 -9.7,-0.4 h -275.6 z"
         id="path1545" />
    </g>
  </g>
  <g
     id="g156"
     style="fill:#000000;fill-opacity:0;stroke:#000000;stroke-width:19.685;stroke-linecap:round;stroke-linejoin:round;stroke-opacity:1" />
  <g
     style="fill:#00ff00;stroke:none;stroke-width:0;stroke-linecap:round;stroke-linejoin:round;fill-opacity:1"
     id="g162">
    <g
       id="path158"
       style="fill:#00ff00;fill-opacity:1;stroke:none">
      <path
         style="color:#000000;fill-rule:evenodd;stroke:none;-inkscape-stroke:none;fill:#00ff00;fill-opacity:1"
         d="m 75325.9,39134.3 -9.6,1.4 -9.4,2.4 -9.1,3.3 -8.7,4.1 -8.3,4.9 -7.7,5.8 -7.2,6.5 -6.5,7.1 -5.7,7.8 -5,8.3 -4.1,8.7 -3.3,9.1 -2.3,9.4 -1.4,9.5 -0.5,9.7 v 354.3 l 0.5,9.7 1.4,9.5 2.3,9.4 3.3,9.1 4.1,8.7 5,8.3 5.7,7.8 6.5,7.1 7.2,6.5 7.7,5.8 8.3,4.9 8.7,4.1 9.1,3.3 9.4,2.3 9.6,1.5 9.6,0.4 h 275.6 l 9.7,-0.4 9.5,-1.5 9.4,-2.3 9.1,-3.3 8.7,-4.1 8.3,-4.9 7.7,-5.8 7.2,-6.5 6.5,-7.1 5.7,-7.8 5,-8.3 4.1,-8.7 3.3,-9.1 2.3,-9.4 1.5,-9.5 0.4,-9.7 v -354.3 l -0.4,-9.7 -1.5,-9.5 -2.3,-9.4 -3.3,-9.1 -4.1,-8.7 -5,-8.3 -5.7,-7.8 -6.5,-7.1 -7.2,-6.5 -7.7,-5.8 -8.3,-4.9 -8.7,-4.1 -9.1,-3.3 -9.4,-2.4 -9.5,-1.4 -9.7,-0.4 h -275.6 z"
         id="path1549" />
      <path
         style="color:#000000;fill-rule:evenodd;stroke:none;-inkscape-stroke:none;fill:#00ff00;fill-opacity:1"
         d="m 75325.9,39134.3 -9.6,1.4 -9.4,2.4 -9.1,3.3 -8.7,4.1 -8.3,4.9 -7.7,5.8 -7.2,6.5 -6.5,7.1 -5.7,7.8 -5,8.3 -4.1,8.7 -3.3,9.1 -2.3,9.4 -1.4,9.5 -0.5,9.7 v 354.3 l 0.5,9.7 1.4,9.5 2.3,9.4 3.3,9.1 4.1,8.7 5,8.3 5.7,7.8 6.5,7.1 7.2,6.5 7.7,5.8 8.3,4.9 8.7,4.1 9.1,3.3 9.4,2.3 9.6,1.5 9.6,0.4 h 275.6 l 9.7,-0.4 9.5,-1.5 9.4,-2.3 9.1,-3.3 8.7,-4.1 8.3,-4.9 7.7,-5.8 7.2,-6.5 6.5,-7.1 5.7,-7.8 5,-8.3 4.1,-8.7 3.3,-9.1 2.3,-9.4 1.5,-9.5 0.4,-9.7 v -354.3 l -0.4,-9.7 -1.5,-9.5 -2.3,-9.4 -3.3,-9.1 -4.1,-8.7 -5,-8.3 -5.7,-7.8 -6.5,-7.1 -7.2,-6.5 -7.7,-5.8 -8.3,-4.9 -8.7,-4.1 -9.1,-3.3 -9.4,-2.4 -9.5,-1.4 -9.7,-0.4 h -275.6 z"
         id="path1551" />
    </g>
    <g
       id="path160"
       style="fill:#00ff00;fill-opacity:1;stroke:none">
      <path
         style="color:#000000;fill-rule:evenodd;stroke:none;-inkscape-stroke:none;fill:#00ff00;fill-opacity:1"
         d="m 74538.5,39134.3 -9.6,1.4 -9.4,2.4 -9.1,3.3 -8.7,4.1 -8.3,4.9 -7.7,5.8 -7.2,6.5 -6.5,7.1 -5.7,7.8 -5,8.3 -4.1,8.7 -3.3,9.1 -2.3,9.4 -1.4,9.5 -0.5,9.7 v 354.3 l 0.5,9.7 1.4,9.5 2.3,9.4 3.3,9.1 4.1,8.7 5,8.3 5.7,7.8 6.5,7.1 7.2,6.5 7.7,5.8 8.3,4.9 8.7,4.1 9.1,3.3 9.4,2.3 9.6,1.5 9.6,0.4 h 275.6 l 9.6,-0.4 9.6,-1.5 9.4,-2.3 9.1,-3.3 8.7,-4.1 8.3,-4.9 7.7,-5.8 7.2,-6.5 6.5,-7.1 5.7,-7.8 5,-8.3 4.1,-8.7 3.3,-9.1 2.3,-9.4 1.5,-9.5 0.4,-9.7 v -354.3 l -0.4,-9.7 -1.5,-9.5 -2.3,-9.4 -3.3,-9.1 -4.1,-8.7 -5,-8.3 -5.7,-7.8 -6.5,-7.1 -7.2,-6.5 -7.7,-5.8 -8.3,-4.9 -8.7,-4.1 -9.1,-3.3 -9.4,-2.4 -9.6,-1.4 -9.6,-0.4 h -275.6 z"
         id="path1555" />
      <path
         style="color:#000000;fill-rule:evenodd;stroke:none;-inkscape-stroke:none;fill:#00ff00;fill-opacity:1"
         d="m 74538.5,39134.3 -9.6,1.4 -9.4,2.4 -9.1,3.3 -8.7,4.1 -8.3,4.9 -7.7,5.8 -7.2,6.5 -6.5,7.1 -5.7,7.8 -5,8.3 -4.1,8.7 -3.3,9.1 -2.3,9.4 -1.4,9.5 -0.5,9.7 v 354.3 l 0.5,9.7 1.4,9.5 2.3,9.4 3.3,9.1 4.1,8.7 5,8.3 5.7,7.8 6.5,7.1 7.2,6.5 7.7,5.8 8.3,4.9 8.7,4.1 9.1,3.3 9.4,2.3 9.6,1.5 9.6,0.4 h 275.6 l 9.6,-0.4 9.6,-1.5 9.4,-2.3 9.1,-3.3 8.7,-4.1 8.3,-4.9 7.7,-5.8 7.2,-6.5 6.5,-7.1 5.7,-7.8 5,-8.3 4.1,-8.7 3.3,-9.1 2.3,-9.4 1.5,-9.5 0.4,-9.7 v -354.3 l -0.4,-9.7 -1.5,-9.5 -2.3,-9.4 -3.3,-9.1 -4.1,-8.7 -5,-8.3 -5.7,-7.8 -6.5,-7.1 -7.2,-6.5 -7.7,-5.8 -8.3,-4.9 -8.7,-4.1 -9.1,-3.3 -9.4,-2.4 -9.6,-1.4 -9.6,-0.4 h -275.6 z"
         id="path1557" />
    </g>
  </g>
  <g
     id="g164"
     style="fill:#000000;fill-opacity:0;stroke:#000000;stroke-width:19.685;stroke-linecap:round;stroke-linejoin:round;stroke-opacity:1" />
  <g
     style="fill:#00ff00;stroke:none;stroke-width:0;stroke-linecap:round;stroke-linejoin:round;fill-opacity:1"
     id="g170">
    <g
       id="path166"
       style="fill:#00ff00;fill-opacity:1;stroke:none">
      <path
         style="color:#000000;fill-rule:evenodd;stroke:none;-inkscape-stroke:none;fill:#00ff00;fill-opacity:1"
         d="m 77373.1,41260.3 -9.5,1.4 -9.4,2.4 -9.1,3.2 -8.7,4.2 -8.3,4.9 -7.8,5.8 -7.1,6.5 -6.5,7.1 -5.8,7.8 -4.9,8.3 -4.2,8.7 -3.2,9.1 -2.4,9.4 -1.4,9.5 -0.5,9.7 v 354.3 l 0.5,9.6 1.4,9.6 2.4,9.4 3.2,9.1 4.2,8.7 4.9,8.3 5.8,7.7 6.5,7.2 7.1,6.5 7.8,5.7 8.3,5 8.7,4.1 9.1,3.3 9.4,2.3 9.5,1.4 9.7,0.5 h 275.5 l 9.7,-0.5 9.5,-1.4 9.4,-2.3 9.1,-3.3 8.7,-4.1 8.3,-5 7.8,-5.7 7.1,-6.5 6.5,-7.2 5.8,-7.7 4.9,-8.3 4.2,-8.7 3.2,-9.1 2.4,-9.4 1.4,-9.6 0.5,-9.6 v -354.3 l -0.5,-9.7 -1.4,-9.5 -2.4,-9.4 -3.2,-9.1 -4.2,-8.7 -4.9,-8.3 -5.8,-7.8 -6.5,-7.1 -7.1,-6.5 -7.8,-5.8 -8.3,-4.9 -8.7,-4.2 -9.1,-3.2 -9.4,-2.4 -9.5,-1.4 -9.7,-0.5 h -275.5 z"
         id="path1561" />
      <path
         style="color:#000000;fill-rule:evenodd;stroke:none;-inkscape-stroke:none;fill:#00ff00;fill-opacity:1"
         d="m 77373.1,41260.3 -9.5,1.4 -9.4,2.4 -9.1,3.2 -8.7,4.2 -8.3,4.9 -7.8,5.8 -7.1,6.5 -6.5,7.1 -5.8,7.8 -4.9,8.3 -4.2,8.7 -3.2,9.1 -2.4,9.4 -1.4,9.5 -0.5,9.7 v 354.3 l 0.5,9.6 1.4,9.6 2.4,9.4 3.2,9.1 4.2,8.7 4.9,8.3 5.8,7.7 6.5,7.2 7.1,6.5 7.8,5.7 8.3,5 8.7,4.1 9.1,3.3 9.4,2.3 9.5,1.4 9.7,0.5 h 275.5 l 9.7,-0.5 9.5,-1.4 9.4,-2.3 9.1,-3.3 8.7,-4.1 8.3,-5 7.8,-5.7 7.1,-6.5 6.5,-7.2 5.8,-7.7 4.9,-8.3 4.2,-8.7 3.2,-9.1 2.4,-9.4 1.4,-9.6 0.5,-9.6 v -354.3 l -0.5,-9.7 -1.4,-9.5 -2.4,-9.4 -3.2,-9.1 -4.2,-8.7 -4.9,-8.3 -5.8,-7.8 -6.5,-7.1 -7.1,-6.5 -7.8,-5.8 -8.3,-4.9 -8.7,-4.2 -9.1,-3.2 -9.4,-2.4 -9.5,-1.4 -9.7,-0.5 h -275.5 z"
         id="path1563" />
    </g>
    <g
       id="path168"
       style="fill:#00ff00;fill-opacity:1;stroke:none">
      <path
         style="color:#000000;fill-rule:evenodd;stroke:none;-inkscape-stroke:none;fill:#00ff00;fill-opacity:1"
         d="m 76585.7,41260.3 -9.5,1.4 -9.4,2.4 -9.1,3.2 -8.7,4.2 -8.3,4.9 -7.8,5.8 -7.1,6.5 -6.5,7.1 -5.8,7.8 -4.9,8.3 -4.2,8.7 -3.2,9.1 -2.4,9.4 -1.4,9.5 -0.5,9.7 v 354.3 l 0.5,9.6 1.4,9.6 2.4,9.4 3.2,9.1 4.2,8.7 4.9,8.3 5.8,7.7 6.5,7.2 7.1,6.5 7.8,5.7 8.3,5 8.7,4.1 9.1,3.3 9.4,2.3 9.5,1.4 9.7,0.5 h 275.5 l 9.7,-0.5 9.5,-1.4 9.4,-2.3 9.1,-3.3 8.7,-4.1 8.3,-5 7.8,-5.7 7.1,-6.5 6.5,-7.2 5.8,-7.7 4.9,-8.3 4.2,-8.7 3.2,-9.1 2.4,-9.4 1.4,-9.6 0.5,-9.6 v -354.3 l -0.5,-9.7 -1.4,-9.5 -2.4,-9.4 -3.2,-9.1 -4.2,-8.7 -4.9,-8.3 -5.8,-7.8 -6.5,-7.1 -7.1,-6.5 -7.8,-5.8 -8.3,-4.9 -8.7,-4.2 -9.1,-3.2 -9.4,-2.4 -9.5,-1.4 -9.7,-0.5 h -275.5 z"
         id="path1567" />
      <path
         style="color:#000000;fill-rule:evenodd;stroke:none;-inkscape-stroke:none;fill:#00ff00;fill-opacity:1"
         d="m 76585.7,41260.3 -9.5,1.4 -9.4,2.4 -9.1,3.2 -8.7,4.2 -8.3,4.9 -7.8,5.8 -7.1,6.5 -6.5,7.1 -5.8,7.8 -4.9,8.3 -4.2,8.7 -3.2,9.1 -2.4,9.4 -1.4,9.5 -0.5,9.7 v 354.3 l 0.5,9.6 1.4,9.6 2.4,9.4 3.2,9.1 4.2,8.7 4.9,8.3 5.8,7.7 6.5,7.2 7.1,6.5 7.8,5.7 8.3,5 8.7,4.1 9.1,3.3 9.4,2.3 9.5,1.4 9.7,0.5 h 275.5 l 9.7,-0.5 9.5,-1.4 9.4,-2.3 9.1,-3.3 8.7,-4.1 8.3,-5 7.8,-5.7 7.1,-6.5 6.5,-7.2 5.8,-7.7 4.9,-8.3 4.2,-8.7 3.2,-9.1 2.4,-9.4 1.4,-9.6 0.5,-9.6 v -354.3 l -0.5,-9.7 -1.4,-9.5 -2.4,-9.4 -3.2,-9.1 -4.2,-8.7 -4.9,-8.3 -5.8,-7.8 -6.5,-7.1 -7.1,-6.5 -7.8,-5.8 -8.3,-4.9 -8.7,-4.2 -9.1,-3.2 -9.4,-2.4 -9.5,-1.4 -9.7,-0.5 h -275.5 z"
         id="path1569" />
    </g>
  </g>
  <g
     id="g172"
     style="fill:#000000;fill-opacity:0;stroke:#000000;stroke-width:19.685;stroke-linecap:round;stroke-linejoin:round;stroke-opacity:1" />
  <g
     style="fill:#00ff00;stroke:none;stroke-width:0;stroke-linecap:round;stroke-linejoin:round;fill-opacity:1"
     id="g178">
    <g
       id="path174"
       style="fill:#00ff00;fill-opacity:1;stroke:none">
      <path
         style="color:#000000;fill-rule:evenodd;stroke:none;-inkscape-stroke:none;fill:#00ff00;fill-opacity:1"
         d="m 76625.1,40158 -9.6,1.4 -9.3,2.3 -9.1,3.3 -8.8,4.1 -8.3,5 -7.7,5.7 -7.2,6.5 -6.5,7.2 -5.7,7.7 -5,8.3 -4.1,8.7 -3.3,9.1 -2.3,9.4 -1.4,9.6 -0.5,9.6 v 354.3 l 0.5,9.7 1.4,9.5 2.3,9.4 3.3,9.1 4.1,8.7 5,8.3 5.7,7.8 6.5,7.1 7.2,6.5 7.7,5.8 8.3,4.9 8.8,4.2 9.1,3.2 9.3,2.4 9.6,1.4 9.6,0.5 h 275.6 l 9.7,-0.5 9.5,-1.4 9.4,-2.4 9.1,-3.2 8.7,-4.2 8.3,-4.9 7.8,-5.8 7.1,-6.5 6.5,-7.1 5.8,-7.8 4.9,-8.3 4.1,-8.7 3.3,-9.1 2.3,-9.4 1.5,-9.5 0.4,-9.7 v -354.3 l -0.4,-9.6 -1.5,-9.6 -2.3,-9.4 -3.3,-9.1 -4.1,-8.7 -4.9,-8.3 -5.8,-7.7 -6.5,-7.2 -7.1,-6.5 -7.8,-5.7 -8.3,-5 -8.7,-4.1 -9.1,-3.3 -9.4,-2.3 -9.5,-1.4 -9.7,-0.5 h -275.6 z"
         id="path1573" />
      <path
         style="color:#000000;fill-rule:evenodd;stroke:none;-inkscape-stroke:none;fill:#00ff00;fill-opacity:1"
         d="m 76625.1,40158 -9.6,1.4 -9.3,2.3 -9.1,3.3 -8.8,4.1 -8.3,5 -7.7,5.7 -7.2,6.5 -6.5,7.2 -5.7,7.7 -5,8.3 -4.1,8.7 -3.3,9.1 -2.3,9.4 -1.4,9.6 -0.5,9.6 v 354.3 l 0.5,9.7 1.4,9.5 2.3,9.4 3.3,9.1 4.1,8.7 5,8.3 5.7,7.8 6.5,7.1 7.2,6.5 7.7,5.8 8.3,4.9 8.8,4.2 9.1,3.2 9.3,2.4 9.6,1.4 9.6,0.5 h 275.6 l 9.7,-0.5 9.5,-1.4 9.4,-2.4 9.1,-3.2 8.7,-4.2 8.3,-4.9 7.8,-5.8 7.1,-6.5 6.5,-7.1 5.8,-7.8 4.9,-8.3 4.1,-8.7 3.3,-9.1 2.3,-9.4 1.5,-9.5 0.4,-9.7 v -354.3 l -0.4,-9.6 -1.5,-9.6 -2.3,-9.4 -3.3,-9.1 -4.1,-8.7 -4.9,-8.3 -5.8,-7.7 -6.5,-7.2 -7.1,-6.5 -7.8,-5.7 -8.3,-5 -8.7,-4.1 -9.1,-3.3 -9.4,-2.3 -9.5,-1.4 -9.7,-0.5 h -275.6 z"
         id="path1575" />
    </g>
    <g
       id="path176"
       style="fill:#00ff00;fill-opacity:1;stroke:none">
      <path
         style="color:#000000;fill-rule:evenodd;stroke:none;-inkscape-stroke:none;fill:#00ff00;fill-opacity:1"
         d="m 77412.5,40158 -9.6,1.4 -9.3,2.3 -9.1,3.3 -8.8,4.1 -8.3,5 -7.7,5.7 -7.2,6.5 -6.5,7.2 -5.7,7.7 -5,8.3 -4.1,8.7 -3.3,9.1 -2.3,9.4 -1.4,9.6 -0.5,9.6 v 354.3 l 0.5,9.7 1.4,9.5 2.3,9.4 3.3,9.1 4.1,8.7 5,8.3 5.7,7.8 6.5,7.1 7.2,6.5 7.7,5.8 8.3,4.9 8.8,4.2 9.1,3.2 9.3,2.4 9.6,1.4 9.6,0.5 h 275.6 l 9.7,-0.5 9.5,-1.4 9.4,-2.4 9.1,-3.2 8.7,-4.2 8.3,-4.9 7.8,-5.8 7.1,-6.5 6.5,-7.1 5.8,-7.8 4.9,-8.3 4.1,-8.7 3.3,-9.1 2.4,-9.4 1.4,-9.5 0.4,-9.7 v -354.3 l -0.4,-9.6 -1.4,-9.6 -2.4,-9.4 -3.3,-9.1 -4.1,-8.7 -4.9,-8.3 -5.8,-7.7 -6.5,-7.2 -7.1,-6.5 -7.8,-5.7 -8.3,-5 -8.7,-4.1 -9.1,-3.3 -9.4,-2.3 -9.5,-1.4 -9.7,-0.5 h -275.6 z"
         id="path1579" />
      <path
         style="color:#000000;fill-rule:evenodd;stroke:none;-inkscape-stroke:none;fill:#00ff00;fill-opacity:1"
         d="m 77412.5,40158 -9.6,1.4 -9.3,2.3 -9.1,3.3 -8.8,4.1 -8.3,5 -7.7,5.7 -7.2,6.5 -6.5,7.2 -5.7,7.7 -5,8.3 -4.1,8.7 -3.3,9.1 -2.3,9.4 -1.4,9.6 -0.5,9.6 v 354.3 l 0.5,9.7 1.4,9.5 2.3,9.4 3.3,9.1 4.1,8.7 5,8.3 5.7,7.8 6.5,7.1 7.2,6.5 7.7,5.8 8.3,4.9 8.8,4.2 9.1,3.2 9.3,2.4 9.6,1.4 9.6,0.5 h 275.6 l 9.7,-0.5 9.5,-1.4 9.4,-2.4 9.1,-3.2 8.7,-4.2 8.3,-4.9 7.8,-5.8 7.1,-6.5 6.5,-7.1 5.8,-7.8 4.9,-8.3 4.1,-8.7 3.3,-9.1 2.4,-9.4 1.4,-9.5 0.4,-9.7 v -354.3 l -0.4,-9.6 -1.4,-9.6 -2.4,-9.4 -3.3,-9.1 -4.1,-8.7 -4.9,-8.3 -5.8,-7.7 -6.5,-7.2 -7.1,-6.5 -7.8,-5.7 -8.3,-5 -8.7,-4.1 -9.1,-3.3 -9.4,-2.3 -9.5,-1.4 -9.7,-0.5 h -275.6 z"
         id="path1581" />
    </g>
  </g>
  <g
     id="g180"
     style="fill:#000000;fill-opacity:0;stroke:#000000;stroke-width:19.685;stroke-linecap:round;stroke-linejoin:round;stroke-opacity:1" />
  <g
     style="fill:#00ff00;stroke:none;stroke-width:0;stroke-linecap:round;stroke-linejoin:round;fill-opacity:1"
     id="g186">
    <g
       id="path182"
       style="fill:#00ff00;fill-opacity:1;stroke:none">
      <path
         style="color:#000000;fill-rule:evenodd;stroke:none;-inkscape-stroke:none;fill:#00ff00;fill-opacity:1"
         d="m 78199.9,39055.6 -9.6,1.4 -9.3,2.4 -9.1,3.2 -8.8,4.1 -8.3,5 -7.7,5.8 -7.2,6.4 -6.5,7.2 -5.7,7.8 -5,8.2 -4.1,8.8 -3.3,9.1 -2.3,9.3 -1.4,9.6 -0.5,9.6 v 354.4 l 0.5,9.6 1.4,9.6 2.3,9.3 3.3,9.1 4.1,8.8 5,8.3 5.7,7.7 6.5,7.2 7.2,6.5 7.7,5.7 8.3,5 8.8,4.1 9.1,3.3 9.3,2.3 9.6,1.4 9.6,0.5 h 275.6 l 9.7,-0.5 9.5,-1.4 9.4,-2.3 9.1,-3.3 8.7,-4.1 8.3,-5 7.8,-5.7 7.1,-6.5 6.5,-7.2 5.8,-7.7 4.9,-8.3 4.2,-8.8 3.2,-9.1 2.4,-9.3 1.4,-9.6 0.4,-9.6 v -354.4 l -0.4,-9.6 -1.4,-9.6 -2.4,-9.3 -3.2,-9.1 -4.2,-8.8 -4.9,-8.2 -5.8,-7.8 -6.5,-7.2 -7.1,-6.4 -7.8,-5.8 -8.3,-5 -8.7,-4.1 -9.1,-3.2 -9.4,-2.4 -9.5,-1.4 -9.7,-0.5 h -275.6 z"
         id="path1585" />
      <path
         style="color:#000000;fill-rule:evenodd;stroke:none;-inkscape-stroke:none;fill:#00ff00;fill-opacity:1"
         d="m 78199.9,39055.6 -9.6,1.4 -9.3,2.4 -9.1,3.2 -8.8,4.1 -8.3,5 -7.7,5.8 -7.2,6.4 -6.5,7.2 -5.7,7.8 -5,8.2 -4.1,8.8 -3.3,9.1 -2.3,9.3 -1.4,9.6 -0.5,9.6 v 354.4 l 0.5,9.6 1.4,9.6 2.3,9.3 3.3,9.1 4.1,8.8 5,8.3 5.7,7.7 6.5,7.2 7.2,6.5 7.7,5.7 8.3,5 8.8,4.1 9.1,3.3 9.3,2.3 9.6,1.4 9.6,0.5 h 275.6 l 9.7,-0.5 9.5,-1.4 9.4,-2.3 9.1,-3.3 8.7,-4.1 8.3,-5 7.8,-5.7 7.1,-6.5 6.5,-7.2 5.8,-7.7 4.9,-8.3 4.2,-8.8 3.2,-9.1 2.4,-9.3 1.4,-9.6 0.4,-9.6 v -354.4 l -0.4,-9.6 -1.4,-9.6 -2.4,-9.3 -3.2,-9.1 -4.2,-8.8 -4.9,-8.2 -5.8,-7.8 -6.5,-7.2 -7.1,-6.4 -7.8,-5.8 -8.3,-5 -8.7,-4.1 -9.1,-3.2 -9.4,-2.4 -9.5,-1.4 -9.7,-0.5 h -275.6 z"
         id="path1587" />
    </g>
    <g
       id="path184"
       style="fill:#00ff00;fill-opacity:1;stroke:none">
      <path
         style="color:#000000;fill-rule:evenodd;stroke:none;-inkscape-stroke:none;fill:#00ff00;fill-opacity:1"
         d="m 77412.5,39055.6 -9.6,1.4 -9.3,2.4 -9.1,3.2 -8.8,4.1 -8.3,5 -7.7,5.8 -7.2,6.4 -6.5,7.2 -5.7,7.8 -5,8.2 -4.1,8.8 -3.3,9.1 -2.3,9.3 -1.4,9.6 -0.5,9.6 v 354.4 l 0.5,9.6 1.4,9.6 2.3,9.3 3.3,9.1 4.1,8.8 5,8.3 5.7,7.7 6.5,7.2 7.2,6.5 7.7,5.7 8.3,5 8.8,4.1 9.1,3.3 9.3,2.3 9.6,1.4 9.6,0.5 h 275.6 l 9.7,-0.5 9.5,-1.4 9.4,-2.3 9.1,-3.3 8.7,-4.1 8.3,-5 7.8,-5.7 7.1,-6.5 6.5,-7.2 5.8,-7.7 4.9,-8.3 4.1,-8.8 3.3,-9.1 2.4,-9.3 1.4,-9.6 0.4,-9.6 v -354.4 l -0.4,-9.6 -1.4,-9.6 -2.4,-9.3 -3.3,-9.1 -4.1,-8.8 -4.9,-8.2 -5.8,-7.8 -6.5,-7.2 -7.1,-6.4 -7.8,-5.8 -8.3,-5 -8.7,-4.1 -9.1,-3.2 -9.4,-2.4 -9.5,-1.4 -9.7,-0.5 h -275.6 z"
         id="path1591" />
      <path
         style="color:#000000;fill-rule:evenodd;stroke:none;-inkscape-stroke:none;fill:#00ff00;fill-opacity:1"
         d="m 77412.5,39055.6 -9.6,1.4 -9.3,2.4 -9.1,3.2 -8.8,4.1 -8.3,5 -7.7,5.8 -7.2,6.4 -6.5,7.2 -5.7,7.8 -5,8.2 -4.1,8.8 -3.3,9.1 -2.3,9.3 -1.4,9.6 -0.5,9.6 v 354.4 l 0.5,9.6 1.4,9.6 2.3,9.3 3.3,9.1 4.1,8.8 5,8.3 5.7,7.7 6.5,7.2 7.2,6.5 7.7,5.7 8.3,5 8.8,4.1 9.1,3.3 9.3,2.3 9.6,1.4 9.6,0.5 h 275.6 l 9.7,-0.5 9.5,-1.4 9.4,-2.3 9.1,-3.3 8.7,-4.1 8.3,-5 7.8,-5.7 7.1,-6.5 6.5,-7.2 5.8,-7.7 4.9,-8.3 4.1,-8.8 3.3,-9.1 2.4,-9.3 1.4,-9.6 0.4,-9.6 v -354.4 l -0.4,-9.6 -1.4,-9.6 -2.4,-9.3 -3.3,-9.1 -4.1,-8.8 -4.9,-8.2 -5.8,-7.8 -6.5,-7.2 -7.1,-6.4 -7.8,-5.8 -8.3,-5 -8.7,-4.1 -9.1,-3.2 -9.4,-2.4 -9.5,-1.4 -9.7,-0.5 h -275.6 z"
         id="path1593" />
    </g>
  </g>
  <g
     id="g188"
     style="fill:#000000;fill-opacity:0;stroke:#000000;stroke-width:19.685;stroke-linecap:round;stroke-linejoin:round;stroke-opacity:1" />
  <g
     style="fill:#00ff00;stroke:none;stroke-width:0;stroke-linecap:round;stroke-linejoin:round;fill-opacity:1"
     id="g192">
    <g
       id="circle190"
       style="fill:#00ff00;fill-opacity:1;stroke:none">
      <path
         style="color:#000000;stroke:none;stroke-linecap:butt;stroke-linejoin:miter;-inkscape-stroke:none;fill:#00ff00;fill-opacity:1"
         d="m 73248.878,36535.398 a 295.276,295.276 0 0 1 -295.276,295.276 295.276,295.276 0 0 1 -295.276,-295.276 295.276,295.276 0 0 1 295.276,-295.276 295.276,295.276 0 0 1 295.276,295.276 z"
         id="path1597" />
      <path
         style="color:#000000;stroke:none;stroke-linecap:butt;stroke-linejoin:miter;-inkscape-stroke:none;fill:#00ff00;fill-opacity:1"
         d="m 72671.602,36447.592 c -2.876,9.246 -5.311,18.686 -7.278,28.297 1.967,-9.611 4.402,-19.051 7.278,-28.297 z m -7.278,147.314 c 1.967,9.611 4.402,19.051 7.278,28.297 -2.876,-9.246 -5.311,-18.686 -7.278,-28.297 z m 201.473,222.492 c 9.246,2.876 18.686,5.311 28.297,7.278 -9.611,-1.967 -19.051,-4.402 -28.297,-7.278 z m 175.611,0 c -9.246,2.876 -18.686,5.311 -28.297,7.278 9.611,-1.967 19.051,-4.402 28.297,-7.278 z"
         id="path1599" />
    </g>
  </g>
  <g
     style="fill:#000000;fill-opacity:1;stroke:#000000;stroke-width:39.3701;stroke-linecap:round;stroke-linejoin:round;stroke-opacity:1"
     id="g194" />
  <g
     style="fill:#00ff00;stroke:none;stroke-width:0;stroke-linecap:round;stroke-linejoin:round;fill-opacity:1"
     id="g198">
    <g
       id="path196"
       style="fill:#00ff00;fill-opacity:1;stroke:none">
      <path
         style="color:#000000;fill-rule:evenodd;stroke:none;-inkscape-stroke:none;fill:#00ff00;fill-opacity:1"
         d="m 72656.6,33760.5 -12.5,1.8 -12.3,3.1 -11.9,4.3 -11.5,5.4 -10.8,6.5 -10.2,7.5 -9.4,8.5 -8.5,9.4 -7.5,10.2 -6.5,10.8 -5.4,11.5 -4.3,11.9 -3.1,12.3 -1.8,12.5 -0.7,12.6 v 568.8 l 0.7,12.7 1.8,12.5 3.1,12.3 4.3,11.9 5.4,11.4 6.5,10.9 7.5,10.2 8.5,9.3 9.4,8.5 10.2,7.6 10.8,6.5 11.5,5.4 11.9,4.3 12.3,3 12.5,1.9 12.6,0.6 h 568.8 l 12.7,-0.6 12.5,-1.9 12.3,-3 11.9,-4.3 11.4,-5.4 10.9,-6.5 10.2,-7.6 9.3,-8.5 8.5,-9.3 7.6,-10.2 6.5,-10.9 5.4,-11.4 4.3,-11.9 3,-12.3 1.9,-12.5 0.6,-12.7 v -568.8 l -0.6,-12.6 -1.9,-12.5 -3,-12.3 -4.3,-11.9 -5.4,-11.5 -6.5,-10.8 -7.6,-10.2 -8.5,-9.4 -9.3,-8.5 -10.2,-7.5 -10.9,-6.5 -11.4,-5.4 -11.9,-4.3 -12.3,-3.1 -12.5,-1.8 -12.7,-0.7 h -568.8 z"
         id="path1603" />
      <path
         style="color:#000000;fill-rule:evenodd;stroke:none;-inkscape-stroke:none;fill:#00ff00;fill-opacity:1"
         d="m 72656.6,33760.5 -12.5,1.8 -12.3,3.1 -11.9,4.3 -11.5,5.4 -10.8,6.5 -10.2,7.5 -9.4,8.5 -8.5,9.4 -7.5,10.2 -6.5,10.8 -5.4,11.5 -4.3,11.9 -3.1,12.3 -1.8,12.5 -0.7,12.6 v 568.8 l 0.7,12.7 1.8,12.5 3.1,12.3 4.3,11.9 5.4,11.4 6.5,10.9 7.5,10.2 8.5,9.3 9.4,8.5 10.2,7.6 10.8,6.5 11.5,5.4 11.9,4.3 12.3,3 12.5,1.9 12.6,0.6 h 568.8 l 12.7,-0.6 12.5,-1.9 12.3,-3 11.9,-4.3 11.4,-5.4 10.9,-6.5 10.2,-7.6 9.3,-8.5 8.5,-9.3 7.6,-10.2 6.5,-10.9 5.4,-11.4 4.3,-11.9 3,-12.3 1.9,-12.5 0.6,-12.7 v -568.8 l -0.6,-12.6 -1.9,-12.5 -3,-12.3 -4.3,-11.9 -5.4,-11.5 -6.5,-10.8 -7.6,-10.2 -8.5,-9.4 -9.3,-8.5 -10.2,-7.5 -10.9,-6.5 -11.4,-5.4 -11.9,-4.3 -12.3,-3.1 -12.5,-1.8 -12.7,-0.7 h -568.8 z"
         id="path1605" />
    </g>
  </g>
  <g
     id="g200"
     style="fill:#000000;fill-opacity:0;stroke:#000000;stroke-width:19.685;stroke-linecap:round;stroke-linejoin:round;stroke-opacity:1" />
  <g
     style="fill:#00ff00;stroke:none;stroke-width:0;stroke-linecap:round;stroke-linejoin:round;fill-opacity:1"
     id="g204">
    <g
       id="circle202"
       style="fill:#00ff00;fill-opacity:1;stroke:none">
      <path
         style="color:#000000;stroke:none;stroke-linecap:butt;stroke-linejoin:miter;-inkscape-stroke:none;fill:#00ff00;fill-opacity:1"
         d="m 82737.073,36850.398 a 295.276,295.276 0 0 1 -295.276,295.276 295.276,295.276 0 0 1 -295.276,-295.276 295.276,295.276 0 0 1 295.276,-295.276 295.276,295.276 0 0 1 295.276,295.276 z"
         id="path1609" />
      <path
         style="color:#000000;stroke:none;stroke-linecap:butt;stroke-linejoin:miter;-inkscape-stroke:none;fill:#00ff00;fill-opacity:1"
         d="m 82353.99,37132.398 c 9.246,2.876 18.688,5.311 28.299,7.278 -9.611,-1.967 -19.053,-4.402 -28.299,-7.278 z m 175.614,0 c -9.246,2.876 -18.688,5.311 -28.299,7.278 9.611,-1.967 19.053,-4.402 28.299,-7.278 z"
         id="path1611" />
    </g>
  </g>
  <g
     style="fill:#000000;fill-opacity:1;stroke:#000000;stroke-width:39.3701;stroke-linecap:round;stroke-linejoin:round;stroke-opacity:1"
     id="g206" />
  <g
     style="fill:#00ff00;stroke:none;stroke-width:0;stroke-linecap:round;stroke-linejoin:round;fill-opacity:1"
     id="g210">
    <g
       id="path208"
       style="fill:#00ff00;fill-opacity:1;stroke:none">
      <path
         style="color:#000000;fill-rule:evenodd;stroke:none;-inkscape-stroke:none;fill:#00ff00;fill-opacity:1"
         d="m 79782.6,36437.6 -12.6,1.9 -12.2,3.1 -12,4.2 -11.4,5.4 -10.9,6.5 -10.1,7.6 -9.4,8.5 -8.5,9.4 -7.5,10.1 -6.6,10.9 -5.4,11.4 -4.2,11.9 -3.1,12.3 -1.9,12.5 -0.6,12.7 v 568.8 l 0.6,12.6 1.9,12.6 3.1,12.2 4.2,12 5.4,11.4 6.6,10.9 7.5,10.1 8.5,9.4 9.4,8.5 10.1,7.5 10.9,6.6 11.4,5.4 12,4.2 12.2,3.1 12.6,1.9 12.6,0.6 h 568.8 l 12.7,-0.6 12.5,-1.9 12.3,-3.1 11.9,-4.2 11.4,-5.4 10.9,-6.6 10.1,-7.5 9.4,-8.5 8.5,-9.4 7.6,-10.1 6.5,-10.9 5.4,-11.4 4.2,-12 3.1,-12.2 1.9,-12.6 0.6,-12.6 V 36566 l -0.6,-12.7 -1.9,-12.5 -3.1,-12.3 -4.2,-11.9 -5.4,-11.4 -6.5,-10.9 -7.6,-10.1 -8.5,-9.4 -9.4,-8.5 -10.1,-7.6 -10.9,-6.5 -11.4,-5.4 -11.9,-4.2 -12.3,-3.1 -12.5,-1.9 -12.7,-0.6 h -568.8 z"
         id="path1615" />
      <path
         style="color:#000000;fill-rule:evenodd;stroke:none;-inkscape-stroke:none;fill:#00ff00;fill-opacity:1"
         d="m 79782.6,36437.6 -12.6,1.9 -12.2,3.1 -12,4.2 -11.4,5.4 -10.9,6.5 -10.1,7.6 -9.4,8.5 -8.5,9.4 -7.5,10.1 -6.6,10.9 -5.4,11.4 -4.2,11.9 -3.1,12.3 -1.9,12.5 -0.6,12.7 v 568.8 l 0.6,12.6 1.9,12.6 3.1,12.2 4.2,12 5.4,11.4 6.6,10.9 7.5,10.1 8.5,9.4 9.4,8.5 10.1,7.5 10.9,6.6 11.4,5.4 12,4.2 12.2,3.1 12.6,1.9 12.6,0.6 h 568.8 l 12.7,-0.6 12.5,-1.9 12.3,-3.1 11.9,-4.2 11.4,-5.4 10.9,-6.6 10.1,-7.5 9.4,-8.5 8.5,-9.4 7.6,-10.1 6.5,-10.9 5.4,-11.4 4.2,-12 3.1,-12.2 1.9,-12.6 0.6,-12.6 V 36566 l -0.6,-12.7 -1.9,-12.5 -3.1,-12.3 -4.2,-11.9 -5.4,-11.4 -6.5,-10.9 -7.6,-10.1 -8.5,-9.4 -9.4,-8.5 -10.1,-7.6 -10.9,-6.5 -11.4,-5.4 -11.9,-4.2 -12.3,-3.1 -12.5,-1.9 -12.7,-0.6 h -568.8 z"
         id="path1617" />
    </g>
  </g>
  <g
     id="g212"
     style="fill:#000000;fill-opacity:0;stroke:#000000;stroke-width:19.685;stroke-linecap:round;stroke-linejoin:round;stroke-opacity:1" />
  <g
     style="fill:#00ff00;stroke:none;stroke-width:0;stroke-linecap:round;stroke-linejoin:round;fill-opacity:1"
     id="g216">
    <g
       id="circle214"
       style="fill:#00ff00;fill-opacity:1;stroke:none">
      <path
         style="color:#000000;stroke:none;stroke-linecap:butt;stroke-linejoin:miter;-inkscape-stroke:none;fill:#00ff00;fill-opacity:1"
         d="m 82737.073,35590.602 a 295.276,295.276 0 0 1 -295.276,295.276 295.276,295.276 0 0 1 -295.276,-295.276 295.276,295.276 0 0 1 295.276,-295.276 295.276,295.276 0 0 1 295.276,295.276 z"
         id="path1621" />
      <path
         style="color:#000000;stroke:none;stroke-linecap:butt;stroke-linejoin:miter;-inkscape-stroke:none;fill:#00ff00;fill-opacity:1"
         d="m 82382.289,35301.324 c -9.611,1.967 -19.053,4.402 -28.299,7.278 9.246,-2.876 18.688,-5.311 28.299,-7.278 z m 119.016,0 c 9.611,1.967 19.053,4.402 28.299,7.278 -9.246,-2.876 -18.688,-5.311 -28.299,-7.278 z"
         id="path1623" />
    </g>
  </g>
  <g
     style="fill:#000000;fill-opacity:1;stroke:#000000;stroke-width:39.3701;stroke-linecap:round;stroke-linejoin:round;stroke-opacity:1"
     id="g218" />
  <g
     style="fill:#00ff00;stroke:none;stroke-width:0;stroke-linecap:round;stroke-linejoin:round;fill-opacity:1"
     id="g222">
    <g
       id="path220"
       style="fill:#00ff00;fill-opacity:1;stroke:none">
      <path
         style="color:#000000;fill-rule:evenodd;stroke:none;-inkscape-stroke:none;fill:#00ff00;fill-opacity:1"
         d="m 79782.6,35177.8 -12.6,1.8 -12.2,3.1 -12,4.3 -11.4,5.4 -10.9,6.5 -10.1,7.5 -9.4,8.5 -8.5,9.4 -7.5,10.2 -6.6,10.8 -5.4,11.5 -4.2,11.9 -3.1,12.3 -1.9,12.5 -0.6,12.6 v 568.9 l 0.6,12.6 1.9,12.5 3.1,12.3 4.2,11.9 5.4,11.5 6.6,10.8 7.5,10.2 8.5,9.4 9.4,8.5 10.1,7.5 10.9,6.5 11.4,5.4 12,4.3 12.2,3.1 12.6,1.8 12.6,0.6 h 568.8 l 12.7,-0.6 12.5,-1.8 12.3,-3.1 11.9,-4.3 11.4,-5.4 10.9,-6.5 10.1,-7.5 9.4,-8.5 8.5,-9.4 7.6,-10.2 6.5,-10.8 5.4,-11.5 4.2,-11.9 3.1,-12.3 1.9,-12.5 0.6,-12.6 v -568.9 l -0.6,-12.6 -1.9,-12.5 -3.1,-12.3 -4.2,-11.9 -5.4,-11.5 -6.5,-10.8 -7.6,-10.2 -8.5,-9.4 -9.4,-8.5 -10.1,-7.5 -10.9,-6.5 -11.4,-5.4 -11.9,-4.3 -12.3,-3.1 -12.5,-1.8 -12.7,-0.6 h -568.8 z"
         id="path1627" />
      <path
         style="color:#000000;fill-rule:evenodd;stroke:none;-inkscape-stroke:none;fill:#00ff00;fill-opacity:1"
         d="m 79782.6,35177.8 -12.6,1.8 -12.2,3.1 -12,4.3 -11.4,5.4 -10.9,6.5 -10.1,7.5 -9.4,8.5 -8.5,9.4 -7.5,10.2 -6.6,10.8 -5.4,11.5 -4.2,11.9 -3.1,12.3 -1.9,12.5 -0.6,12.6 v 568.9 l 0.6,12.6 1.9,12.5 3.1,12.3 4.2,11.9 5.4,11.5 6.6,10.8 7.5,10.2 8.5,9.4 9.4,8.5 10.1,7.5 10.9,6.5 11.4,5.4 12,4.3 12.2,3.1 12.6,1.8 12.6,0.6 h 568.8 l 12.7,-0.6 12.5,-1.8 12.3,-3.1 11.9,-4.3 11.4,-5.4 10.9,-6.5 10.1,-7.5 9.4,-8.5 8.5,-9.4 7.6,-10.2 6.5,-10.8 5.4,-11.5 4.2,-11.9 3.1,-12.3 1.9,-12.5 0.6,-12.6 v -568.9 l -0.6,-12.6 -1.9,-12.5 -3.1,-12.3 -4.2,-11.9 -5.4,-11.5 -6.5,-10.8 -7.6,-10.2 -8.5,-9.4 -9.4,-8.5 -10.1,-7.5 -10.9,-6.5 -11.4,-5.4 -11.9,-4.3 -12.3,-3.1 -12.5,-1.8 -12.7,-0.6 h -568.8 z"
         id="path1629" />
    </g>
  </g>
  <g
     id="g224"
     style="fill:#000000;fill-opacity:0;stroke:#000000;stroke-width:19.685;stroke-linecap:round;stroke-linejoin:round;stroke-opacity:1" />
  <g
     style="fill:#000000;fill-opacity:1;stroke:#000000;stroke-width:0;stroke-linecap:round;stroke-linejoin:round;stroke-opacity:1"
     id="g226" />
  <g
     style="fill:#000000;fill-opacity:1;stroke:#000000;stroke-width:787.402;stroke-linecap:round;stroke-linejoin:round;stroke-opacity:1"
     id="g228" />
  <g
     style="fill:#00ff00;fill-opacity:1;stroke:none;stroke-width:787.402;stroke-linecap:round;stroke-linejoin:round"
     id="g242">
    <g
       id="path230"
       style="fill:#00ff00;fill-opacity:1;stroke:none">
      <path
         style="color:#000000;stroke:none;stroke-linecap:butt;stroke-linejoin:miter;-inkscape-stroke:none;fill:#00ff00;fill-opacity:1"
         d="m 74055,33070 v -315"
         id="path1633" />
      <path
         style="color:#000000;fill-opacity:1;stroke:none;stroke-linecap:butt;stroke-linejoin:miter;-inkscape-stroke:none;fill:#00ff00"
         d="M 74055,32361.299 A 393.70099,393.70099 0 0 0 73661.299,32755 v 315 A 393.70099,393.70099 0 0 0 74055,33463.701 393.70099,393.70099 0 0 0 74448.701,33070 v -315 A 393.70099,393.70099 0 0 0 74055,32361.299 Z"
         id="path1635" />
    </g>
    <g
       id="path232"
       style="fill:#00ff00;fill-opacity:1;stroke:none">
      <path
         style="color:#000000;stroke:none;stroke-linecap:butt;stroke-linejoin:miter;-inkscape-stroke:none;fill:#00ff00;fill-opacity:1"
         d="m 75055,33070 v -315"
         id="path1639" />
      <path
         style="color:#000000;fill-opacity:1;stroke:none;stroke-linecap:butt;stroke-linejoin:miter;-inkscape-stroke:none;fill:#00ff00"
         d="M 75055,32361.299 A 393.70099,393.70099 0 0 0 74661.299,32755 v 315 A 393.70099,393.70099 0 0 0 75055,33463.701 393.70099,393.70099 0 0 0 75448.701,33070 v -315 A 393.70099,393.70099 0 0 0 75055,32361.299 Z"
         id="path1641" />
    </g>
    <g
       id="path234"
       style="fill:#00ff00;fill-opacity:1;stroke:none">
      <path
         style="color:#000000;stroke:none;stroke-linecap:butt;stroke-linejoin:miter;-inkscape-stroke:none;fill:#00ff00;fill-opacity:1"
         d="m 76055,33070 v -315"
         id="path1645" />
      <path
         style="color:#000000;fill-opacity:1;stroke:none;stroke-linecap:butt;stroke-linejoin:miter;-inkscape-stroke:none;fill:#00ff00"
         d="M 76055,32361.299 A 393.70099,393.70099 0 0 0 75661.299,32755 v 315 A 393.70099,393.70099 0 0 0 76055,33463.701 393.70099,393.70099 0 0 0 76448.701,33070 v -315 A 393.70099,393.70099 0 0 0 76055,32361.299 Z"
         id="path1647" />
    </g>
    <g
       id="path236"
       style="fill:#00ff00;fill-opacity:1;stroke:none">
      <path
         style="color:#000000;stroke:none;stroke-linecap:butt;stroke-linejoin:miter;-inkscape-stroke:none;fill:#00ff00;fill-opacity:1"
         d="m 77055,33070 v -315"
         id="path1651" />
      <path
         style="color:#000000;fill-opacity:1;stroke:none;stroke-linecap:butt;stroke-linejoin:miter;-inkscape-stroke:none;fill:#00ff00"
         d="M 77055,32361.299 A 393.70099,393.70099 0 0 0 76661.299,32755 v 315 A 393.70099,393.70099 0 0 0 77055,33463.701 393.70099,393.70099 0 0 0 77448.701,33070 v -315 A 393.70099,393.70099 0 0 0 77055,32361.299 Z"
         id="path1653" />
    </g>
    <g
       id="path238"
       style="fill:#00ff00;fill-opacity:1;stroke:none">
      <path
         style="color:#000000;stroke:none;stroke-linecap:butt;stroke-linejoin:miter;-inkscape-stroke:none;fill:#00ff00;fill-opacity:1"
         d="m 78055,33070 v -315"
         id="path1657" />
      <path
         style="color:#000000;fill-opacity:1;stroke:none;stroke-linecap:butt;stroke-linejoin:miter;-inkscape-stroke:none;fill:#00ff00"
         d="M 78055,32361.299 A 393.70099,393.70099 0 0 0 77661.299,32755 v 315 A 393.70099,393.70099 0 0 0 78055,33463.701 393.70099,393.70099 0 0 0 78448.701,33070 v -315 A 393.70099,393.70099 0 0 0 78055,32361.299 Z"
         id="path1659" />
    </g>
    <g
       id="path240"
       style="fill:#00ff00;fill-opacity:1;stroke:none">
      <path
         style="color:#000000;stroke:none;stroke-linecap:butt;stroke-linejoin:miter;-inkscape-stroke:none;fill:#00ff00;fill-opacity:1"
         d="m 79055,33070 v -315"
         id="path1663" />
      <path
         style="color:#000000;fill-opacity:1;stroke:none;stroke-linecap:butt;stroke-linejoin:miter;-inkscape-stroke:none;fill:#00ff00"
         d="M 79055,32361.299 A 393.70099,393.70099 0 0 0 78661.299,32755 v 315 A 393.70099,393.70099 0 0 0 79055,33463.701 393.70099,393.70099 0 0 0 79448.701,33070 v -315 A 393.70099,393.70099 0 0 0 79055,32361.299 Z"
         id="path1665" />
    </g>
  </g>
  <g
     id="g244"
     style="fill:#000000;fill-opacity:0;stroke:#000000;stroke-width:19.685;stroke-linecap:round;stroke-linejoin:round;stroke-opacity:1" />
  <g
     style="fill:#000000;fill-opacity:0;stroke:#000000;stroke-width:787.402;stroke-linecap:round;stroke-linejoin:round;stroke-opacity:1"
     id="g246" />
  <g
     style="fill:#00ff00;stroke:none;stroke-width:0;stroke-linecap:round;stroke-linejoin:round;fill-opacity:1"
     id="g250">
    <g
       id="circle248"
       style="fill:#00ff00;fill-opacity:1;stroke:none">
      <path
         style="color:#000000;stroke:none;stroke-linecap:butt;stroke-linejoin:miter;-inkscape-stroke:none;fill:#00ff00;fill-opacity:1"
         d="m 80178.073,45984.301 a 295.276,295.276 0 0 1 -295.276,295.276 295.276,295.276 0 0 1 -295.276,-295.276 295.276,295.276 0 0 1 295.276,-295.276 295.276,295.276 0 0 1 295.276,295.276 z"
         id="path1669" />
      <path
         style="color:#000000;stroke:none;stroke-linecap:butt;stroke-linejoin:miter;-inkscape-stroke:none;fill:#00ff00;fill-opacity:1"
         d="m 80178.073,45984.301 c 0,163.076 -132.2,295.276 -295.276,295.276 -163.076,0 -295.276,-132.2 -295.276,-295.276 0,-163.076 132.2,-295.276 295.276,-295.276 163.076,0 295.276,132.2 295.276,295.276 z"
         id="path1671" />
    </g>
  </g>
  <g
     style="fill:#000000;fill-opacity:1;stroke:#000000;stroke-width:39.3701;stroke-linecap:round;stroke-linejoin:round;stroke-opacity:1"
     id="g252" />
  <g
     style="fill:#00ff00;stroke:none;stroke-width:0;stroke-linecap:round;stroke-linejoin:round;fill-opacity:1"
     id="g256">
    <g
       id="path254"
       style="fill:#00ff00;fill-opacity:1;stroke:none">
      <path
         style="color:#000000;fill-rule:evenodd;stroke:none;-inkscape-stroke:none;fill:#00ff00;fill-opacity:1"
         d="m 79585.7,43209.3 -12.5,1.8 -12.3,3.1 -11.9,4.3 -11.5,5.4 -10.8,6.5 -10.2,7.5 -9.4,8.5 -8.5,9.4 -7.5,10.2 -6.5,10.8 -5.4,11.5 -4.3,11.9 -3.1,12.3 -1.8,12.5 -0.6,12.6 v 568.9 l 0.6,12.6 1.8,12.5 3.1,12.3 4.3,11.9 5.4,11.5 6.5,10.8 7.5,10.2 8.5,9.4 9.4,8.5 10.2,7.5 10.8,6.5 11.5,5.4 11.9,4.3 12.3,3.1 12.5,1.8 12.6,0.6 h 568.9 l 12.6,-0.6 12.5,-1.8 12.3,-3.1 11.9,-4.3 11.5,-5.4 10.8,-6.5 10.2,-7.5 9.4,-8.5 8.5,-9.4 7.5,-10.2 6.5,-10.8 5.4,-11.5 4.3,-11.9 3.1,-12.3 1.8,-12.5 0.6,-12.6 v -568.9 l -0.6,-12.6 -1.8,-12.5 -3.1,-12.3 -4.3,-11.9 -5.4,-11.5 -6.5,-10.8 -7.5,-10.2 -8.5,-9.4 -9.4,-8.5 -10.2,-7.5 -10.8,-6.5 -11.5,-5.4 -11.9,-4.3 -12.3,-3.1 -12.5,-1.8 -12.6,-0.6 h -568.9 z"
         id="path1675" />
      <path
         style="color:#000000;fill-rule:evenodd;stroke:none;-inkscape-stroke:none;fill:#00ff00;fill-opacity:1"
         d="m 79585.7,43209.3 -12.5,1.8 -12.3,3.1 -11.9,4.3 -11.5,5.4 -10.8,6.5 -10.2,7.5 -9.4,8.5 -8.5,9.4 -7.5,10.2 -6.5,10.8 -5.4,11.5 -4.3,11.9 -3.1,12.3 -1.8,12.5 -0.6,12.6 v 568.9 l 0.6,12.6 1.8,12.5 3.1,12.3 4.3,11.9 5.4,11.5 6.5,10.8 7.5,10.2 8.5,9.4 9.4,8.5 10.2,7.5 10.8,6.5 11.5,5.4 11.9,4.3 12.3,3.1 12.5,1.8 12.6,0.6 h 568.9 l 12.6,-0.6 12.5,-1.8 12.3,-3.1 11.9,-4.3 11.5,-5.4 10.8,-6.5 10.2,-7.5 9.4,-8.5 8.5,-9.4 7.5,-10.2 6.5,-10.8 5.4,-11.5 4.3,-11.9 3.1,-12.3 1.8,-12.5 0.6,-12.6 v -568.9 l -0.6,-12.6 -1.8,-12.5 -3.1,-12.3 -4.3,-11.9 -5.4,-11.5 -6.5,-10.8 -7.5,-10.2 -8.5,-9.4 -9.4,-8.5 -10.2,-7.5 -10.8,-6.5 -11.5,-5.4 -11.9,-4.3 -12.3,-3.1 -12.5,-1.8 -12.6,-0.6 h -568.9 z"
         id="path1677" />
    </g>
  </g>
  <g
     id="g258"
     style="fill:#000000;fill-opacity:0;stroke:#000000;stroke-width:19.685;stroke-linecap:round;stroke-linejoin:round;stroke-opacity:1" />
  <g
     style="fill:#00ff00;stroke:none;stroke-width:0;stroke-linecap:round;stroke-linejoin:round;fill-opacity:1"
     id="g262">
    <g
       id="circle260"
       style="fill:#00ff00;fill-opacity:1;stroke:none">
      <path
         style="color:#000000;stroke:none;stroke-linecap:butt;stroke-linejoin:miter;-inkscape-stroke:none;fill:#00ff00;fill-opacity:1"
         d="m 73681.979,45984.301 a 295.276,295.276 0 0 1 -295.276,295.276 295.276,295.276 0 0 1 -295.276,-295.276 295.276,295.276 0 0 1 295.276,-295.276 295.276,295.276 0 0 1 295.276,295.276 z"
         id="path1681" />
      <path
         style="color:#000000;stroke:none;stroke-linecap:butt;stroke-linejoin:miter;-inkscape-stroke:none;fill:#00ff00;fill-opacity:1"
         d="m 73681.979,45984.301 c 0,163.076 -132.2,295.276 -295.276,295.276 -163.076,0 -295.276,-132.2 -295.276,-295.276 0,-163.076 132.2,-295.276 295.276,-295.276 163.076,0 295.276,132.2 295.276,295.276 z"
         id="path1683" />
    </g>
  </g>
  <g
     style="fill:#000000;fill-opacity:1;stroke:#000000;stroke-width:39.3701;stroke-linecap:round;stroke-linejoin:round;stroke-opacity:1"
     id="g264" />
  <g
     style="fill:#00ff00;stroke:none;stroke-width:0;stroke-linecap:round;stroke-linejoin:round;fill-opacity:1"
     id="g268">
    <g
       id="path266"
       style="fill:#00ff00;fill-opacity:1;stroke:none">
      <path
         style="color:#000000;fill-rule:evenodd;stroke:none;-inkscape-stroke:none;fill:#00ff00;fill-opacity:1"
         d="m 73089.6,43209.3 -12.5,1.8 -12.3,3.1 -11.9,4.3 -11.4,5.4 -10.9,6.5 -10.1,7.5 -9.4,8.5 -8.5,9.4 -7.6,10.2 -6.5,10.8 -5.4,11.5 -4.2,11.9 -3.1,12.3 -1.9,12.5 -0.6,12.6 v 568.9 l 0.6,12.6 1.9,12.5 3.1,12.3 4.2,11.9 5.4,11.5 6.5,10.8 7.6,10.2 8.5,9.4 9.4,8.5 10.1,7.5 10.9,6.5 11.4,5.4 11.9,4.3 12.3,3.1 12.5,1.8 12.7,0.6 h 568.8 l 12.6,-0.6 12.6,-1.8 12.2,-3.1 12,-4.3 11.4,-5.4 10.9,-6.5 10.1,-7.5 9.4,-8.5 8.5,-9.4 7.5,-10.2 6.5,-10.8 5.5,-11.5 4.2,-11.9 3.1,-12.3 1.9,-12.5 0.6,-12.6 v -568.9 l -0.6,-12.6 -1.9,-12.5 -3.1,-12.3 -4.2,-11.9 -5.5,-11.5 -6.5,-10.8 -7.5,-10.2 -8.5,-9.4 -9.4,-8.5 -10.1,-7.5 -10.9,-6.5 -11.4,-5.4 -12,-4.3 -12.2,-3.1 -12.6,-1.8 -12.6,-0.6 h -568.8 z"
         id="path1687" />
      <path
         style="color:#000000;fill-rule:evenodd;stroke:none;-inkscape-stroke:none;fill:#00ff00;fill-opacity:1"
         d="m 73089.6,43209.3 -12.5,1.8 -12.3,3.1 -11.9,4.3 -11.4,5.4 -10.9,6.5 -10.1,7.5 -9.4,8.5 -8.5,9.4 -7.6,10.2 -6.5,10.8 -5.4,11.5 -4.2,11.9 -3.1,12.3 -1.9,12.5 -0.6,12.6 v 568.9 l 0.6,12.6 1.9,12.5 3.1,12.3 4.2,11.9 5.4,11.5 6.5,10.8 7.6,10.2 8.5,9.4 9.4,8.5 10.1,7.5 10.9,6.5 11.4,5.4 11.9,4.3 12.3,3.1 12.5,1.8 12.7,0.6 h 568.8 l 12.6,-0.6 12.6,-1.8 12.2,-3.1 12,-4.3 11.4,-5.4 10.9,-6.5 10.1,-7.5 9.4,-8.5 8.5,-9.4 7.5,-10.2 6.5,-10.8 5.5,-11.5 4.2,-11.9 3.1,-12.3 1.9,-12.5 0.6,-12.6 v -568.9 l -0.6,-12.6 -1.9,-12.5 -3.1,-12.3 -4.2,-11.9 -5.5,-11.5 -6.5,-10.8 -7.5,-10.2 -8.5,-9.4 -9.4,-8.5 -10.1,-7.5 -10.9,-6.5 -11.4,-5.4 -12,-4.3 -12.2,-3.1 -12.6,-1.8 -12.6,-0.6 h -568.8 z"
         id="path1689" />
    </g>
  </g>
  <g
     id="g270"
     style="fill:#000000;fill-opacity:0;stroke:#000000;stroke-width:19.685;stroke-linecap:round;stroke-linejoin:round;stroke-opacity:1" />
  <g
     id="g272"
     style="fill:#000000;fill-opacity:0;stroke:#000000;stroke-width:19.685;stroke-linecap:round;stroke-linejoin:round;stroke-opacity:1" />
  <g
     id="g274"
     style="fill:#000000;fill-opacity:0;stroke:#000000;stroke-width:19.685;stroke-linecap:round;stroke-linejoin:round;stroke-opacity:1" />
</svg>
