<?xml version="1.0" encoding="UTF-8" standalone="no"?>
<svg
   version="1.1"
   width="29.700220cm"
   height="21.000720cm"
   viewBox="0 0 116930 82680"
   id="svg3316"
   sodipodi:docname="keys-B_Paste.svg"
   inkscape:version="1.1 (c68e22c387, 2021-05-23)"
   xmlns:inkscape="http://www.inkscape.org/namespaces/inkscape"
   xmlns:sodipodi="http://sodipodi.sourceforge.net/DTD/sodipodi-0.dtd"
   xmlns="http://www.w3.org/2000/svg"
   xmlns:svg="http://www.w3.org/2000/svg">
  <defs
     id="defs3320" />
  <sodipodi:namedview
     id="namedview3318"
     pagecolor="#ffffff"
     bordercolor="#666666"
     borderopacity="1.0"
     inkscape:pageshadow="2"
     inkscape:pageopacity="0.0"
     inkscape:pagecheckerboard="0"
     inkscape:document-units="cm"
     showgrid="false"
     inkscape:zoom="4.2944799"
     inkscape:cx="735.01333"
     inkscape:cy="378.85845"
     inkscape:window-width="1456"
     inkscape:window-height="997"
     inkscape:window-x="261"
     inkscape:window-y="15"
     inkscape:window-maximized="0"
     inkscape:current-layer="svg3316" />
  <title
     id="title3210">SVG Picture created as keys-B_Paste.svg date 2022/04/06 13:28:47 </title>
  <desc
     id="desc3212">Picture generated by PCBNEW </desc>
  <g
     style="fill:#000000; fill-opacity:1;stroke:#000000; stroke-opacity:1; stroke-linecap:round; stroke-linejoin:round;"
     transform="translate(0 0) scale(1 1)"
     id="g3214" />
  <g
     style="fill:#000000; fill-opacity:0.0;  stroke:#000000; stroke-width:-0.000393701; stroke-opacity:1;  stroke-linecap:round; stroke-linejoin:round;"
     id="g3216" />
  <path
     d="m 72441,44685 v 2362"
     id="path3218"
     style="fill:none;fill-opacity:0;stroke:#00ffff;stroke-width:19.685;stroke-linecap:round;stroke-linejoin:round;stroke-opacity:1" />
  <path
     d="m 69882,44685 h 2559"
     id="path3220"
     style="fill:none;fill-opacity:0;stroke:#00ffff;stroke-width:19.685;stroke-linecap:round;stroke-linejoin:round;stroke-opacity:1" />
  <path
     d="M 85237,29921 H 67914"
     id="path3222"
     style="fill:none;fill-opacity:0;stroke:#ff0000;stroke-width:19.6850404;stroke-linecap:round;stroke-linejoin:round;stroke-opacity:1;stroke-miterlimit:4;stroke-dasharray:none" />
  <path
     d="M 85237,49015 V 29921"
     id="path3224"
     style="fill:none;fill-opacity:0;stroke:#ff0000;stroke-width:19.6850404;stroke-linecap:round;stroke-linejoin:round;stroke-opacity:1;stroke-miterlimit:4;stroke-dasharray:none" />
  <path
     d="M 67914,49015 H 85237"
     id="path3226"
     style="fill:none;fill-opacity:0;stroke:#ff0000;stroke-width:19.6850404;stroke-linecap:round;stroke-linejoin:round;stroke-opacity:1;stroke-miterlimit:4;stroke-dasharray:none" />
  <path
     d="M 67914,29921 V 49015"
     id="path3228"
     style="fill:none;fill-opacity:0;stroke:#ff0000;stroke-width:19.6850404;stroke-linecap:round;stroke-linejoin:round;stroke-opacity:1;stroke-miterlimit:4;stroke-dasharray:none" />
  <path
     d="m 72441,47047 h 1378"
     id="path3230"
     style="fill:none;fill-opacity:0;stroke:#00ffff;stroke-width:19.685;stroke-linecap:round;stroke-linejoin:round;stroke-opacity:1" />
  <path
     d="m 83268,31889 v 8386"
     id="path3232"
     style="fill:none;fill-opacity:0;stroke:#00ffff;stroke-width:19.685;stroke-linecap:round;stroke-linejoin:round;stroke-opacity:1" />
  <path
     d="M 69882,31889 H 83268"
     id="path3234"
     style="fill:none;fill-opacity:0;stroke:#00ffff;stroke-width:19.685;stroke-linecap:round;stroke-linejoin:round;stroke-opacity:1" />
  <path
     d="M 69882,33661 V 31889"
     id="path3236"
     style="fill:none;fill-opacity:0;stroke:#00ffff;stroke-width:19.685;stroke-linecap:round;stroke-linejoin:round;stroke-opacity:1" />
  <path
     d="M 69882,44685 V 33661"
     id="path3238"
     style="fill:none;fill-opacity:0;stroke:#00ffff;stroke-width:19.685;stroke-linecap:round;stroke-linejoin:round;stroke-opacity:1" />
  <path
     d="M 83268,47047 H 73819"
     id="path3240"
     style="fill:none;fill-opacity:0;stroke:#00ffff;stroke-width:19.685;stroke-linecap:round;stroke-linejoin:round;stroke-opacity:1" />
  <path
     d="m 83268,40275 v 6772"
     id="path3242"
     style="fill:none;fill-opacity:0;stroke:#00ffff;stroke-width:19.685;stroke-linecap:round;stroke-linejoin:round;stroke-opacity:1" />
  <g
     id="g3244"
     style="fill:#000000;fill-opacity:0;stroke:#000000;stroke-width:19.685;stroke-linecap:round;stroke-linejoin:round;stroke-opacity:1" />
  <g
     style="fill:#000000;fill-opacity:0;stroke:#000000;stroke-width:0;stroke-linecap:round;stroke-linejoin:round;stroke-opacity:1"
     id="g3246" />
  <g
     style="fill:#000000;stroke:none;stroke-width:0;stroke-linecap:round;stroke-linejoin:round"
     id="g3252">
    <g
       id="path3248"
       style="stroke:none">
      <path
         style="color:#000000;fill-rule:evenodd;stroke:none;-inkscape-stroke:none"
         d="m 79538.5,43661.9 -9.6,1.4 -9.4,2.4 -9.1,3.2 -8.7,4.1 -8.3,5 -7.7,5.8 -7.2,6.4 -6.5,7.2 -5.7,7.8 -5,8.2 -4.1,8.8 -3.3,9.1 -2.3,9.3 -1.4,9.6 -0.5,9.6 v 275.6 l 0.5,9.7 1.4,9.5 2.3,9.4 3.3,9.1 4.1,8.7 5,8.3 5.7,7.8 6.5,7.1 7.2,6.5 7.7,5.8 8.3,4.9 8.7,4.2 9.1,3.2 9.4,2.4 9.6,1.4 9.6,0.5 h 354.3 l 9.7,-0.5 9.5,-1.4 9.4,-2.4 9.1,-3.2 8.7,-4.2 8.3,-4.9 7.8,-5.8 7.1,-6.5 6.5,-7.1 5.8,-7.8 4.9,-8.3 4.2,-8.7 3.2,-9.1 2.4,-9.4 1.4,-9.5 0.5,-9.7 v -275.6 l -0.5,-9.6 -1.4,-9.6 -2.4,-9.3 -3.2,-9.1 -4.2,-8.8 -4.9,-8.2 -5.8,-7.8 -6.5,-7.2 -7.1,-6.4 -7.8,-5.8 -8.3,-5 -8.7,-4.1 -9.1,-3.2 -9.4,-2.4 -9.5,-1.4 -9.7,-0.5 h -354.3 z"
         id="path3778" />
      <path
         style="color:#000000;fill-rule:evenodd;stroke:none;-inkscape-stroke:none"
         d="m 79538.5,43661.9 -9.6,1.4 -9.4,2.4 -9.1,3.2 -8.7,4.1 -8.3,5 -7.7,5.8 -7.2,6.4 -6.5,7.2 -5.7,7.8 -5,8.2 -4.1,8.8 -3.3,9.1 -2.3,9.3 -1.4,9.6 -0.5,9.6 v 275.6 l 0.5,9.7 1.4,9.5 2.3,9.4 3.3,9.1 4.1,8.7 5,8.3 5.7,7.8 6.5,7.1 7.2,6.5 7.7,5.8 8.3,4.9 8.7,4.2 9.1,3.2 9.4,2.4 9.6,1.4 9.6,0.5 h 354.3 l 9.7,-0.5 9.5,-1.4 9.4,-2.4 9.1,-3.2 8.7,-4.2 8.3,-4.9 7.8,-5.8 7.1,-6.5 6.5,-7.1 5.8,-7.8 4.9,-8.3 4.2,-8.7 3.2,-9.1 2.4,-9.4 1.4,-9.5 0.5,-9.7 v -275.6 l -0.5,-9.6 -1.4,-9.6 -2.4,-9.3 -3.2,-9.1 -4.2,-8.8 -4.9,-8.2 -5.8,-7.8 -6.5,-7.2 -7.1,-6.4 -7.8,-5.8 -8.3,-5 -8.7,-4.1 -9.1,-3.2 -9.4,-2.4 -9.5,-1.4 -9.7,-0.5 h -354.3 z"
         id="path3780" />
    </g>
    <g
       id="path3250"
       style="stroke:none">
      <path
         style="color:#000000;fill-rule:evenodd;stroke:none;-inkscape-stroke:none"
         d="m 79538.5,42874.5 -9.6,1.4 -9.4,2.4 -9.1,3.2 -8.7,4.1 -8.3,5 -7.7,5.8 -7.2,6.4 -6.5,7.2 -5.7,7.8 -5,8.2 -4.1,8.8 -3.3,9.1 -2.3,9.3 -1.4,9.6 -0.5,9.6 v 275.6 l 0.5,9.7 1.4,9.5 2.3,9.4 3.3,9.1 4.1,8.7 5,8.3 5.7,7.8 6.5,7.1 7.2,6.5 7.7,5.8 8.3,4.9 8.7,4.2 9.1,3.2 9.4,2.4 9.6,1.4 9.6,0.5 h 354.3 l 9.7,-0.5 9.5,-1.4 9.4,-2.4 9.1,-3.2 8.7,-4.2 8.3,-4.9 7.8,-5.8 7.1,-6.5 6.5,-7.1 5.8,-7.8 4.9,-8.3 4.2,-8.7 3.2,-9.1 2.4,-9.4 1.4,-9.5 0.5,-9.7 v -275.6 l -0.5,-9.6 -1.4,-9.6 -2.4,-9.3 -3.2,-9.1 -4.2,-8.8 -4.9,-8.2 -5.8,-7.8 -6.5,-7.2 -7.1,-6.4 -7.8,-5.8 -8.3,-5 -8.7,-4.1 -9.1,-3.2 -9.4,-2.4 -9.5,-1.4 -9.7,-0.5 h -354.3 z"
         id="path3783" />
      <path
         style="color:#000000;fill-rule:evenodd;stroke:none;-inkscape-stroke:none"
         d="m 79538.5,42874.5 -9.6,1.4 -9.4,2.4 -9.1,3.2 -8.7,4.1 -8.3,5 -7.7,5.8 -7.2,6.4 -6.5,7.2 -5.7,7.8 -5,8.2 -4.1,8.8 -3.3,9.1 -2.3,9.3 -1.4,9.6 -0.5,9.6 v 275.6 l 0.5,9.7 1.4,9.5 2.3,9.4 3.3,9.1 4.1,8.7 5,8.3 5.7,7.8 6.5,7.1 7.2,6.5 7.7,5.8 8.3,4.9 8.7,4.2 9.1,3.2 9.4,2.4 9.6,1.4 9.6,0.5 h 354.3 l 9.7,-0.5 9.5,-1.4 9.4,-2.4 9.1,-3.2 8.7,-4.2 8.3,-4.9 7.8,-5.8 7.1,-6.5 6.5,-7.1 5.8,-7.8 4.9,-8.3 4.2,-8.7 3.2,-9.1 2.4,-9.4 1.4,-9.5 0.5,-9.7 v -275.6 l -0.5,-9.6 -1.4,-9.6 -2.4,-9.3 -3.2,-9.1 -4.2,-8.8 -4.9,-8.2 -5.8,-7.8 -6.5,-7.2 -7.1,-6.4 -7.8,-5.8 -8.3,-5 -8.7,-4.1 -9.1,-3.2 -9.4,-2.4 -9.5,-1.4 -9.7,-0.5 h -354.3 z"
         id="path3785" />
    </g>
  </g>
  <g
     id="g3254"
     style="fill:#000000;fill-opacity:0;stroke:#000000;stroke-width:19.685;stroke-linecap:round;stroke-linejoin:round;stroke-opacity:1" />
  <g
     style="fill:#000000;stroke:none;stroke-width:0;stroke-linecap:round;stroke-linejoin:round"
     id="g3260">
    <g
       id="path3256"
       style="stroke:none">
      <path
         style="color:#000000;fill-rule:evenodd;stroke:none;-inkscape-stroke:none"
         d="m 79538.5,36378.4 -9.6,1.4 -9.4,2.4 -9.1,3.2 -8.7,4.2 -8.3,4.9 -7.7,5.8 -7.2,6.5 -6.5,7.1 -5.7,7.8 -5,8.3 -4.1,8.7 -3.3,9.1 -2.3,9.4 -1.4,9.5 -0.5,9.7 v 275.6 l 0.5,9.6 1.4,9.6 2.3,9.3 3.3,9.1 4.1,8.8 5,8.3 5.7,7.7 6.5,7.2 7.2,6.5 7.7,5.7 8.3,5 8.7,4.1 9.1,3.3 9.4,2.3 9.6,1.4 9.6,0.5 h 354.3 l 9.7,-0.5 9.5,-1.4 9.4,-2.3 9.1,-3.3 8.7,-4.1 8.3,-5 7.8,-5.7 7.1,-6.5 6.5,-7.2 5.8,-7.7 4.9,-8.3 4.2,-8.8 3.2,-9.1 2.4,-9.3 1.4,-9.6 0.5,-9.6 v -275.6 l -0.5,-9.7 -1.4,-9.5 -2.4,-9.4 -3.2,-9.1 -4.2,-8.7 -4.9,-8.3 -5.8,-7.8 -6.5,-7.1 -7.1,-6.5 -7.8,-5.8 -8.3,-4.9 -8.7,-4.2 -9.1,-3.2 -9.4,-2.4 -9.5,-1.4 -9.7,-0.4 h -354.3 z"
         id="path3788" />
      <path
         style="color:#000000;fill-rule:evenodd;stroke:none;-inkscape-stroke:none"
         d="m 79538.5,36378.4 -9.6,1.4 -9.4,2.4 -9.1,3.2 -8.7,4.2 -8.3,4.9 -7.7,5.8 -7.2,6.5 -6.5,7.1 -5.7,7.8 -5,8.3 -4.1,8.7 -3.3,9.1 -2.3,9.4 -1.4,9.5 -0.5,9.7 v 275.6 l 0.5,9.6 1.4,9.6 2.3,9.3 3.3,9.1 4.1,8.8 5,8.3 5.7,7.7 6.5,7.2 7.2,6.5 7.7,5.7 8.3,5 8.7,4.1 9.1,3.3 9.4,2.3 9.6,1.4 9.6,0.5 h 354.3 l 9.7,-0.5 9.5,-1.4 9.4,-2.3 9.1,-3.3 8.7,-4.1 8.3,-5 7.8,-5.7 7.1,-6.5 6.5,-7.2 5.8,-7.7 4.9,-8.3 4.2,-8.8 3.2,-9.1 2.4,-9.3 1.4,-9.6 0.5,-9.6 v -275.6 l -0.5,-9.7 -1.4,-9.5 -2.4,-9.4 -3.2,-9.1 -4.2,-8.7 -4.9,-8.3 -5.8,-7.8 -6.5,-7.1 -7.1,-6.5 -7.8,-5.8 -8.3,-4.9 -8.7,-4.2 -9.1,-3.2 -9.4,-2.4 -9.5,-1.4 -9.7,-0.4 h -354.3 z"
         id="path3790" />
    </g>
    <g
       id="path3258"
       style="stroke:none">
      <path
         style="color:#000000;fill-rule:evenodd;stroke:none;-inkscape-stroke:none"
         d="m 79538.5,37165.8 -9.6,1.4 -9.4,2.4 -9.1,3.2 -8.7,4.2 -8.3,4.9 -7.7,5.8 -7.2,6.5 -6.5,7.1 -5.7,7.8 -5,8.3 -4.1,8.7 -3.3,9.1 -2.3,9.4 -1.4,9.5 -0.5,9.7 v 275.6 l 0.5,9.6 1.4,9.6 2.3,9.3 3.3,9.1 4.1,8.8 5,8.3 5.7,7.7 6.5,7.2 7.2,6.5 7.7,5.7 8.3,5 8.7,4.1 9.1,3.3 9.4,2.3 9.6,1.4 9.6,0.5 h 354.3 l 9.7,-0.5 9.5,-1.4 9.4,-2.3 9.1,-3.3 8.7,-4.1 8.3,-5 7.8,-5.7 7.1,-6.5 6.5,-7.2 5.8,-7.7 4.9,-8.3 4.2,-8.8 3.2,-9.1 2.4,-9.3 1.4,-9.6 0.5,-9.6 v -275.6 l -0.5,-9.7 -1.4,-9.5 -2.4,-9.4 -3.2,-9.1 -4.2,-8.7 -4.9,-8.3 -5.8,-7.8 -6.5,-7.1 -7.1,-6.5 -7.8,-5.8 -8.3,-4.9 -8.7,-4.2 -9.1,-3.2 -9.4,-2.4 -9.5,-1.4 -9.7,-0.4 h -354.3 z"
         id="path3793" />
      <path
         style="color:#000000;fill-rule:evenodd;stroke:none;-inkscape-stroke:none"
         d="m 79538.5,37165.8 -9.6,1.4 -9.4,2.4 -9.1,3.2 -8.7,4.2 -8.3,4.9 -7.7,5.8 -7.2,6.5 -6.5,7.1 -5.7,7.8 -5,8.3 -4.1,8.7 -3.3,9.1 -2.3,9.4 -1.4,9.5 -0.5,9.7 v 275.6 l 0.5,9.6 1.4,9.6 2.3,9.3 3.3,9.1 4.1,8.8 5,8.3 5.7,7.7 6.5,7.2 7.2,6.5 7.7,5.7 8.3,5 8.7,4.1 9.1,3.3 9.4,2.3 9.6,1.4 9.6,0.5 h 354.3 l 9.7,-0.5 9.5,-1.4 9.4,-2.3 9.1,-3.3 8.7,-4.1 8.3,-5 7.8,-5.7 7.1,-6.5 6.5,-7.2 5.8,-7.7 4.9,-8.3 4.2,-8.8 3.2,-9.1 2.4,-9.3 1.4,-9.6 0.5,-9.6 v -275.6 l -0.5,-9.7 -1.4,-9.5 -2.4,-9.4 -3.2,-9.1 -4.2,-8.7 -4.9,-8.3 -5.8,-7.8 -6.5,-7.1 -7.1,-6.5 -7.8,-5.8 -8.3,-4.9 -8.7,-4.2 -9.1,-3.2 -9.4,-2.4 -9.5,-1.4 -9.7,-0.4 h -354.3 z"
         id="path3795" />
    </g>
  </g>
  <g
     id="g3262"
     style="fill:#000000;fill-opacity:0;stroke:#000000;stroke-width:19.685;stroke-linecap:round;stroke-linejoin:round;stroke-opacity:1" />
  <g
     id="g3264"
     style="fill:#000000;fill-opacity:0;stroke:#000000;stroke-width:19.685;stroke-linecap:round;stroke-linejoin:round;stroke-opacity:1" />
  <g
     id="g3266"
     style="fill:#000000;fill-opacity:0;stroke:#000000;stroke-width:19.685;stroke-linecap:round;stroke-linejoin:round;stroke-opacity:1" />
  <g
     id="g3268"
     style="fill:#000000;fill-opacity:0;stroke:#000000;stroke-width:19.685;stroke-linecap:round;stroke-linejoin:round;stroke-opacity:1" />
  <g
     id="g3270"
     style="fill:#000000;fill-opacity:0;stroke:#000000;stroke-width:19.685;stroke-linecap:round;stroke-linejoin:round;stroke-opacity:1" />
  <g
     id="g3272"
     style="fill:#000000;fill-opacity:0;stroke:#000000;stroke-width:19.685;stroke-linecap:round;stroke-linejoin:round;stroke-opacity:1" />
  <g
     style="fill:#000000;stroke:none;stroke-width:0;stroke-linecap:round;stroke-linejoin:round"
     id="g3278">
    <g
       id="path3274"
       style="stroke:none">
      <path
         style="color:#000000;fill-rule:evenodd;stroke:none;-inkscape-stroke:none"
         d="m 71900.7,42343 -9.6,1.4 -9.4,2.4 -9.1,3.2 -8.7,4.1 -8.3,5 -7.7,5.8 -7.2,6.4 -6.5,7.2 -5.7,7.8 -5,8.2 -4.1,8.8 -3.3,9.1 -2.3,9.3 -1.4,9.6 -0.5,9.6 v 354.4 l 0.5,9.6 1.4,9.6 2.3,9.3 3.3,9.1 4.1,8.8 5,8.3 5.7,7.7 6.5,7.2 7.2,6.5 7.7,5.7 8.3,5 8.7,4.1 9.1,3.3 9.4,2.3 9.6,1.4 9.6,0.5 h 275.6 l 9.7,-0.5 9.5,-1.4 9.4,-2.3 9.1,-3.3 8.7,-4.1 8.3,-5 7.7,-5.7 7.2,-6.5 6.5,-7.2 5.7,-7.7 5,-8.3 4.1,-8.8 3.3,-9.1 2.3,-9.3 1.5,-9.6 0.4,-9.6 v -354.4 l -0.4,-9.6 -1.5,-9.6 -2.3,-9.3 -3.3,-9.1 -4.1,-8.8 -5,-8.2 -5.7,-7.8 -6.5,-7.2 -7.2,-6.4 -7.7,-5.8 -8.3,-5 -8.7,-4.1 -9.1,-3.2 -9.4,-2.4 -9.5,-1.4 -9.7,-0.5 h -275.6 z"
         id="path3798" />
      <path
         style="color:#000000;fill-rule:evenodd;stroke:none;-inkscape-stroke:none"
         d="m 71900.7,42343 -9.6,1.4 -9.4,2.4 -9.1,3.2 -8.7,4.1 -8.3,5 -7.7,5.8 -7.2,6.4 -6.5,7.2 -5.7,7.8 -5,8.2 -4.1,8.8 -3.3,9.1 -2.3,9.3 -1.4,9.6 -0.5,9.6 v 354.4 l 0.5,9.6 1.4,9.6 2.3,9.3 3.3,9.1 4.1,8.8 5,8.3 5.7,7.7 6.5,7.2 7.2,6.5 7.7,5.7 8.3,5 8.7,4.1 9.1,3.3 9.4,2.3 9.6,1.4 9.6,0.5 h 275.6 l 9.7,-0.5 9.5,-1.4 9.4,-2.3 9.1,-3.3 8.7,-4.1 8.3,-5 7.7,-5.7 7.2,-6.5 6.5,-7.2 5.7,-7.7 5,-8.3 4.1,-8.8 3.3,-9.1 2.3,-9.3 1.5,-9.6 0.4,-9.6 v -354.4 l -0.4,-9.6 -1.5,-9.6 -2.3,-9.3 -3.3,-9.1 -4.1,-8.8 -5,-8.2 -5.7,-7.8 -6.5,-7.2 -7.2,-6.4 -7.7,-5.8 -8.3,-5 -8.7,-4.1 -9.1,-3.2 -9.4,-2.4 -9.5,-1.4 -9.7,-0.5 h -275.6 z"
         id="path3800" />
    </g>
    <g
       id="path3276"
       style="stroke:none">
      <path
         style="color:#000000;fill-rule:evenodd;stroke:none;-inkscape-stroke:none"
         d="m 72688.1,42343 -9.6,1.4 -9.4,2.4 -9,3.2 -8.8,4.1 -8.3,5 -7.7,5.8 -7.2,6.4 -6.5,7.2 -5.7,7.8 -5,8.2 -4.1,8.8 -3.3,9.1 -2.3,9.3 -1.4,9.6 -0.5,9.6 v 354.4 l 0.5,9.6 1.4,9.6 2.3,9.3 3.3,9.1 4.1,8.8 5,8.3 5.7,7.7 6.5,7.2 7.2,6.5 7.7,5.7 8.3,5 8.8,4.1 9,3.3 9.4,2.3 9.6,1.4 9.6,0.5 h 275.6 l 9.7,-0.5 9.5,-1.4 9.4,-2.3 9.1,-3.3 8.7,-4.1 8.3,-5 7.7,-5.7 7.2,-6.5 6.5,-7.2 5.7,-7.7 5,-8.3 4.1,-8.8 3.3,-9.1 2.3,-9.3 1.5,-9.6 0.4,-9.6 v -354.4 l -0.4,-9.6 -1.5,-9.6 -2.3,-9.3 -3.3,-9.1 -4.1,-8.8 -5,-8.2 -5.7,-7.8 -6.5,-7.2 -7.2,-6.4 -7.7,-5.8 -8.3,-5 -8.7,-4.1 -9.1,-3.2 -9.4,-2.4 -9.5,-1.4 -9.7,-0.5 h -275.6 z"
         id="path3803" />
      <path
         style="color:#000000;fill-rule:evenodd;stroke:none;-inkscape-stroke:none"
         d="m 72688.1,42343 -9.6,1.4 -9.4,2.4 -9,3.2 -8.8,4.1 -8.3,5 -7.7,5.8 -7.2,6.4 -6.5,7.2 -5.7,7.8 -5,8.2 -4.1,8.8 -3.3,9.1 -2.3,9.3 -1.4,9.6 -0.5,9.6 v 354.4 l 0.5,9.6 1.4,9.6 2.3,9.3 3.3,9.1 4.1,8.8 5,8.3 5.7,7.7 6.5,7.2 7.2,6.5 7.7,5.7 8.3,5 8.8,4.1 9,3.3 9.4,2.3 9.6,1.4 9.6,0.5 h 275.6 l 9.7,-0.5 9.5,-1.4 9.4,-2.3 9.1,-3.3 8.7,-4.1 8.3,-5 7.7,-5.7 7.2,-6.5 6.5,-7.2 5.7,-7.7 5,-8.3 4.1,-8.8 3.3,-9.1 2.3,-9.3 1.5,-9.6 0.4,-9.6 v -354.4 l -0.4,-9.6 -1.5,-9.6 -2.3,-9.3 -3.3,-9.1 -4.1,-8.8 -5,-8.2 -5.7,-7.8 -6.5,-7.2 -7.2,-6.4 -7.7,-5.8 -8.3,-5 -8.7,-4.1 -9.1,-3.2 -9.4,-2.4 -9.5,-1.4 -9.7,-0.5 h -275.6 z"
         id="path3805" />
    </g>
  </g>
  <g
     id="g3280"
     style="fill:#000000;fill-opacity:0;stroke:#000000;stroke-width:19.685;stroke-linecap:round;stroke-linejoin:round;stroke-opacity:1" />
  <g
     style="fill:#000000;stroke:none;stroke-width:0;stroke-linecap:round;stroke-linejoin:round"
     id="g3286">
    <g
       id="path3282"
       style="stroke:none">
      <path
         style="color:#000000;fill-rule:evenodd;stroke:none;-inkscape-stroke:none"
         d="m 80424.3,42874.5 -9.6,1.4 -9.3,2.4 -9.1,3.2 -8.8,4.1 -8.2,5 -7.8,5.8 -7.2,6.4 -6.4,7.2 -5.8,7.8 -5,8.2 -4.1,8.8 -3.2,9.1 -2.4,9.3 -1.4,9.6 -0.5,9.6 v 275.6 l 0.5,9.7 1.4,9.5 2.4,9.4 3.2,9.1 4.1,8.7 5,8.3 5.8,7.8 6.4,7.1 7.2,6.5 7.8,5.8 8.2,4.9 8.8,4.2 9.1,3.2 9.3,2.4 9.6,1.4 9.6,0.5 h 354.4 l 9.6,-0.5 9.6,-1.4 9.3,-2.4 9.1,-3.2 8.8,-4.2 8.2,-4.9 7.8,-5.8 7.2,-6.5 6.5,-7.1 5.7,-7.8 5,-8.3 4.1,-8.7 3.3,-9.1 2.3,-9.4 1.4,-9.5 0.5,-9.7 v -275.6 l -0.5,-9.6 -1.4,-9.6 -2.3,-9.3 -3.3,-9.1 -4.1,-8.8 -5,-8.2 -5.7,-7.8 -6.5,-7.2 -7.2,-6.4 -7.8,-5.8 -8.2,-5 -8.8,-4.1 -9.1,-3.2 -9.3,-2.4 -9.6,-1.4 -9.6,-0.5 h -354.4 z"
         id="path3808" />
      <path
         style="color:#000000;fill-rule:evenodd;stroke:none;-inkscape-stroke:none"
         d="m 80424.3,42874.5 -9.6,1.4 -9.3,2.4 -9.1,3.2 -8.8,4.1 -8.2,5 -7.8,5.8 -7.2,6.4 -6.4,7.2 -5.8,7.8 -5,8.2 -4.1,8.8 -3.2,9.1 -2.4,9.3 -1.4,9.6 -0.5,9.6 v 275.6 l 0.5,9.7 1.4,9.5 2.4,9.4 3.2,9.1 4.1,8.7 5,8.3 5.8,7.8 6.4,7.1 7.2,6.5 7.8,5.8 8.2,4.9 8.8,4.2 9.1,3.2 9.3,2.4 9.6,1.4 9.6,0.5 h 354.4 l 9.6,-0.5 9.6,-1.4 9.3,-2.4 9.1,-3.2 8.8,-4.2 8.2,-4.9 7.8,-5.8 7.2,-6.5 6.5,-7.1 5.7,-7.8 5,-8.3 4.1,-8.7 3.3,-9.1 2.3,-9.4 1.4,-9.5 0.5,-9.7 v -275.6 l -0.5,-9.6 -1.4,-9.6 -2.3,-9.3 -3.3,-9.1 -4.1,-8.8 -5,-8.2 -5.7,-7.8 -6.5,-7.2 -7.2,-6.4 -7.8,-5.8 -8.2,-5 -8.8,-4.1 -9.1,-3.2 -9.3,-2.4 -9.6,-1.4 -9.6,-0.5 h -354.4 z"
         id="path3810" />
    </g>
    <g
       id="path3284"
       style="stroke:none">
      <path
         style="color:#000000;fill-rule:evenodd;stroke:none;-inkscape-stroke:none"
         d="m 80424.3,43661.9 -9.6,1.4 -9.3,2.4 -9.1,3.2 -8.8,4.1 -8.2,5 -7.8,5.8 -7.2,6.4 -6.4,7.2 -5.8,7.8 -5,8.2 -4.1,8.8 -3.2,9.1 -2.4,9.3 -1.4,9.6 -0.5,9.6 v 275.6 l 0.5,9.7 1.4,9.5 2.4,9.4 3.2,9.1 4.1,8.7 5,8.3 5.8,7.8 6.4,7.1 7.2,6.5 7.8,5.8 8.2,4.9 8.8,4.2 9.1,3.2 9.3,2.4 9.6,1.4 9.6,0.5 h 354.4 l 9.6,-0.5 9.6,-1.4 9.3,-2.4 9.1,-3.2 8.8,-4.2 8.2,-4.9 7.8,-5.8 7.2,-6.5 6.5,-7.1 5.7,-7.8 5,-8.3 4.1,-8.7 3.3,-9.1 2.3,-9.4 1.4,-9.5 0.5,-9.7 v -275.6 l -0.5,-9.6 -1.4,-9.6 -2.3,-9.3 -3.3,-9.1 -4.1,-8.8 -5,-8.2 -5.7,-7.8 -6.5,-7.2 -7.2,-6.4 -7.8,-5.8 -8.2,-5 -8.8,-4.1 -9.1,-3.2 -9.3,-2.4 -9.6,-1.4 -9.6,-0.5 h -354.4 z"
         id="path3813" />
      <path
         style="color:#000000;fill-rule:evenodd;stroke:none;-inkscape-stroke:none"
         d="m 80424.3,43661.9 -9.6,1.4 -9.3,2.4 -9.1,3.2 -8.8,4.1 -8.2,5 -7.8,5.8 -7.2,6.4 -6.4,7.2 -5.8,7.8 -5,8.2 -4.1,8.8 -3.2,9.1 -2.4,9.3 -1.4,9.6 -0.5,9.6 v 275.6 l 0.5,9.7 1.4,9.5 2.4,9.4 3.2,9.1 4.1,8.7 5,8.3 5.8,7.8 6.4,7.1 7.2,6.5 7.8,5.8 8.2,4.9 8.8,4.2 9.1,3.2 9.3,2.4 9.6,1.4 9.6,0.5 h 354.4 l 9.6,-0.5 9.6,-1.4 9.3,-2.4 9.1,-3.2 8.8,-4.2 8.2,-4.9 7.8,-5.8 7.2,-6.5 6.5,-7.1 5.7,-7.8 5,-8.3 4.1,-8.7 3.3,-9.1 2.3,-9.4 1.4,-9.5 0.5,-9.7 v -275.6 l -0.5,-9.6 -1.4,-9.6 -2.3,-9.3 -3.3,-9.1 -4.1,-8.8 -5,-8.2 -5.7,-7.8 -6.5,-7.2 -7.2,-6.4 -7.8,-5.8 -8.2,-5 -8.8,-4.1 -9.1,-3.2 -9.3,-2.4 -9.6,-1.4 -9.6,-0.5 h -354.4 z"
         id="path3815" />
    </g>
  </g>
  <g
     id="g3288"
     style="fill:#000000;fill-opacity:0;stroke:#000000;stroke-width:19.685;stroke-linecap:round;stroke-linejoin:round;stroke-opacity:1" />
  <g
     style="fill:#000000;stroke:none;stroke-width:0;stroke-linecap:round;stroke-linejoin:round"
     id="g3294">
    <g
       id="path3290"
       style="stroke:none">
      <path
         style="color:#000000;fill-rule:evenodd;stroke:none;-inkscape-stroke:none"
         d="m 81900.7,37165.8 -9.6,1.4 -9.4,2.4 -9.1,3.2 -8.7,4.2 -8.3,4.9 -7.7,5.8 -7.2,6.5 -6.5,7.1 -5.7,7.8 -5,8.3 -4.1,8.7 -3.3,9.1 -2.3,9.4 -1.4,9.5 -0.5,9.7 v 275.6 l 0.5,9.6 1.4,9.6 2.3,9.3 3.3,9.1 4.1,8.8 5,8.3 5.7,7.7 6.5,7.2 7.2,6.5 7.7,5.7 8.3,5 8.7,4.1 9.1,3.3 9.4,2.3 9.6,1.4 9.6,0.5 h 354.3 l 9.7,-0.5 9.5,-1.4 9.4,-2.3 9.1,-3.3 8.7,-4.1 8.3,-5 7.8,-5.7 7.1,-6.5 6.5,-7.2 5.8,-7.7 4.9,-8.3 4.2,-8.8 3.2,-9.1 2.4,-9.3 1.4,-9.6 0.5,-9.6 v -275.6 l -0.5,-9.7 -1.4,-9.5 -2.4,-9.4 -3.2,-9.1 -4.2,-8.7 -4.9,-8.3 -5.8,-7.8 -6.5,-7.1 -7.1,-6.5 -7.8,-5.8 -8.3,-4.9 -8.7,-4.2 -9.1,-3.2 -9.4,-2.4 -9.5,-1.4 -9.7,-0.4 h -354.3 z"
         id="path3818" />
      <path
         style="color:#000000;fill-rule:evenodd;stroke:none;-inkscape-stroke:none"
         d="m 81900.7,37165.8 -9.6,1.4 -9.4,2.4 -9.1,3.2 -8.7,4.2 -8.3,4.9 -7.7,5.8 -7.2,6.5 -6.5,7.1 -5.7,7.8 -5,8.3 -4.1,8.7 -3.3,9.1 -2.3,9.4 -1.4,9.5 -0.5,9.7 v 275.6 l 0.5,9.6 1.4,9.6 2.3,9.3 3.3,9.1 4.1,8.8 5,8.3 5.7,7.7 6.5,7.2 7.2,6.5 7.7,5.7 8.3,5 8.7,4.1 9.1,3.3 9.4,2.3 9.6,1.4 9.6,0.5 h 354.3 l 9.7,-0.5 9.5,-1.4 9.4,-2.3 9.1,-3.3 8.7,-4.1 8.3,-5 7.8,-5.7 7.1,-6.5 6.5,-7.2 5.8,-7.7 4.9,-8.3 4.2,-8.8 3.2,-9.1 2.4,-9.3 1.4,-9.6 0.5,-9.6 v -275.6 l -0.5,-9.7 -1.4,-9.5 -2.4,-9.4 -3.2,-9.1 -4.2,-8.7 -4.9,-8.3 -5.8,-7.8 -6.5,-7.1 -7.1,-6.5 -7.8,-5.8 -8.3,-4.9 -8.7,-4.2 -9.1,-3.2 -9.4,-2.4 -9.5,-1.4 -9.7,-0.4 h -354.3 z"
         id="path3820" />
    </g>
    <g
       id="path3292"
       style="stroke:none">
      <path
         style="color:#000000;fill-rule:evenodd;stroke:none;-inkscape-stroke:none"
         d="m 81900.7,36378.4 -9.6,1.4 -9.4,2.4 -9.1,3.2 -8.7,4.2 -8.3,4.9 -7.7,5.8 -7.2,6.5 -6.5,7.1 -5.7,7.8 -5,8.3 -4.1,8.7 -3.3,9.1 -2.3,9.4 -1.4,9.5 -0.5,9.7 v 275.6 l 0.5,9.6 1.4,9.6 2.3,9.3 3.3,9.1 4.1,8.8 5,8.3 5.7,7.7 6.5,7.2 7.2,6.5 7.7,5.7 8.3,5 8.7,4.1 9.1,3.3 9.4,2.3 9.6,1.4 9.6,0.5 h 354.3 l 9.7,-0.5 9.5,-1.4 9.4,-2.3 9.1,-3.3 8.7,-4.1 8.3,-5 7.8,-5.7 7.1,-6.5 6.5,-7.2 5.8,-7.7 4.9,-8.3 4.2,-8.8 3.2,-9.1 2.4,-9.3 1.4,-9.6 0.5,-9.6 v -275.6 l -0.5,-9.7 -1.4,-9.5 -2.4,-9.4 -3.2,-9.1 -4.2,-8.7 -4.9,-8.3 -5.8,-7.8 -6.5,-7.1 -7.1,-6.5 -7.8,-5.8 -8.3,-4.9 -8.7,-4.2 -9.1,-3.2 -9.4,-2.4 -9.5,-1.4 -9.7,-0.4 h -354.3 z"
         id="path3823" />
      <path
         style="color:#000000;fill-rule:evenodd;stroke:none;-inkscape-stroke:none"
         d="m 81900.7,36378.4 -9.6,1.4 -9.4,2.4 -9.1,3.2 -8.7,4.2 -8.3,4.9 -7.7,5.8 -7.2,6.5 -6.5,7.1 -5.7,7.8 -5,8.3 -4.1,8.7 -3.3,9.1 -2.3,9.4 -1.4,9.5 -0.5,9.7 v 275.6 l 0.5,9.6 1.4,9.6 2.3,9.3 3.3,9.1 4.1,8.8 5,8.3 5.7,7.7 6.5,7.2 7.2,6.5 7.7,5.7 8.3,5 8.7,4.1 9.1,3.3 9.4,2.3 9.6,1.4 9.6,0.5 h 354.3 l 9.7,-0.5 9.5,-1.4 9.4,-2.3 9.1,-3.3 8.7,-4.1 8.3,-5 7.8,-5.7 7.1,-6.5 6.5,-7.2 5.8,-7.7 4.9,-8.3 4.2,-8.8 3.2,-9.1 2.4,-9.3 1.4,-9.6 0.5,-9.6 v -275.6 l -0.5,-9.7 -1.4,-9.5 -2.4,-9.4 -3.2,-9.1 -4.2,-8.7 -4.9,-8.3 -5.8,-7.8 -6.5,-7.1 -7.1,-6.5 -7.8,-5.8 -8.3,-4.9 -8.7,-4.2 -9.1,-3.2 -9.4,-2.4 -9.5,-1.4 -9.7,-0.4 h -354.3 z"
         id="path3825" />
    </g>
  </g>
  <g
     id="g3296"
     style="fill:#000000;fill-opacity:0;stroke:#000000;stroke-width:19.685;stroke-linecap:round;stroke-linejoin:round;stroke-opacity:1" />
  <g
     id="g3298"
     style="fill:#000000;fill-opacity:0;stroke:#000000;stroke-width:19.685;stroke-linecap:round;stroke-linejoin:round;stroke-opacity:1" />
  <g
     id="g3300"
     style="fill:#000000;fill-opacity:0;stroke:#000000;stroke-width:19.685;stroke-linecap:round;stroke-linejoin:round;stroke-opacity:1" />
  <g
     id="g3302"
     style="fill:#000000;fill-opacity:0;stroke:#000000;stroke-width:19.685;stroke-linecap:round;stroke-linejoin:round;stroke-opacity:1" />
  <g
     id="g3304"
     style="fill:#000000;fill-opacity:0;stroke:#000000;stroke-width:19.685;stroke-linecap:round;stroke-linejoin:round;stroke-opacity:1" />
  <g
     id="g3306"
     style="fill:#000000;fill-opacity:0;stroke:#000000;stroke-width:19.685;stroke-linecap:round;stroke-linejoin:round;stroke-opacity:1" />
  <g
     id="g3308"
     style="fill:#000000;fill-opacity:0;stroke:#000000;stroke-width:19.685;stroke-linecap:round;stroke-linejoin:round;stroke-opacity:1" />
  <g
     id="g3310"
     style="fill:#000000;fill-opacity:0;stroke:#000000;stroke-width:19.685;stroke-linecap:round;stroke-linejoin:round;stroke-opacity:1" />
  <g
     id="g3312"
     style="fill:#000000;fill-opacity:0;stroke:#000000;stroke-width:19.685;stroke-linecap:round;stroke-linejoin:round;stroke-opacity:1" />
</svg>
