M48
; DRILL file {KiCad 5.1.10} date Fri Apr  1 14:25:29 2022
; FORMAT={-:-/ absolute / inch / decimal}
; #@! TF.CreationDate,2022-04-01T14:25:29+02:00
; #@! TF.GenerationSoftware,Kicad,Pcbnew,5.1.10
FMAT,2
INCH
T1C0.0236
T2C0.0394
T3C0.0433
T4C0.0591
%
G90
G05
T1
X3.685Y-3.5591
X3.685Y-3.685
X3.7047Y-4.3622
X4.3543Y-4.3622
X4.3976Y-3.4173
T2
X3.7874Y-3.2913
X3.8874Y-3.2913
X3.9874Y-3.2913
X4.0874Y-3.2913
X4.1874Y-3.2913
X4.2874Y-3.2913
T3
X3.5197Y-3.937
X3.5197Y-4.1339
X3.7165Y-3.937
X3.7165Y-4.1339
X3.937Y-3.5197
X3.937Y-3.7165
X3.937Y-4.3543
X3.937Y-4.5512
X4.1339Y-3.5197
X4.1339Y-3.7165
X4.1339Y-4.3543
X4.1339Y-4.5512
X4.3543Y-3.937
X4.3543Y-4.1339
X4.5512Y-3.937
X4.5512Y-4.1339
T4
X3.4488Y-3.5591
X3.4488Y-3.685
X3.7047Y-4.5984
X4.3543Y-4.5984
X4.3976Y-3.6535
T0
M30
