%TF.GenerationSoftware,KiCad,Pcbnew,5.1.10*%
%TF.CreationDate,2022-04-07T13:10:57+02:00*%
%TF.ProjectId,keys,6b657973-2e6b-4696-9361-645f70636258,rev?*%
%TF.SameCoordinates,Original*%
%TF.FileFunction,Copper,L2,Bot*%
%TF.FilePolarity,Positive*%
%FSLAX46Y46*%
G04 Gerber Fmt 4.6, Leading zero omitted, Abs format (unit mm)*
G04 Created by KiCad (PCBNEW 5.1.10) date 2022-04-07 13:10:57*
%MOMM*%
%LPD*%
G01*
G04 APERTURE LIST*
%TA.AperFunction,Profile*%
%ADD10C,0.050000*%
%TD*%
%TA.AperFunction,ComponentPad*%
%ADD11C,3.000000*%
%TD*%
%TA.AperFunction,ComponentPad*%
%ADD12O,2.000000X2.800000*%
%TD*%
%TA.AperFunction,Conductor*%
%ADD13C,0.800000*%
%TD*%
%TA.AperFunction,Conductor*%
%ADD14C,0.500000*%
%TD*%
%TA.AperFunction,Conductor*%
%ADD15C,0.300000*%
%TD*%
%TA.AperFunction,Conductor*%
%ADD16C,0.200000*%
%TD*%
G04 APERTURE END LIST*
D10*
X113000000Y-113500000D02*
X113000000Y-119500000D01*
X119500000Y-113500000D02*
X113000000Y-113500000D01*
X80500000Y-76000000D02*
X124500000Y-76000000D01*
X80500000Y-124500000D02*
X80500000Y-76000000D01*
X124500000Y-124500000D02*
X80500000Y-124500000D01*
X124500000Y-76000000D02*
X124500000Y-124500000D01*
X113000000Y-119500000D02*
X109500000Y-119500000D01*
X85500000Y-81000000D02*
X85500000Y-102300000D01*
X119500000Y-81000000D02*
X85500000Y-81000000D01*
X119500000Y-85500000D02*
X119500000Y-81000000D01*
X119500000Y-113500000D02*
X119500000Y-85500000D01*
X85500000Y-119500000D02*
X109500000Y-119500000D01*
X85500000Y-102300000D02*
X85500000Y-119500000D01*
%TO.P,R4,2*%
%TO.N,Net-(R3-Pad1)*%
%TA.AperFunction,SMDPad,CuDef*%
G36*
G01*
X94049999Y-110900000D02*
X94950001Y-110900000D01*
G75*
G02*
X95200000Y-111149999I0J-249999D01*
G01*
X95200000Y-111850001D01*
G75*
G02*
X94950001Y-112100000I-249999J0D01*
G01*
X94049999Y-112100000D01*
G75*
G02*
X93800000Y-111850001I0J249999D01*
G01*
X93800000Y-111149999D01*
G75*
G02*
X94049999Y-110900000I249999J0D01*
G01*
G37*
%TD.AperFunction*%
%TO.P,R4,1*%
%TO.N,Net-(R4-Pad1)*%
%TA.AperFunction,SMDPad,CuDef*%
G36*
G01*
X94049999Y-108900000D02*
X94950001Y-108900000D01*
G75*
G02*
X95200000Y-109149999I0J-249999D01*
G01*
X95200000Y-109850001D01*
G75*
G02*
X94950001Y-110100000I-249999J0D01*
G01*
X94049999Y-110100000D01*
G75*
G02*
X93800000Y-109850001I0J249999D01*
G01*
X93800000Y-109149999D01*
G75*
G02*
X94049999Y-108900000I249999J0D01*
G01*
G37*
%TD.AperFunction*%
%TD*%
%TO.P,R2,2*%
%TO.N,Net-(R1-Pad1)*%
%TA.AperFunction,SMDPad,CuDef*%
G36*
G01*
X94950001Y-93600000D02*
X94049999Y-93600000D01*
G75*
G02*
X93800000Y-93350001I0J249999D01*
G01*
X93800000Y-92649999D01*
G75*
G02*
X94049999Y-92400000I249999J0D01*
G01*
X94950001Y-92400000D01*
G75*
G02*
X95200000Y-92649999I0J-249999D01*
G01*
X95200000Y-93350001D01*
G75*
G02*
X94950001Y-93600000I-249999J0D01*
G01*
G37*
%TD.AperFunction*%
%TO.P,R2,1*%
%TO.N,Net-(R2-Pad1)*%
%TA.AperFunction,SMDPad,CuDef*%
G36*
G01*
X94950001Y-95600000D02*
X94049999Y-95600000D01*
G75*
G02*
X93800000Y-95350001I0J249999D01*
G01*
X93800000Y-94649999D01*
G75*
G02*
X94049999Y-94400000I249999J0D01*
G01*
X94950001Y-94400000D01*
G75*
G02*
X95200000Y-94649999I0J-249999D01*
G01*
X95200000Y-95350001D01*
G75*
G02*
X94950001Y-95600000I-249999J0D01*
G01*
G37*
%TD.AperFunction*%
%TD*%
D11*
%TO.P,SW4,3*%
%TO.N,Net-(R4-Pad1)*%
X110600000Y-105000000D03*
%TO.P,SW4,4*%
%TO.N,GND*%
X115600000Y-105000000D03*
%TO.P,SW4,2*%
X115600000Y-100000000D03*
%TO.P,SW4,1*%
%TO.N,Net-(R4-Pad1)*%
X110600000Y-100000000D03*
%TD*%
%TO.P,SW3,3*%
%TO.N,Net-(R2-Pad1)*%
X100000000Y-115600000D03*
%TO.P,SW3,4*%
%TO.N,GND*%
X105000000Y-115600000D03*
%TO.P,SW3,2*%
X105000000Y-110600000D03*
%TO.P,SW3,1*%
%TO.N,Net-(R2-Pad1)*%
X100000000Y-110600000D03*
%TD*%
%TO.P,SW2,3*%
%TO.N,Net-(R1-Pad1)*%
X100000000Y-94400000D03*
%TO.P,SW2,4*%
%TO.N,GND*%
X105000000Y-94400000D03*
%TO.P,SW2,2*%
X105000000Y-89400000D03*
%TO.P,SW2,1*%
%TO.N,Net-(R1-Pad1)*%
X100000000Y-89400000D03*
%TD*%
%TO.P,SW1,3*%
%TO.N,Net-(R1-Pad2)*%
X89400000Y-105000000D03*
%TO.P,SW1,4*%
%TO.N,GND*%
X94400000Y-105000000D03*
%TO.P,SW1,2*%
X94400000Y-100000000D03*
%TO.P,SW1,1*%
%TO.N,Net-(R1-Pad2)*%
X89400000Y-100000000D03*
%TD*%
%TO.P,R5,2*%
%TO.N,Net-(R4-Pad1)*%
%TA.AperFunction,SMDPad,CuDef*%
G36*
G01*
X113400000Y-108700001D02*
X113400000Y-107799999D01*
G75*
G02*
X113649999Y-107550000I249999J0D01*
G01*
X114350001Y-107550000D01*
G75*
G02*
X114600000Y-107799999I0J-249999D01*
G01*
X114600000Y-108700001D01*
G75*
G02*
X114350001Y-108950000I-249999J0D01*
G01*
X113649999Y-108950000D01*
G75*
G02*
X113400000Y-108700001I0J249999D01*
G01*
G37*
%TD.AperFunction*%
%TO.P,R5,1*%
%TO.N,/LRADC*%
%TA.AperFunction,SMDPad,CuDef*%
G36*
G01*
X111400000Y-108700001D02*
X111400000Y-107799999D01*
G75*
G02*
X111649999Y-107550000I249999J0D01*
G01*
X112350001Y-107550000D01*
G75*
G02*
X112600000Y-107799999I0J-249999D01*
G01*
X112600000Y-108700001D01*
G75*
G02*
X112350001Y-108950000I-249999J0D01*
G01*
X111649999Y-108950000D01*
G75*
G02*
X111400000Y-108700001I0J249999D01*
G01*
G37*
%TD.AperFunction*%
%TD*%
%TO.P,R3,2*%
%TO.N,Net-(R2-Pad1)*%
%TA.AperFunction,SMDPad,CuDef*%
G36*
G01*
X92700001Y-110100000D02*
X91799999Y-110100000D01*
G75*
G02*
X91550000Y-109850001I0J249999D01*
G01*
X91550000Y-109149999D01*
G75*
G02*
X91799999Y-108900000I249999J0D01*
G01*
X92700001Y-108900000D01*
G75*
G02*
X92950000Y-109149999I0J-249999D01*
G01*
X92950000Y-109850001D01*
G75*
G02*
X92700001Y-110100000I-249999J0D01*
G01*
G37*
%TD.AperFunction*%
%TO.P,R3,1*%
%TO.N,Net-(R3-Pad1)*%
%TA.AperFunction,SMDPad,CuDef*%
G36*
G01*
X92700001Y-112100000D02*
X91799999Y-112100000D01*
G75*
G02*
X91550000Y-111850001I0J249999D01*
G01*
X91550000Y-111149999D01*
G75*
G02*
X91799999Y-110900000I249999J0D01*
G01*
X92700001Y-110900000D01*
G75*
G02*
X92950000Y-111149999I0J-249999D01*
G01*
X92950000Y-111850001D01*
G75*
G02*
X92700001Y-112100000I-249999J0D01*
G01*
G37*
%TD.AperFunction*%
%TD*%
%TO.P,R1,2*%
%TO.N,Net-(R1-Pad2)*%
%TA.AperFunction,SMDPad,CuDef*%
G36*
G01*
X88049999Y-94400000D02*
X88950001Y-94400000D01*
G75*
G02*
X89200000Y-94649999I0J-249999D01*
G01*
X89200000Y-95350001D01*
G75*
G02*
X88950001Y-95600000I-249999J0D01*
G01*
X88049999Y-95600000D01*
G75*
G02*
X87800000Y-95350001I0J249999D01*
G01*
X87800000Y-94649999D01*
G75*
G02*
X88049999Y-94400000I249999J0D01*
G01*
G37*
%TD.AperFunction*%
%TO.P,R1,1*%
%TO.N,Net-(R1-Pad1)*%
%TA.AperFunction,SMDPad,CuDef*%
G36*
G01*
X88049999Y-92400000D02*
X88950001Y-92400000D01*
G75*
G02*
X89200000Y-92649999I0J-249999D01*
G01*
X89200000Y-93350001D01*
G75*
G02*
X88950001Y-93600000I-249999J0D01*
G01*
X88049999Y-93600000D01*
G75*
G02*
X87800000Y-93350001I0J249999D01*
G01*
X87800000Y-92649999D01*
G75*
G02*
X88049999Y-92400000I249999J0D01*
G01*
G37*
%TD.AperFunction*%
%TD*%
%TO.P,J6,1*%
%TO.N,+3V3*%
%TA.AperFunction,ComponentPad*%
G36*
G01*
X110650000Y-87522400D02*
X110650000Y-86077600D01*
G75*
G02*
X110977600Y-85750000I327600J0D01*
G01*
X112422400Y-85750000D01*
G75*
G02*
X112750000Y-86077600I0J-327600D01*
G01*
X112750000Y-87522400D01*
G75*
G02*
X112422400Y-87850000I-327600J0D01*
G01*
X110977600Y-87850000D01*
G75*
G02*
X110650000Y-87522400I0J327600D01*
G01*
G37*
%TD.AperFunction*%
%TD*%
%TO.P,J5,1*%
%TO.N,/SCL*%
%TA.AperFunction,ComponentPad*%
G36*
G01*
X92877600Y-89550000D02*
X94322400Y-89550000D01*
G75*
G02*
X94650000Y-89877600I0J-327600D01*
G01*
X94650000Y-91322400D01*
G75*
G02*
X94322400Y-91650000I-327600J0D01*
G01*
X92877600Y-91650000D01*
G75*
G02*
X92550000Y-91322400I0J327600D01*
G01*
X92550000Y-89877600D01*
G75*
G02*
X92877600Y-89550000I327600J0D01*
G01*
G37*
%TD.AperFunction*%
%TD*%
%TO.P,J4,1*%
%TO.N,/SDA*%
%TA.AperFunction,ComponentPad*%
G36*
G01*
X92877600Y-86350000D02*
X94322400Y-86350000D01*
G75*
G02*
X94650000Y-86677600I0J-327600D01*
G01*
X94650000Y-88122400D01*
G75*
G02*
X94322400Y-88450000I-327600J0D01*
G01*
X92877600Y-88450000D01*
G75*
G02*
X92550000Y-88122400I0J327600D01*
G01*
X92550000Y-86677600D01*
G75*
G02*
X92877600Y-86350000I327600J0D01*
G01*
G37*
%TD.AperFunction*%
%TD*%
D12*
%TO.P,J3,1*%
%TO.N,+3V3*%
X108900000Y-83600000D03*
%TO.P,J3,2*%
%TO.N,GND*%
X106360000Y-83600000D03*
%TO.P,J3,3*%
%TO.N,/SCL*%
X103820000Y-83600000D03*
%TO.P,J3,4*%
%TO.N,/SDA*%
X101280000Y-83600000D03*
%TO.P,J3,5*%
%TO.N,+3V3*%
X98740000Y-83600000D03*
%TO.P,J3,6*%
X96200000Y-83600000D03*
%TD*%
%TO.P,J2,1*%
%TO.N,GND*%
%TA.AperFunction,ComponentPad*%
G36*
G01*
X86950000Y-111522400D02*
X86950000Y-110077600D01*
G75*
G02*
X87277600Y-109750000I327600J0D01*
G01*
X88722400Y-109750000D01*
G75*
G02*
X89050000Y-110077600I0J-327600D01*
G01*
X89050000Y-111522400D01*
G75*
G02*
X88722400Y-111850000I-327600J0D01*
G01*
X87277600Y-111850000D01*
G75*
G02*
X86950000Y-111522400I0J327600D01*
G01*
G37*
%TD.AperFunction*%
%TD*%
%TO.P,J1,1*%
%TO.N,/LRADC*%
%TA.AperFunction,ComponentPad*%
G36*
G01*
X109550000Y-111522400D02*
X109550000Y-110077600D01*
G75*
G02*
X109877600Y-109750000I327600J0D01*
G01*
X111322400Y-109750000D01*
G75*
G02*
X111650000Y-110077600I0J-327600D01*
G01*
X111650000Y-111522400D01*
G75*
G02*
X111322400Y-111850000I-327600J0D01*
G01*
X109877600Y-111850000D01*
G75*
G02*
X109550000Y-111522400I0J327600D01*
G01*
G37*
%TD.AperFunction*%
%TD*%
D13*
%TO.N,/LRADC*%
X110600000Y-109650000D02*
X112000000Y-108250000D01*
X110600000Y-110800000D02*
X110600000Y-109650000D01*
D14*
%TO.N,+3V3*%
X98740000Y-81660000D02*
X98750010Y-81649990D01*
X98740000Y-83600000D02*
X98740000Y-81660000D01*
D13*
X111700000Y-86400000D02*
X108900000Y-83600000D01*
X111700000Y-86800000D02*
X111700000Y-86400000D01*
D14*
X108900000Y-83547955D02*
X108900000Y-83600000D01*
X107002035Y-81649990D02*
X108900000Y-83547955D01*
X98750010Y-81649990D02*
X107002035Y-81649990D01*
X98150010Y-81649990D02*
X96200000Y-83600000D01*
X98750010Y-81649990D02*
X98150010Y-81649990D01*
D13*
%TO.N,/SDA*%
X101280000Y-83864177D02*
X99444177Y-85700000D01*
X101280000Y-83600000D02*
X101280000Y-83864177D01*
X99444177Y-85700000D02*
X94900000Y-85700000D01*
X94900000Y-85700000D02*
X93600000Y-87000000D01*
%TO.N,/SCL*%
X97000001Y-87199999D02*
X93600000Y-90600000D01*
X100484178Y-87199999D02*
X97000001Y-87199999D01*
X103820000Y-83600000D02*
X103820000Y-83864177D01*
X103820000Y-83864177D02*
X100484178Y-87199999D01*
%TO.N,Net-(R1-Pad2)*%
X89400000Y-100000000D02*
X89400000Y-105000000D01*
X89400000Y-95900000D02*
X88500000Y-95000000D01*
X89400000Y-100000000D02*
X89400000Y-95900000D01*
%TO.N,Net-(R1-Pad1)*%
X88500000Y-93000000D02*
X94500000Y-93000000D01*
X94500000Y-93000000D02*
X100000000Y-93000000D01*
X100000000Y-94400000D02*
X100000000Y-93000000D01*
X100000000Y-93000000D02*
X100000000Y-89400000D01*
%TO.N,Net-(R2-Pad1)*%
X100000000Y-115600000D02*
X100000000Y-114000000D01*
X93550010Y-108199990D02*
X92250000Y-109500000D01*
X94456012Y-108199990D02*
X93550010Y-108199990D01*
X96600001Y-106056001D02*
X94456012Y-108199990D01*
X94500000Y-95000000D02*
X96600001Y-97100001D01*
X96600001Y-97100001D02*
X96600001Y-106056001D01*
X99699990Y-112800010D02*
X100000000Y-112500000D01*
X91406490Y-112800010D02*
X99699990Y-112800010D01*
X90849990Y-110200010D02*
X90849990Y-112243510D01*
X91550000Y-109500000D02*
X90849990Y-110200010D01*
X92250000Y-109500000D02*
X91550000Y-109500000D01*
X90849990Y-112243510D02*
X91406490Y-112800010D01*
X100000000Y-112500000D02*
X100000000Y-110600000D01*
X100000000Y-114000000D02*
X100000000Y-112500000D01*
%TO.N,Net-(R3-Pad1)*%
X92250000Y-111500000D02*
X94500000Y-111500000D01*
%TO.N,Net-(R4-Pad1)*%
X110600000Y-105000000D02*
X110600000Y-100000000D01*
X97000000Y-109500000D02*
X94500000Y-109500000D01*
X99500000Y-107000000D02*
X97000000Y-109500000D01*
X105500000Y-107000000D02*
X99500000Y-107000000D01*
X110600000Y-105000000D02*
X107500000Y-105000000D01*
X107500000Y-105000000D02*
X105500000Y-107000000D01*
X114000000Y-107550000D02*
X114000000Y-108250000D01*
X111450000Y-105000000D02*
X114000000Y-107550000D01*
X110600000Y-105000000D02*
X111450000Y-105000000D01*
%TD*%
D15*
%TO.N,GND*%
X96886985Y-81923065D02*
X96757575Y-81853894D01*
X96484249Y-81770981D01*
X96200000Y-81742985D01*
X95915750Y-81770981D01*
X95642424Y-81853894D01*
X95390526Y-81988536D01*
X95169735Y-82169736D01*
X94988536Y-82390527D01*
X94853894Y-82642425D01*
X94770981Y-82915751D01*
X94750000Y-83128776D01*
X94750000Y-84071225D01*
X94770981Y-84284250D01*
X94853894Y-84557576D01*
X94988536Y-84809474D01*
X95021795Y-84850000D01*
X94941741Y-84850000D01*
X94900000Y-84845889D01*
X94858259Y-84850000D01*
X94858251Y-84850000D01*
X94733371Y-84862300D01*
X94573145Y-84910903D01*
X94425481Y-84989832D01*
X94328480Y-85069438D01*
X94328475Y-85069443D01*
X94296052Y-85096052D01*
X94269443Y-85128475D01*
X93500096Y-85897823D01*
X92877600Y-85897823D01*
X92725473Y-85912806D01*
X92579192Y-85957180D01*
X92444379Y-86029239D01*
X92326214Y-86126214D01*
X92229239Y-86244379D01*
X92157180Y-86379192D01*
X92112806Y-86525473D01*
X92097823Y-86677600D01*
X92097823Y-88122400D01*
X92112806Y-88274527D01*
X92157180Y-88420808D01*
X92229239Y-88555621D01*
X92326214Y-88673786D01*
X92444379Y-88770761D01*
X92579192Y-88842820D01*
X92725473Y-88887194D01*
X92877600Y-88902177D01*
X94095742Y-88902177D01*
X93900096Y-89097823D01*
X92877600Y-89097823D01*
X92725473Y-89112806D01*
X92579192Y-89157180D01*
X92444379Y-89229239D01*
X92326214Y-89326214D01*
X92229239Y-89444379D01*
X92157180Y-89579192D01*
X92112806Y-89725473D01*
X92097823Y-89877600D01*
X92097823Y-91322400D01*
X92112806Y-91474527D01*
X92157180Y-91620808D01*
X92229239Y-91755621D01*
X92326214Y-91873786D01*
X92444379Y-91970761D01*
X92579192Y-92042820D01*
X92725473Y-92087194D01*
X92877600Y-92102177D01*
X93616006Y-92102177D01*
X93557734Y-92150000D01*
X89442266Y-92150000D01*
X89340109Y-92066161D01*
X89218712Y-92001273D01*
X89086989Y-91961315D01*
X88950001Y-91947823D01*
X88049999Y-91947823D01*
X87913011Y-91961315D01*
X87781288Y-92001273D01*
X87659891Y-92066161D01*
X87553486Y-92153486D01*
X87466161Y-92259891D01*
X87401273Y-92381288D01*
X87361315Y-92513011D01*
X87347823Y-92649999D01*
X87347823Y-93350001D01*
X87361315Y-93486989D01*
X87401273Y-93618712D01*
X87466161Y-93740109D01*
X87553486Y-93846514D01*
X87659891Y-93933839D01*
X87781288Y-93998727D01*
X87785484Y-94000000D01*
X87781288Y-94001273D01*
X87659891Y-94066161D01*
X87553486Y-94153486D01*
X87466161Y-94259891D01*
X87401273Y-94381288D01*
X87361315Y-94513011D01*
X87347823Y-94649999D01*
X87347823Y-95350001D01*
X87361315Y-95486989D01*
X87401273Y-95618712D01*
X87466161Y-95740109D01*
X87553486Y-95846514D01*
X87659891Y-95933839D01*
X87781288Y-95998727D01*
X87913011Y-96038685D01*
X88049999Y-96052177D01*
X88350096Y-96052177D01*
X88550001Y-96252082D01*
X88550000Y-98241417D01*
X88476329Y-98271933D01*
X88156948Y-98485336D01*
X87885336Y-98756948D01*
X87671933Y-99076329D01*
X87524938Y-99431206D01*
X87450000Y-99807942D01*
X87450000Y-100192058D01*
X87524938Y-100568794D01*
X87671933Y-100923671D01*
X87885336Y-101243052D01*
X88156948Y-101514664D01*
X88476329Y-101728067D01*
X88550000Y-101758583D01*
X88550001Y-103241417D01*
X88476329Y-103271933D01*
X88156948Y-103485336D01*
X87885336Y-103756948D01*
X87671933Y-104076329D01*
X87524938Y-104431206D01*
X87450000Y-104807942D01*
X87450000Y-105192058D01*
X87524938Y-105568794D01*
X87671933Y-105923671D01*
X87885336Y-106243052D01*
X88156948Y-106514664D01*
X88476329Y-106728067D01*
X88831206Y-106875062D01*
X89207942Y-106950000D01*
X89592058Y-106950000D01*
X89968794Y-106875062D01*
X90323671Y-106728067D01*
X90643052Y-106514664D01*
X90914664Y-106243052D01*
X91128067Y-105923671D01*
X91275062Y-105568794D01*
X91350000Y-105192058D01*
X91350000Y-105015197D01*
X92239650Y-105015197D01*
X92284126Y-105436368D01*
X92409913Y-105840770D01*
X92595292Y-106187590D01*
X92918329Y-106340249D01*
X94258579Y-105000000D01*
X92918329Y-103659751D01*
X92595292Y-103812410D01*
X92398282Y-104187310D01*
X92278196Y-104593442D01*
X92239650Y-105015197D01*
X91350000Y-105015197D01*
X91350000Y-104807942D01*
X91275062Y-104431206D01*
X91128067Y-104076329D01*
X90914664Y-103756948D01*
X90643052Y-103485336D01*
X90323671Y-103271933D01*
X90250000Y-103241417D01*
X90250000Y-101758583D01*
X90323671Y-101728067D01*
X90643052Y-101514664D01*
X90914664Y-101243052D01*
X91128067Y-100923671D01*
X91275062Y-100568794D01*
X91350000Y-100192058D01*
X91350000Y-100015197D01*
X92239650Y-100015197D01*
X92284126Y-100436368D01*
X92409913Y-100840770D01*
X92595292Y-101187590D01*
X92918329Y-101340249D01*
X94258579Y-100000000D01*
X92918329Y-98659751D01*
X92595292Y-98812410D01*
X92398282Y-99187310D01*
X92278196Y-99593442D01*
X92239650Y-100015197D01*
X91350000Y-100015197D01*
X91350000Y-99807942D01*
X91275062Y-99431206D01*
X91128067Y-99076329D01*
X90914664Y-98756948D01*
X90643052Y-98485336D01*
X90323671Y-98271933D01*
X90250000Y-98241417D01*
X90250000Y-95941740D01*
X90254111Y-95899999D01*
X90250000Y-95858258D01*
X90250000Y-95858251D01*
X90239241Y-95749013D01*
X90237700Y-95733370D01*
X90189097Y-95573145D01*
X90110167Y-95425480D01*
X90030561Y-95328480D01*
X90003948Y-95296052D01*
X89971519Y-95269438D01*
X89652177Y-94950096D01*
X89652177Y-94649999D01*
X89638685Y-94513011D01*
X89598727Y-94381288D01*
X89533839Y-94259891D01*
X89446514Y-94153486D01*
X89340109Y-94066161D01*
X89218712Y-94001273D01*
X89214516Y-94000000D01*
X89218712Y-93998727D01*
X89340109Y-93933839D01*
X89442266Y-93850000D01*
X93557734Y-93850000D01*
X93659891Y-93933839D01*
X93781288Y-93998727D01*
X93785484Y-94000000D01*
X93781288Y-94001273D01*
X93659891Y-94066161D01*
X93553486Y-94153486D01*
X93466161Y-94259891D01*
X93401273Y-94381288D01*
X93361315Y-94513011D01*
X93347823Y-94649999D01*
X93347823Y-95350001D01*
X93361315Y-95486989D01*
X93401273Y-95618712D01*
X93466161Y-95740109D01*
X93553486Y-95846514D01*
X93659891Y-95933839D01*
X93781288Y-95998727D01*
X93913011Y-96038685D01*
X94049999Y-96052177D01*
X94350097Y-96052177D01*
X95750001Y-97452082D01*
X95750001Y-98508575D01*
X95740248Y-98518328D01*
X95587590Y-98195292D01*
X95212690Y-97998282D01*
X94806558Y-97878196D01*
X94384803Y-97839650D01*
X93963632Y-97884126D01*
X93559230Y-98009913D01*
X93212410Y-98195292D01*
X93059751Y-98518329D01*
X94400000Y-99858579D01*
X94414142Y-99844436D01*
X94555564Y-99985858D01*
X94541421Y-100000000D01*
X94555564Y-100014143D01*
X94414142Y-100155564D01*
X94400000Y-100141421D01*
X93059751Y-101481671D01*
X93212410Y-101804708D01*
X93587310Y-102001718D01*
X93993442Y-102121804D01*
X94415197Y-102160350D01*
X94836368Y-102115874D01*
X95240770Y-101990087D01*
X95587590Y-101804708D01*
X95740248Y-101481672D01*
X95750001Y-101491425D01*
X95750002Y-103508574D01*
X95740248Y-103518328D01*
X95587590Y-103195292D01*
X95212690Y-102998282D01*
X94806558Y-102878196D01*
X94384803Y-102839650D01*
X93963632Y-102884126D01*
X93559230Y-103009913D01*
X93212410Y-103195292D01*
X93059751Y-103518329D01*
X94400000Y-104858579D01*
X94414142Y-104844436D01*
X94555564Y-104985858D01*
X94541421Y-105000000D01*
X94555564Y-105014143D01*
X94414142Y-105155564D01*
X94400000Y-105141421D01*
X93059751Y-106481671D01*
X93212410Y-106804708D01*
X93587310Y-107001718D01*
X93993442Y-107121804D01*
X94303757Y-107150165D01*
X94103932Y-107349990D01*
X93591751Y-107349990D01*
X93550010Y-107345879D01*
X93508269Y-107349990D01*
X93508261Y-107349990D01*
X93383381Y-107362290D01*
X93223155Y-107410893D01*
X93075491Y-107489822D01*
X92946062Y-107596042D01*
X92919448Y-107628471D01*
X92100097Y-108447823D01*
X91799999Y-108447823D01*
X91663011Y-108461315D01*
X91531288Y-108501273D01*
X91409891Y-108566161D01*
X91303486Y-108653486D01*
X91267376Y-108697486D01*
X91223145Y-108710903D01*
X91075481Y-108789832D01*
X90978480Y-108869438D01*
X90978475Y-108869443D01*
X90946052Y-108896052D01*
X90919443Y-108928476D01*
X90278475Y-109569445D01*
X90246042Y-109596062D01*
X90139822Y-109725492D01*
X90085642Y-109826855D01*
X90060893Y-109873156D01*
X90023614Y-109996052D01*
X90012290Y-110033382D01*
X89999990Y-110158262D01*
X89999990Y-110158269D01*
X89995879Y-110200010D01*
X89999990Y-110241751D01*
X89999991Y-112201759D01*
X89995879Y-112243510D01*
X90012290Y-112410139D01*
X90060893Y-112570364D01*
X90094577Y-112633381D01*
X90139823Y-112718029D01*
X90246043Y-112847458D01*
X90278471Y-112874071D01*
X90775924Y-113371524D01*
X90802542Y-113403958D01*
X90931971Y-113510178D01*
X91079635Y-113589107D01*
X91239861Y-113637710D01*
X91364741Y-113650010D01*
X91364749Y-113650010D01*
X91406490Y-113654121D01*
X91448231Y-113650010D01*
X99150000Y-113650010D01*
X99150000Y-113841417D01*
X99076329Y-113871933D01*
X98756948Y-114085336D01*
X98485336Y-114356948D01*
X98271933Y-114676329D01*
X98124938Y-115031206D01*
X98050000Y-115407942D01*
X98050000Y-115792058D01*
X98124938Y-116168794D01*
X98271933Y-116523671D01*
X98485336Y-116843052D01*
X98756948Y-117114664D01*
X99076329Y-117328067D01*
X99431206Y-117475062D01*
X99807942Y-117550000D01*
X100192058Y-117550000D01*
X100568794Y-117475062D01*
X100923671Y-117328067D01*
X101243052Y-117114664D01*
X101276045Y-117081671D01*
X103659751Y-117081671D01*
X103812410Y-117404708D01*
X104187310Y-117601718D01*
X104593442Y-117721804D01*
X105015197Y-117760350D01*
X105436368Y-117715874D01*
X105840770Y-117590087D01*
X106187590Y-117404708D01*
X106340249Y-117081671D01*
X105000000Y-115741421D01*
X103659751Y-117081671D01*
X101276045Y-117081671D01*
X101514664Y-116843052D01*
X101728067Y-116523671D01*
X101875062Y-116168794D01*
X101950000Y-115792058D01*
X101950000Y-115615197D01*
X102839650Y-115615197D01*
X102884126Y-116036368D01*
X103009913Y-116440770D01*
X103195292Y-116787590D01*
X103518329Y-116940249D01*
X104858579Y-115600000D01*
X105141421Y-115600000D01*
X106481671Y-116940249D01*
X106804708Y-116787590D01*
X106860295Y-116681810D01*
X109400000Y-116681810D01*
X109400000Y-116918190D01*
X109446116Y-117150027D01*
X109536574Y-117368413D01*
X109667899Y-117564955D01*
X109835045Y-117732101D01*
X110031587Y-117863426D01*
X110249973Y-117953884D01*
X110481810Y-118000000D01*
X110718190Y-118000000D01*
X110950027Y-117953884D01*
X111168413Y-117863426D01*
X111364955Y-117732101D01*
X111532101Y-117564955D01*
X111663426Y-117368413D01*
X111753884Y-117150027D01*
X111800000Y-116918190D01*
X111800000Y-116681810D01*
X111753884Y-116449973D01*
X111663426Y-116231587D01*
X111532101Y-116035045D01*
X111364955Y-115867899D01*
X111168413Y-115736574D01*
X110950027Y-115646116D01*
X110718190Y-115600000D01*
X110481810Y-115600000D01*
X110249973Y-115646116D01*
X110031587Y-115736574D01*
X109835045Y-115867899D01*
X109667899Y-116035045D01*
X109536574Y-116231587D01*
X109446116Y-116449973D01*
X109400000Y-116681810D01*
X106860295Y-116681810D01*
X107001718Y-116412690D01*
X107121804Y-116006558D01*
X107160350Y-115584803D01*
X107115874Y-115163632D01*
X106990087Y-114759230D01*
X106804708Y-114412410D01*
X106481671Y-114259751D01*
X105141421Y-115600000D01*
X104858579Y-115600000D01*
X103518329Y-114259751D01*
X103195292Y-114412410D01*
X102998282Y-114787310D01*
X102878196Y-115193442D01*
X102839650Y-115615197D01*
X101950000Y-115615197D01*
X101950000Y-115407942D01*
X101875062Y-115031206D01*
X101728067Y-114676329D01*
X101514664Y-114356948D01*
X101276045Y-114118329D01*
X103659751Y-114118329D01*
X105000000Y-115458579D01*
X106340249Y-114118329D01*
X106187590Y-113795292D01*
X105812690Y-113598282D01*
X105406558Y-113478196D01*
X104984803Y-113439650D01*
X104563632Y-113484126D01*
X104159230Y-113609913D01*
X103812410Y-113795292D01*
X103659751Y-114118329D01*
X101276045Y-114118329D01*
X101243052Y-114085336D01*
X100923671Y-113871933D01*
X100850000Y-113841417D01*
X100850000Y-112541742D01*
X100854111Y-112500001D01*
X100850000Y-112458260D01*
X100850000Y-112358583D01*
X100923671Y-112328067D01*
X101243052Y-112114664D01*
X101276045Y-112081671D01*
X103659751Y-112081671D01*
X103812410Y-112404708D01*
X104187310Y-112601718D01*
X104593442Y-112721804D01*
X105015197Y-112760350D01*
X105436368Y-112715874D01*
X105840770Y-112590087D01*
X106187590Y-112404708D01*
X106340249Y-112081671D01*
X105000000Y-110741421D01*
X103659751Y-112081671D01*
X101276045Y-112081671D01*
X101514664Y-111843052D01*
X101728067Y-111523671D01*
X101875062Y-111168794D01*
X101950000Y-110792058D01*
X101950000Y-110615197D01*
X102839650Y-110615197D01*
X102884126Y-111036368D01*
X103009913Y-111440770D01*
X103195292Y-111787590D01*
X103518329Y-111940249D01*
X104858579Y-110600000D01*
X105141421Y-110600000D01*
X106481671Y-111940249D01*
X106804708Y-111787590D01*
X107001718Y-111412690D01*
X107121804Y-111006558D01*
X107160350Y-110584803D01*
X107115874Y-110163632D01*
X106990087Y-109759230D01*
X106804708Y-109412410D01*
X106481671Y-109259751D01*
X105141421Y-110600000D01*
X104858579Y-110600000D01*
X103518329Y-109259751D01*
X103195292Y-109412410D01*
X102998282Y-109787310D01*
X102878196Y-110193442D01*
X102839650Y-110615197D01*
X101950000Y-110615197D01*
X101950000Y-110407942D01*
X101875062Y-110031206D01*
X101728067Y-109676329D01*
X101514664Y-109356948D01*
X101276045Y-109118329D01*
X103659751Y-109118329D01*
X105000000Y-110458579D01*
X106340249Y-109118329D01*
X106187590Y-108795292D01*
X105812690Y-108598282D01*
X105406558Y-108478196D01*
X104984803Y-108439650D01*
X104563632Y-108484126D01*
X104159230Y-108609913D01*
X103812410Y-108795292D01*
X103659751Y-109118329D01*
X101276045Y-109118329D01*
X101243052Y-109085336D01*
X100923671Y-108871933D01*
X100568794Y-108724938D01*
X100192058Y-108650000D01*
X99807942Y-108650000D01*
X99431206Y-108724938D01*
X99076329Y-108871933D01*
X98756948Y-109085336D01*
X98485336Y-109356948D01*
X98271933Y-109676329D01*
X98124938Y-110031206D01*
X98050000Y-110407942D01*
X98050000Y-110792058D01*
X98124938Y-111168794D01*
X98271933Y-111523671D01*
X98485336Y-111843052D01*
X98592294Y-111950010D01*
X95642327Y-111950010D01*
X95652177Y-111850001D01*
X95652177Y-111149999D01*
X95638685Y-111013011D01*
X95598727Y-110881288D01*
X95533839Y-110759891D01*
X95446514Y-110653486D01*
X95340109Y-110566161D01*
X95218712Y-110501273D01*
X95214516Y-110500000D01*
X95218712Y-110498727D01*
X95340109Y-110433839D01*
X95442266Y-110350000D01*
X96958259Y-110350000D01*
X97000000Y-110354111D01*
X97041741Y-110350000D01*
X97041749Y-110350000D01*
X97166629Y-110337700D01*
X97326855Y-110289097D01*
X97474519Y-110210168D01*
X97603948Y-110103948D01*
X97630566Y-110071514D01*
X99852081Y-107850000D01*
X105458259Y-107850000D01*
X105500000Y-107854111D01*
X105541741Y-107850000D01*
X105541749Y-107850000D01*
X105666629Y-107837700D01*
X105826855Y-107789097D01*
X105974519Y-107710168D01*
X106103948Y-107603948D01*
X106130566Y-107571514D01*
X107852081Y-105850000D01*
X108841417Y-105850000D01*
X108871933Y-105923671D01*
X109085336Y-106243052D01*
X109356948Y-106514664D01*
X109676329Y-106728067D01*
X110031206Y-106875062D01*
X110407942Y-106950000D01*
X110792058Y-106950000D01*
X111168794Y-106875062D01*
X111523671Y-106728067D01*
X111794814Y-106546895D01*
X112345742Y-107097823D01*
X111649999Y-107097823D01*
X111513011Y-107111315D01*
X111381288Y-107151273D01*
X111259891Y-107216161D01*
X111153486Y-107303486D01*
X111066161Y-107409891D01*
X111001273Y-107531288D01*
X110961315Y-107663011D01*
X110947823Y-107799999D01*
X110947823Y-108100096D01*
X110028481Y-109019439D01*
X109996053Y-109046052D01*
X109889833Y-109175481D01*
X109873023Y-109206930D01*
X109821485Y-109303350D01*
X109725473Y-109312806D01*
X109579192Y-109357180D01*
X109444379Y-109429239D01*
X109326214Y-109526214D01*
X109229239Y-109644379D01*
X109157180Y-109779192D01*
X109112806Y-109925473D01*
X109097823Y-110077600D01*
X109097823Y-111522400D01*
X109112806Y-111674527D01*
X109157180Y-111820808D01*
X109229239Y-111955621D01*
X109326214Y-112073786D01*
X109444379Y-112170761D01*
X109579192Y-112242820D01*
X109725473Y-112287194D01*
X109877600Y-112302177D01*
X111322400Y-112302177D01*
X111474527Y-112287194D01*
X111620808Y-112242820D01*
X111755621Y-112170761D01*
X111873786Y-112073786D01*
X111970761Y-111955621D01*
X112042820Y-111820808D01*
X112087194Y-111674527D01*
X112102177Y-111522400D01*
X112102177Y-110077600D01*
X112087194Y-109925473D01*
X112042820Y-109779192D01*
X111970761Y-109644379D01*
X111897261Y-109554819D01*
X112049904Y-109402177D01*
X112350001Y-109402177D01*
X112486989Y-109388685D01*
X112618712Y-109348727D01*
X112740109Y-109283839D01*
X112846514Y-109196514D01*
X112933839Y-109090109D01*
X112998727Y-108968712D01*
X113000000Y-108964516D01*
X113001273Y-108968712D01*
X113066161Y-109090109D01*
X113153486Y-109196514D01*
X113259891Y-109283839D01*
X113381288Y-109348727D01*
X113513011Y-109388685D01*
X113649999Y-109402177D01*
X114350001Y-109402177D01*
X114486989Y-109388685D01*
X114618712Y-109348727D01*
X114740109Y-109283839D01*
X114846514Y-109196514D01*
X114933839Y-109090109D01*
X114998727Y-108968712D01*
X115038685Y-108836989D01*
X115052177Y-108700001D01*
X115052177Y-107799999D01*
X115038685Y-107663011D01*
X114998727Y-107531288D01*
X114933839Y-107409891D01*
X114846514Y-107303486D01*
X114802514Y-107267376D01*
X114789097Y-107223145D01*
X114710168Y-107075481D01*
X114630562Y-106978480D01*
X114630557Y-106978475D01*
X114603948Y-106946052D01*
X114571526Y-106919444D01*
X114505940Y-106853858D01*
X114787310Y-107001718D01*
X115193442Y-107121804D01*
X115615197Y-107160350D01*
X116036368Y-107115874D01*
X116440770Y-106990087D01*
X116787590Y-106804708D01*
X116940249Y-106481671D01*
X115600000Y-105141421D01*
X115585858Y-105155564D01*
X115444436Y-105014142D01*
X115458579Y-105000000D01*
X115741421Y-105000000D01*
X117081671Y-106340249D01*
X117404708Y-106187590D01*
X117601718Y-105812690D01*
X117721804Y-105406558D01*
X117760350Y-104984803D01*
X117715874Y-104563632D01*
X117590087Y-104159230D01*
X117404708Y-103812410D01*
X117081671Y-103659751D01*
X115741421Y-105000000D01*
X115458579Y-105000000D01*
X114118329Y-103659751D01*
X113795292Y-103812410D01*
X113598282Y-104187310D01*
X113478196Y-104593442D01*
X113439650Y-105015197D01*
X113484126Y-105436368D01*
X113609913Y-105840770D01*
X113744332Y-106092251D01*
X112550000Y-104897920D01*
X112550000Y-104807942D01*
X112475062Y-104431206D01*
X112328067Y-104076329D01*
X112114664Y-103756948D01*
X111876045Y-103518329D01*
X114259751Y-103518329D01*
X115600000Y-104858579D01*
X116940249Y-103518329D01*
X116787590Y-103195292D01*
X116412690Y-102998282D01*
X116006558Y-102878196D01*
X115584803Y-102839650D01*
X115163632Y-102884126D01*
X114759230Y-103009913D01*
X114412410Y-103195292D01*
X114259751Y-103518329D01*
X111876045Y-103518329D01*
X111843052Y-103485336D01*
X111523671Y-103271933D01*
X111450000Y-103241417D01*
X111450000Y-101758583D01*
X111523671Y-101728067D01*
X111843052Y-101514664D01*
X111876045Y-101481671D01*
X114259751Y-101481671D01*
X114412410Y-101804708D01*
X114787310Y-102001718D01*
X115193442Y-102121804D01*
X115615197Y-102160350D01*
X116036368Y-102115874D01*
X116440770Y-101990087D01*
X116787590Y-101804708D01*
X116940249Y-101481671D01*
X115600000Y-100141421D01*
X114259751Y-101481671D01*
X111876045Y-101481671D01*
X112114664Y-101243052D01*
X112328067Y-100923671D01*
X112475062Y-100568794D01*
X112550000Y-100192058D01*
X112550000Y-100015197D01*
X113439650Y-100015197D01*
X113484126Y-100436368D01*
X113609913Y-100840770D01*
X113795292Y-101187590D01*
X114118329Y-101340249D01*
X115458579Y-100000000D01*
X115741421Y-100000000D01*
X117081671Y-101340249D01*
X117404708Y-101187590D01*
X117601718Y-100812690D01*
X117721804Y-100406558D01*
X117760350Y-99984803D01*
X117715874Y-99563632D01*
X117590087Y-99159230D01*
X117404708Y-98812410D01*
X117081671Y-98659751D01*
X115741421Y-100000000D01*
X115458579Y-100000000D01*
X114118329Y-98659751D01*
X113795292Y-98812410D01*
X113598282Y-99187310D01*
X113478196Y-99593442D01*
X113439650Y-100015197D01*
X112550000Y-100015197D01*
X112550000Y-99807942D01*
X112475062Y-99431206D01*
X112328067Y-99076329D01*
X112114664Y-98756948D01*
X111876045Y-98518329D01*
X114259751Y-98518329D01*
X115600000Y-99858579D01*
X116940249Y-98518329D01*
X116787590Y-98195292D01*
X116412690Y-97998282D01*
X116006558Y-97878196D01*
X115584803Y-97839650D01*
X115163632Y-97884126D01*
X114759230Y-98009913D01*
X114412410Y-98195292D01*
X114259751Y-98518329D01*
X111876045Y-98518329D01*
X111843052Y-98485336D01*
X111523671Y-98271933D01*
X111168794Y-98124938D01*
X110792058Y-98050000D01*
X110407942Y-98050000D01*
X110031206Y-98124938D01*
X109676329Y-98271933D01*
X109356948Y-98485336D01*
X109085336Y-98756948D01*
X108871933Y-99076329D01*
X108724938Y-99431206D01*
X108650000Y-99807942D01*
X108650000Y-100192058D01*
X108724938Y-100568794D01*
X108871933Y-100923671D01*
X109085336Y-101243052D01*
X109356948Y-101514664D01*
X109676329Y-101728067D01*
X109750001Y-101758583D01*
X109750000Y-103241417D01*
X109676329Y-103271933D01*
X109356948Y-103485336D01*
X109085336Y-103756948D01*
X108871933Y-104076329D01*
X108841417Y-104150000D01*
X107541740Y-104150000D01*
X107499999Y-104145889D01*
X107458258Y-104150000D01*
X107458251Y-104150000D01*
X107349013Y-104160759D01*
X107333370Y-104162300D01*
X107250922Y-104187310D01*
X107173145Y-104210903D01*
X107025481Y-104289832D01*
X106896052Y-104396052D01*
X106869439Y-104428481D01*
X105147920Y-106150000D01*
X99541741Y-106150000D01*
X99500000Y-106145889D01*
X99458259Y-106150000D01*
X99458251Y-106150000D01*
X99333371Y-106162300D01*
X99173145Y-106210903D01*
X99025481Y-106289832D01*
X98896052Y-106396052D01*
X98869439Y-106428480D01*
X96647920Y-108650000D01*
X95442266Y-108650000D01*
X95340109Y-108566161D01*
X95308706Y-108549376D01*
X97171520Y-106686562D01*
X97203949Y-106659949D01*
X97310169Y-106530520D01*
X97389098Y-106382856D01*
X97437701Y-106222630D01*
X97450001Y-106097750D01*
X97450001Y-106097740D01*
X97454112Y-106056002D01*
X97450001Y-106014264D01*
X97450001Y-102298093D01*
X100450000Y-102298093D01*
X100450000Y-102701907D01*
X100528780Y-103097963D01*
X100683314Y-103471039D01*
X100907661Y-103806799D01*
X101193201Y-104092339D01*
X101528961Y-104316686D01*
X101902037Y-104471220D01*
X102298093Y-104550000D01*
X102701907Y-104550000D01*
X103097963Y-104471220D01*
X103471039Y-104316686D01*
X103806799Y-104092339D01*
X104092339Y-103806799D01*
X104316686Y-103471039D01*
X104471220Y-103097963D01*
X104550000Y-102701907D01*
X104550000Y-102298093D01*
X104471220Y-101902037D01*
X104316686Y-101528961D01*
X104092339Y-101193201D01*
X103806799Y-100907661D01*
X103471039Y-100683314D01*
X103097963Y-100528780D01*
X102701907Y-100450000D01*
X102298093Y-100450000D01*
X101902037Y-100528780D01*
X101528961Y-100683314D01*
X101193201Y-100907661D01*
X100907661Y-101193201D01*
X100683314Y-101528961D01*
X100528780Y-101902037D01*
X100450000Y-102298093D01*
X97450001Y-102298093D01*
X97450001Y-97141742D01*
X97454112Y-97100001D01*
X97450001Y-97058260D01*
X97450001Y-97058252D01*
X97437701Y-96933372D01*
X97389098Y-96773146D01*
X97310169Y-96625482D01*
X97203949Y-96496053D01*
X97171522Y-96469441D01*
X95652177Y-94950097D01*
X95652177Y-94649999D01*
X95638685Y-94513011D01*
X95598727Y-94381288D01*
X95533839Y-94259891D01*
X95446514Y-94153486D01*
X95340109Y-94066161D01*
X95218712Y-94001273D01*
X95214516Y-94000000D01*
X95218712Y-93998727D01*
X95340109Y-93933839D01*
X95442266Y-93850000D01*
X98121200Y-93850000D01*
X98050000Y-94207942D01*
X98050000Y-94592058D01*
X98124938Y-94968794D01*
X98271933Y-95323671D01*
X98485336Y-95643052D01*
X98756948Y-95914664D01*
X99076329Y-96128067D01*
X99431206Y-96275062D01*
X99807942Y-96350000D01*
X100192058Y-96350000D01*
X100568794Y-96275062D01*
X100923671Y-96128067D01*
X101243052Y-95914664D01*
X101276045Y-95881671D01*
X103659751Y-95881671D01*
X103812410Y-96204708D01*
X104187310Y-96401718D01*
X104593442Y-96521804D01*
X105015197Y-96560350D01*
X105436368Y-96515874D01*
X105840770Y-96390087D01*
X106187590Y-96204708D01*
X106340249Y-95881671D01*
X105000000Y-94541421D01*
X103659751Y-95881671D01*
X101276045Y-95881671D01*
X101514664Y-95643052D01*
X101728067Y-95323671D01*
X101875062Y-94968794D01*
X101950000Y-94592058D01*
X101950000Y-94415197D01*
X102839650Y-94415197D01*
X102884126Y-94836368D01*
X103009913Y-95240770D01*
X103195292Y-95587590D01*
X103518329Y-95740249D01*
X104858579Y-94400000D01*
X105141421Y-94400000D01*
X106481671Y-95740249D01*
X106804708Y-95587590D01*
X107001718Y-95212690D01*
X107121804Y-94806558D01*
X107160350Y-94384803D01*
X107115874Y-93963632D01*
X106990087Y-93559230D01*
X106804708Y-93212410D01*
X106481671Y-93059751D01*
X105141421Y-94400000D01*
X104858579Y-94400000D01*
X103518329Y-93059751D01*
X103195292Y-93212410D01*
X102998282Y-93587310D01*
X102878196Y-93993442D01*
X102839650Y-94415197D01*
X101950000Y-94415197D01*
X101950000Y-94207942D01*
X101875062Y-93831206D01*
X101728067Y-93476329D01*
X101514664Y-93156948D01*
X101276045Y-92918329D01*
X103659751Y-92918329D01*
X105000000Y-94258579D01*
X106340249Y-92918329D01*
X106228477Y-92681810D01*
X110500000Y-92681810D01*
X110500000Y-92918190D01*
X110546116Y-93150027D01*
X110636574Y-93368413D01*
X110767899Y-93564955D01*
X110935045Y-93732101D01*
X111131587Y-93863426D01*
X111349973Y-93953884D01*
X111581810Y-94000000D01*
X111818190Y-94000000D01*
X112050027Y-93953884D01*
X112268413Y-93863426D01*
X112464955Y-93732101D01*
X112632101Y-93564955D01*
X112763426Y-93368413D01*
X112853884Y-93150027D01*
X112900000Y-92918190D01*
X112900000Y-92681810D01*
X112853884Y-92449973D01*
X112763426Y-92231587D01*
X112632101Y-92035045D01*
X112464955Y-91867899D01*
X112268413Y-91736574D01*
X112050027Y-91646116D01*
X111818190Y-91600000D01*
X111581810Y-91600000D01*
X111349973Y-91646116D01*
X111131587Y-91736574D01*
X110935045Y-91867899D01*
X110767899Y-92035045D01*
X110636574Y-92231587D01*
X110546116Y-92449973D01*
X110500000Y-92681810D01*
X106228477Y-92681810D01*
X106187590Y-92595292D01*
X105812690Y-92398282D01*
X105406558Y-92278196D01*
X104984803Y-92239650D01*
X104563632Y-92284126D01*
X104159230Y-92409913D01*
X103812410Y-92595292D01*
X103659751Y-92918329D01*
X101276045Y-92918329D01*
X101243052Y-92885336D01*
X100923671Y-92671933D01*
X100850000Y-92641417D01*
X100850000Y-91158583D01*
X100923671Y-91128067D01*
X101243052Y-90914664D01*
X101276045Y-90881671D01*
X103659751Y-90881671D01*
X103812410Y-91204708D01*
X104187310Y-91401718D01*
X104593442Y-91521804D01*
X105015197Y-91560350D01*
X105436368Y-91515874D01*
X105840770Y-91390087D01*
X106187590Y-91204708D01*
X106340249Y-90881671D01*
X105000000Y-89541421D01*
X103659751Y-90881671D01*
X101276045Y-90881671D01*
X101514664Y-90643052D01*
X101728067Y-90323671D01*
X101875062Y-89968794D01*
X101950000Y-89592058D01*
X101950000Y-89415197D01*
X102839650Y-89415197D01*
X102884126Y-89836368D01*
X103009913Y-90240770D01*
X103195292Y-90587590D01*
X103518329Y-90740249D01*
X104858579Y-89400000D01*
X105141421Y-89400000D01*
X106481671Y-90740249D01*
X106804708Y-90587590D01*
X107001718Y-90212690D01*
X107121804Y-89806558D01*
X107160350Y-89384803D01*
X107115874Y-88963632D01*
X106990087Y-88559230D01*
X106804708Y-88212410D01*
X106481671Y-88059751D01*
X105141421Y-89400000D01*
X104858579Y-89400000D01*
X103518329Y-88059751D01*
X103195292Y-88212410D01*
X102998282Y-88587310D01*
X102878196Y-88993442D01*
X102839650Y-89415197D01*
X101950000Y-89415197D01*
X101950000Y-89207942D01*
X101875062Y-88831206D01*
X101728067Y-88476329D01*
X101514664Y-88156948D01*
X101276045Y-87918329D01*
X103659751Y-87918329D01*
X105000000Y-89258579D01*
X106340249Y-87918329D01*
X106187590Y-87595292D01*
X105812690Y-87398282D01*
X105406558Y-87278196D01*
X104984803Y-87239650D01*
X104563632Y-87284126D01*
X104159230Y-87409913D01*
X103812410Y-87595292D01*
X103659751Y-87918329D01*
X101276045Y-87918329D01*
X101243052Y-87885336D01*
X101099855Y-87789655D01*
X101114744Y-87771513D01*
X103475512Y-85410746D01*
X103535751Y-85429019D01*
X103820000Y-85457015D01*
X104104250Y-85429019D01*
X104377576Y-85346106D01*
X104629474Y-85211464D01*
X104850265Y-85030265D01*
X104971494Y-84882548D01*
X105043632Y-84999838D01*
X105263984Y-85237437D01*
X105526456Y-85427482D01*
X105820960Y-85562670D01*
X106003589Y-85611047D01*
X106260000Y-85484135D01*
X106260000Y-83700000D01*
X106240000Y-83700000D01*
X106240000Y-83500000D01*
X106260000Y-83500000D01*
X106260000Y-83480000D01*
X106460000Y-83480000D01*
X106460000Y-83500000D01*
X106480000Y-83500000D01*
X106480000Y-83700000D01*
X106460000Y-83700000D01*
X106460000Y-85484135D01*
X106716411Y-85611047D01*
X106899040Y-85562670D01*
X107193544Y-85427482D01*
X107456016Y-85237437D01*
X107676368Y-84999838D01*
X107748506Y-84882548D01*
X107869736Y-85030265D01*
X108090527Y-85211464D01*
X108342425Y-85346106D01*
X108615751Y-85429019D01*
X108900000Y-85457015D01*
X109184250Y-85429019D01*
X109447179Y-85349260D01*
X110197823Y-86099904D01*
X110197823Y-87522400D01*
X110212806Y-87674527D01*
X110257180Y-87820808D01*
X110329239Y-87955621D01*
X110426214Y-88073786D01*
X110544379Y-88170761D01*
X110679192Y-88242820D01*
X110825473Y-88287194D01*
X110977600Y-88302177D01*
X112422400Y-88302177D01*
X112574527Y-88287194D01*
X112720808Y-88242820D01*
X112855621Y-88170761D01*
X112973786Y-88073786D01*
X113070761Y-87955621D01*
X113142820Y-87820808D01*
X113187194Y-87674527D01*
X113202177Y-87522400D01*
X113202177Y-86077600D01*
X113187194Y-85925473D01*
X113142820Y-85779192D01*
X113070761Y-85644379D01*
X112973786Y-85526214D01*
X112855621Y-85429239D01*
X112720808Y-85357180D01*
X112574527Y-85312806D01*
X112422400Y-85297823D01*
X111799904Y-85297823D01*
X110350000Y-83847920D01*
X110350000Y-83128775D01*
X110329019Y-82915750D01*
X110246106Y-82642424D01*
X110111464Y-82390526D01*
X109930264Y-82169735D01*
X109709473Y-81988536D01*
X109457575Y-81853894D01*
X109184249Y-81770981D01*
X108900000Y-81742985D01*
X108615750Y-81770981D01*
X108342424Y-81853894D01*
X108246931Y-81904936D01*
X107816994Y-81475000D01*
X119025001Y-81475000D01*
X119025000Y-85523331D01*
X119025001Y-85523341D01*
X119025000Y-113025000D01*
X113023332Y-113025000D01*
X113000000Y-113022702D01*
X112976668Y-113025000D01*
X112906884Y-113031873D01*
X112817346Y-113059034D01*
X112734827Y-113103141D01*
X112662499Y-113162499D01*
X112603141Y-113234827D01*
X112559034Y-113317346D01*
X112531873Y-113406884D01*
X112522702Y-113500000D01*
X112525000Y-113523331D01*
X112525001Y-119025000D01*
X85975000Y-119025000D01*
X85975000Y-116681810D01*
X86800000Y-116681810D01*
X86800000Y-116918190D01*
X86846116Y-117150027D01*
X86936574Y-117368413D01*
X87067899Y-117564955D01*
X87235045Y-117732101D01*
X87431587Y-117863426D01*
X87649973Y-117953884D01*
X87881810Y-118000000D01*
X88118190Y-118000000D01*
X88350027Y-117953884D01*
X88568413Y-117863426D01*
X88764955Y-117732101D01*
X88932101Y-117564955D01*
X89063426Y-117368413D01*
X89153884Y-117150027D01*
X89200000Y-116918190D01*
X89200000Y-116681810D01*
X89153884Y-116449973D01*
X89063426Y-116231587D01*
X88932101Y-116035045D01*
X88764955Y-115867899D01*
X88568413Y-115736574D01*
X88350027Y-115646116D01*
X88118190Y-115600000D01*
X87881810Y-115600000D01*
X87649973Y-115646116D01*
X87431587Y-115736574D01*
X87235045Y-115867899D01*
X87067899Y-116035045D01*
X86936574Y-116231587D01*
X86846116Y-116449973D01*
X86800000Y-116681810D01*
X85975000Y-116681810D01*
X85975000Y-111850000D01*
X86296855Y-111850000D01*
X86309405Y-111977422D01*
X86346573Y-112099948D01*
X86406930Y-112212868D01*
X86488157Y-112311843D01*
X86587132Y-112393070D01*
X86700052Y-112453427D01*
X86822578Y-112490595D01*
X86950000Y-112503145D01*
X87737500Y-112500000D01*
X87900000Y-112337500D01*
X87900000Y-110900000D01*
X88100000Y-110900000D01*
X88100000Y-112337500D01*
X88262500Y-112500000D01*
X89050000Y-112503145D01*
X89177422Y-112490595D01*
X89299948Y-112453427D01*
X89412868Y-112393070D01*
X89511843Y-112311843D01*
X89593070Y-112212868D01*
X89653427Y-112099948D01*
X89690595Y-111977422D01*
X89703145Y-111850000D01*
X89700000Y-111062500D01*
X89537500Y-110900000D01*
X88100000Y-110900000D01*
X87900000Y-110900000D01*
X86462500Y-110900000D01*
X86300000Y-111062500D01*
X86296855Y-111850000D01*
X85975000Y-111850000D01*
X85975000Y-109750000D01*
X86296855Y-109750000D01*
X86300000Y-110537500D01*
X86462500Y-110700000D01*
X87900000Y-110700000D01*
X87900000Y-109262500D01*
X88100000Y-109262500D01*
X88100000Y-110700000D01*
X89537500Y-110700000D01*
X89700000Y-110537500D01*
X89703145Y-109750000D01*
X89690595Y-109622578D01*
X89653427Y-109500052D01*
X89593070Y-109387132D01*
X89511843Y-109288157D01*
X89412868Y-109206930D01*
X89299948Y-109146573D01*
X89177422Y-109109405D01*
X89050000Y-109096855D01*
X88262500Y-109100000D01*
X88100000Y-109262500D01*
X87900000Y-109262500D01*
X87737500Y-109100000D01*
X86950000Y-109096855D01*
X86822578Y-109109405D01*
X86700052Y-109146573D01*
X86587132Y-109206930D01*
X86488157Y-109288157D01*
X86406930Y-109387132D01*
X86346573Y-109500052D01*
X86309405Y-109622578D01*
X86296855Y-109750000D01*
X85975000Y-109750000D01*
X85975000Y-90481810D01*
X86400000Y-90481810D01*
X86400000Y-90718190D01*
X86446116Y-90950027D01*
X86536574Y-91168413D01*
X86667899Y-91364955D01*
X86835045Y-91532101D01*
X87031587Y-91663426D01*
X87249973Y-91753884D01*
X87481810Y-91800000D01*
X87718190Y-91800000D01*
X87950027Y-91753884D01*
X88168413Y-91663426D01*
X88364955Y-91532101D01*
X88532101Y-91364955D01*
X88663426Y-91168413D01*
X88753884Y-90950027D01*
X88800000Y-90718190D01*
X88800000Y-90481810D01*
X88753884Y-90249973D01*
X88663426Y-90031587D01*
X88532101Y-89835045D01*
X88364955Y-89667899D01*
X88168413Y-89536574D01*
X87950027Y-89446116D01*
X87718190Y-89400000D01*
X87481810Y-89400000D01*
X87249973Y-89446116D01*
X87031587Y-89536574D01*
X86835045Y-89667899D01*
X86667899Y-89835045D01*
X86536574Y-90031587D01*
X86446116Y-90249973D01*
X86400000Y-90481810D01*
X85975000Y-90481810D01*
X85975000Y-87281810D01*
X86400000Y-87281810D01*
X86400000Y-87518190D01*
X86446116Y-87750027D01*
X86536574Y-87968413D01*
X86667899Y-88164955D01*
X86835045Y-88332101D01*
X87031587Y-88463426D01*
X87249973Y-88553884D01*
X87481810Y-88600000D01*
X87718190Y-88600000D01*
X87950027Y-88553884D01*
X88168413Y-88463426D01*
X88364955Y-88332101D01*
X88532101Y-88164955D01*
X88663426Y-87968413D01*
X88753884Y-87750027D01*
X88800000Y-87518190D01*
X88800000Y-87281810D01*
X88753884Y-87049973D01*
X88663426Y-86831587D01*
X88532101Y-86635045D01*
X88364955Y-86467899D01*
X88168413Y-86336574D01*
X87950027Y-86246116D01*
X87718190Y-86200000D01*
X87481810Y-86200000D01*
X87249973Y-86246116D01*
X87031587Y-86336574D01*
X86835045Y-86467899D01*
X86667899Y-86635045D01*
X86536574Y-86831587D01*
X86446116Y-87049973D01*
X86400000Y-87281810D01*
X85975000Y-87281810D01*
X85975000Y-81475000D01*
X97335050Y-81475000D01*
X96886985Y-81923065D01*
%TA.AperFunction,Conductor*%
D16*
G36*
X96886985Y-81923065D02*
G01*
X96757575Y-81853894D01*
X96484249Y-81770981D01*
X96200000Y-81742985D01*
X95915750Y-81770981D01*
X95642424Y-81853894D01*
X95390526Y-81988536D01*
X95169735Y-82169736D01*
X94988536Y-82390527D01*
X94853894Y-82642425D01*
X94770981Y-82915751D01*
X94750000Y-83128776D01*
X94750000Y-84071225D01*
X94770981Y-84284250D01*
X94853894Y-84557576D01*
X94988536Y-84809474D01*
X95021795Y-84850000D01*
X94941741Y-84850000D01*
X94900000Y-84845889D01*
X94858259Y-84850000D01*
X94858251Y-84850000D01*
X94733371Y-84862300D01*
X94573145Y-84910903D01*
X94425481Y-84989832D01*
X94328480Y-85069438D01*
X94328475Y-85069443D01*
X94296052Y-85096052D01*
X94269443Y-85128475D01*
X93500096Y-85897823D01*
X92877600Y-85897823D01*
X92725473Y-85912806D01*
X92579192Y-85957180D01*
X92444379Y-86029239D01*
X92326214Y-86126214D01*
X92229239Y-86244379D01*
X92157180Y-86379192D01*
X92112806Y-86525473D01*
X92097823Y-86677600D01*
X92097823Y-88122400D01*
X92112806Y-88274527D01*
X92157180Y-88420808D01*
X92229239Y-88555621D01*
X92326214Y-88673786D01*
X92444379Y-88770761D01*
X92579192Y-88842820D01*
X92725473Y-88887194D01*
X92877600Y-88902177D01*
X94095742Y-88902177D01*
X93900096Y-89097823D01*
X92877600Y-89097823D01*
X92725473Y-89112806D01*
X92579192Y-89157180D01*
X92444379Y-89229239D01*
X92326214Y-89326214D01*
X92229239Y-89444379D01*
X92157180Y-89579192D01*
X92112806Y-89725473D01*
X92097823Y-89877600D01*
X92097823Y-91322400D01*
X92112806Y-91474527D01*
X92157180Y-91620808D01*
X92229239Y-91755621D01*
X92326214Y-91873786D01*
X92444379Y-91970761D01*
X92579192Y-92042820D01*
X92725473Y-92087194D01*
X92877600Y-92102177D01*
X93616006Y-92102177D01*
X93557734Y-92150000D01*
X89442266Y-92150000D01*
X89340109Y-92066161D01*
X89218712Y-92001273D01*
X89086989Y-91961315D01*
X88950001Y-91947823D01*
X88049999Y-91947823D01*
X87913011Y-91961315D01*
X87781288Y-92001273D01*
X87659891Y-92066161D01*
X87553486Y-92153486D01*
X87466161Y-92259891D01*
X87401273Y-92381288D01*
X87361315Y-92513011D01*
X87347823Y-92649999D01*
X87347823Y-93350001D01*
X87361315Y-93486989D01*
X87401273Y-93618712D01*
X87466161Y-93740109D01*
X87553486Y-93846514D01*
X87659891Y-93933839D01*
X87781288Y-93998727D01*
X87785484Y-94000000D01*
X87781288Y-94001273D01*
X87659891Y-94066161D01*
X87553486Y-94153486D01*
X87466161Y-94259891D01*
X87401273Y-94381288D01*
X87361315Y-94513011D01*
X87347823Y-94649999D01*
X87347823Y-95350001D01*
X87361315Y-95486989D01*
X87401273Y-95618712D01*
X87466161Y-95740109D01*
X87553486Y-95846514D01*
X87659891Y-95933839D01*
X87781288Y-95998727D01*
X87913011Y-96038685D01*
X88049999Y-96052177D01*
X88350096Y-96052177D01*
X88550001Y-96252082D01*
X88550000Y-98241417D01*
X88476329Y-98271933D01*
X88156948Y-98485336D01*
X87885336Y-98756948D01*
X87671933Y-99076329D01*
X87524938Y-99431206D01*
X87450000Y-99807942D01*
X87450000Y-100192058D01*
X87524938Y-100568794D01*
X87671933Y-100923671D01*
X87885336Y-101243052D01*
X88156948Y-101514664D01*
X88476329Y-101728067D01*
X88550000Y-101758583D01*
X88550001Y-103241417D01*
X88476329Y-103271933D01*
X88156948Y-103485336D01*
X87885336Y-103756948D01*
X87671933Y-104076329D01*
X87524938Y-104431206D01*
X87450000Y-104807942D01*
X87450000Y-105192058D01*
X87524938Y-105568794D01*
X87671933Y-105923671D01*
X87885336Y-106243052D01*
X88156948Y-106514664D01*
X88476329Y-106728067D01*
X88831206Y-106875062D01*
X89207942Y-106950000D01*
X89592058Y-106950000D01*
X89968794Y-106875062D01*
X90323671Y-106728067D01*
X90643052Y-106514664D01*
X90914664Y-106243052D01*
X91128067Y-105923671D01*
X91275062Y-105568794D01*
X91350000Y-105192058D01*
X91350000Y-105015197D01*
X92239650Y-105015197D01*
X92284126Y-105436368D01*
X92409913Y-105840770D01*
X92595292Y-106187590D01*
X92918329Y-106340249D01*
X94258579Y-105000000D01*
X92918329Y-103659751D01*
X92595292Y-103812410D01*
X92398282Y-104187310D01*
X92278196Y-104593442D01*
X92239650Y-105015197D01*
X91350000Y-105015197D01*
X91350000Y-104807942D01*
X91275062Y-104431206D01*
X91128067Y-104076329D01*
X90914664Y-103756948D01*
X90643052Y-103485336D01*
X90323671Y-103271933D01*
X90250000Y-103241417D01*
X90250000Y-101758583D01*
X90323671Y-101728067D01*
X90643052Y-101514664D01*
X90914664Y-101243052D01*
X91128067Y-100923671D01*
X91275062Y-100568794D01*
X91350000Y-100192058D01*
X91350000Y-100015197D01*
X92239650Y-100015197D01*
X92284126Y-100436368D01*
X92409913Y-100840770D01*
X92595292Y-101187590D01*
X92918329Y-101340249D01*
X94258579Y-100000000D01*
X92918329Y-98659751D01*
X92595292Y-98812410D01*
X92398282Y-99187310D01*
X92278196Y-99593442D01*
X92239650Y-100015197D01*
X91350000Y-100015197D01*
X91350000Y-99807942D01*
X91275062Y-99431206D01*
X91128067Y-99076329D01*
X90914664Y-98756948D01*
X90643052Y-98485336D01*
X90323671Y-98271933D01*
X90250000Y-98241417D01*
X90250000Y-95941740D01*
X90254111Y-95899999D01*
X90250000Y-95858258D01*
X90250000Y-95858251D01*
X90239241Y-95749013D01*
X90237700Y-95733370D01*
X90189097Y-95573145D01*
X90110167Y-95425480D01*
X90030561Y-95328480D01*
X90003948Y-95296052D01*
X89971519Y-95269438D01*
X89652177Y-94950096D01*
X89652177Y-94649999D01*
X89638685Y-94513011D01*
X89598727Y-94381288D01*
X89533839Y-94259891D01*
X89446514Y-94153486D01*
X89340109Y-94066161D01*
X89218712Y-94001273D01*
X89214516Y-94000000D01*
X89218712Y-93998727D01*
X89340109Y-93933839D01*
X89442266Y-93850000D01*
X93557734Y-93850000D01*
X93659891Y-93933839D01*
X93781288Y-93998727D01*
X93785484Y-94000000D01*
X93781288Y-94001273D01*
X93659891Y-94066161D01*
X93553486Y-94153486D01*
X93466161Y-94259891D01*
X93401273Y-94381288D01*
X93361315Y-94513011D01*
X93347823Y-94649999D01*
X93347823Y-95350001D01*
X93361315Y-95486989D01*
X93401273Y-95618712D01*
X93466161Y-95740109D01*
X93553486Y-95846514D01*
X93659891Y-95933839D01*
X93781288Y-95998727D01*
X93913011Y-96038685D01*
X94049999Y-96052177D01*
X94350097Y-96052177D01*
X95750001Y-97452082D01*
X95750001Y-98508575D01*
X95740248Y-98518328D01*
X95587590Y-98195292D01*
X95212690Y-97998282D01*
X94806558Y-97878196D01*
X94384803Y-97839650D01*
X93963632Y-97884126D01*
X93559230Y-98009913D01*
X93212410Y-98195292D01*
X93059751Y-98518329D01*
X94400000Y-99858579D01*
X94414142Y-99844436D01*
X94555564Y-99985858D01*
X94541421Y-100000000D01*
X94555564Y-100014143D01*
X94414142Y-100155564D01*
X94400000Y-100141421D01*
X93059751Y-101481671D01*
X93212410Y-101804708D01*
X93587310Y-102001718D01*
X93993442Y-102121804D01*
X94415197Y-102160350D01*
X94836368Y-102115874D01*
X95240770Y-101990087D01*
X95587590Y-101804708D01*
X95740248Y-101481672D01*
X95750001Y-101491425D01*
X95750002Y-103508574D01*
X95740248Y-103518328D01*
X95587590Y-103195292D01*
X95212690Y-102998282D01*
X94806558Y-102878196D01*
X94384803Y-102839650D01*
X93963632Y-102884126D01*
X93559230Y-103009913D01*
X93212410Y-103195292D01*
X93059751Y-103518329D01*
X94400000Y-104858579D01*
X94414142Y-104844436D01*
X94555564Y-104985858D01*
X94541421Y-105000000D01*
X94555564Y-105014143D01*
X94414142Y-105155564D01*
X94400000Y-105141421D01*
X93059751Y-106481671D01*
X93212410Y-106804708D01*
X93587310Y-107001718D01*
X93993442Y-107121804D01*
X94303757Y-107150165D01*
X94103932Y-107349990D01*
X93591751Y-107349990D01*
X93550010Y-107345879D01*
X93508269Y-107349990D01*
X93508261Y-107349990D01*
X93383381Y-107362290D01*
X93223155Y-107410893D01*
X93075491Y-107489822D01*
X92946062Y-107596042D01*
X92919448Y-107628471D01*
X92100097Y-108447823D01*
X91799999Y-108447823D01*
X91663011Y-108461315D01*
X91531288Y-108501273D01*
X91409891Y-108566161D01*
X91303486Y-108653486D01*
X91267376Y-108697486D01*
X91223145Y-108710903D01*
X91075481Y-108789832D01*
X90978480Y-108869438D01*
X90978475Y-108869443D01*
X90946052Y-108896052D01*
X90919443Y-108928476D01*
X90278475Y-109569445D01*
X90246042Y-109596062D01*
X90139822Y-109725492D01*
X90085642Y-109826855D01*
X90060893Y-109873156D01*
X90023614Y-109996052D01*
X90012290Y-110033382D01*
X89999990Y-110158262D01*
X89999990Y-110158269D01*
X89995879Y-110200010D01*
X89999990Y-110241751D01*
X89999991Y-112201759D01*
X89995879Y-112243510D01*
X90012290Y-112410139D01*
X90060893Y-112570364D01*
X90094577Y-112633381D01*
X90139823Y-112718029D01*
X90246043Y-112847458D01*
X90278471Y-112874071D01*
X90775924Y-113371524D01*
X90802542Y-113403958D01*
X90931971Y-113510178D01*
X91079635Y-113589107D01*
X91239861Y-113637710D01*
X91364741Y-113650010D01*
X91364749Y-113650010D01*
X91406490Y-113654121D01*
X91448231Y-113650010D01*
X99150000Y-113650010D01*
X99150000Y-113841417D01*
X99076329Y-113871933D01*
X98756948Y-114085336D01*
X98485336Y-114356948D01*
X98271933Y-114676329D01*
X98124938Y-115031206D01*
X98050000Y-115407942D01*
X98050000Y-115792058D01*
X98124938Y-116168794D01*
X98271933Y-116523671D01*
X98485336Y-116843052D01*
X98756948Y-117114664D01*
X99076329Y-117328067D01*
X99431206Y-117475062D01*
X99807942Y-117550000D01*
X100192058Y-117550000D01*
X100568794Y-117475062D01*
X100923671Y-117328067D01*
X101243052Y-117114664D01*
X101276045Y-117081671D01*
X103659751Y-117081671D01*
X103812410Y-117404708D01*
X104187310Y-117601718D01*
X104593442Y-117721804D01*
X105015197Y-117760350D01*
X105436368Y-117715874D01*
X105840770Y-117590087D01*
X106187590Y-117404708D01*
X106340249Y-117081671D01*
X105000000Y-115741421D01*
X103659751Y-117081671D01*
X101276045Y-117081671D01*
X101514664Y-116843052D01*
X101728067Y-116523671D01*
X101875062Y-116168794D01*
X101950000Y-115792058D01*
X101950000Y-115615197D01*
X102839650Y-115615197D01*
X102884126Y-116036368D01*
X103009913Y-116440770D01*
X103195292Y-116787590D01*
X103518329Y-116940249D01*
X104858579Y-115600000D01*
X105141421Y-115600000D01*
X106481671Y-116940249D01*
X106804708Y-116787590D01*
X106860295Y-116681810D01*
X109400000Y-116681810D01*
X109400000Y-116918190D01*
X109446116Y-117150027D01*
X109536574Y-117368413D01*
X109667899Y-117564955D01*
X109835045Y-117732101D01*
X110031587Y-117863426D01*
X110249973Y-117953884D01*
X110481810Y-118000000D01*
X110718190Y-118000000D01*
X110950027Y-117953884D01*
X111168413Y-117863426D01*
X111364955Y-117732101D01*
X111532101Y-117564955D01*
X111663426Y-117368413D01*
X111753884Y-117150027D01*
X111800000Y-116918190D01*
X111800000Y-116681810D01*
X111753884Y-116449973D01*
X111663426Y-116231587D01*
X111532101Y-116035045D01*
X111364955Y-115867899D01*
X111168413Y-115736574D01*
X110950027Y-115646116D01*
X110718190Y-115600000D01*
X110481810Y-115600000D01*
X110249973Y-115646116D01*
X110031587Y-115736574D01*
X109835045Y-115867899D01*
X109667899Y-116035045D01*
X109536574Y-116231587D01*
X109446116Y-116449973D01*
X109400000Y-116681810D01*
X106860295Y-116681810D01*
X107001718Y-116412690D01*
X107121804Y-116006558D01*
X107160350Y-115584803D01*
X107115874Y-115163632D01*
X106990087Y-114759230D01*
X106804708Y-114412410D01*
X106481671Y-114259751D01*
X105141421Y-115600000D01*
X104858579Y-115600000D01*
X103518329Y-114259751D01*
X103195292Y-114412410D01*
X102998282Y-114787310D01*
X102878196Y-115193442D01*
X102839650Y-115615197D01*
X101950000Y-115615197D01*
X101950000Y-115407942D01*
X101875062Y-115031206D01*
X101728067Y-114676329D01*
X101514664Y-114356948D01*
X101276045Y-114118329D01*
X103659751Y-114118329D01*
X105000000Y-115458579D01*
X106340249Y-114118329D01*
X106187590Y-113795292D01*
X105812690Y-113598282D01*
X105406558Y-113478196D01*
X104984803Y-113439650D01*
X104563632Y-113484126D01*
X104159230Y-113609913D01*
X103812410Y-113795292D01*
X103659751Y-114118329D01*
X101276045Y-114118329D01*
X101243052Y-114085336D01*
X100923671Y-113871933D01*
X100850000Y-113841417D01*
X100850000Y-112541742D01*
X100854111Y-112500001D01*
X100850000Y-112458260D01*
X100850000Y-112358583D01*
X100923671Y-112328067D01*
X101243052Y-112114664D01*
X101276045Y-112081671D01*
X103659751Y-112081671D01*
X103812410Y-112404708D01*
X104187310Y-112601718D01*
X104593442Y-112721804D01*
X105015197Y-112760350D01*
X105436368Y-112715874D01*
X105840770Y-112590087D01*
X106187590Y-112404708D01*
X106340249Y-112081671D01*
X105000000Y-110741421D01*
X103659751Y-112081671D01*
X101276045Y-112081671D01*
X101514664Y-111843052D01*
X101728067Y-111523671D01*
X101875062Y-111168794D01*
X101950000Y-110792058D01*
X101950000Y-110615197D01*
X102839650Y-110615197D01*
X102884126Y-111036368D01*
X103009913Y-111440770D01*
X103195292Y-111787590D01*
X103518329Y-111940249D01*
X104858579Y-110600000D01*
X105141421Y-110600000D01*
X106481671Y-111940249D01*
X106804708Y-111787590D01*
X107001718Y-111412690D01*
X107121804Y-111006558D01*
X107160350Y-110584803D01*
X107115874Y-110163632D01*
X106990087Y-109759230D01*
X106804708Y-109412410D01*
X106481671Y-109259751D01*
X105141421Y-110600000D01*
X104858579Y-110600000D01*
X103518329Y-109259751D01*
X103195292Y-109412410D01*
X102998282Y-109787310D01*
X102878196Y-110193442D01*
X102839650Y-110615197D01*
X101950000Y-110615197D01*
X101950000Y-110407942D01*
X101875062Y-110031206D01*
X101728067Y-109676329D01*
X101514664Y-109356948D01*
X101276045Y-109118329D01*
X103659751Y-109118329D01*
X105000000Y-110458579D01*
X106340249Y-109118329D01*
X106187590Y-108795292D01*
X105812690Y-108598282D01*
X105406558Y-108478196D01*
X104984803Y-108439650D01*
X104563632Y-108484126D01*
X104159230Y-108609913D01*
X103812410Y-108795292D01*
X103659751Y-109118329D01*
X101276045Y-109118329D01*
X101243052Y-109085336D01*
X100923671Y-108871933D01*
X100568794Y-108724938D01*
X100192058Y-108650000D01*
X99807942Y-108650000D01*
X99431206Y-108724938D01*
X99076329Y-108871933D01*
X98756948Y-109085336D01*
X98485336Y-109356948D01*
X98271933Y-109676329D01*
X98124938Y-110031206D01*
X98050000Y-110407942D01*
X98050000Y-110792058D01*
X98124938Y-111168794D01*
X98271933Y-111523671D01*
X98485336Y-111843052D01*
X98592294Y-111950010D01*
X95642327Y-111950010D01*
X95652177Y-111850001D01*
X95652177Y-111149999D01*
X95638685Y-111013011D01*
X95598727Y-110881288D01*
X95533839Y-110759891D01*
X95446514Y-110653486D01*
X95340109Y-110566161D01*
X95218712Y-110501273D01*
X95214516Y-110500000D01*
X95218712Y-110498727D01*
X95340109Y-110433839D01*
X95442266Y-110350000D01*
X96958259Y-110350000D01*
X97000000Y-110354111D01*
X97041741Y-110350000D01*
X97041749Y-110350000D01*
X97166629Y-110337700D01*
X97326855Y-110289097D01*
X97474519Y-110210168D01*
X97603948Y-110103948D01*
X97630566Y-110071514D01*
X99852081Y-107850000D01*
X105458259Y-107850000D01*
X105500000Y-107854111D01*
X105541741Y-107850000D01*
X105541749Y-107850000D01*
X105666629Y-107837700D01*
X105826855Y-107789097D01*
X105974519Y-107710168D01*
X106103948Y-107603948D01*
X106130566Y-107571514D01*
X107852081Y-105850000D01*
X108841417Y-105850000D01*
X108871933Y-105923671D01*
X109085336Y-106243052D01*
X109356948Y-106514664D01*
X109676329Y-106728067D01*
X110031206Y-106875062D01*
X110407942Y-106950000D01*
X110792058Y-106950000D01*
X111168794Y-106875062D01*
X111523671Y-106728067D01*
X111794814Y-106546895D01*
X112345742Y-107097823D01*
X111649999Y-107097823D01*
X111513011Y-107111315D01*
X111381288Y-107151273D01*
X111259891Y-107216161D01*
X111153486Y-107303486D01*
X111066161Y-107409891D01*
X111001273Y-107531288D01*
X110961315Y-107663011D01*
X110947823Y-107799999D01*
X110947823Y-108100096D01*
X110028481Y-109019439D01*
X109996053Y-109046052D01*
X109889833Y-109175481D01*
X109873023Y-109206930D01*
X109821485Y-109303350D01*
X109725473Y-109312806D01*
X109579192Y-109357180D01*
X109444379Y-109429239D01*
X109326214Y-109526214D01*
X109229239Y-109644379D01*
X109157180Y-109779192D01*
X109112806Y-109925473D01*
X109097823Y-110077600D01*
X109097823Y-111522400D01*
X109112806Y-111674527D01*
X109157180Y-111820808D01*
X109229239Y-111955621D01*
X109326214Y-112073786D01*
X109444379Y-112170761D01*
X109579192Y-112242820D01*
X109725473Y-112287194D01*
X109877600Y-112302177D01*
X111322400Y-112302177D01*
X111474527Y-112287194D01*
X111620808Y-112242820D01*
X111755621Y-112170761D01*
X111873786Y-112073786D01*
X111970761Y-111955621D01*
X112042820Y-111820808D01*
X112087194Y-111674527D01*
X112102177Y-111522400D01*
X112102177Y-110077600D01*
X112087194Y-109925473D01*
X112042820Y-109779192D01*
X111970761Y-109644379D01*
X111897261Y-109554819D01*
X112049904Y-109402177D01*
X112350001Y-109402177D01*
X112486989Y-109388685D01*
X112618712Y-109348727D01*
X112740109Y-109283839D01*
X112846514Y-109196514D01*
X112933839Y-109090109D01*
X112998727Y-108968712D01*
X113000000Y-108964516D01*
X113001273Y-108968712D01*
X113066161Y-109090109D01*
X113153486Y-109196514D01*
X113259891Y-109283839D01*
X113381288Y-109348727D01*
X113513011Y-109388685D01*
X113649999Y-109402177D01*
X114350001Y-109402177D01*
X114486989Y-109388685D01*
X114618712Y-109348727D01*
X114740109Y-109283839D01*
X114846514Y-109196514D01*
X114933839Y-109090109D01*
X114998727Y-108968712D01*
X115038685Y-108836989D01*
X115052177Y-108700001D01*
X115052177Y-107799999D01*
X115038685Y-107663011D01*
X114998727Y-107531288D01*
X114933839Y-107409891D01*
X114846514Y-107303486D01*
X114802514Y-107267376D01*
X114789097Y-107223145D01*
X114710168Y-107075481D01*
X114630562Y-106978480D01*
X114630557Y-106978475D01*
X114603948Y-106946052D01*
X114571526Y-106919444D01*
X114505940Y-106853858D01*
X114787310Y-107001718D01*
X115193442Y-107121804D01*
X115615197Y-107160350D01*
X116036368Y-107115874D01*
X116440770Y-106990087D01*
X116787590Y-106804708D01*
X116940249Y-106481671D01*
X115600000Y-105141421D01*
X115585858Y-105155564D01*
X115444436Y-105014142D01*
X115458579Y-105000000D01*
X115741421Y-105000000D01*
X117081671Y-106340249D01*
X117404708Y-106187590D01*
X117601718Y-105812690D01*
X117721804Y-105406558D01*
X117760350Y-104984803D01*
X117715874Y-104563632D01*
X117590087Y-104159230D01*
X117404708Y-103812410D01*
X117081671Y-103659751D01*
X115741421Y-105000000D01*
X115458579Y-105000000D01*
X114118329Y-103659751D01*
X113795292Y-103812410D01*
X113598282Y-104187310D01*
X113478196Y-104593442D01*
X113439650Y-105015197D01*
X113484126Y-105436368D01*
X113609913Y-105840770D01*
X113744332Y-106092251D01*
X112550000Y-104897920D01*
X112550000Y-104807942D01*
X112475062Y-104431206D01*
X112328067Y-104076329D01*
X112114664Y-103756948D01*
X111876045Y-103518329D01*
X114259751Y-103518329D01*
X115600000Y-104858579D01*
X116940249Y-103518329D01*
X116787590Y-103195292D01*
X116412690Y-102998282D01*
X116006558Y-102878196D01*
X115584803Y-102839650D01*
X115163632Y-102884126D01*
X114759230Y-103009913D01*
X114412410Y-103195292D01*
X114259751Y-103518329D01*
X111876045Y-103518329D01*
X111843052Y-103485336D01*
X111523671Y-103271933D01*
X111450000Y-103241417D01*
X111450000Y-101758583D01*
X111523671Y-101728067D01*
X111843052Y-101514664D01*
X111876045Y-101481671D01*
X114259751Y-101481671D01*
X114412410Y-101804708D01*
X114787310Y-102001718D01*
X115193442Y-102121804D01*
X115615197Y-102160350D01*
X116036368Y-102115874D01*
X116440770Y-101990087D01*
X116787590Y-101804708D01*
X116940249Y-101481671D01*
X115600000Y-100141421D01*
X114259751Y-101481671D01*
X111876045Y-101481671D01*
X112114664Y-101243052D01*
X112328067Y-100923671D01*
X112475062Y-100568794D01*
X112550000Y-100192058D01*
X112550000Y-100015197D01*
X113439650Y-100015197D01*
X113484126Y-100436368D01*
X113609913Y-100840770D01*
X113795292Y-101187590D01*
X114118329Y-101340249D01*
X115458579Y-100000000D01*
X115741421Y-100000000D01*
X117081671Y-101340249D01*
X117404708Y-101187590D01*
X117601718Y-100812690D01*
X117721804Y-100406558D01*
X117760350Y-99984803D01*
X117715874Y-99563632D01*
X117590087Y-99159230D01*
X117404708Y-98812410D01*
X117081671Y-98659751D01*
X115741421Y-100000000D01*
X115458579Y-100000000D01*
X114118329Y-98659751D01*
X113795292Y-98812410D01*
X113598282Y-99187310D01*
X113478196Y-99593442D01*
X113439650Y-100015197D01*
X112550000Y-100015197D01*
X112550000Y-99807942D01*
X112475062Y-99431206D01*
X112328067Y-99076329D01*
X112114664Y-98756948D01*
X111876045Y-98518329D01*
X114259751Y-98518329D01*
X115600000Y-99858579D01*
X116940249Y-98518329D01*
X116787590Y-98195292D01*
X116412690Y-97998282D01*
X116006558Y-97878196D01*
X115584803Y-97839650D01*
X115163632Y-97884126D01*
X114759230Y-98009913D01*
X114412410Y-98195292D01*
X114259751Y-98518329D01*
X111876045Y-98518329D01*
X111843052Y-98485336D01*
X111523671Y-98271933D01*
X111168794Y-98124938D01*
X110792058Y-98050000D01*
X110407942Y-98050000D01*
X110031206Y-98124938D01*
X109676329Y-98271933D01*
X109356948Y-98485336D01*
X109085336Y-98756948D01*
X108871933Y-99076329D01*
X108724938Y-99431206D01*
X108650000Y-99807942D01*
X108650000Y-100192058D01*
X108724938Y-100568794D01*
X108871933Y-100923671D01*
X109085336Y-101243052D01*
X109356948Y-101514664D01*
X109676329Y-101728067D01*
X109750001Y-101758583D01*
X109750000Y-103241417D01*
X109676329Y-103271933D01*
X109356948Y-103485336D01*
X109085336Y-103756948D01*
X108871933Y-104076329D01*
X108841417Y-104150000D01*
X107541740Y-104150000D01*
X107499999Y-104145889D01*
X107458258Y-104150000D01*
X107458251Y-104150000D01*
X107349013Y-104160759D01*
X107333370Y-104162300D01*
X107250922Y-104187310D01*
X107173145Y-104210903D01*
X107025481Y-104289832D01*
X106896052Y-104396052D01*
X106869439Y-104428481D01*
X105147920Y-106150000D01*
X99541741Y-106150000D01*
X99500000Y-106145889D01*
X99458259Y-106150000D01*
X99458251Y-106150000D01*
X99333371Y-106162300D01*
X99173145Y-106210903D01*
X99025481Y-106289832D01*
X98896052Y-106396052D01*
X98869439Y-106428480D01*
X96647920Y-108650000D01*
X95442266Y-108650000D01*
X95340109Y-108566161D01*
X95308706Y-108549376D01*
X97171520Y-106686562D01*
X97203949Y-106659949D01*
X97310169Y-106530520D01*
X97389098Y-106382856D01*
X97437701Y-106222630D01*
X97450001Y-106097750D01*
X97450001Y-106097740D01*
X97454112Y-106056002D01*
X97450001Y-106014264D01*
X97450001Y-102298093D01*
X100450000Y-102298093D01*
X100450000Y-102701907D01*
X100528780Y-103097963D01*
X100683314Y-103471039D01*
X100907661Y-103806799D01*
X101193201Y-104092339D01*
X101528961Y-104316686D01*
X101902037Y-104471220D01*
X102298093Y-104550000D01*
X102701907Y-104550000D01*
X103097963Y-104471220D01*
X103471039Y-104316686D01*
X103806799Y-104092339D01*
X104092339Y-103806799D01*
X104316686Y-103471039D01*
X104471220Y-103097963D01*
X104550000Y-102701907D01*
X104550000Y-102298093D01*
X104471220Y-101902037D01*
X104316686Y-101528961D01*
X104092339Y-101193201D01*
X103806799Y-100907661D01*
X103471039Y-100683314D01*
X103097963Y-100528780D01*
X102701907Y-100450000D01*
X102298093Y-100450000D01*
X101902037Y-100528780D01*
X101528961Y-100683314D01*
X101193201Y-100907661D01*
X100907661Y-101193201D01*
X100683314Y-101528961D01*
X100528780Y-101902037D01*
X100450000Y-102298093D01*
X97450001Y-102298093D01*
X97450001Y-97141742D01*
X97454112Y-97100001D01*
X97450001Y-97058260D01*
X97450001Y-97058252D01*
X97437701Y-96933372D01*
X97389098Y-96773146D01*
X97310169Y-96625482D01*
X97203949Y-96496053D01*
X97171522Y-96469441D01*
X95652177Y-94950097D01*
X95652177Y-94649999D01*
X95638685Y-94513011D01*
X95598727Y-94381288D01*
X95533839Y-94259891D01*
X95446514Y-94153486D01*
X95340109Y-94066161D01*
X95218712Y-94001273D01*
X95214516Y-94000000D01*
X95218712Y-93998727D01*
X95340109Y-93933839D01*
X95442266Y-93850000D01*
X98121200Y-93850000D01*
X98050000Y-94207942D01*
X98050000Y-94592058D01*
X98124938Y-94968794D01*
X98271933Y-95323671D01*
X98485336Y-95643052D01*
X98756948Y-95914664D01*
X99076329Y-96128067D01*
X99431206Y-96275062D01*
X99807942Y-96350000D01*
X100192058Y-96350000D01*
X100568794Y-96275062D01*
X100923671Y-96128067D01*
X101243052Y-95914664D01*
X101276045Y-95881671D01*
X103659751Y-95881671D01*
X103812410Y-96204708D01*
X104187310Y-96401718D01*
X104593442Y-96521804D01*
X105015197Y-96560350D01*
X105436368Y-96515874D01*
X105840770Y-96390087D01*
X106187590Y-96204708D01*
X106340249Y-95881671D01*
X105000000Y-94541421D01*
X103659751Y-95881671D01*
X101276045Y-95881671D01*
X101514664Y-95643052D01*
X101728067Y-95323671D01*
X101875062Y-94968794D01*
X101950000Y-94592058D01*
X101950000Y-94415197D01*
X102839650Y-94415197D01*
X102884126Y-94836368D01*
X103009913Y-95240770D01*
X103195292Y-95587590D01*
X103518329Y-95740249D01*
X104858579Y-94400000D01*
X105141421Y-94400000D01*
X106481671Y-95740249D01*
X106804708Y-95587590D01*
X107001718Y-95212690D01*
X107121804Y-94806558D01*
X107160350Y-94384803D01*
X107115874Y-93963632D01*
X106990087Y-93559230D01*
X106804708Y-93212410D01*
X106481671Y-93059751D01*
X105141421Y-94400000D01*
X104858579Y-94400000D01*
X103518329Y-93059751D01*
X103195292Y-93212410D01*
X102998282Y-93587310D01*
X102878196Y-93993442D01*
X102839650Y-94415197D01*
X101950000Y-94415197D01*
X101950000Y-94207942D01*
X101875062Y-93831206D01*
X101728067Y-93476329D01*
X101514664Y-93156948D01*
X101276045Y-92918329D01*
X103659751Y-92918329D01*
X105000000Y-94258579D01*
X106340249Y-92918329D01*
X106228477Y-92681810D01*
X110500000Y-92681810D01*
X110500000Y-92918190D01*
X110546116Y-93150027D01*
X110636574Y-93368413D01*
X110767899Y-93564955D01*
X110935045Y-93732101D01*
X111131587Y-93863426D01*
X111349973Y-93953884D01*
X111581810Y-94000000D01*
X111818190Y-94000000D01*
X112050027Y-93953884D01*
X112268413Y-93863426D01*
X112464955Y-93732101D01*
X112632101Y-93564955D01*
X112763426Y-93368413D01*
X112853884Y-93150027D01*
X112900000Y-92918190D01*
X112900000Y-92681810D01*
X112853884Y-92449973D01*
X112763426Y-92231587D01*
X112632101Y-92035045D01*
X112464955Y-91867899D01*
X112268413Y-91736574D01*
X112050027Y-91646116D01*
X111818190Y-91600000D01*
X111581810Y-91600000D01*
X111349973Y-91646116D01*
X111131587Y-91736574D01*
X110935045Y-91867899D01*
X110767899Y-92035045D01*
X110636574Y-92231587D01*
X110546116Y-92449973D01*
X110500000Y-92681810D01*
X106228477Y-92681810D01*
X106187590Y-92595292D01*
X105812690Y-92398282D01*
X105406558Y-92278196D01*
X104984803Y-92239650D01*
X104563632Y-92284126D01*
X104159230Y-92409913D01*
X103812410Y-92595292D01*
X103659751Y-92918329D01*
X101276045Y-92918329D01*
X101243052Y-92885336D01*
X100923671Y-92671933D01*
X100850000Y-92641417D01*
X100850000Y-91158583D01*
X100923671Y-91128067D01*
X101243052Y-90914664D01*
X101276045Y-90881671D01*
X103659751Y-90881671D01*
X103812410Y-91204708D01*
X104187310Y-91401718D01*
X104593442Y-91521804D01*
X105015197Y-91560350D01*
X105436368Y-91515874D01*
X105840770Y-91390087D01*
X106187590Y-91204708D01*
X106340249Y-90881671D01*
X105000000Y-89541421D01*
X103659751Y-90881671D01*
X101276045Y-90881671D01*
X101514664Y-90643052D01*
X101728067Y-90323671D01*
X101875062Y-89968794D01*
X101950000Y-89592058D01*
X101950000Y-89415197D01*
X102839650Y-89415197D01*
X102884126Y-89836368D01*
X103009913Y-90240770D01*
X103195292Y-90587590D01*
X103518329Y-90740249D01*
X104858579Y-89400000D01*
X105141421Y-89400000D01*
X106481671Y-90740249D01*
X106804708Y-90587590D01*
X107001718Y-90212690D01*
X107121804Y-89806558D01*
X107160350Y-89384803D01*
X107115874Y-88963632D01*
X106990087Y-88559230D01*
X106804708Y-88212410D01*
X106481671Y-88059751D01*
X105141421Y-89400000D01*
X104858579Y-89400000D01*
X103518329Y-88059751D01*
X103195292Y-88212410D01*
X102998282Y-88587310D01*
X102878196Y-88993442D01*
X102839650Y-89415197D01*
X101950000Y-89415197D01*
X101950000Y-89207942D01*
X101875062Y-88831206D01*
X101728067Y-88476329D01*
X101514664Y-88156948D01*
X101276045Y-87918329D01*
X103659751Y-87918329D01*
X105000000Y-89258579D01*
X106340249Y-87918329D01*
X106187590Y-87595292D01*
X105812690Y-87398282D01*
X105406558Y-87278196D01*
X104984803Y-87239650D01*
X104563632Y-87284126D01*
X104159230Y-87409913D01*
X103812410Y-87595292D01*
X103659751Y-87918329D01*
X101276045Y-87918329D01*
X101243052Y-87885336D01*
X101099855Y-87789655D01*
X101114744Y-87771513D01*
X103475512Y-85410746D01*
X103535751Y-85429019D01*
X103820000Y-85457015D01*
X104104250Y-85429019D01*
X104377576Y-85346106D01*
X104629474Y-85211464D01*
X104850265Y-85030265D01*
X104971494Y-84882548D01*
X105043632Y-84999838D01*
X105263984Y-85237437D01*
X105526456Y-85427482D01*
X105820960Y-85562670D01*
X106003589Y-85611047D01*
X106260000Y-85484135D01*
X106260000Y-83700000D01*
X106240000Y-83700000D01*
X106240000Y-83500000D01*
X106260000Y-83500000D01*
X106260000Y-83480000D01*
X106460000Y-83480000D01*
X106460000Y-83500000D01*
X106480000Y-83500000D01*
X106480000Y-83700000D01*
X106460000Y-83700000D01*
X106460000Y-85484135D01*
X106716411Y-85611047D01*
X106899040Y-85562670D01*
X107193544Y-85427482D01*
X107456016Y-85237437D01*
X107676368Y-84999838D01*
X107748506Y-84882548D01*
X107869736Y-85030265D01*
X108090527Y-85211464D01*
X108342425Y-85346106D01*
X108615751Y-85429019D01*
X108900000Y-85457015D01*
X109184250Y-85429019D01*
X109447179Y-85349260D01*
X110197823Y-86099904D01*
X110197823Y-87522400D01*
X110212806Y-87674527D01*
X110257180Y-87820808D01*
X110329239Y-87955621D01*
X110426214Y-88073786D01*
X110544379Y-88170761D01*
X110679192Y-88242820D01*
X110825473Y-88287194D01*
X110977600Y-88302177D01*
X112422400Y-88302177D01*
X112574527Y-88287194D01*
X112720808Y-88242820D01*
X112855621Y-88170761D01*
X112973786Y-88073786D01*
X113070761Y-87955621D01*
X113142820Y-87820808D01*
X113187194Y-87674527D01*
X113202177Y-87522400D01*
X113202177Y-86077600D01*
X113187194Y-85925473D01*
X113142820Y-85779192D01*
X113070761Y-85644379D01*
X112973786Y-85526214D01*
X112855621Y-85429239D01*
X112720808Y-85357180D01*
X112574527Y-85312806D01*
X112422400Y-85297823D01*
X111799904Y-85297823D01*
X110350000Y-83847920D01*
X110350000Y-83128775D01*
X110329019Y-82915750D01*
X110246106Y-82642424D01*
X110111464Y-82390526D01*
X109930264Y-82169735D01*
X109709473Y-81988536D01*
X109457575Y-81853894D01*
X109184249Y-81770981D01*
X108900000Y-81742985D01*
X108615750Y-81770981D01*
X108342424Y-81853894D01*
X108246931Y-81904936D01*
X107816994Y-81475000D01*
X119025001Y-81475000D01*
X119025000Y-85523331D01*
X119025001Y-85523341D01*
X119025000Y-113025000D01*
X113023332Y-113025000D01*
X113000000Y-113022702D01*
X112976668Y-113025000D01*
X112906884Y-113031873D01*
X112817346Y-113059034D01*
X112734827Y-113103141D01*
X112662499Y-113162499D01*
X112603141Y-113234827D01*
X112559034Y-113317346D01*
X112531873Y-113406884D01*
X112522702Y-113500000D01*
X112525000Y-113523331D01*
X112525001Y-119025000D01*
X85975000Y-119025000D01*
X85975000Y-116681810D01*
X86800000Y-116681810D01*
X86800000Y-116918190D01*
X86846116Y-117150027D01*
X86936574Y-117368413D01*
X87067899Y-117564955D01*
X87235045Y-117732101D01*
X87431587Y-117863426D01*
X87649973Y-117953884D01*
X87881810Y-118000000D01*
X88118190Y-118000000D01*
X88350027Y-117953884D01*
X88568413Y-117863426D01*
X88764955Y-117732101D01*
X88932101Y-117564955D01*
X89063426Y-117368413D01*
X89153884Y-117150027D01*
X89200000Y-116918190D01*
X89200000Y-116681810D01*
X89153884Y-116449973D01*
X89063426Y-116231587D01*
X88932101Y-116035045D01*
X88764955Y-115867899D01*
X88568413Y-115736574D01*
X88350027Y-115646116D01*
X88118190Y-115600000D01*
X87881810Y-115600000D01*
X87649973Y-115646116D01*
X87431587Y-115736574D01*
X87235045Y-115867899D01*
X87067899Y-116035045D01*
X86936574Y-116231587D01*
X86846116Y-116449973D01*
X86800000Y-116681810D01*
X85975000Y-116681810D01*
X85975000Y-111850000D01*
X86296855Y-111850000D01*
X86309405Y-111977422D01*
X86346573Y-112099948D01*
X86406930Y-112212868D01*
X86488157Y-112311843D01*
X86587132Y-112393070D01*
X86700052Y-112453427D01*
X86822578Y-112490595D01*
X86950000Y-112503145D01*
X87737500Y-112500000D01*
X87900000Y-112337500D01*
X87900000Y-110900000D01*
X88100000Y-110900000D01*
X88100000Y-112337500D01*
X88262500Y-112500000D01*
X89050000Y-112503145D01*
X89177422Y-112490595D01*
X89299948Y-112453427D01*
X89412868Y-112393070D01*
X89511843Y-112311843D01*
X89593070Y-112212868D01*
X89653427Y-112099948D01*
X89690595Y-111977422D01*
X89703145Y-111850000D01*
X89700000Y-111062500D01*
X89537500Y-110900000D01*
X88100000Y-110900000D01*
X87900000Y-110900000D01*
X86462500Y-110900000D01*
X86300000Y-111062500D01*
X86296855Y-111850000D01*
X85975000Y-111850000D01*
X85975000Y-109750000D01*
X86296855Y-109750000D01*
X86300000Y-110537500D01*
X86462500Y-110700000D01*
X87900000Y-110700000D01*
X87900000Y-109262500D01*
X88100000Y-109262500D01*
X88100000Y-110700000D01*
X89537500Y-110700000D01*
X89700000Y-110537500D01*
X89703145Y-109750000D01*
X89690595Y-109622578D01*
X89653427Y-109500052D01*
X89593070Y-109387132D01*
X89511843Y-109288157D01*
X89412868Y-109206930D01*
X89299948Y-109146573D01*
X89177422Y-109109405D01*
X89050000Y-109096855D01*
X88262500Y-109100000D01*
X88100000Y-109262500D01*
X87900000Y-109262500D01*
X87737500Y-109100000D01*
X86950000Y-109096855D01*
X86822578Y-109109405D01*
X86700052Y-109146573D01*
X86587132Y-109206930D01*
X86488157Y-109288157D01*
X86406930Y-109387132D01*
X86346573Y-109500052D01*
X86309405Y-109622578D01*
X86296855Y-109750000D01*
X85975000Y-109750000D01*
X85975000Y-90481810D01*
X86400000Y-90481810D01*
X86400000Y-90718190D01*
X86446116Y-90950027D01*
X86536574Y-91168413D01*
X86667899Y-91364955D01*
X86835045Y-91532101D01*
X87031587Y-91663426D01*
X87249973Y-91753884D01*
X87481810Y-91800000D01*
X87718190Y-91800000D01*
X87950027Y-91753884D01*
X88168413Y-91663426D01*
X88364955Y-91532101D01*
X88532101Y-91364955D01*
X88663426Y-91168413D01*
X88753884Y-90950027D01*
X88800000Y-90718190D01*
X88800000Y-90481810D01*
X88753884Y-90249973D01*
X88663426Y-90031587D01*
X88532101Y-89835045D01*
X88364955Y-89667899D01*
X88168413Y-89536574D01*
X87950027Y-89446116D01*
X87718190Y-89400000D01*
X87481810Y-89400000D01*
X87249973Y-89446116D01*
X87031587Y-89536574D01*
X86835045Y-89667899D01*
X86667899Y-89835045D01*
X86536574Y-90031587D01*
X86446116Y-90249973D01*
X86400000Y-90481810D01*
X85975000Y-90481810D01*
X85975000Y-87281810D01*
X86400000Y-87281810D01*
X86400000Y-87518190D01*
X86446116Y-87750027D01*
X86536574Y-87968413D01*
X86667899Y-88164955D01*
X86835045Y-88332101D01*
X87031587Y-88463426D01*
X87249973Y-88553884D01*
X87481810Y-88600000D01*
X87718190Y-88600000D01*
X87950027Y-88553884D01*
X88168413Y-88463426D01*
X88364955Y-88332101D01*
X88532101Y-88164955D01*
X88663426Y-87968413D01*
X88753884Y-87750027D01*
X88800000Y-87518190D01*
X88800000Y-87281810D01*
X88753884Y-87049973D01*
X88663426Y-86831587D01*
X88532101Y-86635045D01*
X88364955Y-86467899D01*
X88168413Y-86336574D01*
X87950027Y-86246116D01*
X87718190Y-86200000D01*
X87481810Y-86200000D01*
X87249973Y-86246116D01*
X87031587Y-86336574D01*
X86835045Y-86467899D01*
X86667899Y-86635045D01*
X86536574Y-86831587D01*
X86446116Y-87049973D01*
X86400000Y-87281810D01*
X85975000Y-87281810D01*
X85975000Y-81475000D01*
X97335050Y-81475000D01*
X96886985Y-81923065D01*
G37*
%TD.AperFunction*%
%TD*%
M02*
