%TF.GenerationSoftware,KiCad,Pcbnew,5.1.10*%
%TF.CreationDate,2022-04-01T14:25:25+02:00*%
%TF.ProjectId,keys,6b657973-2e6b-4696-9361-645f70636258,rev?*%
%TF.SameCoordinates,Original*%
%TF.FileFunction,Copper,L2,Bot*%
%TF.FilePolarity,Positive*%
%FSLAX46Y46*%
G04 Gerber Fmt 4.6, Leading zero omitted, Abs format (unit mm)*
G04 Created by KiCad (PCBNEW 5.1.10) date 2022-04-01 14:25:25*
%MOMM*%
%LPD*%
G01*
G04 APERTURE LIST*
%TA.AperFunction,Profile*%
%ADD10C,0.050000*%
%TD*%
%TA.AperFunction,ComponentPad*%
%ADD11C,3.000000*%
%TD*%
%TA.AperFunction,ComponentPad*%
%ADD12O,2.000000X2.800000*%
%TD*%
%TA.AperFunction,Conductor*%
%ADD13C,0.800000*%
%TD*%
%TA.AperFunction,Conductor*%
%ADD14C,0.500000*%
%TD*%
%TA.AperFunction,Conductor*%
%ADD15C,0.300000*%
%TD*%
%TA.AperFunction,Conductor*%
%ADD16C,0.200000*%
%TD*%
G04 APERTURE END LIST*
D10*
X80500000Y-76000000D02*
X124500000Y-76000000D01*
X80500000Y-124500000D02*
X80500000Y-76000000D01*
X124500000Y-124500000D02*
X80500000Y-124500000D01*
X124500000Y-76000000D02*
X124500000Y-124500000D01*
X113000000Y-119500000D02*
X109500000Y-119500000D01*
X113000000Y-113500000D02*
X113000000Y-119500000D01*
X119500000Y-113500000D02*
X113000000Y-113500000D01*
X85500000Y-81000000D02*
X85500000Y-102300000D01*
X119500000Y-81000000D02*
X85500000Y-81000000D01*
X119500000Y-85500000D02*
X119500000Y-81000000D01*
X119500000Y-113500000D02*
X119500000Y-85500000D01*
X85500000Y-119500000D02*
X109500000Y-119500000D01*
X85500000Y-102300000D02*
X85500000Y-119500000D01*
D11*
%TO.P,SW4,3*%
%TO.N,Net-(R4-Pad1)*%
X110600000Y-105000000D03*
%TO.P,SW4,4*%
%TO.N,GND*%
X115600000Y-105000000D03*
%TO.P,SW4,2*%
X115600000Y-100000000D03*
%TO.P,SW4,1*%
%TO.N,Net-(R4-Pad1)*%
X110600000Y-100000000D03*
%TD*%
%TO.P,SW3,3*%
%TO.N,Net-(R2-Pad1)*%
X100000000Y-115600000D03*
%TO.P,SW3,4*%
%TO.N,GND*%
X105000000Y-115600000D03*
%TO.P,SW3,2*%
X105000000Y-110600000D03*
%TO.P,SW3,1*%
%TO.N,Net-(R2-Pad1)*%
X100000000Y-110600000D03*
%TD*%
%TO.P,SW2,3*%
%TO.N,Net-(R1-Pad1)*%
X100000000Y-94400000D03*
%TO.P,SW2,4*%
%TO.N,GND*%
X105000000Y-94400000D03*
%TO.P,SW2,2*%
X105000000Y-89400000D03*
%TO.P,SW2,1*%
%TO.N,Net-(R1-Pad1)*%
X100000000Y-89400000D03*
%TD*%
%TO.P,SW1,3*%
%TO.N,Net-(R1-Pad2)*%
X89400000Y-105000000D03*
%TO.P,SW1,4*%
%TO.N,GND*%
X94400000Y-105000000D03*
%TO.P,SW1,2*%
X94400000Y-100000000D03*
%TO.P,SW1,1*%
%TO.N,Net-(R1-Pad2)*%
X89400000Y-100000000D03*
%TD*%
%TO.P,R5,2*%
%TO.N,Net-(R4-Pad1)*%
%TA.AperFunction,SMDPad,CuDef*%
G36*
G01*
X106700000Y-105250001D02*
X106700000Y-104349999D01*
G75*
G02*
X106949999Y-104100000I249999J0D01*
G01*
X107650001Y-104100000D01*
G75*
G02*
X107900000Y-104349999I0J-249999D01*
G01*
X107900000Y-105250001D01*
G75*
G02*
X107650001Y-105500000I-249999J0D01*
G01*
X106949999Y-105500000D01*
G75*
G02*
X106700000Y-105250001I0J249999D01*
G01*
G37*
%TD.AperFunction*%
%TO.P,R5,1*%
%TO.N,/LRADC*%
%TA.AperFunction,SMDPad,CuDef*%
G36*
G01*
X104700000Y-105250001D02*
X104700000Y-104349999D01*
G75*
G02*
X104949999Y-104100000I249999J0D01*
G01*
X105650001Y-104100000D01*
G75*
G02*
X105900000Y-104349999I0J-249999D01*
G01*
X105900000Y-105250001D01*
G75*
G02*
X105650001Y-105500000I-249999J0D01*
G01*
X104949999Y-105500000D01*
G75*
G02*
X104700000Y-105250001I0J249999D01*
G01*
G37*
%TD.AperFunction*%
%TD*%
%TO.P,R4,2*%
%TO.N,Net-(R3-Pad1)*%
%TA.AperFunction,SMDPad,CuDef*%
G36*
G01*
X105900000Y-99649999D02*
X105900000Y-100550001D01*
G75*
G02*
X105650001Y-100800000I-249999J0D01*
G01*
X104949999Y-100800000D01*
G75*
G02*
X104700000Y-100550001I0J249999D01*
G01*
X104700000Y-99649999D01*
G75*
G02*
X104949999Y-99400000I249999J0D01*
G01*
X105650001Y-99400000D01*
G75*
G02*
X105900000Y-99649999I0J-249999D01*
G01*
G37*
%TD.AperFunction*%
%TO.P,R4,1*%
%TO.N,Net-(R4-Pad1)*%
%TA.AperFunction,SMDPad,CuDef*%
G36*
G01*
X107900000Y-99649999D02*
X107900000Y-100550001D01*
G75*
G02*
X107650001Y-100800000I-249999J0D01*
G01*
X106949999Y-100800000D01*
G75*
G02*
X106700000Y-100550001I0J249999D01*
G01*
X106700000Y-99649999D01*
G75*
G02*
X106949999Y-99400000I249999J0D01*
G01*
X107650001Y-99400000D01*
G75*
G02*
X107900000Y-99649999I0J-249999D01*
G01*
G37*
%TD.AperFunction*%
%TD*%
%TO.P,R3,2*%
%TO.N,Net-(R2-Pad1)*%
%TA.AperFunction,SMDPad,CuDef*%
G36*
G01*
X100700000Y-105049999D02*
X100700000Y-105950001D01*
G75*
G02*
X100450001Y-106200000I-249999J0D01*
G01*
X99749999Y-106200000D01*
G75*
G02*
X99500000Y-105950001I0J249999D01*
G01*
X99500000Y-105049999D01*
G75*
G02*
X99749999Y-104800000I249999J0D01*
G01*
X100450001Y-104800000D01*
G75*
G02*
X100700000Y-105049999I0J-249999D01*
G01*
G37*
%TD.AperFunction*%
%TO.P,R3,1*%
%TO.N,Net-(R3-Pad1)*%
%TA.AperFunction,SMDPad,CuDef*%
G36*
G01*
X102700000Y-105049999D02*
X102700000Y-105950001D01*
G75*
G02*
X102450001Y-106200000I-249999J0D01*
G01*
X101749999Y-106200000D01*
G75*
G02*
X101500000Y-105950001I0J249999D01*
G01*
X101500000Y-105049999D01*
G75*
G02*
X101749999Y-104800000I249999J0D01*
G01*
X102450001Y-104800000D01*
G75*
G02*
X102700000Y-105049999I0J-249999D01*
G01*
G37*
%TD.AperFunction*%
%TD*%
%TO.P,R2,2*%
%TO.N,Net-(R1-Pad1)*%
%TA.AperFunction,SMDPad,CuDef*%
G36*
G01*
X101400000Y-103150001D02*
X101400000Y-102249999D01*
G75*
G02*
X101649999Y-102000000I249999J0D01*
G01*
X102350001Y-102000000D01*
G75*
G02*
X102600000Y-102249999I0J-249999D01*
G01*
X102600000Y-103150001D01*
G75*
G02*
X102350001Y-103400000I-249999J0D01*
G01*
X101649999Y-103400000D01*
G75*
G02*
X101400000Y-103150001I0J249999D01*
G01*
G37*
%TD.AperFunction*%
%TO.P,R2,1*%
%TO.N,Net-(R2-Pad1)*%
%TA.AperFunction,SMDPad,CuDef*%
G36*
G01*
X99400000Y-103150001D02*
X99400000Y-102249999D01*
G75*
G02*
X99649999Y-102000000I249999J0D01*
G01*
X100350001Y-102000000D01*
G75*
G02*
X100600000Y-102249999I0J-249999D01*
G01*
X100600000Y-103150001D01*
G75*
G02*
X100350001Y-103400000I-249999J0D01*
G01*
X99649999Y-103400000D01*
G75*
G02*
X99400000Y-103150001I0J249999D01*
G01*
G37*
%TD.AperFunction*%
%TD*%
%TO.P,R1,2*%
%TO.N,Net-(R1-Pad2)*%
%TA.AperFunction,SMDPad,CuDef*%
G36*
G01*
X98600000Y-99449999D02*
X98600000Y-100350001D01*
G75*
G02*
X98350001Y-100600000I-249999J0D01*
G01*
X97649999Y-100600000D01*
G75*
G02*
X97400000Y-100350001I0J249999D01*
G01*
X97400000Y-99449999D01*
G75*
G02*
X97649999Y-99200000I249999J0D01*
G01*
X98350001Y-99200000D01*
G75*
G02*
X98600000Y-99449999I0J-249999D01*
G01*
G37*
%TD.AperFunction*%
%TO.P,R1,1*%
%TO.N,Net-(R1-Pad1)*%
%TA.AperFunction,SMDPad,CuDef*%
G36*
G01*
X100600000Y-99449999D02*
X100600000Y-100350001D01*
G75*
G02*
X100350001Y-100600000I-249999J0D01*
G01*
X99649999Y-100600000D01*
G75*
G02*
X99400000Y-100350001I0J249999D01*
G01*
X99400000Y-99449999D01*
G75*
G02*
X99649999Y-99200000I249999J0D01*
G01*
X100350001Y-99200000D01*
G75*
G02*
X100600000Y-99449999I0J-249999D01*
G01*
G37*
%TD.AperFunction*%
%TD*%
%TO.P,J6,1*%
%TO.N,+3V3*%
%TA.AperFunction,ComponentPad*%
G36*
G01*
X110650000Y-87522400D02*
X110650000Y-86077600D01*
G75*
G02*
X110977600Y-85750000I327600J0D01*
G01*
X112422400Y-85750000D01*
G75*
G02*
X112750000Y-86077600I0J-327600D01*
G01*
X112750000Y-87522400D01*
G75*
G02*
X112422400Y-87850000I-327600J0D01*
G01*
X110977600Y-87850000D01*
G75*
G02*
X110650000Y-87522400I0J327600D01*
G01*
G37*
%TD.AperFunction*%
%TD*%
%TO.P,J5,1*%
%TO.N,/SCL*%
%TA.AperFunction,ComponentPad*%
G36*
G01*
X92877600Y-92550000D02*
X94322400Y-92550000D01*
G75*
G02*
X94650000Y-92877600I0J-327600D01*
G01*
X94650000Y-94322400D01*
G75*
G02*
X94322400Y-94650000I-327600J0D01*
G01*
X92877600Y-94650000D01*
G75*
G02*
X92550000Y-94322400I0J327600D01*
G01*
X92550000Y-92877600D01*
G75*
G02*
X92877600Y-92550000I327600J0D01*
G01*
G37*
%TD.AperFunction*%
%TD*%
%TO.P,J4,1*%
%TO.N,/SDA*%
%TA.AperFunction,ComponentPad*%
G36*
G01*
X92877600Y-89350000D02*
X94322400Y-89350000D01*
G75*
G02*
X94650000Y-89677600I0J-327600D01*
G01*
X94650000Y-91122400D01*
G75*
G02*
X94322400Y-91450000I-327600J0D01*
G01*
X92877600Y-91450000D01*
G75*
G02*
X92550000Y-91122400I0J327600D01*
G01*
X92550000Y-89677600D01*
G75*
G02*
X92877600Y-89350000I327600J0D01*
G01*
G37*
%TD.AperFunction*%
%TD*%
D12*
%TO.P,J3,1*%
%TO.N,+3V3*%
X108900000Y-83600000D03*
%TO.P,J3,2*%
%TO.N,GND*%
X106360000Y-83600000D03*
%TO.P,J3,3*%
%TO.N,/SCL*%
X103820000Y-83600000D03*
%TO.P,J3,4*%
%TO.N,/SDA*%
X101280000Y-83600000D03*
%TO.P,J3,5*%
%TO.N,+3V3*%
X98740000Y-83600000D03*
%TO.P,J3,6*%
X96200000Y-83600000D03*
%TD*%
%TO.P,J2,1*%
%TO.N,GND*%
%TA.AperFunction,ComponentPad*%
G36*
G01*
X93050000Y-111522400D02*
X93050000Y-110077600D01*
G75*
G02*
X93377600Y-109750000I327600J0D01*
G01*
X94822400Y-109750000D01*
G75*
G02*
X95150000Y-110077600I0J-327600D01*
G01*
X95150000Y-111522400D01*
G75*
G02*
X94822400Y-111850000I-327600J0D01*
G01*
X93377600Y-111850000D01*
G75*
G02*
X93050000Y-111522400I0J327600D01*
G01*
G37*
%TD.AperFunction*%
%TD*%
%TO.P,J1,1*%
%TO.N,/LRADC*%
%TA.AperFunction,ComponentPad*%
G36*
G01*
X109550000Y-111522400D02*
X109550000Y-110077600D01*
G75*
G02*
X109877600Y-109750000I327600J0D01*
G01*
X111322400Y-109750000D01*
G75*
G02*
X111650000Y-110077600I0J-327600D01*
G01*
X111650000Y-111522400D01*
G75*
G02*
X111322400Y-111850000I-327600J0D01*
G01*
X109877600Y-111850000D01*
G75*
G02*
X109550000Y-111522400I0J327600D01*
G01*
G37*
%TD.AperFunction*%
%TD*%
D13*
%TO.N,/LRADC*%
X105300000Y-105500000D02*
X110600000Y-110800000D01*
X105300000Y-104800000D02*
X105300000Y-105500000D01*
D14*
%TO.N,+3V3*%
X98740000Y-81660000D02*
X98750010Y-81649990D01*
X98740000Y-83600000D02*
X98740000Y-81660000D01*
D13*
X111700000Y-86400000D02*
X108900000Y-83600000D01*
X111700000Y-86800000D02*
X111700000Y-86400000D01*
D14*
X108900000Y-83547955D02*
X108900000Y-83600000D01*
X107002035Y-81649990D02*
X108900000Y-83547955D01*
X98750010Y-81649990D02*
X107002035Y-81649990D01*
X98150010Y-81649990D02*
X96200000Y-83600000D01*
X98750010Y-81649990D02*
X98150010Y-81649990D01*
D13*
%TO.N,/SDA*%
X101280000Y-83864177D02*
X99444177Y-85700000D01*
X101280000Y-83600000D02*
X101280000Y-83864177D01*
X99444177Y-85700000D02*
X94900000Y-85700000D01*
X93600000Y-87000000D02*
X93600000Y-90400000D01*
X94900000Y-85700000D02*
X93600000Y-87000000D01*
%TO.N,/SCL*%
X93600000Y-93298060D02*
X93600000Y-93600000D01*
X100884167Y-86800010D02*
X96799990Y-86800010D01*
X103820000Y-83864177D02*
X100884167Y-86800010D01*
X96799990Y-86800010D02*
X95400000Y-88200000D01*
X103820000Y-83600000D02*
X103820000Y-83864177D01*
X95400000Y-88200000D02*
X95400000Y-91498060D01*
X95400000Y-91498060D02*
X93600000Y-93298060D01*
%TO.N,Net-(R1-Pad2)*%
X91600001Y-97799999D02*
X89400000Y-100000000D01*
X95899999Y-97799999D02*
X91600001Y-97799999D01*
X98000000Y-99900000D02*
X95899999Y-97799999D01*
X89400000Y-100000000D02*
X89400000Y-105000000D01*
%TO.N,Net-(R1-Pad1)*%
X102000000Y-101900000D02*
X100000000Y-99900000D01*
X102000000Y-102700000D02*
X102000000Y-101900000D01*
X100000000Y-99900000D02*
X100000000Y-94400000D01*
X100000000Y-94400000D02*
X100000000Y-89400000D01*
%TO.N,Net-(R2-Pad1)*%
X100000000Y-115600000D02*
X100000000Y-110600000D01*
X100000000Y-105600000D02*
X100100000Y-105500000D01*
X100000000Y-110600000D02*
X100000000Y-105600000D01*
X100100000Y-102800000D02*
X100000000Y-102700000D01*
X100100000Y-105500000D02*
X100100000Y-102800000D01*
%TO.N,Net-(R3-Pad1)*%
X105300000Y-100100000D02*
X105300000Y-101600000D01*
X102100000Y-104800000D02*
X102100000Y-105500000D01*
X105300000Y-101600000D02*
X102100000Y-104800000D01*
%TO.N,Net-(R4-Pad1)*%
X110500000Y-100100000D02*
X110600000Y-100000000D01*
X107300000Y-100100000D02*
X110500000Y-100100000D01*
X110400000Y-104800000D02*
X110600000Y-105000000D01*
X107300000Y-104800000D02*
X110400000Y-104800000D01*
X110600000Y-105000000D02*
X110600000Y-100000000D01*
%TD*%
D15*
%TO.N,GND*%
X96886985Y-81923065D02*
X96757575Y-81853894D01*
X96484249Y-81770981D01*
X96200000Y-81742985D01*
X95915750Y-81770981D01*
X95642424Y-81853894D01*
X95390526Y-81988536D01*
X95169735Y-82169736D01*
X94988536Y-82390527D01*
X94853894Y-82642425D01*
X94770981Y-82915751D01*
X94750000Y-83128776D01*
X94750000Y-84071225D01*
X94770981Y-84284250D01*
X94853894Y-84557576D01*
X94988536Y-84809474D01*
X95021795Y-84850000D01*
X94941741Y-84850000D01*
X94900000Y-84845889D01*
X94858259Y-84850000D01*
X94858251Y-84850000D01*
X94733371Y-84862300D01*
X94573145Y-84910903D01*
X94425481Y-84989832D01*
X94328480Y-85069438D01*
X94328475Y-85069443D01*
X94296052Y-85096052D01*
X94269443Y-85128475D01*
X93028485Y-86369434D01*
X92996052Y-86396052D01*
X92889832Y-86525482D01*
X92810903Y-86673146D01*
X92762300Y-86833372D01*
X92750000Y-86958252D01*
X92750000Y-86958259D01*
X92745889Y-87000000D01*
X92750000Y-87041741D01*
X92750001Y-88910390D01*
X92725473Y-88912806D01*
X92579192Y-88957180D01*
X92444379Y-89029239D01*
X92326214Y-89126214D01*
X92229239Y-89244379D01*
X92157180Y-89379192D01*
X92112806Y-89525473D01*
X92097823Y-89677600D01*
X92097823Y-91122400D01*
X92112806Y-91274527D01*
X92157180Y-91420808D01*
X92229239Y-91555621D01*
X92326214Y-91673786D01*
X92444379Y-91770761D01*
X92579192Y-91842820D01*
X92725473Y-91887194D01*
X92877600Y-91902177D01*
X93793802Y-91902177D01*
X93598156Y-92097823D01*
X92877600Y-92097823D01*
X92725473Y-92112806D01*
X92579192Y-92157180D01*
X92444379Y-92229239D01*
X92326214Y-92326214D01*
X92229239Y-92444379D01*
X92157180Y-92579192D01*
X92112806Y-92725473D01*
X92097823Y-92877600D01*
X92097823Y-94322400D01*
X92112806Y-94474527D01*
X92157180Y-94620808D01*
X92229239Y-94755621D01*
X92326214Y-94873786D01*
X92444379Y-94970761D01*
X92579192Y-95042820D01*
X92725473Y-95087194D01*
X92877600Y-95102177D01*
X94322400Y-95102177D01*
X94474527Y-95087194D01*
X94620808Y-95042820D01*
X94755621Y-94970761D01*
X94873786Y-94873786D01*
X94970761Y-94755621D01*
X95042820Y-94620808D01*
X95087194Y-94474527D01*
X95102177Y-94322400D01*
X95102177Y-92997964D01*
X95971525Y-92128617D01*
X96003948Y-92102008D01*
X96030557Y-92069585D01*
X96030561Y-92069581D01*
X96110167Y-91972580D01*
X96110168Y-91972579D01*
X96189097Y-91824915D01*
X96237700Y-91664689D01*
X96250000Y-91539809D01*
X96250000Y-91539799D01*
X96254111Y-91498061D01*
X96250000Y-91456323D01*
X96250000Y-88552080D01*
X97152071Y-87650010D01*
X99129256Y-87650010D01*
X99076329Y-87671933D01*
X98756948Y-87885336D01*
X98485336Y-88156948D01*
X98271933Y-88476329D01*
X98124938Y-88831206D01*
X98050000Y-89207942D01*
X98050000Y-89592058D01*
X98124938Y-89968794D01*
X98271933Y-90323671D01*
X98485336Y-90643052D01*
X98756948Y-90914664D01*
X99076329Y-91128067D01*
X99150001Y-91158583D01*
X99150000Y-92641417D01*
X99076329Y-92671933D01*
X98756948Y-92885336D01*
X98485336Y-93156948D01*
X98271933Y-93476329D01*
X98124938Y-93831206D01*
X98050000Y-94207942D01*
X98050000Y-94592058D01*
X98124938Y-94968794D01*
X98271933Y-95323671D01*
X98485336Y-95643052D01*
X98756948Y-95914664D01*
X99076329Y-96128067D01*
X99150001Y-96158583D01*
X99150000Y-98957733D01*
X99066161Y-99059891D01*
X99001273Y-99181288D01*
X99000000Y-99185484D01*
X98998727Y-99181288D01*
X98933839Y-99059891D01*
X98846514Y-98953486D01*
X98740109Y-98866161D01*
X98618712Y-98801273D01*
X98486989Y-98761315D01*
X98350001Y-98747823D01*
X98049904Y-98747823D01*
X96530565Y-97228485D01*
X96503947Y-97196051D01*
X96374518Y-97089831D01*
X96226854Y-97010902D01*
X96066628Y-96962299D01*
X95941748Y-96949999D01*
X95941740Y-96949999D01*
X95899999Y-96945888D01*
X95858258Y-96949999D01*
X91641741Y-96949999D01*
X91600000Y-96945888D01*
X91558259Y-96949999D01*
X91558252Y-96949999D01*
X91449014Y-96960758D01*
X91433371Y-96962299D01*
X91273146Y-97010902D01*
X91125482Y-97089831D01*
X90996053Y-97196051D01*
X90969440Y-97228479D01*
X90042466Y-98155454D01*
X89968794Y-98124938D01*
X89592058Y-98050000D01*
X89207942Y-98050000D01*
X88831206Y-98124938D01*
X88476329Y-98271933D01*
X88156948Y-98485336D01*
X87885336Y-98756948D01*
X87671933Y-99076329D01*
X87524938Y-99431206D01*
X87450000Y-99807942D01*
X87450000Y-100192058D01*
X87524938Y-100568794D01*
X87671933Y-100923671D01*
X87885336Y-101243052D01*
X88156948Y-101514664D01*
X88476329Y-101728067D01*
X88550000Y-101758583D01*
X88550001Y-103241417D01*
X88476329Y-103271933D01*
X88156948Y-103485336D01*
X87885336Y-103756948D01*
X87671933Y-104076329D01*
X87524938Y-104431206D01*
X87450000Y-104807942D01*
X87450000Y-105192058D01*
X87524938Y-105568794D01*
X87671933Y-105923671D01*
X87885336Y-106243052D01*
X88156948Y-106514664D01*
X88476329Y-106728067D01*
X88831206Y-106875062D01*
X89207942Y-106950000D01*
X89592058Y-106950000D01*
X89968794Y-106875062D01*
X90323671Y-106728067D01*
X90643052Y-106514664D01*
X90676045Y-106481671D01*
X93059751Y-106481671D01*
X93212410Y-106804708D01*
X93587310Y-107001718D01*
X93993442Y-107121804D01*
X94415197Y-107160350D01*
X94836368Y-107115874D01*
X95240770Y-106990087D01*
X95587590Y-106804708D01*
X95740249Y-106481671D01*
X94400000Y-105141421D01*
X93059751Y-106481671D01*
X90676045Y-106481671D01*
X90914664Y-106243052D01*
X91128067Y-105923671D01*
X91275062Y-105568794D01*
X91350000Y-105192058D01*
X91350000Y-105015197D01*
X92239650Y-105015197D01*
X92284126Y-105436368D01*
X92409913Y-105840770D01*
X92595292Y-106187590D01*
X92918329Y-106340249D01*
X94258579Y-105000000D01*
X94541421Y-105000000D01*
X95881671Y-106340249D01*
X96204708Y-106187590D01*
X96401718Y-105812690D01*
X96521804Y-105406558D01*
X96560350Y-104984803D01*
X96515874Y-104563632D01*
X96390087Y-104159230D01*
X96204708Y-103812410D01*
X95881671Y-103659751D01*
X94541421Y-105000000D01*
X94258579Y-105000000D01*
X92918329Y-103659751D01*
X92595292Y-103812410D01*
X92398282Y-104187310D01*
X92278196Y-104593442D01*
X92239650Y-105015197D01*
X91350000Y-105015197D01*
X91350000Y-104807942D01*
X91275062Y-104431206D01*
X91128067Y-104076329D01*
X90914664Y-103756948D01*
X90676045Y-103518329D01*
X93059751Y-103518329D01*
X94400000Y-104858579D01*
X95740249Y-103518329D01*
X95587590Y-103195292D01*
X95212690Y-102998282D01*
X94806558Y-102878196D01*
X94384803Y-102839650D01*
X93963632Y-102884126D01*
X93559230Y-103009913D01*
X93212410Y-103195292D01*
X93059751Y-103518329D01*
X90676045Y-103518329D01*
X90643052Y-103485336D01*
X90323671Y-103271933D01*
X90250000Y-103241417D01*
X90250000Y-101758583D01*
X90323671Y-101728067D01*
X90643052Y-101514664D01*
X90676045Y-101481671D01*
X93059751Y-101481671D01*
X93212410Y-101804708D01*
X93587310Y-102001718D01*
X93993442Y-102121804D01*
X94415197Y-102160350D01*
X94836368Y-102115874D01*
X95240770Y-101990087D01*
X95587590Y-101804708D01*
X95740249Y-101481671D01*
X94400000Y-100141421D01*
X93059751Y-101481671D01*
X90676045Y-101481671D01*
X90914664Y-101243052D01*
X91128067Y-100923671D01*
X91275062Y-100568794D01*
X91350000Y-100192058D01*
X91350000Y-99807942D01*
X91275062Y-99431206D01*
X91244546Y-99357534D01*
X91952082Y-98649999D01*
X92908575Y-98649999D01*
X92918328Y-98659752D01*
X92595292Y-98812410D01*
X92398282Y-99187310D01*
X92278196Y-99593442D01*
X92239650Y-100015197D01*
X92284126Y-100436368D01*
X92409913Y-100840770D01*
X92595292Y-101187590D01*
X92918329Y-101340249D01*
X94258579Y-100000000D01*
X94244436Y-99985858D01*
X94385858Y-99844436D01*
X94400000Y-99858579D01*
X94414142Y-99844436D01*
X94555564Y-99985858D01*
X94541421Y-100000000D01*
X95881671Y-101340249D01*
X96204708Y-101187590D01*
X96401718Y-100812690D01*
X96521804Y-100406558D01*
X96560350Y-99984803D01*
X96522288Y-99624368D01*
X96947823Y-100049904D01*
X96947823Y-100350001D01*
X96961315Y-100486989D01*
X97001273Y-100618712D01*
X97066161Y-100740109D01*
X97153486Y-100846514D01*
X97259891Y-100933839D01*
X97381288Y-100998727D01*
X97513011Y-101038685D01*
X97649999Y-101052177D01*
X98350001Y-101052177D01*
X98486989Y-101038685D01*
X98618712Y-100998727D01*
X98740109Y-100933839D01*
X98846514Y-100846514D01*
X98933839Y-100740109D01*
X98998727Y-100618712D01*
X99000000Y-100614516D01*
X99001273Y-100618712D01*
X99066161Y-100740109D01*
X99153486Y-100846514D01*
X99259891Y-100933839D01*
X99381288Y-100998727D01*
X99513011Y-101038685D01*
X99649999Y-101052177D01*
X99950097Y-101052177D01*
X100456202Y-101558283D01*
X100350001Y-101547823D01*
X99649999Y-101547823D01*
X99513011Y-101561315D01*
X99381288Y-101601273D01*
X99259891Y-101666161D01*
X99153486Y-101753486D01*
X99066161Y-101859891D01*
X99001273Y-101981288D01*
X98961315Y-102113011D01*
X98947823Y-102249999D01*
X98947823Y-103150001D01*
X98961315Y-103286989D01*
X99001273Y-103418712D01*
X99066161Y-103540109D01*
X99153486Y-103646514D01*
X99250001Y-103725722D01*
X99250000Y-104557733D01*
X99166161Y-104659891D01*
X99101273Y-104781288D01*
X99061315Y-104913011D01*
X99047823Y-105049999D01*
X99047823Y-105950001D01*
X99061315Y-106086989D01*
X99101273Y-106218712D01*
X99150001Y-106309875D01*
X99150000Y-108841417D01*
X99076329Y-108871933D01*
X98756948Y-109085336D01*
X98485336Y-109356948D01*
X98271933Y-109676329D01*
X98124938Y-110031206D01*
X98050000Y-110407942D01*
X98050000Y-110792058D01*
X98124938Y-111168794D01*
X98271933Y-111523671D01*
X98485336Y-111843052D01*
X98756948Y-112114664D01*
X99076329Y-112328067D01*
X99150001Y-112358583D01*
X99150000Y-113841417D01*
X99076329Y-113871933D01*
X98756948Y-114085336D01*
X98485336Y-114356948D01*
X98271933Y-114676329D01*
X98124938Y-115031206D01*
X98050000Y-115407942D01*
X98050000Y-115792058D01*
X98124938Y-116168794D01*
X98271933Y-116523671D01*
X98485336Y-116843052D01*
X98756948Y-117114664D01*
X99076329Y-117328067D01*
X99431206Y-117475062D01*
X99807942Y-117550000D01*
X100192058Y-117550000D01*
X100568794Y-117475062D01*
X100923671Y-117328067D01*
X101243052Y-117114664D01*
X101276045Y-117081671D01*
X103659751Y-117081671D01*
X103812410Y-117404708D01*
X104187310Y-117601718D01*
X104593442Y-117721804D01*
X105015197Y-117760350D01*
X105436368Y-117715874D01*
X105840770Y-117590087D01*
X106187590Y-117404708D01*
X106340249Y-117081671D01*
X105000000Y-115741421D01*
X103659751Y-117081671D01*
X101276045Y-117081671D01*
X101514664Y-116843052D01*
X101728067Y-116523671D01*
X101875062Y-116168794D01*
X101950000Y-115792058D01*
X101950000Y-115615197D01*
X102839650Y-115615197D01*
X102884126Y-116036368D01*
X103009913Y-116440770D01*
X103195292Y-116787590D01*
X103518329Y-116940249D01*
X104858579Y-115600000D01*
X105141421Y-115600000D01*
X106481671Y-116940249D01*
X106804708Y-116787590D01*
X106860295Y-116681810D01*
X109400000Y-116681810D01*
X109400000Y-116918190D01*
X109446116Y-117150027D01*
X109536574Y-117368413D01*
X109667899Y-117564955D01*
X109835045Y-117732101D01*
X110031587Y-117863426D01*
X110249973Y-117953884D01*
X110481810Y-118000000D01*
X110718190Y-118000000D01*
X110950027Y-117953884D01*
X111168413Y-117863426D01*
X111364955Y-117732101D01*
X111532101Y-117564955D01*
X111663426Y-117368413D01*
X111753884Y-117150027D01*
X111800000Y-116918190D01*
X111800000Y-116681810D01*
X111753884Y-116449973D01*
X111663426Y-116231587D01*
X111532101Y-116035045D01*
X111364955Y-115867899D01*
X111168413Y-115736574D01*
X110950027Y-115646116D01*
X110718190Y-115600000D01*
X110481810Y-115600000D01*
X110249973Y-115646116D01*
X110031587Y-115736574D01*
X109835045Y-115867899D01*
X109667899Y-116035045D01*
X109536574Y-116231587D01*
X109446116Y-116449973D01*
X109400000Y-116681810D01*
X106860295Y-116681810D01*
X107001718Y-116412690D01*
X107121804Y-116006558D01*
X107160350Y-115584803D01*
X107115874Y-115163632D01*
X106990087Y-114759230D01*
X106804708Y-114412410D01*
X106481671Y-114259751D01*
X105141421Y-115600000D01*
X104858579Y-115600000D01*
X103518329Y-114259751D01*
X103195292Y-114412410D01*
X102998282Y-114787310D01*
X102878196Y-115193442D01*
X102839650Y-115615197D01*
X101950000Y-115615197D01*
X101950000Y-115407942D01*
X101875062Y-115031206D01*
X101728067Y-114676329D01*
X101514664Y-114356948D01*
X101276045Y-114118329D01*
X103659751Y-114118329D01*
X105000000Y-115458579D01*
X106340249Y-114118329D01*
X106187590Y-113795292D01*
X105812690Y-113598282D01*
X105406558Y-113478196D01*
X104984803Y-113439650D01*
X104563632Y-113484126D01*
X104159230Y-113609913D01*
X103812410Y-113795292D01*
X103659751Y-114118329D01*
X101276045Y-114118329D01*
X101243052Y-114085336D01*
X100923671Y-113871933D01*
X100850000Y-113841417D01*
X100850000Y-112358583D01*
X100923671Y-112328067D01*
X101243052Y-112114664D01*
X101276045Y-112081671D01*
X103659751Y-112081671D01*
X103812410Y-112404708D01*
X104187310Y-112601718D01*
X104593442Y-112721804D01*
X105015197Y-112760350D01*
X105436368Y-112715874D01*
X105840770Y-112590087D01*
X106187590Y-112404708D01*
X106340249Y-112081671D01*
X105000000Y-110741421D01*
X103659751Y-112081671D01*
X101276045Y-112081671D01*
X101514664Y-111843052D01*
X101728067Y-111523671D01*
X101875062Y-111168794D01*
X101950000Y-110792058D01*
X101950000Y-110615197D01*
X102839650Y-110615197D01*
X102884126Y-111036368D01*
X103009913Y-111440770D01*
X103195292Y-111787590D01*
X103518329Y-111940249D01*
X104858579Y-110600000D01*
X105141421Y-110600000D01*
X106481671Y-111940249D01*
X106804708Y-111787590D01*
X107001718Y-111412690D01*
X107121804Y-111006558D01*
X107160350Y-110584803D01*
X107115874Y-110163632D01*
X106990087Y-109759230D01*
X106804708Y-109412410D01*
X106481671Y-109259751D01*
X105141421Y-110600000D01*
X104858579Y-110600000D01*
X103518329Y-109259751D01*
X103195292Y-109412410D01*
X102998282Y-109787310D01*
X102878196Y-110193442D01*
X102839650Y-110615197D01*
X101950000Y-110615197D01*
X101950000Y-110407942D01*
X101875062Y-110031206D01*
X101728067Y-109676329D01*
X101514664Y-109356948D01*
X101276045Y-109118329D01*
X103659751Y-109118329D01*
X105000000Y-110458579D01*
X106340249Y-109118329D01*
X106187590Y-108795292D01*
X105812690Y-108598282D01*
X105406558Y-108478196D01*
X104984803Y-108439650D01*
X104563632Y-108484126D01*
X104159230Y-108609913D01*
X103812410Y-108795292D01*
X103659751Y-109118329D01*
X101276045Y-109118329D01*
X101243052Y-109085336D01*
X100923671Y-108871933D01*
X100850000Y-108841417D01*
X100850000Y-106525722D01*
X100946514Y-106446514D01*
X101033839Y-106340109D01*
X101098727Y-106218712D01*
X101100000Y-106214516D01*
X101101273Y-106218712D01*
X101166161Y-106340109D01*
X101253486Y-106446514D01*
X101359891Y-106533839D01*
X101481288Y-106598727D01*
X101613011Y-106638685D01*
X101749999Y-106652177D01*
X102450001Y-106652177D01*
X102586989Y-106638685D01*
X102718712Y-106598727D01*
X102840109Y-106533839D01*
X102946514Y-106446514D01*
X103033839Y-106340109D01*
X103098727Y-106218712D01*
X103138685Y-106086989D01*
X103152177Y-105950001D01*
X103152177Y-105049999D01*
X103143202Y-104958878D01*
X105871525Y-102230557D01*
X105903948Y-102203948D01*
X105930557Y-102171525D01*
X105930561Y-102171521D01*
X106010167Y-102074520D01*
X106012883Y-102069439D01*
X106089097Y-101926855D01*
X106137700Y-101766629D01*
X106150000Y-101641749D01*
X106150000Y-101641739D01*
X106154111Y-101600001D01*
X106150000Y-101558263D01*
X106150000Y-101042266D01*
X106233839Y-100940109D01*
X106298727Y-100818712D01*
X106300000Y-100814516D01*
X106301273Y-100818712D01*
X106366161Y-100940109D01*
X106453486Y-101046514D01*
X106559891Y-101133839D01*
X106681288Y-101198727D01*
X106813011Y-101238685D01*
X106949999Y-101252177D01*
X107650001Y-101252177D01*
X107786989Y-101238685D01*
X107918712Y-101198727D01*
X108040109Y-101133839D01*
X108146514Y-101046514D01*
X108225722Y-100950000D01*
X108889525Y-100950000D01*
X109085336Y-101243052D01*
X109356948Y-101514664D01*
X109676329Y-101728067D01*
X109750001Y-101758583D01*
X109750000Y-103241417D01*
X109676329Y-103271933D01*
X109356948Y-103485336D01*
X109085336Y-103756948D01*
X108956343Y-103950000D01*
X108225722Y-103950000D01*
X108146514Y-103853486D01*
X108040109Y-103766161D01*
X107918712Y-103701273D01*
X107786989Y-103661315D01*
X107650001Y-103647823D01*
X106949999Y-103647823D01*
X106813011Y-103661315D01*
X106681288Y-103701273D01*
X106559891Y-103766161D01*
X106453486Y-103853486D01*
X106366161Y-103959891D01*
X106301273Y-104081288D01*
X106300000Y-104085484D01*
X106298727Y-104081288D01*
X106233839Y-103959891D01*
X106146514Y-103853486D01*
X106040109Y-103766161D01*
X105918712Y-103701273D01*
X105786989Y-103661315D01*
X105650001Y-103647823D01*
X104949999Y-103647823D01*
X104813011Y-103661315D01*
X104681288Y-103701273D01*
X104559891Y-103766161D01*
X104453486Y-103853486D01*
X104366161Y-103959891D01*
X104301273Y-104081288D01*
X104261315Y-104213011D01*
X104247823Y-104349999D01*
X104247823Y-105250001D01*
X104261315Y-105386989D01*
X104301273Y-105518712D01*
X104366161Y-105640109D01*
X104453486Y-105746514D01*
X104497486Y-105782624D01*
X104510903Y-105826854D01*
X104525473Y-105854111D01*
X104589833Y-105974519D01*
X104696053Y-106103948D01*
X104728481Y-106130561D01*
X109097823Y-110499904D01*
X109097823Y-111522400D01*
X109112806Y-111674527D01*
X109157180Y-111820808D01*
X109229239Y-111955621D01*
X109326214Y-112073786D01*
X109444379Y-112170761D01*
X109579192Y-112242820D01*
X109725473Y-112287194D01*
X109877600Y-112302177D01*
X111322400Y-112302177D01*
X111474527Y-112287194D01*
X111620808Y-112242820D01*
X111755621Y-112170761D01*
X111873786Y-112073786D01*
X111970761Y-111955621D01*
X112042820Y-111820808D01*
X112087194Y-111674527D01*
X112102177Y-111522400D01*
X112102177Y-110077600D01*
X112087194Y-109925473D01*
X112042820Y-109779192D01*
X111970761Y-109644379D01*
X111873786Y-109526214D01*
X111755621Y-109429239D01*
X111620808Y-109357180D01*
X111474527Y-109312806D01*
X111322400Y-109297823D01*
X110299904Y-109297823D01*
X106954257Y-105952177D01*
X107650001Y-105952177D01*
X107786989Y-105938685D01*
X107918712Y-105898727D01*
X108040109Y-105833839D01*
X108146514Y-105746514D01*
X108225722Y-105650000D01*
X108758575Y-105650000D01*
X108871933Y-105923671D01*
X109085336Y-106243052D01*
X109356948Y-106514664D01*
X109676329Y-106728067D01*
X110031206Y-106875062D01*
X110407942Y-106950000D01*
X110792058Y-106950000D01*
X111168794Y-106875062D01*
X111523671Y-106728067D01*
X111843052Y-106514664D01*
X111876045Y-106481671D01*
X114259751Y-106481671D01*
X114412410Y-106804708D01*
X114787310Y-107001718D01*
X115193442Y-107121804D01*
X115615197Y-107160350D01*
X116036368Y-107115874D01*
X116440770Y-106990087D01*
X116787590Y-106804708D01*
X116940249Y-106481671D01*
X115600000Y-105141421D01*
X114259751Y-106481671D01*
X111876045Y-106481671D01*
X112114664Y-106243052D01*
X112328067Y-105923671D01*
X112475062Y-105568794D01*
X112550000Y-105192058D01*
X112550000Y-105015197D01*
X113439650Y-105015197D01*
X113484126Y-105436368D01*
X113609913Y-105840770D01*
X113795292Y-106187590D01*
X114118329Y-106340249D01*
X115458579Y-105000000D01*
X115741421Y-105000000D01*
X117081671Y-106340249D01*
X117404708Y-106187590D01*
X117601718Y-105812690D01*
X117721804Y-105406558D01*
X117760350Y-104984803D01*
X117715874Y-104563632D01*
X117590087Y-104159230D01*
X117404708Y-103812410D01*
X117081671Y-103659751D01*
X115741421Y-105000000D01*
X115458579Y-105000000D01*
X114118329Y-103659751D01*
X113795292Y-103812410D01*
X113598282Y-104187310D01*
X113478196Y-104593442D01*
X113439650Y-105015197D01*
X112550000Y-105015197D01*
X112550000Y-104807942D01*
X112475062Y-104431206D01*
X112328067Y-104076329D01*
X112114664Y-103756948D01*
X111876045Y-103518329D01*
X114259751Y-103518329D01*
X115600000Y-104858579D01*
X116940249Y-103518329D01*
X116787590Y-103195292D01*
X116412690Y-102998282D01*
X116006558Y-102878196D01*
X115584803Y-102839650D01*
X115163632Y-102884126D01*
X114759230Y-103009913D01*
X114412410Y-103195292D01*
X114259751Y-103518329D01*
X111876045Y-103518329D01*
X111843052Y-103485336D01*
X111523671Y-103271933D01*
X111450000Y-103241417D01*
X111450000Y-101758583D01*
X111523671Y-101728067D01*
X111843052Y-101514664D01*
X111876045Y-101481671D01*
X114259751Y-101481671D01*
X114412410Y-101804708D01*
X114787310Y-102001718D01*
X115193442Y-102121804D01*
X115615197Y-102160350D01*
X116036368Y-102115874D01*
X116440770Y-101990087D01*
X116787590Y-101804708D01*
X116940249Y-101481671D01*
X115600000Y-100141421D01*
X114259751Y-101481671D01*
X111876045Y-101481671D01*
X112114664Y-101243052D01*
X112328067Y-100923671D01*
X112475062Y-100568794D01*
X112550000Y-100192058D01*
X112550000Y-100015197D01*
X113439650Y-100015197D01*
X113484126Y-100436368D01*
X113609913Y-100840770D01*
X113795292Y-101187590D01*
X114118329Y-101340249D01*
X115458579Y-100000000D01*
X115741421Y-100000000D01*
X117081671Y-101340249D01*
X117404708Y-101187590D01*
X117601718Y-100812690D01*
X117721804Y-100406558D01*
X117760350Y-99984803D01*
X117715874Y-99563632D01*
X117590087Y-99159230D01*
X117404708Y-98812410D01*
X117081671Y-98659751D01*
X115741421Y-100000000D01*
X115458579Y-100000000D01*
X114118329Y-98659751D01*
X113795292Y-98812410D01*
X113598282Y-99187310D01*
X113478196Y-99593442D01*
X113439650Y-100015197D01*
X112550000Y-100015197D01*
X112550000Y-99807942D01*
X112475062Y-99431206D01*
X112328067Y-99076329D01*
X112114664Y-98756948D01*
X111876045Y-98518329D01*
X114259751Y-98518329D01*
X115600000Y-99858579D01*
X116940249Y-98518329D01*
X116787590Y-98195292D01*
X116412690Y-97998282D01*
X116006558Y-97878196D01*
X115584803Y-97839650D01*
X115163632Y-97884126D01*
X114759230Y-98009913D01*
X114412410Y-98195292D01*
X114259751Y-98518329D01*
X111876045Y-98518329D01*
X111843052Y-98485336D01*
X111523671Y-98271933D01*
X111168794Y-98124938D01*
X110792058Y-98050000D01*
X110407942Y-98050000D01*
X110031206Y-98124938D01*
X109676329Y-98271933D01*
X109356948Y-98485336D01*
X109085336Y-98756948D01*
X108871933Y-99076329D01*
X108799996Y-99250000D01*
X108225722Y-99250000D01*
X108146514Y-99153486D01*
X108040109Y-99066161D01*
X107918712Y-99001273D01*
X107786989Y-98961315D01*
X107650001Y-98947823D01*
X106949999Y-98947823D01*
X106813011Y-98961315D01*
X106681288Y-99001273D01*
X106559891Y-99066161D01*
X106453486Y-99153486D01*
X106366161Y-99259891D01*
X106301273Y-99381288D01*
X106300000Y-99385484D01*
X106298727Y-99381288D01*
X106233839Y-99259891D01*
X106146514Y-99153486D01*
X106040109Y-99066161D01*
X105918712Y-99001273D01*
X105786989Y-98961315D01*
X105650001Y-98947823D01*
X104949999Y-98947823D01*
X104813011Y-98961315D01*
X104681288Y-99001273D01*
X104559891Y-99066161D01*
X104453486Y-99153486D01*
X104366161Y-99259891D01*
X104301273Y-99381288D01*
X104261315Y-99513011D01*
X104247823Y-99649999D01*
X104247823Y-100550001D01*
X104261315Y-100686989D01*
X104301273Y-100818712D01*
X104366161Y-100940109D01*
X104450001Y-101042267D01*
X104450001Y-101247917D01*
X103052177Y-102645742D01*
X103052177Y-102249999D01*
X103038685Y-102113011D01*
X102998727Y-101981288D01*
X102933839Y-101859891D01*
X102846514Y-101753486D01*
X102839080Y-101747385D01*
X102837700Y-101733371D01*
X102817313Y-101666161D01*
X102789097Y-101573145D01*
X102775562Y-101547823D01*
X102710168Y-101425481D01*
X102603948Y-101296052D01*
X102571519Y-101269439D01*
X101052177Y-99750097D01*
X101052177Y-99449999D01*
X101038685Y-99313011D01*
X100998727Y-99181288D01*
X100933839Y-99059891D01*
X100850000Y-98957734D01*
X100850000Y-96158583D01*
X100923671Y-96128067D01*
X101243052Y-95914664D01*
X101276045Y-95881671D01*
X103659751Y-95881671D01*
X103812410Y-96204708D01*
X104187310Y-96401718D01*
X104593442Y-96521804D01*
X105015197Y-96560350D01*
X105436368Y-96515874D01*
X105840770Y-96390087D01*
X106187590Y-96204708D01*
X106340249Y-95881671D01*
X105000000Y-94541421D01*
X103659751Y-95881671D01*
X101276045Y-95881671D01*
X101514664Y-95643052D01*
X101728067Y-95323671D01*
X101875062Y-94968794D01*
X101950000Y-94592058D01*
X101950000Y-94415197D01*
X102839650Y-94415197D01*
X102884126Y-94836368D01*
X103009913Y-95240770D01*
X103195292Y-95587590D01*
X103518329Y-95740249D01*
X104858579Y-94400000D01*
X105141421Y-94400000D01*
X106481671Y-95740249D01*
X106804708Y-95587590D01*
X107001718Y-95212690D01*
X107121804Y-94806558D01*
X107160350Y-94384803D01*
X107115874Y-93963632D01*
X106990087Y-93559230D01*
X106804708Y-93212410D01*
X106481671Y-93059751D01*
X105141421Y-94400000D01*
X104858579Y-94400000D01*
X103518329Y-93059751D01*
X103195292Y-93212410D01*
X102998282Y-93587310D01*
X102878196Y-93993442D01*
X102839650Y-94415197D01*
X101950000Y-94415197D01*
X101950000Y-94207942D01*
X101875062Y-93831206D01*
X101728067Y-93476329D01*
X101514664Y-93156948D01*
X101276045Y-92918329D01*
X103659751Y-92918329D01*
X105000000Y-94258579D01*
X106340249Y-92918329D01*
X106228477Y-92681810D01*
X110500000Y-92681810D01*
X110500000Y-92918190D01*
X110546116Y-93150027D01*
X110636574Y-93368413D01*
X110767899Y-93564955D01*
X110935045Y-93732101D01*
X111131587Y-93863426D01*
X111349973Y-93953884D01*
X111581810Y-94000000D01*
X111818190Y-94000000D01*
X112050027Y-93953884D01*
X112268413Y-93863426D01*
X112464955Y-93732101D01*
X112632101Y-93564955D01*
X112763426Y-93368413D01*
X112853884Y-93150027D01*
X112900000Y-92918190D01*
X112900000Y-92681810D01*
X112853884Y-92449973D01*
X112763426Y-92231587D01*
X112632101Y-92035045D01*
X112464955Y-91867899D01*
X112268413Y-91736574D01*
X112050027Y-91646116D01*
X111818190Y-91600000D01*
X111581810Y-91600000D01*
X111349973Y-91646116D01*
X111131587Y-91736574D01*
X110935045Y-91867899D01*
X110767899Y-92035045D01*
X110636574Y-92231587D01*
X110546116Y-92449973D01*
X110500000Y-92681810D01*
X106228477Y-92681810D01*
X106187590Y-92595292D01*
X105812690Y-92398282D01*
X105406558Y-92278196D01*
X104984803Y-92239650D01*
X104563632Y-92284126D01*
X104159230Y-92409913D01*
X103812410Y-92595292D01*
X103659751Y-92918329D01*
X101276045Y-92918329D01*
X101243052Y-92885336D01*
X100923671Y-92671933D01*
X100850000Y-92641417D01*
X100850000Y-91158583D01*
X100923671Y-91128067D01*
X101243052Y-90914664D01*
X101276045Y-90881671D01*
X103659751Y-90881671D01*
X103812410Y-91204708D01*
X104187310Y-91401718D01*
X104593442Y-91521804D01*
X105015197Y-91560350D01*
X105436368Y-91515874D01*
X105840770Y-91390087D01*
X106187590Y-91204708D01*
X106340249Y-90881671D01*
X105000000Y-89541421D01*
X103659751Y-90881671D01*
X101276045Y-90881671D01*
X101514664Y-90643052D01*
X101728067Y-90323671D01*
X101875062Y-89968794D01*
X101950000Y-89592058D01*
X101950000Y-89415197D01*
X102839650Y-89415197D01*
X102884126Y-89836368D01*
X103009913Y-90240770D01*
X103195292Y-90587590D01*
X103518329Y-90740249D01*
X104858579Y-89400000D01*
X105141421Y-89400000D01*
X106481671Y-90740249D01*
X106804708Y-90587590D01*
X107001718Y-90212690D01*
X107121804Y-89806558D01*
X107160350Y-89384803D01*
X107115874Y-88963632D01*
X106990087Y-88559230D01*
X106804708Y-88212410D01*
X106481671Y-88059751D01*
X105141421Y-89400000D01*
X104858579Y-89400000D01*
X103518329Y-88059751D01*
X103195292Y-88212410D01*
X102998282Y-88587310D01*
X102878196Y-88993442D01*
X102839650Y-89415197D01*
X101950000Y-89415197D01*
X101950000Y-89207942D01*
X101875062Y-88831206D01*
X101728067Y-88476329D01*
X101514664Y-88156948D01*
X101276045Y-87918329D01*
X103659751Y-87918329D01*
X105000000Y-89258579D01*
X106340249Y-87918329D01*
X106187590Y-87595292D01*
X105812690Y-87398282D01*
X105406558Y-87278196D01*
X104984803Y-87239650D01*
X104563632Y-87284126D01*
X104159230Y-87409913D01*
X103812410Y-87595292D01*
X103659751Y-87918329D01*
X101276045Y-87918329D01*
X101243052Y-87885336D01*
X100923671Y-87671933D01*
X100879578Y-87653669D01*
X100884167Y-87654121D01*
X100925908Y-87650010D01*
X100925916Y-87650010D01*
X101050796Y-87637710D01*
X101211022Y-87589107D01*
X101358686Y-87510178D01*
X101488115Y-87403958D01*
X101514733Y-87371524D01*
X103475512Y-85410746D01*
X103535751Y-85429019D01*
X103820000Y-85457015D01*
X104104250Y-85429019D01*
X104377576Y-85346106D01*
X104629474Y-85211464D01*
X104850265Y-85030265D01*
X104971494Y-84882548D01*
X105043632Y-84999838D01*
X105263984Y-85237437D01*
X105526456Y-85427482D01*
X105820960Y-85562670D01*
X106003589Y-85611047D01*
X106260000Y-85484135D01*
X106260000Y-83700000D01*
X106240000Y-83700000D01*
X106240000Y-83500000D01*
X106260000Y-83500000D01*
X106260000Y-83480000D01*
X106460000Y-83480000D01*
X106460000Y-83500000D01*
X106480000Y-83500000D01*
X106480000Y-83700000D01*
X106460000Y-83700000D01*
X106460000Y-85484135D01*
X106716411Y-85611047D01*
X106899040Y-85562670D01*
X107193544Y-85427482D01*
X107456016Y-85237437D01*
X107676368Y-84999838D01*
X107748506Y-84882548D01*
X107869736Y-85030265D01*
X108090527Y-85211464D01*
X108342425Y-85346106D01*
X108615751Y-85429019D01*
X108900000Y-85457015D01*
X109184250Y-85429019D01*
X109447179Y-85349260D01*
X110197823Y-86099904D01*
X110197823Y-87522400D01*
X110212806Y-87674527D01*
X110257180Y-87820808D01*
X110329239Y-87955621D01*
X110426214Y-88073786D01*
X110544379Y-88170761D01*
X110679192Y-88242820D01*
X110825473Y-88287194D01*
X110977600Y-88302177D01*
X112422400Y-88302177D01*
X112574527Y-88287194D01*
X112720808Y-88242820D01*
X112855621Y-88170761D01*
X112973786Y-88073786D01*
X113070761Y-87955621D01*
X113142820Y-87820808D01*
X113187194Y-87674527D01*
X113202177Y-87522400D01*
X113202177Y-86077600D01*
X113187194Y-85925473D01*
X113142820Y-85779192D01*
X113070761Y-85644379D01*
X112973786Y-85526214D01*
X112855621Y-85429239D01*
X112720808Y-85357180D01*
X112574527Y-85312806D01*
X112422400Y-85297823D01*
X111799904Y-85297823D01*
X110350000Y-83847920D01*
X110350000Y-83128775D01*
X110329019Y-82915750D01*
X110246106Y-82642424D01*
X110111464Y-82390526D01*
X109930264Y-82169735D01*
X109709473Y-81988536D01*
X109457575Y-81853894D01*
X109184249Y-81770981D01*
X108900000Y-81742985D01*
X108615750Y-81770981D01*
X108342424Y-81853894D01*
X108246931Y-81904936D01*
X107816994Y-81475000D01*
X119025001Y-81475000D01*
X119025000Y-85523331D01*
X119025001Y-85523341D01*
X119025000Y-113025000D01*
X113023332Y-113025000D01*
X113000000Y-113022702D01*
X112976668Y-113025000D01*
X112906884Y-113031873D01*
X112817346Y-113059034D01*
X112734827Y-113103141D01*
X112662499Y-113162499D01*
X112603141Y-113234827D01*
X112559034Y-113317346D01*
X112531873Y-113406884D01*
X112522702Y-113500000D01*
X112525000Y-113523331D01*
X112525001Y-119025000D01*
X85975000Y-119025000D01*
X85975000Y-116681810D01*
X92900000Y-116681810D01*
X92900000Y-116918190D01*
X92946116Y-117150027D01*
X93036574Y-117368413D01*
X93167899Y-117564955D01*
X93335045Y-117732101D01*
X93531587Y-117863426D01*
X93749973Y-117953884D01*
X93981810Y-118000000D01*
X94218190Y-118000000D01*
X94450027Y-117953884D01*
X94668413Y-117863426D01*
X94864955Y-117732101D01*
X95032101Y-117564955D01*
X95163426Y-117368413D01*
X95253884Y-117150027D01*
X95300000Y-116918190D01*
X95300000Y-116681810D01*
X95253884Y-116449973D01*
X95163426Y-116231587D01*
X95032101Y-116035045D01*
X94864955Y-115867899D01*
X94668413Y-115736574D01*
X94450027Y-115646116D01*
X94218190Y-115600000D01*
X93981810Y-115600000D01*
X93749973Y-115646116D01*
X93531587Y-115736574D01*
X93335045Y-115867899D01*
X93167899Y-116035045D01*
X93036574Y-116231587D01*
X92946116Y-116449973D01*
X92900000Y-116681810D01*
X85975000Y-116681810D01*
X85975000Y-111850000D01*
X92396855Y-111850000D01*
X92409405Y-111977422D01*
X92446573Y-112099948D01*
X92506930Y-112212868D01*
X92588157Y-112311843D01*
X92687132Y-112393070D01*
X92800052Y-112453427D01*
X92922578Y-112490595D01*
X93050000Y-112503145D01*
X93837500Y-112500000D01*
X94000000Y-112337500D01*
X94000000Y-110900000D01*
X94200000Y-110900000D01*
X94200000Y-112337500D01*
X94362500Y-112500000D01*
X95150000Y-112503145D01*
X95277422Y-112490595D01*
X95399948Y-112453427D01*
X95512868Y-112393070D01*
X95611843Y-112311843D01*
X95693070Y-112212868D01*
X95753427Y-112099948D01*
X95790595Y-111977422D01*
X95803145Y-111850000D01*
X95800000Y-111062500D01*
X95637500Y-110900000D01*
X94200000Y-110900000D01*
X94000000Y-110900000D01*
X92562500Y-110900000D01*
X92400000Y-111062500D01*
X92396855Y-111850000D01*
X85975000Y-111850000D01*
X85975000Y-109750000D01*
X92396855Y-109750000D01*
X92400000Y-110537500D01*
X92562500Y-110700000D01*
X94000000Y-110700000D01*
X94000000Y-109262500D01*
X94200000Y-109262500D01*
X94200000Y-110700000D01*
X95637500Y-110700000D01*
X95800000Y-110537500D01*
X95803145Y-109750000D01*
X95790595Y-109622578D01*
X95753427Y-109500052D01*
X95693070Y-109387132D01*
X95611843Y-109288157D01*
X95512868Y-109206930D01*
X95399948Y-109146573D01*
X95277422Y-109109405D01*
X95150000Y-109096855D01*
X94362500Y-109100000D01*
X94200000Y-109262500D01*
X94000000Y-109262500D01*
X93837500Y-109100000D01*
X93050000Y-109096855D01*
X92922578Y-109109405D01*
X92800052Y-109146573D01*
X92687132Y-109206930D01*
X92588157Y-109288157D01*
X92506930Y-109387132D01*
X92446573Y-109500052D01*
X92409405Y-109622578D01*
X92396855Y-109750000D01*
X85975000Y-109750000D01*
X85975000Y-93481810D01*
X86400000Y-93481810D01*
X86400000Y-93718190D01*
X86446116Y-93950027D01*
X86536574Y-94168413D01*
X86667899Y-94364955D01*
X86835045Y-94532101D01*
X87031587Y-94663426D01*
X87249973Y-94753884D01*
X87481810Y-94800000D01*
X87718190Y-94800000D01*
X87950027Y-94753884D01*
X88168413Y-94663426D01*
X88364955Y-94532101D01*
X88532101Y-94364955D01*
X88663426Y-94168413D01*
X88753884Y-93950027D01*
X88800000Y-93718190D01*
X88800000Y-93481810D01*
X88753884Y-93249973D01*
X88663426Y-93031587D01*
X88532101Y-92835045D01*
X88364955Y-92667899D01*
X88168413Y-92536574D01*
X87950027Y-92446116D01*
X87718190Y-92400000D01*
X87481810Y-92400000D01*
X87249973Y-92446116D01*
X87031587Y-92536574D01*
X86835045Y-92667899D01*
X86667899Y-92835045D01*
X86536574Y-93031587D01*
X86446116Y-93249973D01*
X86400000Y-93481810D01*
X85975000Y-93481810D01*
X85975000Y-90281810D01*
X86400000Y-90281810D01*
X86400000Y-90518190D01*
X86446116Y-90750027D01*
X86536574Y-90968413D01*
X86667899Y-91164955D01*
X86835045Y-91332101D01*
X87031587Y-91463426D01*
X87249973Y-91553884D01*
X87481810Y-91600000D01*
X87718190Y-91600000D01*
X87950027Y-91553884D01*
X88168413Y-91463426D01*
X88364955Y-91332101D01*
X88532101Y-91164955D01*
X88663426Y-90968413D01*
X88753884Y-90750027D01*
X88800000Y-90518190D01*
X88800000Y-90281810D01*
X88753884Y-90049973D01*
X88663426Y-89831587D01*
X88532101Y-89635045D01*
X88364955Y-89467899D01*
X88168413Y-89336574D01*
X87950027Y-89246116D01*
X87718190Y-89200000D01*
X87481810Y-89200000D01*
X87249973Y-89246116D01*
X87031587Y-89336574D01*
X86835045Y-89467899D01*
X86667899Y-89635045D01*
X86536574Y-89831587D01*
X86446116Y-90049973D01*
X86400000Y-90281810D01*
X85975000Y-90281810D01*
X85975000Y-81475000D01*
X97335050Y-81475000D01*
X96886985Y-81923065D01*
%TA.AperFunction,Conductor*%
D16*
G36*
X96886985Y-81923065D02*
G01*
X96757575Y-81853894D01*
X96484249Y-81770981D01*
X96200000Y-81742985D01*
X95915750Y-81770981D01*
X95642424Y-81853894D01*
X95390526Y-81988536D01*
X95169735Y-82169736D01*
X94988536Y-82390527D01*
X94853894Y-82642425D01*
X94770981Y-82915751D01*
X94750000Y-83128776D01*
X94750000Y-84071225D01*
X94770981Y-84284250D01*
X94853894Y-84557576D01*
X94988536Y-84809474D01*
X95021795Y-84850000D01*
X94941741Y-84850000D01*
X94900000Y-84845889D01*
X94858259Y-84850000D01*
X94858251Y-84850000D01*
X94733371Y-84862300D01*
X94573145Y-84910903D01*
X94425481Y-84989832D01*
X94328480Y-85069438D01*
X94328475Y-85069443D01*
X94296052Y-85096052D01*
X94269443Y-85128475D01*
X93028485Y-86369434D01*
X92996052Y-86396052D01*
X92889832Y-86525482D01*
X92810903Y-86673146D01*
X92762300Y-86833372D01*
X92750000Y-86958252D01*
X92750000Y-86958259D01*
X92745889Y-87000000D01*
X92750000Y-87041741D01*
X92750001Y-88910390D01*
X92725473Y-88912806D01*
X92579192Y-88957180D01*
X92444379Y-89029239D01*
X92326214Y-89126214D01*
X92229239Y-89244379D01*
X92157180Y-89379192D01*
X92112806Y-89525473D01*
X92097823Y-89677600D01*
X92097823Y-91122400D01*
X92112806Y-91274527D01*
X92157180Y-91420808D01*
X92229239Y-91555621D01*
X92326214Y-91673786D01*
X92444379Y-91770761D01*
X92579192Y-91842820D01*
X92725473Y-91887194D01*
X92877600Y-91902177D01*
X93793802Y-91902177D01*
X93598156Y-92097823D01*
X92877600Y-92097823D01*
X92725473Y-92112806D01*
X92579192Y-92157180D01*
X92444379Y-92229239D01*
X92326214Y-92326214D01*
X92229239Y-92444379D01*
X92157180Y-92579192D01*
X92112806Y-92725473D01*
X92097823Y-92877600D01*
X92097823Y-94322400D01*
X92112806Y-94474527D01*
X92157180Y-94620808D01*
X92229239Y-94755621D01*
X92326214Y-94873786D01*
X92444379Y-94970761D01*
X92579192Y-95042820D01*
X92725473Y-95087194D01*
X92877600Y-95102177D01*
X94322400Y-95102177D01*
X94474527Y-95087194D01*
X94620808Y-95042820D01*
X94755621Y-94970761D01*
X94873786Y-94873786D01*
X94970761Y-94755621D01*
X95042820Y-94620808D01*
X95087194Y-94474527D01*
X95102177Y-94322400D01*
X95102177Y-92997964D01*
X95971525Y-92128617D01*
X96003948Y-92102008D01*
X96030557Y-92069585D01*
X96030561Y-92069581D01*
X96110167Y-91972580D01*
X96110168Y-91972579D01*
X96189097Y-91824915D01*
X96237700Y-91664689D01*
X96250000Y-91539809D01*
X96250000Y-91539799D01*
X96254111Y-91498061D01*
X96250000Y-91456323D01*
X96250000Y-88552080D01*
X97152071Y-87650010D01*
X99129256Y-87650010D01*
X99076329Y-87671933D01*
X98756948Y-87885336D01*
X98485336Y-88156948D01*
X98271933Y-88476329D01*
X98124938Y-88831206D01*
X98050000Y-89207942D01*
X98050000Y-89592058D01*
X98124938Y-89968794D01*
X98271933Y-90323671D01*
X98485336Y-90643052D01*
X98756948Y-90914664D01*
X99076329Y-91128067D01*
X99150001Y-91158583D01*
X99150000Y-92641417D01*
X99076329Y-92671933D01*
X98756948Y-92885336D01*
X98485336Y-93156948D01*
X98271933Y-93476329D01*
X98124938Y-93831206D01*
X98050000Y-94207942D01*
X98050000Y-94592058D01*
X98124938Y-94968794D01*
X98271933Y-95323671D01*
X98485336Y-95643052D01*
X98756948Y-95914664D01*
X99076329Y-96128067D01*
X99150001Y-96158583D01*
X99150000Y-98957733D01*
X99066161Y-99059891D01*
X99001273Y-99181288D01*
X99000000Y-99185484D01*
X98998727Y-99181288D01*
X98933839Y-99059891D01*
X98846514Y-98953486D01*
X98740109Y-98866161D01*
X98618712Y-98801273D01*
X98486989Y-98761315D01*
X98350001Y-98747823D01*
X98049904Y-98747823D01*
X96530565Y-97228485D01*
X96503947Y-97196051D01*
X96374518Y-97089831D01*
X96226854Y-97010902D01*
X96066628Y-96962299D01*
X95941748Y-96949999D01*
X95941740Y-96949999D01*
X95899999Y-96945888D01*
X95858258Y-96949999D01*
X91641741Y-96949999D01*
X91600000Y-96945888D01*
X91558259Y-96949999D01*
X91558252Y-96949999D01*
X91449014Y-96960758D01*
X91433371Y-96962299D01*
X91273146Y-97010902D01*
X91125482Y-97089831D01*
X90996053Y-97196051D01*
X90969440Y-97228479D01*
X90042466Y-98155454D01*
X89968794Y-98124938D01*
X89592058Y-98050000D01*
X89207942Y-98050000D01*
X88831206Y-98124938D01*
X88476329Y-98271933D01*
X88156948Y-98485336D01*
X87885336Y-98756948D01*
X87671933Y-99076329D01*
X87524938Y-99431206D01*
X87450000Y-99807942D01*
X87450000Y-100192058D01*
X87524938Y-100568794D01*
X87671933Y-100923671D01*
X87885336Y-101243052D01*
X88156948Y-101514664D01*
X88476329Y-101728067D01*
X88550000Y-101758583D01*
X88550001Y-103241417D01*
X88476329Y-103271933D01*
X88156948Y-103485336D01*
X87885336Y-103756948D01*
X87671933Y-104076329D01*
X87524938Y-104431206D01*
X87450000Y-104807942D01*
X87450000Y-105192058D01*
X87524938Y-105568794D01*
X87671933Y-105923671D01*
X87885336Y-106243052D01*
X88156948Y-106514664D01*
X88476329Y-106728067D01*
X88831206Y-106875062D01*
X89207942Y-106950000D01*
X89592058Y-106950000D01*
X89968794Y-106875062D01*
X90323671Y-106728067D01*
X90643052Y-106514664D01*
X90676045Y-106481671D01*
X93059751Y-106481671D01*
X93212410Y-106804708D01*
X93587310Y-107001718D01*
X93993442Y-107121804D01*
X94415197Y-107160350D01*
X94836368Y-107115874D01*
X95240770Y-106990087D01*
X95587590Y-106804708D01*
X95740249Y-106481671D01*
X94400000Y-105141421D01*
X93059751Y-106481671D01*
X90676045Y-106481671D01*
X90914664Y-106243052D01*
X91128067Y-105923671D01*
X91275062Y-105568794D01*
X91350000Y-105192058D01*
X91350000Y-105015197D01*
X92239650Y-105015197D01*
X92284126Y-105436368D01*
X92409913Y-105840770D01*
X92595292Y-106187590D01*
X92918329Y-106340249D01*
X94258579Y-105000000D01*
X94541421Y-105000000D01*
X95881671Y-106340249D01*
X96204708Y-106187590D01*
X96401718Y-105812690D01*
X96521804Y-105406558D01*
X96560350Y-104984803D01*
X96515874Y-104563632D01*
X96390087Y-104159230D01*
X96204708Y-103812410D01*
X95881671Y-103659751D01*
X94541421Y-105000000D01*
X94258579Y-105000000D01*
X92918329Y-103659751D01*
X92595292Y-103812410D01*
X92398282Y-104187310D01*
X92278196Y-104593442D01*
X92239650Y-105015197D01*
X91350000Y-105015197D01*
X91350000Y-104807942D01*
X91275062Y-104431206D01*
X91128067Y-104076329D01*
X90914664Y-103756948D01*
X90676045Y-103518329D01*
X93059751Y-103518329D01*
X94400000Y-104858579D01*
X95740249Y-103518329D01*
X95587590Y-103195292D01*
X95212690Y-102998282D01*
X94806558Y-102878196D01*
X94384803Y-102839650D01*
X93963632Y-102884126D01*
X93559230Y-103009913D01*
X93212410Y-103195292D01*
X93059751Y-103518329D01*
X90676045Y-103518329D01*
X90643052Y-103485336D01*
X90323671Y-103271933D01*
X90250000Y-103241417D01*
X90250000Y-101758583D01*
X90323671Y-101728067D01*
X90643052Y-101514664D01*
X90676045Y-101481671D01*
X93059751Y-101481671D01*
X93212410Y-101804708D01*
X93587310Y-102001718D01*
X93993442Y-102121804D01*
X94415197Y-102160350D01*
X94836368Y-102115874D01*
X95240770Y-101990087D01*
X95587590Y-101804708D01*
X95740249Y-101481671D01*
X94400000Y-100141421D01*
X93059751Y-101481671D01*
X90676045Y-101481671D01*
X90914664Y-101243052D01*
X91128067Y-100923671D01*
X91275062Y-100568794D01*
X91350000Y-100192058D01*
X91350000Y-99807942D01*
X91275062Y-99431206D01*
X91244546Y-99357534D01*
X91952082Y-98649999D01*
X92908575Y-98649999D01*
X92918328Y-98659752D01*
X92595292Y-98812410D01*
X92398282Y-99187310D01*
X92278196Y-99593442D01*
X92239650Y-100015197D01*
X92284126Y-100436368D01*
X92409913Y-100840770D01*
X92595292Y-101187590D01*
X92918329Y-101340249D01*
X94258579Y-100000000D01*
X94244436Y-99985858D01*
X94385858Y-99844436D01*
X94400000Y-99858579D01*
X94414142Y-99844436D01*
X94555564Y-99985858D01*
X94541421Y-100000000D01*
X95881671Y-101340249D01*
X96204708Y-101187590D01*
X96401718Y-100812690D01*
X96521804Y-100406558D01*
X96560350Y-99984803D01*
X96522288Y-99624368D01*
X96947823Y-100049904D01*
X96947823Y-100350001D01*
X96961315Y-100486989D01*
X97001273Y-100618712D01*
X97066161Y-100740109D01*
X97153486Y-100846514D01*
X97259891Y-100933839D01*
X97381288Y-100998727D01*
X97513011Y-101038685D01*
X97649999Y-101052177D01*
X98350001Y-101052177D01*
X98486989Y-101038685D01*
X98618712Y-100998727D01*
X98740109Y-100933839D01*
X98846514Y-100846514D01*
X98933839Y-100740109D01*
X98998727Y-100618712D01*
X99000000Y-100614516D01*
X99001273Y-100618712D01*
X99066161Y-100740109D01*
X99153486Y-100846514D01*
X99259891Y-100933839D01*
X99381288Y-100998727D01*
X99513011Y-101038685D01*
X99649999Y-101052177D01*
X99950097Y-101052177D01*
X100456202Y-101558283D01*
X100350001Y-101547823D01*
X99649999Y-101547823D01*
X99513011Y-101561315D01*
X99381288Y-101601273D01*
X99259891Y-101666161D01*
X99153486Y-101753486D01*
X99066161Y-101859891D01*
X99001273Y-101981288D01*
X98961315Y-102113011D01*
X98947823Y-102249999D01*
X98947823Y-103150001D01*
X98961315Y-103286989D01*
X99001273Y-103418712D01*
X99066161Y-103540109D01*
X99153486Y-103646514D01*
X99250001Y-103725722D01*
X99250000Y-104557733D01*
X99166161Y-104659891D01*
X99101273Y-104781288D01*
X99061315Y-104913011D01*
X99047823Y-105049999D01*
X99047823Y-105950001D01*
X99061315Y-106086989D01*
X99101273Y-106218712D01*
X99150001Y-106309875D01*
X99150000Y-108841417D01*
X99076329Y-108871933D01*
X98756948Y-109085336D01*
X98485336Y-109356948D01*
X98271933Y-109676329D01*
X98124938Y-110031206D01*
X98050000Y-110407942D01*
X98050000Y-110792058D01*
X98124938Y-111168794D01*
X98271933Y-111523671D01*
X98485336Y-111843052D01*
X98756948Y-112114664D01*
X99076329Y-112328067D01*
X99150001Y-112358583D01*
X99150000Y-113841417D01*
X99076329Y-113871933D01*
X98756948Y-114085336D01*
X98485336Y-114356948D01*
X98271933Y-114676329D01*
X98124938Y-115031206D01*
X98050000Y-115407942D01*
X98050000Y-115792058D01*
X98124938Y-116168794D01*
X98271933Y-116523671D01*
X98485336Y-116843052D01*
X98756948Y-117114664D01*
X99076329Y-117328067D01*
X99431206Y-117475062D01*
X99807942Y-117550000D01*
X100192058Y-117550000D01*
X100568794Y-117475062D01*
X100923671Y-117328067D01*
X101243052Y-117114664D01*
X101276045Y-117081671D01*
X103659751Y-117081671D01*
X103812410Y-117404708D01*
X104187310Y-117601718D01*
X104593442Y-117721804D01*
X105015197Y-117760350D01*
X105436368Y-117715874D01*
X105840770Y-117590087D01*
X106187590Y-117404708D01*
X106340249Y-117081671D01*
X105000000Y-115741421D01*
X103659751Y-117081671D01*
X101276045Y-117081671D01*
X101514664Y-116843052D01*
X101728067Y-116523671D01*
X101875062Y-116168794D01*
X101950000Y-115792058D01*
X101950000Y-115615197D01*
X102839650Y-115615197D01*
X102884126Y-116036368D01*
X103009913Y-116440770D01*
X103195292Y-116787590D01*
X103518329Y-116940249D01*
X104858579Y-115600000D01*
X105141421Y-115600000D01*
X106481671Y-116940249D01*
X106804708Y-116787590D01*
X106860295Y-116681810D01*
X109400000Y-116681810D01*
X109400000Y-116918190D01*
X109446116Y-117150027D01*
X109536574Y-117368413D01*
X109667899Y-117564955D01*
X109835045Y-117732101D01*
X110031587Y-117863426D01*
X110249973Y-117953884D01*
X110481810Y-118000000D01*
X110718190Y-118000000D01*
X110950027Y-117953884D01*
X111168413Y-117863426D01*
X111364955Y-117732101D01*
X111532101Y-117564955D01*
X111663426Y-117368413D01*
X111753884Y-117150027D01*
X111800000Y-116918190D01*
X111800000Y-116681810D01*
X111753884Y-116449973D01*
X111663426Y-116231587D01*
X111532101Y-116035045D01*
X111364955Y-115867899D01*
X111168413Y-115736574D01*
X110950027Y-115646116D01*
X110718190Y-115600000D01*
X110481810Y-115600000D01*
X110249973Y-115646116D01*
X110031587Y-115736574D01*
X109835045Y-115867899D01*
X109667899Y-116035045D01*
X109536574Y-116231587D01*
X109446116Y-116449973D01*
X109400000Y-116681810D01*
X106860295Y-116681810D01*
X107001718Y-116412690D01*
X107121804Y-116006558D01*
X107160350Y-115584803D01*
X107115874Y-115163632D01*
X106990087Y-114759230D01*
X106804708Y-114412410D01*
X106481671Y-114259751D01*
X105141421Y-115600000D01*
X104858579Y-115600000D01*
X103518329Y-114259751D01*
X103195292Y-114412410D01*
X102998282Y-114787310D01*
X102878196Y-115193442D01*
X102839650Y-115615197D01*
X101950000Y-115615197D01*
X101950000Y-115407942D01*
X101875062Y-115031206D01*
X101728067Y-114676329D01*
X101514664Y-114356948D01*
X101276045Y-114118329D01*
X103659751Y-114118329D01*
X105000000Y-115458579D01*
X106340249Y-114118329D01*
X106187590Y-113795292D01*
X105812690Y-113598282D01*
X105406558Y-113478196D01*
X104984803Y-113439650D01*
X104563632Y-113484126D01*
X104159230Y-113609913D01*
X103812410Y-113795292D01*
X103659751Y-114118329D01*
X101276045Y-114118329D01*
X101243052Y-114085336D01*
X100923671Y-113871933D01*
X100850000Y-113841417D01*
X100850000Y-112358583D01*
X100923671Y-112328067D01*
X101243052Y-112114664D01*
X101276045Y-112081671D01*
X103659751Y-112081671D01*
X103812410Y-112404708D01*
X104187310Y-112601718D01*
X104593442Y-112721804D01*
X105015197Y-112760350D01*
X105436368Y-112715874D01*
X105840770Y-112590087D01*
X106187590Y-112404708D01*
X106340249Y-112081671D01*
X105000000Y-110741421D01*
X103659751Y-112081671D01*
X101276045Y-112081671D01*
X101514664Y-111843052D01*
X101728067Y-111523671D01*
X101875062Y-111168794D01*
X101950000Y-110792058D01*
X101950000Y-110615197D01*
X102839650Y-110615197D01*
X102884126Y-111036368D01*
X103009913Y-111440770D01*
X103195292Y-111787590D01*
X103518329Y-111940249D01*
X104858579Y-110600000D01*
X105141421Y-110600000D01*
X106481671Y-111940249D01*
X106804708Y-111787590D01*
X107001718Y-111412690D01*
X107121804Y-111006558D01*
X107160350Y-110584803D01*
X107115874Y-110163632D01*
X106990087Y-109759230D01*
X106804708Y-109412410D01*
X106481671Y-109259751D01*
X105141421Y-110600000D01*
X104858579Y-110600000D01*
X103518329Y-109259751D01*
X103195292Y-109412410D01*
X102998282Y-109787310D01*
X102878196Y-110193442D01*
X102839650Y-110615197D01*
X101950000Y-110615197D01*
X101950000Y-110407942D01*
X101875062Y-110031206D01*
X101728067Y-109676329D01*
X101514664Y-109356948D01*
X101276045Y-109118329D01*
X103659751Y-109118329D01*
X105000000Y-110458579D01*
X106340249Y-109118329D01*
X106187590Y-108795292D01*
X105812690Y-108598282D01*
X105406558Y-108478196D01*
X104984803Y-108439650D01*
X104563632Y-108484126D01*
X104159230Y-108609913D01*
X103812410Y-108795292D01*
X103659751Y-109118329D01*
X101276045Y-109118329D01*
X101243052Y-109085336D01*
X100923671Y-108871933D01*
X100850000Y-108841417D01*
X100850000Y-106525722D01*
X100946514Y-106446514D01*
X101033839Y-106340109D01*
X101098727Y-106218712D01*
X101100000Y-106214516D01*
X101101273Y-106218712D01*
X101166161Y-106340109D01*
X101253486Y-106446514D01*
X101359891Y-106533839D01*
X101481288Y-106598727D01*
X101613011Y-106638685D01*
X101749999Y-106652177D01*
X102450001Y-106652177D01*
X102586989Y-106638685D01*
X102718712Y-106598727D01*
X102840109Y-106533839D01*
X102946514Y-106446514D01*
X103033839Y-106340109D01*
X103098727Y-106218712D01*
X103138685Y-106086989D01*
X103152177Y-105950001D01*
X103152177Y-105049999D01*
X103143202Y-104958878D01*
X105871525Y-102230557D01*
X105903948Y-102203948D01*
X105930557Y-102171525D01*
X105930561Y-102171521D01*
X106010167Y-102074520D01*
X106012883Y-102069439D01*
X106089097Y-101926855D01*
X106137700Y-101766629D01*
X106150000Y-101641749D01*
X106150000Y-101641739D01*
X106154111Y-101600001D01*
X106150000Y-101558263D01*
X106150000Y-101042266D01*
X106233839Y-100940109D01*
X106298727Y-100818712D01*
X106300000Y-100814516D01*
X106301273Y-100818712D01*
X106366161Y-100940109D01*
X106453486Y-101046514D01*
X106559891Y-101133839D01*
X106681288Y-101198727D01*
X106813011Y-101238685D01*
X106949999Y-101252177D01*
X107650001Y-101252177D01*
X107786989Y-101238685D01*
X107918712Y-101198727D01*
X108040109Y-101133839D01*
X108146514Y-101046514D01*
X108225722Y-100950000D01*
X108889525Y-100950000D01*
X109085336Y-101243052D01*
X109356948Y-101514664D01*
X109676329Y-101728067D01*
X109750001Y-101758583D01*
X109750000Y-103241417D01*
X109676329Y-103271933D01*
X109356948Y-103485336D01*
X109085336Y-103756948D01*
X108956343Y-103950000D01*
X108225722Y-103950000D01*
X108146514Y-103853486D01*
X108040109Y-103766161D01*
X107918712Y-103701273D01*
X107786989Y-103661315D01*
X107650001Y-103647823D01*
X106949999Y-103647823D01*
X106813011Y-103661315D01*
X106681288Y-103701273D01*
X106559891Y-103766161D01*
X106453486Y-103853486D01*
X106366161Y-103959891D01*
X106301273Y-104081288D01*
X106300000Y-104085484D01*
X106298727Y-104081288D01*
X106233839Y-103959891D01*
X106146514Y-103853486D01*
X106040109Y-103766161D01*
X105918712Y-103701273D01*
X105786989Y-103661315D01*
X105650001Y-103647823D01*
X104949999Y-103647823D01*
X104813011Y-103661315D01*
X104681288Y-103701273D01*
X104559891Y-103766161D01*
X104453486Y-103853486D01*
X104366161Y-103959891D01*
X104301273Y-104081288D01*
X104261315Y-104213011D01*
X104247823Y-104349999D01*
X104247823Y-105250001D01*
X104261315Y-105386989D01*
X104301273Y-105518712D01*
X104366161Y-105640109D01*
X104453486Y-105746514D01*
X104497486Y-105782624D01*
X104510903Y-105826854D01*
X104525473Y-105854111D01*
X104589833Y-105974519D01*
X104696053Y-106103948D01*
X104728481Y-106130561D01*
X109097823Y-110499904D01*
X109097823Y-111522400D01*
X109112806Y-111674527D01*
X109157180Y-111820808D01*
X109229239Y-111955621D01*
X109326214Y-112073786D01*
X109444379Y-112170761D01*
X109579192Y-112242820D01*
X109725473Y-112287194D01*
X109877600Y-112302177D01*
X111322400Y-112302177D01*
X111474527Y-112287194D01*
X111620808Y-112242820D01*
X111755621Y-112170761D01*
X111873786Y-112073786D01*
X111970761Y-111955621D01*
X112042820Y-111820808D01*
X112087194Y-111674527D01*
X112102177Y-111522400D01*
X112102177Y-110077600D01*
X112087194Y-109925473D01*
X112042820Y-109779192D01*
X111970761Y-109644379D01*
X111873786Y-109526214D01*
X111755621Y-109429239D01*
X111620808Y-109357180D01*
X111474527Y-109312806D01*
X111322400Y-109297823D01*
X110299904Y-109297823D01*
X106954257Y-105952177D01*
X107650001Y-105952177D01*
X107786989Y-105938685D01*
X107918712Y-105898727D01*
X108040109Y-105833839D01*
X108146514Y-105746514D01*
X108225722Y-105650000D01*
X108758575Y-105650000D01*
X108871933Y-105923671D01*
X109085336Y-106243052D01*
X109356948Y-106514664D01*
X109676329Y-106728067D01*
X110031206Y-106875062D01*
X110407942Y-106950000D01*
X110792058Y-106950000D01*
X111168794Y-106875062D01*
X111523671Y-106728067D01*
X111843052Y-106514664D01*
X111876045Y-106481671D01*
X114259751Y-106481671D01*
X114412410Y-106804708D01*
X114787310Y-107001718D01*
X115193442Y-107121804D01*
X115615197Y-107160350D01*
X116036368Y-107115874D01*
X116440770Y-106990087D01*
X116787590Y-106804708D01*
X116940249Y-106481671D01*
X115600000Y-105141421D01*
X114259751Y-106481671D01*
X111876045Y-106481671D01*
X112114664Y-106243052D01*
X112328067Y-105923671D01*
X112475062Y-105568794D01*
X112550000Y-105192058D01*
X112550000Y-105015197D01*
X113439650Y-105015197D01*
X113484126Y-105436368D01*
X113609913Y-105840770D01*
X113795292Y-106187590D01*
X114118329Y-106340249D01*
X115458579Y-105000000D01*
X115741421Y-105000000D01*
X117081671Y-106340249D01*
X117404708Y-106187590D01*
X117601718Y-105812690D01*
X117721804Y-105406558D01*
X117760350Y-104984803D01*
X117715874Y-104563632D01*
X117590087Y-104159230D01*
X117404708Y-103812410D01*
X117081671Y-103659751D01*
X115741421Y-105000000D01*
X115458579Y-105000000D01*
X114118329Y-103659751D01*
X113795292Y-103812410D01*
X113598282Y-104187310D01*
X113478196Y-104593442D01*
X113439650Y-105015197D01*
X112550000Y-105015197D01*
X112550000Y-104807942D01*
X112475062Y-104431206D01*
X112328067Y-104076329D01*
X112114664Y-103756948D01*
X111876045Y-103518329D01*
X114259751Y-103518329D01*
X115600000Y-104858579D01*
X116940249Y-103518329D01*
X116787590Y-103195292D01*
X116412690Y-102998282D01*
X116006558Y-102878196D01*
X115584803Y-102839650D01*
X115163632Y-102884126D01*
X114759230Y-103009913D01*
X114412410Y-103195292D01*
X114259751Y-103518329D01*
X111876045Y-103518329D01*
X111843052Y-103485336D01*
X111523671Y-103271933D01*
X111450000Y-103241417D01*
X111450000Y-101758583D01*
X111523671Y-101728067D01*
X111843052Y-101514664D01*
X111876045Y-101481671D01*
X114259751Y-101481671D01*
X114412410Y-101804708D01*
X114787310Y-102001718D01*
X115193442Y-102121804D01*
X115615197Y-102160350D01*
X116036368Y-102115874D01*
X116440770Y-101990087D01*
X116787590Y-101804708D01*
X116940249Y-101481671D01*
X115600000Y-100141421D01*
X114259751Y-101481671D01*
X111876045Y-101481671D01*
X112114664Y-101243052D01*
X112328067Y-100923671D01*
X112475062Y-100568794D01*
X112550000Y-100192058D01*
X112550000Y-100015197D01*
X113439650Y-100015197D01*
X113484126Y-100436368D01*
X113609913Y-100840770D01*
X113795292Y-101187590D01*
X114118329Y-101340249D01*
X115458579Y-100000000D01*
X115741421Y-100000000D01*
X117081671Y-101340249D01*
X117404708Y-101187590D01*
X117601718Y-100812690D01*
X117721804Y-100406558D01*
X117760350Y-99984803D01*
X117715874Y-99563632D01*
X117590087Y-99159230D01*
X117404708Y-98812410D01*
X117081671Y-98659751D01*
X115741421Y-100000000D01*
X115458579Y-100000000D01*
X114118329Y-98659751D01*
X113795292Y-98812410D01*
X113598282Y-99187310D01*
X113478196Y-99593442D01*
X113439650Y-100015197D01*
X112550000Y-100015197D01*
X112550000Y-99807942D01*
X112475062Y-99431206D01*
X112328067Y-99076329D01*
X112114664Y-98756948D01*
X111876045Y-98518329D01*
X114259751Y-98518329D01*
X115600000Y-99858579D01*
X116940249Y-98518329D01*
X116787590Y-98195292D01*
X116412690Y-97998282D01*
X116006558Y-97878196D01*
X115584803Y-97839650D01*
X115163632Y-97884126D01*
X114759230Y-98009913D01*
X114412410Y-98195292D01*
X114259751Y-98518329D01*
X111876045Y-98518329D01*
X111843052Y-98485336D01*
X111523671Y-98271933D01*
X111168794Y-98124938D01*
X110792058Y-98050000D01*
X110407942Y-98050000D01*
X110031206Y-98124938D01*
X109676329Y-98271933D01*
X109356948Y-98485336D01*
X109085336Y-98756948D01*
X108871933Y-99076329D01*
X108799996Y-99250000D01*
X108225722Y-99250000D01*
X108146514Y-99153486D01*
X108040109Y-99066161D01*
X107918712Y-99001273D01*
X107786989Y-98961315D01*
X107650001Y-98947823D01*
X106949999Y-98947823D01*
X106813011Y-98961315D01*
X106681288Y-99001273D01*
X106559891Y-99066161D01*
X106453486Y-99153486D01*
X106366161Y-99259891D01*
X106301273Y-99381288D01*
X106300000Y-99385484D01*
X106298727Y-99381288D01*
X106233839Y-99259891D01*
X106146514Y-99153486D01*
X106040109Y-99066161D01*
X105918712Y-99001273D01*
X105786989Y-98961315D01*
X105650001Y-98947823D01*
X104949999Y-98947823D01*
X104813011Y-98961315D01*
X104681288Y-99001273D01*
X104559891Y-99066161D01*
X104453486Y-99153486D01*
X104366161Y-99259891D01*
X104301273Y-99381288D01*
X104261315Y-99513011D01*
X104247823Y-99649999D01*
X104247823Y-100550001D01*
X104261315Y-100686989D01*
X104301273Y-100818712D01*
X104366161Y-100940109D01*
X104450001Y-101042267D01*
X104450001Y-101247917D01*
X103052177Y-102645742D01*
X103052177Y-102249999D01*
X103038685Y-102113011D01*
X102998727Y-101981288D01*
X102933839Y-101859891D01*
X102846514Y-101753486D01*
X102839080Y-101747385D01*
X102837700Y-101733371D01*
X102817313Y-101666161D01*
X102789097Y-101573145D01*
X102775562Y-101547823D01*
X102710168Y-101425481D01*
X102603948Y-101296052D01*
X102571519Y-101269439D01*
X101052177Y-99750097D01*
X101052177Y-99449999D01*
X101038685Y-99313011D01*
X100998727Y-99181288D01*
X100933839Y-99059891D01*
X100850000Y-98957734D01*
X100850000Y-96158583D01*
X100923671Y-96128067D01*
X101243052Y-95914664D01*
X101276045Y-95881671D01*
X103659751Y-95881671D01*
X103812410Y-96204708D01*
X104187310Y-96401718D01*
X104593442Y-96521804D01*
X105015197Y-96560350D01*
X105436368Y-96515874D01*
X105840770Y-96390087D01*
X106187590Y-96204708D01*
X106340249Y-95881671D01*
X105000000Y-94541421D01*
X103659751Y-95881671D01*
X101276045Y-95881671D01*
X101514664Y-95643052D01*
X101728067Y-95323671D01*
X101875062Y-94968794D01*
X101950000Y-94592058D01*
X101950000Y-94415197D01*
X102839650Y-94415197D01*
X102884126Y-94836368D01*
X103009913Y-95240770D01*
X103195292Y-95587590D01*
X103518329Y-95740249D01*
X104858579Y-94400000D01*
X105141421Y-94400000D01*
X106481671Y-95740249D01*
X106804708Y-95587590D01*
X107001718Y-95212690D01*
X107121804Y-94806558D01*
X107160350Y-94384803D01*
X107115874Y-93963632D01*
X106990087Y-93559230D01*
X106804708Y-93212410D01*
X106481671Y-93059751D01*
X105141421Y-94400000D01*
X104858579Y-94400000D01*
X103518329Y-93059751D01*
X103195292Y-93212410D01*
X102998282Y-93587310D01*
X102878196Y-93993442D01*
X102839650Y-94415197D01*
X101950000Y-94415197D01*
X101950000Y-94207942D01*
X101875062Y-93831206D01*
X101728067Y-93476329D01*
X101514664Y-93156948D01*
X101276045Y-92918329D01*
X103659751Y-92918329D01*
X105000000Y-94258579D01*
X106340249Y-92918329D01*
X106228477Y-92681810D01*
X110500000Y-92681810D01*
X110500000Y-92918190D01*
X110546116Y-93150027D01*
X110636574Y-93368413D01*
X110767899Y-93564955D01*
X110935045Y-93732101D01*
X111131587Y-93863426D01*
X111349973Y-93953884D01*
X111581810Y-94000000D01*
X111818190Y-94000000D01*
X112050027Y-93953884D01*
X112268413Y-93863426D01*
X112464955Y-93732101D01*
X112632101Y-93564955D01*
X112763426Y-93368413D01*
X112853884Y-93150027D01*
X112900000Y-92918190D01*
X112900000Y-92681810D01*
X112853884Y-92449973D01*
X112763426Y-92231587D01*
X112632101Y-92035045D01*
X112464955Y-91867899D01*
X112268413Y-91736574D01*
X112050027Y-91646116D01*
X111818190Y-91600000D01*
X111581810Y-91600000D01*
X111349973Y-91646116D01*
X111131587Y-91736574D01*
X110935045Y-91867899D01*
X110767899Y-92035045D01*
X110636574Y-92231587D01*
X110546116Y-92449973D01*
X110500000Y-92681810D01*
X106228477Y-92681810D01*
X106187590Y-92595292D01*
X105812690Y-92398282D01*
X105406558Y-92278196D01*
X104984803Y-92239650D01*
X104563632Y-92284126D01*
X104159230Y-92409913D01*
X103812410Y-92595292D01*
X103659751Y-92918329D01*
X101276045Y-92918329D01*
X101243052Y-92885336D01*
X100923671Y-92671933D01*
X100850000Y-92641417D01*
X100850000Y-91158583D01*
X100923671Y-91128067D01*
X101243052Y-90914664D01*
X101276045Y-90881671D01*
X103659751Y-90881671D01*
X103812410Y-91204708D01*
X104187310Y-91401718D01*
X104593442Y-91521804D01*
X105015197Y-91560350D01*
X105436368Y-91515874D01*
X105840770Y-91390087D01*
X106187590Y-91204708D01*
X106340249Y-90881671D01*
X105000000Y-89541421D01*
X103659751Y-90881671D01*
X101276045Y-90881671D01*
X101514664Y-90643052D01*
X101728067Y-90323671D01*
X101875062Y-89968794D01*
X101950000Y-89592058D01*
X101950000Y-89415197D01*
X102839650Y-89415197D01*
X102884126Y-89836368D01*
X103009913Y-90240770D01*
X103195292Y-90587590D01*
X103518329Y-90740249D01*
X104858579Y-89400000D01*
X105141421Y-89400000D01*
X106481671Y-90740249D01*
X106804708Y-90587590D01*
X107001718Y-90212690D01*
X107121804Y-89806558D01*
X107160350Y-89384803D01*
X107115874Y-88963632D01*
X106990087Y-88559230D01*
X106804708Y-88212410D01*
X106481671Y-88059751D01*
X105141421Y-89400000D01*
X104858579Y-89400000D01*
X103518329Y-88059751D01*
X103195292Y-88212410D01*
X102998282Y-88587310D01*
X102878196Y-88993442D01*
X102839650Y-89415197D01*
X101950000Y-89415197D01*
X101950000Y-89207942D01*
X101875062Y-88831206D01*
X101728067Y-88476329D01*
X101514664Y-88156948D01*
X101276045Y-87918329D01*
X103659751Y-87918329D01*
X105000000Y-89258579D01*
X106340249Y-87918329D01*
X106187590Y-87595292D01*
X105812690Y-87398282D01*
X105406558Y-87278196D01*
X104984803Y-87239650D01*
X104563632Y-87284126D01*
X104159230Y-87409913D01*
X103812410Y-87595292D01*
X103659751Y-87918329D01*
X101276045Y-87918329D01*
X101243052Y-87885336D01*
X100923671Y-87671933D01*
X100879578Y-87653669D01*
X100884167Y-87654121D01*
X100925908Y-87650010D01*
X100925916Y-87650010D01*
X101050796Y-87637710D01*
X101211022Y-87589107D01*
X101358686Y-87510178D01*
X101488115Y-87403958D01*
X101514733Y-87371524D01*
X103475512Y-85410746D01*
X103535751Y-85429019D01*
X103820000Y-85457015D01*
X104104250Y-85429019D01*
X104377576Y-85346106D01*
X104629474Y-85211464D01*
X104850265Y-85030265D01*
X104971494Y-84882548D01*
X105043632Y-84999838D01*
X105263984Y-85237437D01*
X105526456Y-85427482D01*
X105820960Y-85562670D01*
X106003589Y-85611047D01*
X106260000Y-85484135D01*
X106260000Y-83700000D01*
X106240000Y-83700000D01*
X106240000Y-83500000D01*
X106260000Y-83500000D01*
X106260000Y-83480000D01*
X106460000Y-83480000D01*
X106460000Y-83500000D01*
X106480000Y-83500000D01*
X106480000Y-83700000D01*
X106460000Y-83700000D01*
X106460000Y-85484135D01*
X106716411Y-85611047D01*
X106899040Y-85562670D01*
X107193544Y-85427482D01*
X107456016Y-85237437D01*
X107676368Y-84999838D01*
X107748506Y-84882548D01*
X107869736Y-85030265D01*
X108090527Y-85211464D01*
X108342425Y-85346106D01*
X108615751Y-85429019D01*
X108900000Y-85457015D01*
X109184250Y-85429019D01*
X109447179Y-85349260D01*
X110197823Y-86099904D01*
X110197823Y-87522400D01*
X110212806Y-87674527D01*
X110257180Y-87820808D01*
X110329239Y-87955621D01*
X110426214Y-88073786D01*
X110544379Y-88170761D01*
X110679192Y-88242820D01*
X110825473Y-88287194D01*
X110977600Y-88302177D01*
X112422400Y-88302177D01*
X112574527Y-88287194D01*
X112720808Y-88242820D01*
X112855621Y-88170761D01*
X112973786Y-88073786D01*
X113070761Y-87955621D01*
X113142820Y-87820808D01*
X113187194Y-87674527D01*
X113202177Y-87522400D01*
X113202177Y-86077600D01*
X113187194Y-85925473D01*
X113142820Y-85779192D01*
X113070761Y-85644379D01*
X112973786Y-85526214D01*
X112855621Y-85429239D01*
X112720808Y-85357180D01*
X112574527Y-85312806D01*
X112422400Y-85297823D01*
X111799904Y-85297823D01*
X110350000Y-83847920D01*
X110350000Y-83128775D01*
X110329019Y-82915750D01*
X110246106Y-82642424D01*
X110111464Y-82390526D01*
X109930264Y-82169735D01*
X109709473Y-81988536D01*
X109457575Y-81853894D01*
X109184249Y-81770981D01*
X108900000Y-81742985D01*
X108615750Y-81770981D01*
X108342424Y-81853894D01*
X108246931Y-81904936D01*
X107816994Y-81475000D01*
X119025001Y-81475000D01*
X119025000Y-85523331D01*
X119025001Y-85523341D01*
X119025000Y-113025000D01*
X113023332Y-113025000D01*
X113000000Y-113022702D01*
X112976668Y-113025000D01*
X112906884Y-113031873D01*
X112817346Y-113059034D01*
X112734827Y-113103141D01*
X112662499Y-113162499D01*
X112603141Y-113234827D01*
X112559034Y-113317346D01*
X112531873Y-113406884D01*
X112522702Y-113500000D01*
X112525000Y-113523331D01*
X112525001Y-119025000D01*
X85975000Y-119025000D01*
X85975000Y-116681810D01*
X92900000Y-116681810D01*
X92900000Y-116918190D01*
X92946116Y-117150027D01*
X93036574Y-117368413D01*
X93167899Y-117564955D01*
X93335045Y-117732101D01*
X93531587Y-117863426D01*
X93749973Y-117953884D01*
X93981810Y-118000000D01*
X94218190Y-118000000D01*
X94450027Y-117953884D01*
X94668413Y-117863426D01*
X94864955Y-117732101D01*
X95032101Y-117564955D01*
X95163426Y-117368413D01*
X95253884Y-117150027D01*
X95300000Y-116918190D01*
X95300000Y-116681810D01*
X95253884Y-116449973D01*
X95163426Y-116231587D01*
X95032101Y-116035045D01*
X94864955Y-115867899D01*
X94668413Y-115736574D01*
X94450027Y-115646116D01*
X94218190Y-115600000D01*
X93981810Y-115600000D01*
X93749973Y-115646116D01*
X93531587Y-115736574D01*
X93335045Y-115867899D01*
X93167899Y-116035045D01*
X93036574Y-116231587D01*
X92946116Y-116449973D01*
X92900000Y-116681810D01*
X85975000Y-116681810D01*
X85975000Y-111850000D01*
X92396855Y-111850000D01*
X92409405Y-111977422D01*
X92446573Y-112099948D01*
X92506930Y-112212868D01*
X92588157Y-112311843D01*
X92687132Y-112393070D01*
X92800052Y-112453427D01*
X92922578Y-112490595D01*
X93050000Y-112503145D01*
X93837500Y-112500000D01*
X94000000Y-112337500D01*
X94000000Y-110900000D01*
X94200000Y-110900000D01*
X94200000Y-112337500D01*
X94362500Y-112500000D01*
X95150000Y-112503145D01*
X95277422Y-112490595D01*
X95399948Y-112453427D01*
X95512868Y-112393070D01*
X95611843Y-112311843D01*
X95693070Y-112212868D01*
X95753427Y-112099948D01*
X95790595Y-111977422D01*
X95803145Y-111850000D01*
X95800000Y-111062500D01*
X95637500Y-110900000D01*
X94200000Y-110900000D01*
X94000000Y-110900000D01*
X92562500Y-110900000D01*
X92400000Y-111062500D01*
X92396855Y-111850000D01*
X85975000Y-111850000D01*
X85975000Y-109750000D01*
X92396855Y-109750000D01*
X92400000Y-110537500D01*
X92562500Y-110700000D01*
X94000000Y-110700000D01*
X94000000Y-109262500D01*
X94200000Y-109262500D01*
X94200000Y-110700000D01*
X95637500Y-110700000D01*
X95800000Y-110537500D01*
X95803145Y-109750000D01*
X95790595Y-109622578D01*
X95753427Y-109500052D01*
X95693070Y-109387132D01*
X95611843Y-109288157D01*
X95512868Y-109206930D01*
X95399948Y-109146573D01*
X95277422Y-109109405D01*
X95150000Y-109096855D01*
X94362500Y-109100000D01*
X94200000Y-109262500D01*
X94000000Y-109262500D01*
X93837500Y-109100000D01*
X93050000Y-109096855D01*
X92922578Y-109109405D01*
X92800052Y-109146573D01*
X92687132Y-109206930D01*
X92588157Y-109288157D01*
X92506930Y-109387132D01*
X92446573Y-109500052D01*
X92409405Y-109622578D01*
X92396855Y-109750000D01*
X85975000Y-109750000D01*
X85975000Y-93481810D01*
X86400000Y-93481810D01*
X86400000Y-93718190D01*
X86446116Y-93950027D01*
X86536574Y-94168413D01*
X86667899Y-94364955D01*
X86835045Y-94532101D01*
X87031587Y-94663426D01*
X87249973Y-94753884D01*
X87481810Y-94800000D01*
X87718190Y-94800000D01*
X87950027Y-94753884D01*
X88168413Y-94663426D01*
X88364955Y-94532101D01*
X88532101Y-94364955D01*
X88663426Y-94168413D01*
X88753884Y-93950027D01*
X88800000Y-93718190D01*
X88800000Y-93481810D01*
X88753884Y-93249973D01*
X88663426Y-93031587D01*
X88532101Y-92835045D01*
X88364955Y-92667899D01*
X88168413Y-92536574D01*
X87950027Y-92446116D01*
X87718190Y-92400000D01*
X87481810Y-92400000D01*
X87249973Y-92446116D01*
X87031587Y-92536574D01*
X86835045Y-92667899D01*
X86667899Y-92835045D01*
X86536574Y-93031587D01*
X86446116Y-93249973D01*
X86400000Y-93481810D01*
X85975000Y-93481810D01*
X85975000Y-90281810D01*
X86400000Y-90281810D01*
X86400000Y-90518190D01*
X86446116Y-90750027D01*
X86536574Y-90968413D01*
X86667899Y-91164955D01*
X86835045Y-91332101D01*
X87031587Y-91463426D01*
X87249973Y-91553884D01*
X87481810Y-91600000D01*
X87718190Y-91600000D01*
X87950027Y-91553884D01*
X88168413Y-91463426D01*
X88364955Y-91332101D01*
X88532101Y-91164955D01*
X88663426Y-90968413D01*
X88753884Y-90750027D01*
X88800000Y-90518190D01*
X88800000Y-90281810D01*
X88753884Y-90049973D01*
X88663426Y-89831587D01*
X88532101Y-89635045D01*
X88364955Y-89467899D01*
X88168413Y-89336574D01*
X87950027Y-89246116D01*
X87718190Y-89200000D01*
X87481810Y-89200000D01*
X87249973Y-89246116D01*
X87031587Y-89336574D01*
X86835045Y-89467899D01*
X86667899Y-89635045D01*
X86536574Y-89831587D01*
X86446116Y-90049973D01*
X86400000Y-90281810D01*
X85975000Y-90281810D01*
X85975000Y-81475000D01*
X97335050Y-81475000D01*
X96886985Y-81923065D01*
G37*
%TD.AperFunction*%
%TD*%
M02*
