M48
; DRILL file {KiCad 5.1.10} date Thu Mar 31 15:16:43 2022
; FORMAT={-:-/ absolute / inch / decimal}
; #@! TF.CreationDate,2022-03-31T15:16:43+02:00
; #@! TF.GenerationSoftware,Kicad,Pcbnew,5.1.10
FMAT,2
INCH
T1C0.0236
T2C0.0315
T3C0.0354
T4C0.0394
T5C0.0472
%
G90
G05
T1
X4.7Y-3.8
X4.8Y-3.39
X4.92Y-3.2006
X4.98Y-3.33
X5.14Y-3.11
X5.294Y-4.316
X5.6694Y-4.32
X5.86Y-4.08
X5.92Y-3.405
X5.93Y-3.48
X6.0373Y-3.82
X6.86Y-3.5671
X6.86Y-3.76
T2
X5.495Y-3.015
X5.795Y-3.015
X6.0Y-4.23
X6.0Y-4.35
X6.03Y-2.84
X6.06Y-3.1
X6.3Y-4.23
X6.3Y-4.35
X6.33Y-2.84
X6.36Y-3.1
X6.513Y-4.24
X6.813Y-4.24
X7.04Y-3.5066
X7.04Y-3.605
X7.04Y-3.72
X7.04Y-3.8184
T3
X5.44Y-4.36
X5.44Y-4.46
X5.44Y-4.56
X5.54Y-4.36
X5.54Y-4.46
X5.54Y-4.56
X5.98Y-2.97
X6.08Y-2.97
X6.18Y-2.97
X6.28Y-2.97
X6.38Y-2.97
X7.0Y-4.118
X7.1Y-4.118
T4
X5.4547Y-3.6319
X5.4547Y-3.7106
X5.4547Y-3.7894
X5.4547Y-3.8681
X5.5335Y-3.6319
X5.5335Y-3.7106
X5.5335Y-3.7894
X5.5335Y-3.8681
T5
X5.235Y-2.88
X5.335Y-2.88
X5.915Y-4.585
X5.93Y-3.575
X5.93Y-3.675
X5.935Y-3.205
X5.935Y-3.305
X6.015Y-4.585
X6.115Y-4.585
X6.295Y-4.585
X6.38Y-4.005
X6.395Y-4.585
X6.48Y-4.005
X6.525Y-4.585
X6.53Y-3.125
X6.58Y-4.005
X6.625Y-4.585
X6.63Y-3.125
X6.83Y-2.895
X6.93Y-2.895
T0
M30
