%TF.GenerationSoftware,KiCad,Pcbnew,5.1.10*%
%TF.CreationDate,2022-05-02T15:05:59+02:00*%
%TF.ProjectId,coupleur-5p,636f7570-6c65-4757-922d-35702e6b6963,rev?*%
%TF.SameCoordinates,Original*%
%TF.FileFunction,Copper,L2,Bot*%
%TF.FilePolarity,Positive*%
%FSLAX46Y46*%
G04 Gerber Fmt 4.6, Leading zero omitted, Abs format (unit mm)*
G04 Created by KiCad (PCBNEW 5.1.10) date 2022-05-02 15:05:59*
%MOMM*%
%LPD*%
G01*
G04 APERTURE LIST*
%TA.AperFunction,Profile*%
%ADD10C,0.050000*%
%TD*%
%TA.AperFunction,ComponentPad*%
%ADD11O,1.700000X1.700000*%
%TD*%
%TA.AperFunction,ComponentPad*%
%ADD12R,1.700000X1.700000*%
%TD*%
%TA.AperFunction,ComponentPad*%
%ADD13O,1.500000X2.500000*%
%TD*%
%TA.AperFunction,Conductor*%
%ADD14C,0.600000*%
%TD*%
%TA.AperFunction,Conductor*%
%ADD15C,1.000000*%
%TD*%
%TA.AperFunction,Conductor*%
%ADD16C,2.000000*%
%TD*%
%TA.AperFunction,Conductor*%
%ADD17C,1.500000*%
%TD*%
%TA.AperFunction,Conductor*%
%ADD18C,0.400000*%
%TD*%
%TA.AperFunction,Conductor*%
%ADD19C,0.800000*%
%TD*%
%TA.AperFunction,Conductor*%
%ADD20C,0.300000*%
%TD*%
%TA.AperFunction,Conductor*%
%ADD21C,0.100000*%
%TD*%
G04 APERTURE END LIST*
D10*
X85000000Y-65000000D02*
X205000000Y-65000000D01*
X85000000Y-105000000D02*
X85000000Y-65000000D01*
X205000000Y-105000000D02*
X85000000Y-105000000D01*
X205000000Y-65000000D02*
X205000000Y-105000000D01*
X200000000Y-70000000D02*
X200000000Y-100000000D01*
X90000000Y-70000000D02*
X200000000Y-70000000D01*
X90000000Y-100000000D02*
X90000000Y-70000000D01*
X200000000Y-100000000D02*
X90000000Y-100000000D01*
D11*
%TO.P,J2,4*%
%TO.N,/CANH*%
X106380000Y-77000000D03*
%TO.P,J2,3*%
%TO.N,/CANL*%
X108920000Y-77000000D03*
%TO.P,J2,2*%
%TO.N,/+12V*%
X111460000Y-77000000D03*
D12*
%TO.P,J2,1*%
%TO.N,/GND*%
X114000000Y-77000000D03*
%TD*%
%TO.P,R2,2*%
%TO.N,Net-(J6-Pad7)*%
%TA.AperFunction,SMDPad,CuDef*%
G36*
G01*
X187549999Y-84400000D02*
X188450001Y-84400000D01*
G75*
G02*
X188700000Y-84649999I0J-249999D01*
G01*
X188700000Y-85350001D01*
G75*
G02*
X188450001Y-85600000I-249999J0D01*
G01*
X187549999Y-85600000D01*
G75*
G02*
X187300000Y-85350001I0J249999D01*
G01*
X187300000Y-84649999D01*
G75*
G02*
X187549999Y-84400000I249999J0D01*
G01*
G37*
%TD.AperFunction*%
%TO.P,R2,1*%
%TO.N,Net-(J6-Pad8)*%
%TA.AperFunction,SMDPad,CuDef*%
G36*
G01*
X187549999Y-82400000D02*
X188450001Y-82400000D01*
G75*
G02*
X188700000Y-82649999I0J-249999D01*
G01*
X188700000Y-83350001D01*
G75*
G02*
X188450001Y-83600000I-249999J0D01*
G01*
X187549999Y-83600000D01*
G75*
G02*
X187300000Y-83350001I0J249999D01*
G01*
X187300000Y-82649999D01*
G75*
G02*
X187549999Y-82400000I249999J0D01*
G01*
G37*
%TD.AperFunction*%
%TD*%
%TO.P,R1,2*%
%TO.N,Net-(J1-Pad7)*%
%TA.AperFunction,SMDPad,CuDef*%
G36*
G01*
X116549999Y-84400000D02*
X117450001Y-84400000D01*
G75*
G02*
X117700000Y-84649999I0J-249999D01*
G01*
X117700000Y-85350001D01*
G75*
G02*
X117450001Y-85600000I-249999J0D01*
G01*
X116549999Y-85600000D01*
G75*
G02*
X116300000Y-85350001I0J249999D01*
G01*
X116300000Y-84649999D01*
G75*
G02*
X116549999Y-84400000I249999J0D01*
G01*
G37*
%TD.AperFunction*%
%TO.P,R1,1*%
%TO.N,Net-(J1-Pad8)*%
%TA.AperFunction,SMDPad,CuDef*%
G36*
G01*
X116549999Y-82400000D02*
X117450001Y-82400000D01*
G75*
G02*
X117700000Y-82649999I0J-249999D01*
G01*
X117700000Y-83350001D01*
G75*
G02*
X117450001Y-83600000I-249999J0D01*
G01*
X116549999Y-83600000D01*
G75*
G02*
X116300000Y-83350001I0J249999D01*
G01*
X116300000Y-82649999D01*
G75*
G02*
X116549999Y-82400000I249999J0D01*
G01*
G37*
%TD.AperFunction*%
%TD*%
D13*
%TO.P,J6,8*%
%TO.N,Net-(J6-Pad8)*%
X185890000Y-82460000D03*
%TO.P,J6,7*%
%TO.N,Net-(J6-Pad7)*%
X184620000Y-85000000D03*
%TO.P,J6,6*%
%TO.N,/GND*%
X183350000Y-82460000D03*
%TO.P,J6,5*%
X182080000Y-85000000D03*
%TO.P,J6,4*%
%TO.N,/+12V*%
X180810000Y-82460000D03*
%TO.P,J6,3*%
X179540000Y-85000000D03*
%TO.P,J6,2*%
%TO.N,Net-(J5-Pad7)*%
X178270000Y-82460000D03*
%TO.P,J6,1*%
%TO.N,Net-(J5-Pad8)*%
X177000000Y-85000000D03*
%TD*%
%TO.P,J3,8*%
%TO.N,Net-(J3-Pad8)*%
X131890000Y-82460000D03*
%TO.P,J3,7*%
%TO.N,Net-(J3-Pad7)*%
X130620000Y-85000000D03*
%TO.P,J3,6*%
%TO.N,/GND*%
X129350000Y-82460000D03*
%TO.P,J3,5*%
X128080000Y-85000000D03*
%TO.P,J3,4*%
%TO.N,/+12V*%
X126810000Y-82460000D03*
%TO.P,J3,3*%
X125540000Y-85000000D03*
%TO.P,J3,2*%
%TO.N,/CANL*%
X124270000Y-82460000D03*
%TO.P,J3,1*%
%TO.N,/CANH*%
X123000000Y-85000000D03*
%TD*%
%TO.P,J5,8*%
%TO.N,Net-(J5-Pad8)*%
X167890000Y-82460000D03*
%TO.P,J5,7*%
%TO.N,Net-(J5-Pad7)*%
X166620000Y-85000000D03*
%TO.P,J5,6*%
%TO.N,/GND*%
X165350000Y-82460000D03*
%TO.P,J5,5*%
X164080000Y-85000000D03*
%TO.P,J5,4*%
%TO.N,/+12V*%
X162810000Y-82460000D03*
%TO.P,J5,3*%
X161540000Y-85000000D03*
%TO.P,J5,2*%
%TO.N,Net-(J4-Pad7)*%
X160270000Y-82460000D03*
%TO.P,J5,1*%
%TO.N,Net-(J4-Pad8)*%
X159000000Y-85000000D03*
%TD*%
%TO.P,J4,8*%
%TO.N,Net-(J4-Pad8)*%
X149890000Y-82460000D03*
%TO.P,J4,7*%
%TO.N,Net-(J4-Pad7)*%
X148620000Y-85000000D03*
%TO.P,J4,6*%
%TO.N,/GND*%
X147350000Y-82460000D03*
%TO.P,J4,5*%
X146080000Y-85000000D03*
%TO.P,J4,4*%
%TO.N,/+12V*%
X144810000Y-82460000D03*
%TO.P,J4,3*%
X143540000Y-85000000D03*
%TO.P,J4,2*%
%TO.N,Net-(J3-Pad7)*%
X142270000Y-82460000D03*
%TO.P,J4,1*%
%TO.N,Net-(J3-Pad8)*%
X141000000Y-85000000D03*
%TD*%
%TO.P,J1,8*%
%TO.N,Net-(J1-Pad8)*%
X113890000Y-82460000D03*
%TO.P,J1,7*%
%TO.N,Net-(J1-Pad7)*%
X112620000Y-85000000D03*
%TO.P,J1,6*%
%TO.N,/GND*%
X111350000Y-82460000D03*
%TO.P,J1,5*%
X110080000Y-85000000D03*
%TO.P,J1,4*%
%TO.N,/+12V*%
X108810000Y-82460000D03*
%TO.P,J1,3*%
X107540000Y-85000000D03*
%TO.P,J1,2*%
%TO.N,/CANL*%
X106270000Y-82460000D03*
%TO.P,J1,1*%
%TO.N,/CANH*%
X105000000Y-85000000D03*
%TD*%
D14*
%TO.N,Net-(J1-Pad8)*%
X114430000Y-83000000D02*
X113890000Y-82460000D01*
X117000000Y-83000000D02*
X114430000Y-83000000D01*
%TO.N,Net-(J1-Pad7)*%
X117000000Y-85000000D02*
X112620000Y-85000000D01*
D15*
%TO.N,/GND*%
X164360010Y-83449990D02*
X165350000Y-82460000D01*
X164360010Y-84719990D02*
X164360010Y-83449990D01*
X164080000Y-85000000D02*
X164360010Y-84719990D01*
X146360010Y-83449990D02*
X147350000Y-82460000D01*
X146360010Y-84719990D02*
X146360010Y-83449990D01*
X146080000Y-85000000D02*
X146360010Y-84719990D01*
X128360010Y-83449990D02*
X129350000Y-82460000D01*
X128360010Y-84719990D02*
X128360010Y-83449990D01*
X128080000Y-85000000D02*
X128360010Y-84719990D01*
X111350000Y-82460000D02*
X111069990Y-82740010D01*
X111069990Y-82740010D02*
X111069990Y-84010010D01*
X111069990Y-84010010D02*
X110080000Y-85000000D01*
%TO.N,/+12V*%
X162810000Y-82307955D02*
X162810000Y-82460000D01*
D16*
X180810000Y-81600849D02*
X179119141Y-79909990D01*
X180810000Y-82460000D02*
X180810000Y-81600849D01*
X144810000Y-80040000D02*
X144679990Y-79909990D01*
X144810000Y-82460000D02*
X144810000Y-80040000D01*
X144679990Y-79909990D02*
X128500859Y-79909990D01*
X162810000Y-80268000D02*
X163168010Y-79909990D01*
X162810000Y-82460000D02*
X162810000Y-80268000D01*
X179119141Y-79909990D02*
X163168010Y-79909990D01*
X163168010Y-79909990D02*
X144679990Y-79909990D01*
D17*
X179540000Y-84494402D02*
X179540000Y-85000000D01*
X180810000Y-83224402D02*
X179540000Y-84494402D01*
X180810000Y-82460000D02*
X180810000Y-83224402D01*
X143540000Y-84494402D02*
X143540000Y-85000000D01*
X144810000Y-83224402D02*
X143540000Y-84494402D01*
X144810000Y-82460000D02*
X144810000Y-83224402D01*
X162279990Y-84260010D02*
X161540000Y-85000000D01*
X162279990Y-82990010D02*
X162279990Y-84260010D01*
X162810000Y-82460000D02*
X162279990Y-82990010D01*
X126279990Y-84260010D02*
X125540000Y-85000000D01*
X126279990Y-82990010D02*
X126279990Y-84260010D01*
X126810000Y-82460000D02*
X126279990Y-82990010D01*
D16*
X122671324Y-79909990D02*
X116211313Y-73449979D01*
X107540000Y-85859151D02*
X107540000Y-85000000D01*
X105849141Y-87550010D02*
X107540000Y-85859151D01*
X104150859Y-87550010D02*
X105849141Y-87550010D01*
X102949990Y-86349141D02*
X104150859Y-87550010D01*
X102949990Y-77248008D02*
X102949990Y-86349141D01*
X106748019Y-73449979D02*
X102949990Y-77248008D01*
X116211313Y-73449979D02*
X106748019Y-73449979D01*
D17*
X107540000Y-84494402D02*
X107540000Y-85000000D01*
X108810000Y-83224402D02*
X107540000Y-84494402D01*
X108810000Y-82460000D02*
X108810000Y-83224402D01*
X108810000Y-79997956D02*
X108810000Y-82460000D01*
X111460000Y-77347956D02*
X108810000Y-79997956D01*
X111460000Y-77000000D02*
X111460000Y-77347956D01*
D16*
X126090010Y-79909990D02*
X122671324Y-79909990D01*
X128500859Y-79909990D02*
X126645990Y-79909990D01*
X126810000Y-80074000D02*
X126645990Y-79909990D01*
X126810000Y-82460000D02*
X126810000Y-80074000D01*
X126645990Y-79909990D02*
X126090010Y-79909990D01*
D18*
%TO.N,Net-(J3-Pad8)*%
X134430000Y-85000000D02*
X131890000Y-82460000D01*
X141000000Y-85000000D02*
X134430000Y-85000000D01*
%TO.N,Net-(J3-Pad7)*%
X132370010Y-86750010D02*
X130620000Y-85000000D01*
X141517771Y-86750010D02*
X132370010Y-86750010D01*
X142270000Y-85997781D02*
X141517771Y-86750010D01*
X142270000Y-82460000D02*
X142270000Y-85997781D01*
%TO.N,Net-(J5-Pad8)*%
X170430000Y-85000000D02*
X167890000Y-82460000D01*
X177000000Y-85000000D02*
X170430000Y-85000000D01*
%TO.N,Net-(J5-Pad7)*%
X178270000Y-82460000D02*
X178270000Y-87084000D01*
X168704000Y-87084000D02*
X166620000Y-85000000D01*
X178270000Y-87084000D02*
X168704000Y-87084000D01*
%TO.N,/CANL*%
X106270000Y-79650000D02*
X108920000Y-77000000D01*
X106270000Y-82460000D02*
X106270000Y-79650000D01*
X110270001Y-75649999D02*
X108920000Y-77000000D01*
X115250001Y-75649999D02*
X110270001Y-75649999D01*
X124270000Y-86296000D02*
X123815990Y-86750010D01*
X124270000Y-82460000D02*
X124270000Y-86296000D01*
X123815990Y-86750010D02*
X122482229Y-86750010D01*
X122482229Y-86750010D02*
X121666000Y-85933781D01*
X121666000Y-85933781D02*
X121666000Y-82065998D01*
X121666000Y-82065998D02*
X115250001Y-75649999D01*
%TO.N,/CANH*%
X105000000Y-78380000D02*
X105000000Y-85000000D01*
X106380000Y-77000000D02*
X105000000Y-78380000D01*
X123000000Y-82360000D02*
X123000000Y-85000000D01*
X115589989Y-74949989D02*
X123000000Y-82360000D01*
X108430011Y-74949989D02*
X115589989Y-74949989D01*
X106380000Y-77000000D02*
X108430011Y-74949989D01*
%TO.N,Net-(J4-Pad8)*%
X152430000Y-85000000D02*
X149890000Y-82460000D01*
X159000000Y-85000000D02*
X152430000Y-85000000D01*
%TO.N,Net-(J4-Pad7)*%
X160270000Y-82460000D02*
X160270000Y-85997781D01*
X150370010Y-86750010D02*
X148620000Y-85000000D01*
X159517771Y-86750010D02*
X150370010Y-86750010D01*
X160270000Y-85997781D02*
X159517771Y-86750010D01*
D19*
%TO.N,Net-(J6-Pad8)*%
X186430000Y-83000000D02*
X185890000Y-82460000D01*
X188000000Y-83000000D02*
X186430000Y-83000000D01*
%TO.N,Net-(J6-Pad7)*%
X188000000Y-85000000D02*
X184620000Y-85000000D01*
%TD*%
D20*
%TO.N,/GND*%
X199525001Y-99525000D02*
X90475000Y-99525000D01*
X90475000Y-94783319D01*
X92800000Y-94783319D01*
X92800000Y-95216681D01*
X92884545Y-95641716D01*
X93050385Y-96042091D01*
X93291148Y-96402418D01*
X93597582Y-96708852D01*
X93957909Y-96949615D01*
X94358284Y-97115455D01*
X94783319Y-97200000D01*
X95216681Y-97200000D01*
X95641716Y-97115455D01*
X96042091Y-96949615D01*
X96402418Y-96708852D01*
X96708852Y-96402418D01*
X96949615Y-96042091D01*
X97115455Y-95641716D01*
X97200000Y-95216681D01*
X97200000Y-94783319D01*
X192800000Y-94783319D01*
X192800000Y-95216681D01*
X192884545Y-95641716D01*
X193050385Y-96042091D01*
X193291148Y-96402418D01*
X193597582Y-96708852D01*
X193957909Y-96949615D01*
X194358284Y-97115455D01*
X194783319Y-97200000D01*
X195216681Y-97200000D01*
X195641716Y-97115455D01*
X196042091Y-96949615D01*
X196402418Y-96708852D01*
X196708852Y-96402418D01*
X196949615Y-96042091D01*
X197115455Y-95641716D01*
X197200000Y-95216681D01*
X197200000Y-94783319D01*
X197115455Y-94358284D01*
X196949615Y-93957909D01*
X196708852Y-93597582D01*
X196402418Y-93291148D01*
X196042091Y-93050385D01*
X195641716Y-92884545D01*
X195216681Y-92800000D01*
X194783319Y-92800000D01*
X194358284Y-92884545D01*
X193957909Y-93050385D01*
X193597582Y-93291148D01*
X193291148Y-93597582D01*
X193050385Y-93957909D01*
X192884545Y-94358284D01*
X192800000Y-94783319D01*
X97200000Y-94783319D01*
X97115455Y-94358284D01*
X96949615Y-93957909D01*
X96708852Y-93597582D01*
X96402418Y-93291148D01*
X96042091Y-93050385D01*
X95641716Y-92884545D01*
X95216681Y-92800000D01*
X94783319Y-92800000D01*
X94358284Y-92884545D01*
X93957909Y-93050385D01*
X93597582Y-93291148D01*
X93291148Y-93597582D01*
X93050385Y-93957909D01*
X92884545Y-94358284D01*
X92800000Y-94783319D01*
X90475000Y-94783319D01*
X90475000Y-91148093D01*
X101680000Y-91148093D01*
X101680000Y-91551907D01*
X101758780Y-91947963D01*
X101913314Y-92321039D01*
X102137661Y-92656799D01*
X102423201Y-92942339D01*
X102758961Y-93166686D01*
X103132037Y-93321220D01*
X103528093Y-93400000D01*
X103931907Y-93400000D01*
X104327963Y-93321220D01*
X104701039Y-93166686D01*
X105036799Y-92942339D01*
X105322339Y-92656799D01*
X105546686Y-92321039D01*
X105701220Y-91947963D01*
X105780000Y-91551907D01*
X105780000Y-91148093D01*
X113110000Y-91148093D01*
X113110000Y-91551907D01*
X113188780Y-91947963D01*
X113343314Y-92321039D01*
X113567661Y-92656799D01*
X113853201Y-92942339D01*
X114188961Y-93166686D01*
X114562037Y-93321220D01*
X114958093Y-93400000D01*
X115361907Y-93400000D01*
X115757963Y-93321220D01*
X116131039Y-93166686D01*
X116466799Y-92942339D01*
X116752339Y-92656799D01*
X116976686Y-92321039D01*
X117131220Y-91947963D01*
X117210000Y-91551907D01*
X117210000Y-91148093D01*
X119680000Y-91148093D01*
X119680000Y-91551907D01*
X119758780Y-91947963D01*
X119913314Y-92321039D01*
X120137661Y-92656799D01*
X120423201Y-92942339D01*
X120758961Y-93166686D01*
X121132037Y-93321220D01*
X121528093Y-93400000D01*
X121931907Y-93400000D01*
X122327963Y-93321220D01*
X122701039Y-93166686D01*
X123036799Y-92942339D01*
X123322339Y-92656799D01*
X123546686Y-92321039D01*
X123701220Y-91947963D01*
X123780000Y-91551907D01*
X123780000Y-91148093D01*
X131110000Y-91148093D01*
X131110000Y-91551907D01*
X131188780Y-91947963D01*
X131343314Y-92321039D01*
X131567661Y-92656799D01*
X131853201Y-92942339D01*
X132188961Y-93166686D01*
X132562037Y-93321220D01*
X132958093Y-93400000D01*
X133361907Y-93400000D01*
X133757963Y-93321220D01*
X134131039Y-93166686D01*
X134466799Y-92942339D01*
X134752339Y-92656799D01*
X134976686Y-92321039D01*
X135131220Y-91947963D01*
X135210000Y-91551907D01*
X135210000Y-91148093D01*
X137680000Y-91148093D01*
X137680000Y-91551907D01*
X137758780Y-91947963D01*
X137913314Y-92321039D01*
X138137661Y-92656799D01*
X138423201Y-92942339D01*
X138758961Y-93166686D01*
X139132037Y-93321220D01*
X139528093Y-93400000D01*
X139931907Y-93400000D01*
X140327963Y-93321220D01*
X140701039Y-93166686D01*
X141036799Y-92942339D01*
X141322339Y-92656799D01*
X141546686Y-92321039D01*
X141701220Y-91947963D01*
X141780000Y-91551907D01*
X141780000Y-91148093D01*
X149110000Y-91148093D01*
X149110000Y-91551907D01*
X149188780Y-91947963D01*
X149343314Y-92321039D01*
X149567661Y-92656799D01*
X149853201Y-92942339D01*
X150188961Y-93166686D01*
X150562037Y-93321220D01*
X150958093Y-93400000D01*
X151361907Y-93400000D01*
X151757963Y-93321220D01*
X152131039Y-93166686D01*
X152466799Y-92942339D01*
X152752339Y-92656799D01*
X152976686Y-92321039D01*
X153131220Y-91947963D01*
X153210000Y-91551907D01*
X153210000Y-91148093D01*
X155680000Y-91148093D01*
X155680000Y-91551907D01*
X155758780Y-91947963D01*
X155913314Y-92321039D01*
X156137661Y-92656799D01*
X156423201Y-92942339D01*
X156758961Y-93166686D01*
X157132037Y-93321220D01*
X157528093Y-93400000D01*
X157931907Y-93400000D01*
X158327963Y-93321220D01*
X158701039Y-93166686D01*
X159036799Y-92942339D01*
X159322339Y-92656799D01*
X159546686Y-92321039D01*
X159701220Y-91947963D01*
X159780000Y-91551907D01*
X159780000Y-91148093D01*
X167110000Y-91148093D01*
X167110000Y-91551907D01*
X167188780Y-91947963D01*
X167343314Y-92321039D01*
X167567661Y-92656799D01*
X167853201Y-92942339D01*
X168188961Y-93166686D01*
X168562037Y-93321220D01*
X168958093Y-93400000D01*
X169361907Y-93400000D01*
X169757963Y-93321220D01*
X170131039Y-93166686D01*
X170466799Y-92942339D01*
X170752339Y-92656799D01*
X170976686Y-92321039D01*
X171131220Y-91947963D01*
X171210000Y-91551907D01*
X171210000Y-91148093D01*
X173680000Y-91148093D01*
X173680000Y-91551907D01*
X173758780Y-91947963D01*
X173913314Y-92321039D01*
X174137661Y-92656799D01*
X174423201Y-92942339D01*
X174758961Y-93166686D01*
X175132037Y-93321220D01*
X175528093Y-93400000D01*
X175931907Y-93400000D01*
X176327963Y-93321220D01*
X176701039Y-93166686D01*
X177036799Y-92942339D01*
X177322339Y-92656799D01*
X177546686Y-92321039D01*
X177701220Y-91947963D01*
X177780000Y-91551907D01*
X177780000Y-91148093D01*
X185110000Y-91148093D01*
X185110000Y-91551907D01*
X185188780Y-91947963D01*
X185343314Y-92321039D01*
X185567661Y-92656799D01*
X185853201Y-92942339D01*
X186188961Y-93166686D01*
X186562037Y-93321220D01*
X186958093Y-93400000D01*
X187361907Y-93400000D01*
X187757963Y-93321220D01*
X188131039Y-93166686D01*
X188466799Y-92942339D01*
X188752339Y-92656799D01*
X188976686Y-92321039D01*
X189131220Y-91947963D01*
X189210000Y-91551907D01*
X189210000Y-91148093D01*
X189131220Y-90752037D01*
X188976686Y-90378961D01*
X188752339Y-90043201D01*
X188466799Y-89757661D01*
X188131039Y-89533314D01*
X187757963Y-89378780D01*
X187361907Y-89300000D01*
X186958093Y-89300000D01*
X186562037Y-89378780D01*
X186188961Y-89533314D01*
X185853201Y-89757661D01*
X185567661Y-90043201D01*
X185343314Y-90378961D01*
X185188780Y-90752037D01*
X185110000Y-91148093D01*
X177780000Y-91148093D01*
X177701220Y-90752037D01*
X177546686Y-90378961D01*
X177322339Y-90043201D01*
X177036799Y-89757661D01*
X176701039Y-89533314D01*
X176327963Y-89378780D01*
X175931907Y-89300000D01*
X175528093Y-89300000D01*
X175132037Y-89378780D01*
X174758961Y-89533314D01*
X174423201Y-89757661D01*
X174137661Y-90043201D01*
X173913314Y-90378961D01*
X173758780Y-90752037D01*
X173680000Y-91148093D01*
X171210000Y-91148093D01*
X171131220Y-90752037D01*
X170976686Y-90378961D01*
X170752339Y-90043201D01*
X170466799Y-89757661D01*
X170131039Y-89533314D01*
X169757963Y-89378780D01*
X169361907Y-89300000D01*
X168958093Y-89300000D01*
X168562037Y-89378780D01*
X168188961Y-89533314D01*
X167853201Y-89757661D01*
X167567661Y-90043201D01*
X167343314Y-90378961D01*
X167188780Y-90752037D01*
X167110000Y-91148093D01*
X159780000Y-91148093D01*
X159701220Y-90752037D01*
X159546686Y-90378961D01*
X159322339Y-90043201D01*
X159036799Y-89757661D01*
X158701039Y-89533314D01*
X158327963Y-89378780D01*
X157931907Y-89300000D01*
X157528093Y-89300000D01*
X157132037Y-89378780D01*
X156758961Y-89533314D01*
X156423201Y-89757661D01*
X156137661Y-90043201D01*
X155913314Y-90378961D01*
X155758780Y-90752037D01*
X155680000Y-91148093D01*
X153210000Y-91148093D01*
X153131220Y-90752037D01*
X152976686Y-90378961D01*
X152752339Y-90043201D01*
X152466799Y-89757661D01*
X152131039Y-89533314D01*
X151757963Y-89378780D01*
X151361907Y-89300000D01*
X150958093Y-89300000D01*
X150562037Y-89378780D01*
X150188961Y-89533314D01*
X149853201Y-89757661D01*
X149567661Y-90043201D01*
X149343314Y-90378961D01*
X149188780Y-90752037D01*
X149110000Y-91148093D01*
X141780000Y-91148093D01*
X141701220Y-90752037D01*
X141546686Y-90378961D01*
X141322339Y-90043201D01*
X141036799Y-89757661D01*
X140701039Y-89533314D01*
X140327963Y-89378780D01*
X139931907Y-89300000D01*
X139528093Y-89300000D01*
X139132037Y-89378780D01*
X138758961Y-89533314D01*
X138423201Y-89757661D01*
X138137661Y-90043201D01*
X137913314Y-90378961D01*
X137758780Y-90752037D01*
X137680000Y-91148093D01*
X135210000Y-91148093D01*
X135131220Y-90752037D01*
X134976686Y-90378961D01*
X134752339Y-90043201D01*
X134466799Y-89757661D01*
X134131039Y-89533314D01*
X133757963Y-89378780D01*
X133361907Y-89300000D01*
X132958093Y-89300000D01*
X132562037Y-89378780D01*
X132188961Y-89533314D01*
X131853201Y-89757661D01*
X131567661Y-90043201D01*
X131343314Y-90378961D01*
X131188780Y-90752037D01*
X131110000Y-91148093D01*
X123780000Y-91148093D01*
X123701220Y-90752037D01*
X123546686Y-90378961D01*
X123322339Y-90043201D01*
X123036799Y-89757661D01*
X122701039Y-89533314D01*
X122327963Y-89378780D01*
X121931907Y-89300000D01*
X121528093Y-89300000D01*
X121132037Y-89378780D01*
X120758961Y-89533314D01*
X120423201Y-89757661D01*
X120137661Y-90043201D01*
X119913314Y-90378961D01*
X119758780Y-90752037D01*
X119680000Y-91148093D01*
X117210000Y-91148093D01*
X117131220Y-90752037D01*
X116976686Y-90378961D01*
X116752339Y-90043201D01*
X116466799Y-89757661D01*
X116131039Y-89533314D01*
X115757963Y-89378780D01*
X115361907Y-89300000D01*
X114958093Y-89300000D01*
X114562037Y-89378780D01*
X114188961Y-89533314D01*
X113853201Y-89757661D01*
X113567661Y-90043201D01*
X113343314Y-90378961D01*
X113188780Y-90752037D01*
X113110000Y-91148093D01*
X105780000Y-91148093D01*
X105701220Y-90752037D01*
X105546686Y-90378961D01*
X105322339Y-90043201D01*
X105036799Y-89757661D01*
X104701039Y-89533314D01*
X104327963Y-89378780D01*
X103931907Y-89300000D01*
X103528093Y-89300000D01*
X103132037Y-89378780D01*
X102758961Y-89533314D01*
X102423201Y-89757661D01*
X102137661Y-90043201D01*
X101913314Y-90378961D01*
X101758780Y-90752037D01*
X101680000Y-91148093D01*
X90475000Y-91148093D01*
X90475000Y-77248008D01*
X101492976Y-77248008D01*
X101499990Y-77319223D01*
X101499991Y-86277916D01*
X101492976Y-86349141D01*
X101499991Y-86420366D01*
X101520972Y-86633391D01*
X101528701Y-86658869D01*
X101603884Y-86906715D01*
X101738526Y-87158614D01*
X101874322Y-87324082D01*
X101874326Y-87324086D01*
X101919726Y-87379406D01*
X101975046Y-87424806D01*
X103075193Y-88524954D01*
X103120594Y-88580275D01*
X103175914Y-88625675D01*
X103175917Y-88625678D01*
X103294951Y-88723366D01*
X103341385Y-88761474D01*
X103593283Y-88896116D01*
X103866609Y-88979029D01*
X104079634Y-89000010D01*
X104079643Y-89000010D01*
X104150858Y-89007024D01*
X104222073Y-89000010D01*
X105777926Y-89000010D01*
X105849141Y-89007024D01*
X105920356Y-89000010D01*
X105920366Y-89000010D01*
X106133391Y-88979029D01*
X106406717Y-88896116D01*
X106658615Y-88761474D01*
X106879406Y-88580275D01*
X106924811Y-88524949D01*
X108514944Y-86934816D01*
X108570264Y-86889416D01*
X108615701Y-86834052D01*
X108751464Y-86668625D01*
X108795133Y-86586926D01*
X108886106Y-86416727D01*
X108963325Y-86162173D01*
X109054647Y-86305389D01*
X109231472Y-86489950D01*
X109440906Y-86636468D01*
X109674900Y-86739312D01*
X109778469Y-86764547D01*
X109980000Y-86658191D01*
X109980000Y-85100000D01*
X110180000Y-85100000D01*
X110180000Y-86658191D01*
X110381531Y-86764547D01*
X110485100Y-86739312D01*
X110719094Y-86636468D01*
X110928528Y-86489950D01*
X111105353Y-86305389D01*
X111242775Y-86089877D01*
X111335512Y-85851696D01*
X111380000Y-85600000D01*
X111380000Y-85100000D01*
X110180000Y-85100000D01*
X109980000Y-85100000D01*
X109960000Y-85100000D01*
X109960000Y-84900000D01*
X109980000Y-84900000D01*
X109980000Y-84880000D01*
X110180000Y-84880000D01*
X110180000Y-84900000D01*
X111380000Y-84900000D01*
X111380000Y-84400000D01*
X111355255Y-84260000D01*
X111438807Y-84260000D01*
X111437363Y-84264760D01*
X111420000Y-84441051D01*
X111420000Y-85558950D01*
X111437363Y-85735241D01*
X111505981Y-85961442D01*
X111617410Y-86169910D01*
X111767367Y-86352634D01*
X111950091Y-86502591D01*
X112158559Y-86614019D01*
X112384760Y-86682637D01*
X112620000Y-86705806D01*
X112855241Y-86682637D01*
X113081442Y-86614019D01*
X113289910Y-86502591D01*
X113472634Y-86352634D01*
X113622591Y-86169910D01*
X113734019Y-85961442D01*
X113798160Y-85750000D01*
X115974278Y-85750000D01*
X116053486Y-85846514D01*
X116159891Y-85933839D01*
X116281288Y-85998727D01*
X116413011Y-86038685D01*
X116549999Y-86052177D01*
X117450001Y-86052177D01*
X117586989Y-86038685D01*
X117718712Y-85998727D01*
X117840109Y-85933839D01*
X117946514Y-85846514D01*
X118033839Y-85740109D01*
X118098727Y-85618712D01*
X118138685Y-85486989D01*
X118152177Y-85350001D01*
X118152177Y-84649999D01*
X118138685Y-84513011D01*
X118098727Y-84381288D01*
X118033839Y-84259891D01*
X117946514Y-84153486D01*
X117840109Y-84066161D01*
X117718712Y-84001273D01*
X117714516Y-84000000D01*
X117718712Y-83998727D01*
X117840109Y-83933839D01*
X117946514Y-83846514D01*
X118033839Y-83740109D01*
X118098727Y-83618712D01*
X118138685Y-83486989D01*
X118152177Y-83350001D01*
X118152177Y-82649999D01*
X118138685Y-82513011D01*
X118098727Y-82381288D01*
X118033839Y-82259891D01*
X117946514Y-82153486D01*
X117840109Y-82066161D01*
X117718712Y-82001273D01*
X117586989Y-81961315D01*
X117450001Y-81947823D01*
X116549999Y-81947823D01*
X116413011Y-81961315D01*
X116281288Y-82001273D01*
X116159891Y-82066161D01*
X116053486Y-82153486D01*
X115974278Y-82250000D01*
X115090000Y-82250000D01*
X115090000Y-81901050D01*
X115072637Y-81724759D01*
X115004019Y-81498558D01*
X114892591Y-81290090D01*
X114742634Y-81107366D01*
X114559909Y-80957409D01*
X114351441Y-80845981D01*
X114125240Y-80777363D01*
X113890000Y-80754194D01*
X113654759Y-80777363D01*
X113428558Y-80845981D01*
X113220090Y-80957409D01*
X113037366Y-81107366D01*
X112887409Y-81290091D01*
X112775981Y-81498559D01*
X112707363Y-81724760D01*
X112690000Y-81901051D01*
X112690000Y-83018950D01*
X112707363Y-83195241D01*
X112740995Y-83306111D01*
X112620000Y-83294194D01*
X112608404Y-83295336D01*
X112650000Y-83060000D01*
X112650000Y-82560000D01*
X111450000Y-82560000D01*
X111450000Y-82580000D01*
X111250000Y-82580000D01*
X111250000Y-82560000D01*
X110050000Y-82560000D01*
X110050000Y-83060000D01*
X110074745Y-83200000D01*
X110013402Y-83200000D01*
X110010000Y-83165456D01*
X110010000Y-81860000D01*
X110050000Y-81860000D01*
X110050000Y-82360000D01*
X111250000Y-82360000D01*
X111250000Y-80801809D01*
X111450000Y-80801809D01*
X111450000Y-82360000D01*
X112650000Y-82360000D01*
X112650000Y-81860000D01*
X112605512Y-81608304D01*
X112512775Y-81370123D01*
X112375353Y-81154611D01*
X112198528Y-80970050D01*
X111989094Y-80823532D01*
X111755100Y-80720688D01*
X111651531Y-80695453D01*
X111450000Y-80801809D01*
X111250000Y-80801809D01*
X111048469Y-80695453D01*
X110944900Y-80720688D01*
X110710906Y-80823532D01*
X110501472Y-80970050D01*
X110324647Y-81154611D01*
X110187225Y-81370123D01*
X110094488Y-81608304D01*
X110050000Y-81860000D01*
X110010000Y-81860000D01*
X110010000Y-80495012D01*
X112266845Y-78238167D01*
X112312634Y-78200590D01*
X112350212Y-78154801D01*
X112462591Y-78017867D01*
X112574019Y-77809398D01*
X112597857Y-77730815D01*
X112597339Y-77850000D01*
X112607958Y-77957819D01*
X112639408Y-78061494D01*
X112690479Y-78157042D01*
X112759210Y-78240790D01*
X112842958Y-78309521D01*
X112938506Y-78360592D01*
X113042181Y-78392042D01*
X113150000Y-78402661D01*
X113762500Y-78400000D01*
X113900000Y-78262500D01*
X113900000Y-77100000D01*
X114100000Y-77100000D01*
X114100000Y-78262500D01*
X114237500Y-78400000D01*
X114850000Y-78402661D01*
X114957819Y-78392042D01*
X115061494Y-78360592D01*
X115157042Y-78309521D01*
X115240790Y-78240790D01*
X115309521Y-78157042D01*
X115360592Y-78061494D01*
X115392042Y-77957819D01*
X115402661Y-77850000D01*
X115400000Y-77237500D01*
X115262500Y-77100000D01*
X114100000Y-77100000D01*
X113900000Y-77100000D01*
X113880000Y-77100000D01*
X113880000Y-76900000D01*
X113900000Y-76900000D01*
X113900000Y-76880000D01*
X114100000Y-76880000D01*
X114100000Y-76900000D01*
X115262500Y-76900000D01*
X115400000Y-76762500D01*
X115400187Y-76719423D01*
X121016001Y-82335237D01*
X121016000Y-85901859D01*
X121012856Y-85933781D01*
X121016000Y-85965702D01*
X121016000Y-85965712D01*
X121025405Y-86061202D01*
X121041427Y-86114019D01*
X121062573Y-86183728D01*
X121122930Y-86296649D01*
X121166010Y-86349141D01*
X121204157Y-86395624D01*
X121228962Y-86415981D01*
X122000033Y-87187053D01*
X122020386Y-87211853D01*
X122045186Y-87232206D01*
X122045188Y-87232208D01*
X122086073Y-87265761D01*
X122119361Y-87293080D01*
X122232281Y-87353437D01*
X122354807Y-87390605D01*
X122450297Y-87400010D01*
X122450307Y-87400010D01*
X122482228Y-87403154D01*
X122514149Y-87400010D01*
X123784069Y-87400010D01*
X123815990Y-87403154D01*
X123847911Y-87400010D01*
X123847922Y-87400010D01*
X123943412Y-87390605D01*
X124065938Y-87353437D01*
X124178858Y-87293080D01*
X124277833Y-87211853D01*
X124298190Y-87187048D01*
X124707043Y-86778196D01*
X124731843Y-86757843D01*
X124813070Y-86658868D01*
X124873427Y-86545948D01*
X124884279Y-86510175D01*
X125078559Y-86614019D01*
X125304760Y-86682637D01*
X125540000Y-86705806D01*
X125775241Y-86682637D01*
X126001442Y-86614019D01*
X126209910Y-86502591D01*
X126392634Y-86352634D01*
X126542591Y-86169910D01*
X126654019Y-85961442D01*
X126722637Y-85735241D01*
X126740000Y-85558950D01*
X126740000Y-85497056D01*
X126780000Y-85457056D01*
X126780000Y-85600000D01*
X126824488Y-85851696D01*
X126917225Y-86089877D01*
X127054647Y-86305389D01*
X127231472Y-86489950D01*
X127440906Y-86636468D01*
X127674900Y-86739312D01*
X127778469Y-86764547D01*
X127980000Y-86658191D01*
X127980000Y-85100000D01*
X128180000Y-85100000D01*
X128180000Y-86658191D01*
X128381531Y-86764547D01*
X128485100Y-86739312D01*
X128719094Y-86636468D01*
X128928528Y-86489950D01*
X129105353Y-86305389D01*
X129242775Y-86089877D01*
X129335512Y-85851696D01*
X129380000Y-85600000D01*
X129380000Y-85100000D01*
X128180000Y-85100000D01*
X127980000Y-85100000D01*
X127960000Y-85100000D01*
X127960000Y-84900000D01*
X127980000Y-84900000D01*
X127980000Y-84880000D01*
X128180000Y-84880000D01*
X128180000Y-84900000D01*
X129380000Y-84900000D01*
X129380000Y-84400000D01*
X129355255Y-84260000D01*
X129438807Y-84260000D01*
X129437363Y-84264760D01*
X129420000Y-84441051D01*
X129420000Y-85558950D01*
X129437363Y-85735241D01*
X129505981Y-85961442D01*
X129617410Y-86169910D01*
X129767367Y-86352634D01*
X129950091Y-86502591D01*
X130158559Y-86614019D01*
X130384760Y-86682637D01*
X130620000Y-86705806D01*
X130855241Y-86682637D01*
X131081442Y-86614019D01*
X131233503Y-86532741D01*
X131887810Y-87187048D01*
X131908167Y-87211853D01*
X131932970Y-87232208D01*
X132007141Y-87293080D01*
X132120062Y-87353437D01*
X132242588Y-87390605D01*
X132338078Y-87400010D01*
X132338089Y-87400010D01*
X132370010Y-87403154D01*
X132401931Y-87400010D01*
X141485850Y-87400010D01*
X141517771Y-87403154D01*
X141549692Y-87400010D01*
X141549703Y-87400010D01*
X141645193Y-87390605D01*
X141767719Y-87353437D01*
X141880639Y-87293080D01*
X141979614Y-87211853D01*
X141999971Y-87187048D01*
X142707043Y-86479977D01*
X142731843Y-86459624D01*
X142752873Y-86434000D01*
X142766411Y-86417503D01*
X142870091Y-86502591D01*
X143078559Y-86614019D01*
X143304760Y-86682637D01*
X143540000Y-86705806D01*
X143775241Y-86682637D01*
X144001442Y-86614019D01*
X144209910Y-86502591D01*
X144392634Y-86352634D01*
X144542591Y-86169910D01*
X144654019Y-85961442D01*
X144722637Y-85735241D01*
X144740000Y-85558950D01*
X144740000Y-85100000D01*
X144780000Y-85100000D01*
X144780000Y-85600000D01*
X144824488Y-85851696D01*
X144917225Y-86089877D01*
X145054647Y-86305389D01*
X145231472Y-86489950D01*
X145440906Y-86636468D01*
X145674900Y-86739312D01*
X145778469Y-86764547D01*
X145980000Y-86658191D01*
X145980000Y-85100000D01*
X146180000Y-85100000D01*
X146180000Y-86658191D01*
X146381531Y-86764547D01*
X146485100Y-86739312D01*
X146719094Y-86636468D01*
X146928528Y-86489950D01*
X147105353Y-86305389D01*
X147242775Y-86089877D01*
X147335512Y-85851696D01*
X147380000Y-85600000D01*
X147380000Y-85100000D01*
X146180000Y-85100000D01*
X145980000Y-85100000D01*
X144780000Y-85100000D01*
X144740000Y-85100000D01*
X144740000Y-84991458D01*
X144831458Y-84900000D01*
X145980000Y-84900000D01*
X145980000Y-84880000D01*
X146180000Y-84880000D01*
X146180000Y-84900000D01*
X147380000Y-84900000D01*
X147380000Y-84400000D01*
X147355255Y-84260000D01*
X147438807Y-84260000D01*
X147437363Y-84264760D01*
X147420000Y-84441051D01*
X147420000Y-85558950D01*
X147437363Y-85735241D01*
X147505981Y-85961442D01*
X147617410Y-86169910D01*
X147767367Y-86352634D01*
X147950091Y-86502591D01*
X148158559Y-86614019D01*
X148384760Y-86682637D01*
X148620000Y-86705806D01*
X148855241Y-86682637D01*
X149081442Y-86614019D01*
X149233503Y-86532741D01*
X149887810Y-87187048D01*
X149908167Y-87211853D01*
X149932970Y-87232208D01*
X150007141Y-87293080D01*
X150120062Y-87353437D01*
X150242588Y-87390605D01*
X150338078Y-87400010D01*
X150338089Y-87400010D01*
X150370010Y-87403154D01*
X150401931Y-87400010D01*
X159485850Y-87400010D01*
X159517771Y-87403154D01*
X159549692Y-87400010D01*
X159549703Y-87400010D01*
X159645193Y-87390605D01*
X159767719Y-87353437D01*
X159880639Y-87293080D01*
X159979614Y-87211853D01*
X159999971Y-87187048D01*
X160707043Y-86479977D01*
X160731843Y-86459624D01*
X160752873Y-86434000D01*
X160766411Y-86417503D01*
X160870091Y-86502591D01*
X161078559Y-86614019D01*
X161304760Y-86682637D01*
X161540000Y-86705806D01*
X161775241Y-86682637D01*
X162001442Y-86614019D01*
X162209910Y-86502591D01*
X162392634Y-86352634D01*
X162542591Y-86169910D01*
X162654019Y-85961442D01*
X162722637Y-85735241D01*
X162740000Y-85558950D01*
X162740000Y-85497056D01*
X162780000Y-85457056D01*
X162780000Y-85600000D01*
X162824488Y-85851696D01*
X162917225Y-86089877D01*
X163054647Y-86305389D01*
X163231472Y-86489950D01*
X163440906Y-86636468D01*
X163674900Y-86739312D01*
X163778469Y-86764547D01*
X163980000Y-86658191D01*
X163980000Y-85100000D01*
X164180000Y-85100000D01*
X164180000Y-86658191D01*
X164381531Y-86764547D01*
X164485100Y-86739312D01*
X164719094Y-86636468D01*
X164928528Y-86489950D01*
X165105353Y-86305389D01*
X165242775Y-86089877D01*
X165335512Y-85851696D01*
X165380000Y-85600000D01*
X165380000Y-85100000D01*
X164180000Y-85100000D01*
X163980000Y-85100000D01*
X163960000Y-85100000D01*
X163960000Y-84900000D01*
X163980000Y-84900000D01*
X163980000Y-84880000D01*
X164180000Y-84880000D01*
X164180000Y-84900000D01*
X165380000Y-84900000D01*
X165380000Y-84400000D01*
X165355255Y-84260000D01*
X165438807Y-84260000D01*
X165437363Y-84264760D01*
X165420000Y-84441051D01*
X165420000Y-85558950D01*
X165437363Y-85735241D01*
X165505981Y-85961442D01*
X165617410Y-86169910D01*
X165767367Y-86352634D01*
X165950091Y-86502591D01*
X166158559Y-86614019D01*
X166384760Y-86682637D01*
X166620000Y-86705806D01*
X166855241Y-86682637D01*
X167081442Y-86614019D01*
X167233503Y-86532741D01*
X168221804Y-87521043D01*
X168242157Y-87545843D01*
X168266957Y-87566196D01*
X168266959Y-87566198D01*
X168319837Y-87609593D01*
X168341132Y-87627070D01*
X168454052Y-87687427D01*
X168576578Y-87724595D01*
X168672068Y-87734000D01*
X168672078Y-87734000D01*
X168703999Y-87737144D01*
X168735921Y-87734000D01*
X178238069Y-87734000D01*
X178270000Y-87737145D01*
X178397422Y-87724595D01*
X178519948Y-87687427D01*
X178632868Y-87627070D01*
X178731843Y-87545843D01*
X178813070Y-87446868D01*
X178873427Y-87333948D01*
X178910595Y-87211422D01*
X178920000Y-87115932D01*
X178923145Y-87084000D01*
X178920000Y-87052068D01*
X178920000Y-86529268D01*
X179078559Y-86614019D01*
X179304760Y-86682637D01*
X179540000Y-86705806D01*
X179775241Y-86682637D01*
X180001442Y-86614019D01*
X180209910Y-86502591D01*
X180392634Y-86352634D01*
X180542591Y-86169910D01*
X180654019Y-85961442D01*
X180722637Y-85735241D01*
X180740000Y-85558950D01*
X180740000Y-85100000D01*
X180780000Y-85100000D01*
X180780000Y-85600000D01*
X180824488Y-85851696D01*
X180917225Y-86089877D01*
X181054647Y-86305389D01*
X181231472Y-86489950D01*
X181440906Y-86636468D01*
X181674900Y-86739312D01*
X181778469Y-86764547D01*
X181980000Y-86658191D01*
X181980000Y-85100000D01*
X182180000Y-85100000D01*
X182180000Y-86658191D01*
X182381531Y-86764547D01*
X182485100Y-86739312D01*
X182719094Y-86636468D01*
X182928528Y-86489950D01*
X183105353Y-86305389D01*
X183242775Y-86089877D01*
X183335512Y-85851696D01*
X183380000Y-85600000D01*
X183380000Y-85100000D01*
X182180000Y-85100000D01*
X181980000Y-85100000D01*
X180780000Y-85100000D01*
X180740000Y-85100000D01*
X180740000Y-84991458D01*
X180831458Y-84900000D01*
X181980000Y-84900000D01*
X181980000Y-84880000D01*
X182180000Y-84880000D01*
X182180000Y-84900000D01*
X183380000Y-84900000D01*
X183380000Y-84400000D01*
X183355255Y-84260000D01*
X183438807Y-84260000D01*
X183437363Y-84264760D01*
X183420000Y-84441051D01*
X183420000Y-85558950D01*
X183437363Y-85735241D01*
X183505981Y-85961442D01*
X183617410Y-86169910D01*
X183767367Y-86352634D01*
X183950091Y-86502591D01*
X184158559Y-86614019D01*
X184384760Y-86682637D01*
X184620000Y-86705806D01*
X184855241Y-86682637D01*
X185081442Y-86614019D01*
X185289910Y-86502591D01*
X185472634Y-86352634D01*
X185622591Y-86169910D01*
X185734019Y-85961442D01*
X185767825Y-85850000D01*
X187057734Y-85850000D01*
X187159891Y-85933839D01*
X187281288Y-85998727D01*
X187413011Y-86038685D01*
X187549999Y-86052177D01*
X188450001Y-86052177D01*
X188586989Y-86038685D01*
X188718712Y-85998727D01*
X188840109Y-85933839D01*
X188946514Y-85846514D01*
X189033839Y-85740109D01*
X189098727Y-85618712D01*
X189138685Y-85486989D01*
X189152177Y-85350001D01*
X189152177Y-84649999D01*
X189138685Y-84513011D01*
X189098727Y-84381288D01*
X189033839Y-84259891D01*
X188946514Y-84153486D01*
X188840109Y-84066161D01*
X188718712Y-84001273D01*
X188714516Y-84000000D01*
X188718712Y-83998727D01*
X188840109Y-83933839D01*
X188946514Y-83846514D01*
X189033839Y-83740109D01*
X189098727Y-83618712D01*
X189138685Y-83486989D01*
X189152177Y-83350001D01*
X189152177Y-82649999D01*
X189138685Y-82513011D01*
X189098727Y-82381288D01*
X189033839Y-82259891D01*
X188946514Y-82153486D01*
X188840109Y-82066161D01*
X188718712Y-82001273D01*
X188586989Y-81961315D01*
X188450001Y-81947823D01*
X187549999Y-81947823D01*
X187413011Y-81961315D01*
X187281288Y-82001273D01*
X187159891Y-82066161D01*
X187090000Y-82123520D01*
X187090000Y-81901050D01*
X187072637Y-81724759D01*
X187004019Y-81498558D01*
X186892591Y-81290090D01*
X186742634Y-81107366D01*
X186559909Y-80957409D01*
X186351441Y-80845981D01*
X186125240Y-80777363D01*
X185890000Y-80754194D01*
X185654759Y-80777363D01*
X185428558Y-80845981D01*
X185220090Y-80957409D01*
X185037366Y-81107366D01*
X184887409Y-81290091D01*
X184775981Y-81498559D01*
X184707363Y-81724760D01*
X184690000Y-81901051D01*
X184690000Y-83018950D01*
X184707363Y-83195241D01*
X184740995Y-83306111D01*
X184620000Y-83294194D01*
X184608404Y-83295336D01*
X184650000Y-83060000D01*
X184650000Y-82560000D01*
X183450000Y-82560000D01*
X183450000Y-82580000D01*
X183250000Y-82580000D01*
X183250000Y-82560000D01*
X183230000Y-82560000D01*
X183230000Y-82360000D01*
X183250000Y-82360000D01*
X183250000Y-80801809D01*
X183450000Y-80801809D01*
X183450000Y-82360000D01*
X184650000Y-82360000D01*
X184650000Y-81860000D01*
X184605512Y-81608304D01*
X184512775Y-81370123D01*
X184375353Y-81154611D01*
X184198528Y-80970050D01*
X183989094Y-80823532D01*
X183755100Y-80720688D01*
X183651531Y-80695453D01*
X183450000Y-80801809D01*
X183250000Y-80801809D01*
X183048469Y-80695453D01*
X182944900Y-80720688D01*
X182710906Y-80823532D01*
X182501472Y-80970050D01*
X182324647Y-81154611D01*
X182233325Y-81297827D01*
X182156106Y-81043273D01*
X182021464Y-80791375D01*
X181840265Y-80570584D01*
X181784939Y-80525179D01*
X180194811Y-78935051D01*
X180149406Y-78879725D01*
X179928615Y-78698526D01*
X179676717Y-78563884D01*
X179403391Y-78480971D01*
X179190366Y-78459990D01*
X179190356Y-78459990D01*
X179119141Y-78452976D01*
X179047926Y-78459990D01*
X163239235Y-78459990D01*
X163168010Y-78452975D01*
X163096785Y-78459990D01*
X144751205Y-78459990D01*
X144679990Y-78452976D01*
X144608775Y-78459990D01*
X126717205Y-78459990D01*
X126645990Y-78452976D01*
X126574775Y-78459990D01*
X123271934Y-78459990D01*
X119595263Y-74783319D01*
X192800000Y-74783319D01*
X192800000Y-75216681D01*
X192884545Y-75641716D01*
X193050385Y-76042091D01*
X193291148Y-76402418D01*
X193597582Y-76708852D01*
X193957909Y-76949615D01*
X194358284Y-77115455D01*
X194783319Y-77200000D01*
X195216681Y-77200000D01*
X195641716Y-77115455D01*
X196042091Y-76949615D01*
X196402418Y-76708852D01*
X196708852Y-76402418D01*
X196949615Y-76042091D01*
X197115455Y-75641716D01*
X197200000Y-75216681D01*
X197200000Y-74783319D01*
X197115455Y-74358284D01*
X196949615Y-73957909D01*
X196708852Y-73597582D01*
X196402418Y-73291148D01*
X196042091Y-73050385D01*
X195641716Y-72884545D01*
X195216681Y-72800000D01*
X194783319Y-72800000D01*
X194358284Y-72884545D01*
X193957909Y-73050385D01*
X193597582Y-73291148D01*
X193291148Y-73597582D01*
X193050385Y-73957909D01*
X192884545Y-74358284D01*
X192800000Y-74783319D01*
X119595263Y-74783319D01*
X117286983Y-72475040D01*
X117241578Y-72419714D01*
X117020787Y-72238515D01*
X116768889Y-72103873D01*
X116495563Y-72020960D01*
X116282538Y-71999979D01*
X116282528Y-71999979D01*
X116211313Y-71992965D01*
X116140098Y-71999979D01*
X106819233Y-71999979D01*
X106748018Y-71992965D01*
X106676803Y-71999979D01*
X106676794Y-71999979D01*
X106463769Y-72020960D01*
X106190443Y-72103873D01*
X106064494Y-72171194D01*
X105938544Y-72238515D01*
X105773077Y-72374311D01*
X105773074Y-72374314D01*
X105717754Y-72419714D01*
X105672353Y-72475035D01*
X101975047Y-76172342D01*
X101919725Y-76217744D01*
X101874325Y-76273064D01*
X101874322Y-76273067D01*
X101738527Y-76438534D01*
X101738526Y-76438535D01*
X101603884Y-76690433D01*
X101520971Y-76963759D01*
X101499990Y-77176784D01*
X101499990Y-77176793D01*
X101492976Y-77248008D01*
X90475000Y-77248008D01*
X90475000Y-74783319D01*
X92800000Y-74783319D01*
X92800000Y-75216681D01*
X92884545Y-75641716D01*
X93050385Y-76042091D01*
X93291148Y-76402418D01*
X93597582Y-76708852D01*
X93957909Y-76949615D01*
X94358284Y-77115455D01*
X94783319Y-77200000D01*
X95216681Y-77200000D01*
X95641716Y-77115455D01*
X96042091Y-76949615D01*
X96402418Y-76708852D01*
X96708852Y-76402418D01*
X96949615Y-76042091D01*
X97115455Y-75641716D01*
X97200000Y-75216681D01*
X97200000Y-74783319D01*
X97115455Y-74358284D01*
X96949615Y-73957909D01*
X96708852Y-73597582D01*
X96402418Y-73291148D01*
X96042091Y-73050385D01*
X95641716Y-72884545D01*
X95216681Y-72800000D01*
X94783319Y-72800000D01*
X94358284Y-72884545D01*
X93957909Y-73050385D01*
X93597582Y-73291148D01*
X93291148Y-73597582D01*
X93050385Y-73957909D01*
X92884545Y-74358284D01*
X92800000Y-74783319D01*
X90475000Y-74783319D01*
X90475000Y-70475000D01*
X199525000Y-70475000D01*
X199525001Y-99525000D01*
%TA.AperFunction,Conductor*%
D21*
G36*
X199525001Y-99525000D02*
G01*
X90475000Y-99525000D01*
X90475000Y-94783319D01*
X92800000Y-94783319D01*
X92800000Y-95216681D01*
X92884545Y-95641716D01*
X93050385Y-96042091D01*
X93291148Y-96402418D01*
X93597582Y-96708852D01*
X93957909Y-96949615D01*
X94358284Y-97115455D01*
X94783319Y-97200000D01*
X95216681Y-97200000D01*
X95641716Y-97115455D01*
X96042091Y-96949615D01*
X96402418Y-96708852D01*
X96708852Y-96402418D01*
X96949615Y-96042091D01*
X97115455Y-95641716D01*
X97200000Y-95216681D01*
X97200000Y-94783319D01*
X192800000Y-94783319D01*
X192800000Y-95216681D01*
X192884545Y-95641716D01*
X193050385Y-96042091D01*
X193291148Y-96402418D01*
X193597582Y-96708852D01*
X193957909Y-96949615D01*
X194358284Y-97115455D01*
X194783319Y-97200000D01*
X195216681Y-97200000D01*
X195641716Y-97115455D01*
X196042091Y-96949615D01*
X196402418Y-96708852D01*
X196708852Y-96402418D01*
X196949615Y-96042091D01*
X197115455Y-95641716D01*
X197200000Y-95216681D01*
X197200000Y-94783319D01*
X197115455Y-94358284D01*
X196949615Y-93957909D01*
X196708852Y-93597582D01*
X196402418Y-93291148D01*
X196042091Y-93050385D01*
X195641716Y-92884545D01*
X195216681Y-92800000D01*
X194783319Y-92800000D01*
X194358284Y-92884545D01*
X193957909Y-93050385D01*
X193597582Y-93291148D01*
X193291148Y-93597582D01*
X193050385Y-93957909D01*
X192884545Y-94358284D01*
X192800000Y-94783319D01*
X97200000Y-94783319D01*
X97115455Y-94358284D01*
X96949615Y-93957909D01*
X96708852Y-93597582D01*
X96402418Y-93291148D01*
X96042091Y-93050385D01*
X95641716Y-92884545D01*
X95216681Y-92800000D01*
X94783319Y-92800000D01*
X94358284Y-92884545D01*
X93957909Y-93050385D01*
X93597582Y-93291148D01*
X93291148Y-93597582D01*
X93050385Y-93957909D01*
X92884545Y-94358284D01*
X92800000Y-94783319D01*
X90475000Y-94783319D01*
X90475000Y-91148093D01*
X101680000Y-91148093D01*
X101680000Y-91551907D01*
X101758780Y-91947963D01*
X101913314Y-92321039D01*
X102137661Y-92656799D01*
X102423201Y-92942339D01*
X102758961Y-93166686D01*
X103132037Y-93321220D01*
X103528093Y-93400000D01*
X103931907Y-93400000D01*
X104327963Y-93321220D01*
X104701039Y-93166686D01*
X105036799Y-92942339D01*
X105322339Y-92656799D01*
X105546686Y-92321039D01*
X105701220Y-91947963D01*
X105780000Y-91551907D01*
X105780000Y-91148093D01*
X113110000Y-91148093D01*
X113110000Y-91551907D01*
X113188780Y-91947963D01*
X113343314Y-92321039D01*
X113567661Y-92656799D01*
X113853201Y-92942339D01*
X114188961Y-93166686D01*
X114562037Y-93321220D01*
X114958093Y-93400000D01*
X115361907Y-93400000D01*
X115757963Y-93321220D01*
X116131039Y-93166686D01*
X116466799Y-92942339D01*
X116752339Y-92656799D01*
X116976686Y-92321039D01*
X117131220Y-91947963D01*
X117210000Y-91551907D01*
X117210000Y-91148093D01*
X119680000Y-91148093D01*
X119680000Y-91551907D01*
X119758780Y-91947963D01*
X119913314Y-92321039D01*
X120137661Y-92656799D01*
X120423201Y-92942339D01*
X120758961Y-93166686D01*
X121132037Y-93321220D01*
X121528093Y-93400000D01*
X121931907Y-93400000D01*
X122327963Y-93321220D01*
X122701039Y-93166686D01*
X123036799Y-92942339D01*
X123322339Y-92656799D01*
X123546686Y-92321039D01*
X123701220Y-91947963D01*
X123780000Y-91551907D01*
X123780000Y-91148093D01*
X131110000Y-91148093D01*
X131110000Y-91551907D01*
X131188780Y-91947963D01*
X131343314Y-92321039D01*
X131567661Y-92656799D01*
X131853201Y-92942339D01*
X132188961Y-93166686D01*
X132562037Y-93321220D01*
X132958093Y-93400000D01*
X133361907Y-93400000D01*
X133757963Y-93321220D01*
X134131039Y-93166686D01*
X134466799Y-92942339D01*
X134752339Y-92656799D01*
X134976686Y-92321039D01*
X135131220Y-91947963D01*
X135210000Y-91551907D01*
X135210000Y-91148093D01*
X137680000Y-91148093D01*
X137680000Y-91551907D01*
X137758780Y-91947963D01*
X137913314Y-92321039D01*
X138137661Y-92656799D01*
X138423201Y-92942339D01*
X138758961Y-93166686D01*
X139132037Y-93321220D01*
X139528093Y-93400000D01*
X139931907Y-93400000D01*
X140327963Y-93321220D01*
X140701039Y-93166686D01*
X141036799Y-92942339D01*
X141322339Y-92656799D01*
X141546686Y-92321039D01*
X141701220Y-91947963D01*
X141780000Y-91551907D01*
X141780000Y-91148093D01*
X149110000Y-91148093D01*
X149110000Y-91551907D01*
X149188780Y-91947963D01*
X149343314Y-92321039D01*
X149567661Y-92656799D01*
X149853201Y-92942339D01*
X150188961Y-93166686D01*
X150562037Y-93321220D01*
X150958093Y-93400000D01*
X151361907Y-93400000D01*
X151757963Y-93321220D01*
X152131039Y-93166686D01*
X152466799Y-92942339D01*
X152752339Y-92656799D01*
X152976686Y-92321039D01*
X153131220Y-91947963D01*
X153210000Y-91551907D01*
X153210000Y-91148093D01*
X155680000Y-91148093D01*
X155680000Y-91551907D01*
X155758780Y-91947963D01*
X155913314Y-92321039D01*
X156137661Y-92656799D01*
X156423201Y-92942339D01*
X156758961Y-93166686D01*
X157132037Y-93321220D01*
X157528093Y-93400000D01*
X157931907Y-93400000D01*
X158327963Y-93321220D01*
X158701039Y-93166686D01*
X159036799Y-92942339D01*
X159322339Y-92656799D01*
X159546686Y-92321039D01*
X159701220Y-91947963D01*
X159780000Y-91551907D01*
X159780000Y-91148093D01*
X167110000Y-91148093D01*
X167110000Y-91551907D01*
X167188780Y-91947963D01*
X167343314Y-92321039D01*
X167567661Y-92656799D01*
X167853201Y-92942339D01*
X168188961Y-93166686D01*
X168562037Y-93321220D01*
X168958093Y-93400000D01*
X169361907Y-93400000D01*
X169757963Y-93321220D01*
X170131039Y-93166686D01*
X170466799Y-92942339D01*
X170752339Y-92656799D01*
X170976686Y-92321039D01*
X171131220Y-91947963D01*
X171210000Y-91551907D01*
X171210000Y-91148093D01*
X173680000Y-91148093D01*
X173680000Y-91551907D01*
X173758780Y-91947963D01*
X173913314Y-92321039D01*
X174137661Y-92656799D01*
X174423201Y-92942339D01*
X174758961Y-93166686D01*
X175132037Y-93321220D01*
X175528093Y-93400000D01*
X175931907Y-93400000D01*
X176327963Y-93321220D01*
X176701039Y-93166686D01*
X177036799Y-92942339D01*
X177322339Y-92656799D01*
X177546686Y-92321039D01*
X177701220Y-91947963D01*
X177780000Y-91551907D01*
X177780000Y-91148093D01*
X185110000Y-91148093D01*
X185110000Y-91551907D01*
X185188780Y-91947963D01*
X185343314Y-92321039D01*
X185567661Y-92656799D01*
X185853201Y-92942339D01*
X186188961Y-93166686D01*
X186562037Y-93321220D01*
X186958093Y-93400000D01*
X187361907Y-93400000D01*
X187757963Y-93321220D01*
X188131039Y-93166686D01*
X188466799Y-92942339D01*
X188752339Y-92656799D01*
X188976686Y-92321039D01*
X189131220Y-91947963D01*
X189210000Y-91551907D01*
X189210000Y-91148093D01*
X189131220Y-90752037D01*
X188976686Y-90378961D01*
X188752339Y-90043201D01*
X188466799Y-89757661D01*
X188131039Y-89533314D01*
X187757963Y-89378780D01*
X187361907Y-89300000D01*
X186958093Y-89300000D01*
X186562037Y-89378780D01*
X186188961Y-89533314D01*
X185853201Y-89757661D01*
X185567661Y-90043201D01*
X185343314Y-90378961D01*
X185188780Y-90752037D01*
X185110000Y-91148093D01*
X177780000Y-91148093D01*
X177701220Y-90752037D01*
X177546686Y-90378961D01*
X177322339Y-90043201D01*
X177036799Y-89757661D01*
X176701039Y-89533314D01*
X176327963Y-89378780D01*
X175931907Y-89300000D01*
X175528093Y-89300000D01*
X175132037Y-89378780D01*
X174758961Y-89533314D01*
X174423201Y-89757661D01*
X174137661Y-90043201D01*
X173913314Y-90378961D01*
X173758780Y-90752037D01*
X173680000Y-91148093D01*
X171210000Y-91148093D01*
X171131220Y-90752037D01*
X170976686Y-90378961D01*
X170752339Y-90043201D01*
X170466799Y-89757661D01*
X170131039Y-89533314D01*
X169757963Y-89378780D01*
X169361907Y-89300000D01*
X168958093Y-89300000D01*
X168562037Y-89378780D01*
X168188961Y-89533314D01*
X167853201Y-89757661D01*
X167567661Y-90043201D01*
X167343314Y-90378961D01*
X167188780Y-90752037D01*
X167110000Y-91148093D01*
X159780000Y-91148093D01*
X159701220Y-90752037D01*
X159546686Y-90378961D01*
X159322339Y-90043201D01*
X159036799Y-89757661D01*
X158701039Y-89533314D01*
X158327963Y-89378780D01*
X157931907Y-89300000D01*
X157528093Y-89300000D01*
X157132037Y-89378780D01*
X156758961Y-89533314D01*
X156423201Y-89757661D01*
X156137661Y-90043201D01*
X155913314Y-90378961D01*
X155758780Y-90752037D01*
X155680000Y-91148093D01*
X153210000Y-91148093D01*
X153131220Y-90752037D01*
X152976686Y-90378961D01*
X152752339Y-90043201D01*
X152466799Y-89757661D01*
X152131039Y-89533314D01*
X151757963Y-89378780D01*
X151361907Y-89300000D01*
X150958093Y-89300000D01*
X150562037Y-89378780D01*
X150188961Y-89533314D01*
X149853201Y-89757661D01*
X149567661Y-90043201D01*
X149343314Y-90378961D01*
X149188780Y-90752037D01*
X149110000Y-91148093D01*
X141780000Y-91148093D01*
X141701220Y-90752037D01*
X141546686Y-90378961D01*
X141322339Y-90043201D01*
X141036799Y-89757661D01*
X140701039Y-89533314D01*
X140327963Y-89378780D01*
X139931907Y-89300000D01*
X139528093Y-89300000D01*
X139132037Y-89378780D01*
X138758961Y-89533314D01*
X138423201Y-89757661D01*
X138137661Y-90043201D01*
X137913314Y-90378961D01*
X137758780Y-90752037D01*
X137680000Y-91148093D01*
X135210000Y-91148093D01*
X135131220Y-90752037D01*
X134976686Y-90378961D01*
X134752339Y-90043201D01*
X134466799Y-89757661D01*
X134131039Y-89533314D01*
X133757963Y-89378780D01*
X133361907Y-89300000D01*
X132958093Y-89300000D01*
X132562037Y-89378780D01*
X132188961Y-89533314D01*
X131853201Y-89757661D01*
X131567661Y-90043201D01*
X131343314Y-90378961D01*
X131188780Y-90752037D01*
X131110000Y-91148093D01*
X123780000Y-91148093D01*
X123701220Y-90752037D01*
X123546686Y-90378961D01*
X123322339Y-90043201D01*
X123036799Y-89757661D01*
X122701039Y-89533314D01*
X122327963Y-89378780D01*
X121931907Y-89300000D01*
X121528093Y-89300000D01*
X121132037Y-89378780D01*
X120758961Y-89533314D01*
X120423201Y-89757661D01*
X120137661Y-90043201D01*
X119913314Y-90378961D01*
X119758780Y-90752037D01*
X119680000Y-91148093D01*
X117210000Y-91148093D01*
X117131220Y-90752037D01*
X116976686Y-90378961D01*
X116752339Y-90043201D01*
X116466799Y-89757661D01*
X116131039Y-89533314D01*
X115757963Y-89378780D01*
X115361907Y-89300000D01*
X114958093Y-89300000D01*
X114562037Y-89378780D01*
X114188961Y-89533314D01*
X113853201Y-89757661D01*
X113567661Y-90043201D01*
X113343314Y-90378961D01*
X113188780Y-90752037D01*
X113110000Y-91148093D01*
X105780000Y-91148093D01*
X105701220Y-90752037D01*
X105546686Y-90378961D01*
X105322339Y-90043201D01*
X105036799Y-89757661D01*
X104701039Y-89533314D01*
X104327963Y-89378780D01*
X103931907Y-89300000D01*
X103528093Y-89300000D01*
X103132037Y-89378780D01*
X102758961Y-89533314D01*
X102423201Y-89757661D01*
X102137661Y-90043201D01*
X101913314Y-90378961D01*
X101758780Y-90752037D01*
X101680000Y-91148093D01*
X90475000Y-91148093D01*
X90475000Y-77248008D01*
X101492976Y-77248008D01*
X101499990Y-77319223D01*
X101499991Y-86277916D01*
X101492976Y-86349141D01*
X101499991Y-86420366D01*
X101520972Y-86633391D01*
X101528701Y-86658869D01*
X101603884Y-86906715D01*
X101738526Y-87158614D01*
X101874322Y-87324082D01*
X101874326Y-87324086D01*
X101919726Y-87379406D01*
X101975046Y-87424806D01*
X103075193Y-88524954D01*
X103120594Y-88580275D01*
X103175914Y-88625675D01*
X103175917Y-88625678D01*
X103294951Y-88723366D01*
X103341385Y-88761474D01*
X103593283Y-88896116D01*
X103866609Y-88979029D01*
X104079634Y-89000010D01*
X104079643Y-89000010D01*
X104150858Y-89007024D01*
X104222073Y-89000010D01*
X105777926Y-89000010D01*
X105849141Y-89007024D01*
X105920356Y-89000010D01*
X105920366Y-89000010D01*
X106133391Y-88979029D01*
X106406717Y-88896116D01*
X106658615Y-88761474D01*
X106879406Y-88580275D01*
X106924811Y-88524949D01*
X108514944Y-86934816D01*
X108570264Y-86889416D01*
X108615701Y-86834052D01*
X108751464Y-86668625D01*
X108795133Y-86586926D01*
X108886106Y-86416727D01*
X108963325Y-86162173D01*
X109054647Y-86305389D01*
X109231472Y-86489950D01*
X109440906Y-86636468D01*
X109674900Y-86739312D01*
X109778469Y-86764547D01*
X109980000Y-86658191D01*
X109980000Y-85100000D01*
X110180000Y-85100000D01*
X110180000Y-86658191D01*
X110381531Y-86764547D01*
X110485100Y-86739312D01*
X110719094Y-86636468D01*
X110928528Y-86489950D01*
X111105353Y-86305389D01*
X111242775Y-86089877D01*
X111335512Y-85851696D01*
X111380000Y-85600000D01*
X111380000Y-85100000D01*
X110180000Y-85100000D01*
X109980000Y-85100000D01*
X109960000Y-85100000D01*
X109960000Y-84900000D01*
X109980000Y-84900000D01*
X109980000Y-84880000D01*
X110180000Y-84880000D01*
X110180000Y-84900000D01*
X111380000Y-84900000D01*
X111380000Y-84400000D01*
X111355255Y-84260000D01*
X111438807Y-84260000D01*
X111437363Y-84264760D01*
X111420000Y-84441051D01*
X111420000Y-85558950D01*
X111437363Y-85735241D01*
X111505981Y-85961442D01*
X111617410Y-86169910D01*
X111767367Y-86352634D01*
X111950091Y-86502591D01*
X112158559Y-86614019D01*
X112384760Y-86682637D01*
X112620000Y-86705806D01*
X112855241Y-86682637D01*
X113081442Y-86614019D01*
X113289910Y-86502591D01*
X113472634Y-86352634D01*
X113622591Y-86169910D01*
X113734019Y-85961442D01*
X113798160Y-85750000D01*
X115974278Y-85750000D01*
X116053486Y-85846514D01*
X116159891Y-85933839D01*
X116281288Y-85998727D01*
X116413011Y-86038685D01*
X116549999Y-86052177D01*
X117450001Y-86052177D01*
X117586989Y-86038685D01*
X117718712Y-85998727D01*
X117840109Y-85933839D01*
X117946514Y-85846514D01*
X118033839Y-85740109D01*
X118098727Y-85618712D01*
X118138685Y-85486989D01*
X118152177Y-85350001D01*
X118152177Y-84649999D01*
X118138685Y-84513011D01*
X118098727Y-84381288D01*
X118033839Y-84259891D01*
X117946514Y-84153486D01*
X117840109Y-84066161D01*
X117718712Y-84001273D01*
X117714516Y-84000000D01*
X117718712Y-83998727D01*
X117840109Y-83933839D01*
X117946514Y-83846514D01*
X118033839Y-83740109D01*
X118098727Y-83618712D01*
X118138685Y-83486989D01*
X118152177Y-83350001D01*
X118152177Y-82649999D01*
X118138685Y-82513011D01*
X118098727Y-82381288D01*
X118033839Y-82259891D01*
X117946514Y-82153486D01*
X117840109Y-82066161D01*
X117718712Y-82001273D01*
X117586989Y-81961315D01*
X117450001Y-81947823D01*
X116549999Y-81947823D01*
X116413011Y-81961315D01*
X116281288Y-82001273D01*
X116159891Y-82066161D01*
X116053486Y-82153486D01*
X115974278Y-82250000D01*
X115090000Y-82250000D01*
X115090000Y-81901050D01*
X115072637Y-81724759D01*
X115004019Y-81498558D01*
X114892591Y-81290090D01*
X114742634Y-81107366D01*
X114559909Y-80957409D01*
X114351441Y-80845981D01*
X114125240Y-80777363D01*
X113890000Y-80754194D01*
X113654759Y-80777363D01*
X113428558Y-80845981D01*
X113220090Y-80957409D01*
X113037366Y-81107366D01*
X112887409Y-81290091D01*
X112775981Y-81498559D01*
X112707363Y-81724760D01*
X112690000Y-81901051D01*
X112690000Y-83018950D01*
X112707363Y-83195241D01*
X112740995Y-83306111D01*
X112620000Y-83294194D01*
X112608404Y-83295336D01*
X112650000Y-83060000D01*
X112650000Y-82560000D01*
X111450000Y-82560000D01*
X111450000Y-82580000D01*
X111250000Y-82580000D01*
X111250000Y-82560000D01*
X110050000Y-82560000D01*
X110050000Y-83060000D01*
X110074745Y-83200000D01*
X110013402Y-83200000D01*
X110010000Y-83165456D01*
X110010000Y-81860000D01*
X110050000Y-81860000D01*
X110050000Y-82360000D01*
X111250000Y-82360000D01*
X111250000Y-80801809D01*
X111450000Y-80801809D01*
X111450000Y-82360000D01*
X112650000Y-82360000D01*
X112650000Y-81860000D01*
X112605512Y-81608304D01*
X112512775Y-81370123D01*
X112375353Y-81154611D01*
X112198528Y-80970050D01*
X111989094Y-80823532D01*
X111755100Y-80720688D01*
X111651531Y-80695453D01*
X111450000Y-80801809D01*
X111250000Y-80801809D01*
X111048469Y-80695453D01*
X110944900Y-80720688D01*
X110710906Y-80823532D01*
X110501472Y-80970050D01*
X110324647Y-81154611D01*
X110187225Y-81370123D01*
X110094488Y-81608304D01*
X110050000Y-81860000D01*
X110010000Y-81860000D01*
X110010000Y-80495012D01*
X112266845Y-78238167D01*
X112312634Y-78200590D01*
X112350212Y-78154801D01*
X112462591Y-78017867D01*
X112574019Y-77809398D01*
X112597857Y-77730815D01*
X112597339Y-77850000D01*
X112607958Y-77957819D01*
X112639408Y-78061494D01*
X112690479Y-78157042D01*
X112759210Y-78240790D01*
X112842958Y-78309521D01*
X112938506Y-78360592D01*
X113042181Y-78392042D01*
X113150000Y-78402661D01*
X113762500Y-78400000D01*
X113900000Y-78262500D01*
X113900000Y-77100000D01*
X114100000Y-77100000D01*
X114100000Y-78262500D01*
X114237500Y-78400000D01*
X114850000Y-78402661D01*
X114957819Y-78392042D01*
X115061494Y-78360592D01*
X115157042Y-78309521D01*
X115240790Y-78240790D01*
X115309521Y-78157042D01*
X115360592Y-78061494D01*
X115392042Y-77957819D01*
X115402661Y-77850000D01*
X115400000Y-77237500D01*
X115262500Y-77100000D01*
X114100000Y-77100000D01*
X113900000Y-77100000D01*
X113880000Y-77100000D01*
X113880000Y-76900000D01*
X113900000Y-76900000D01*
X113900000Y-76880000D01*
X114100000Y-76880000D01*
X114100000Y-76900000D01*
X115262500Y-76900000D01*
X115400000Y-76762500D01*
X115400187Y-76719423D01*
X121016001Y-82335237D01*
X121016000Y-85901859D01*
X121012856Y-85933781D01*
X121016000Y-85965702D01*
X121016000Y-85965712D01*
X121025405Y-86061202D01*
X121041427Y-86114019D01*
X121062573Y-86183728D01*
X121122930Y-86296649D01*
X121166010Y-86349141D01*
X121204157Y-86395624D01*
X121228962Y-86415981D01*
X122000033Y-87187053D01*
X122020386Y-87211853D01*
X122045186Y-87232206D01*
X122045188Y-87232208D01*
X122086073Y-87265761D01*
X122119361Y-87293080D01*
X122232281Y-87353437D01*
X122354807Y-87390605D01*
X122450297Y-87400010D01*
X122450307Y-87400010D01*
X122482228Y-87403154D01*
X122514149Y-87400010D01*
X123784069Y-87400010D01*
X123815990Y-87403154D01*
X123847911Y-87400010D01*
X123847922Y-87400010D01*
X123943412Y-87390605D01*
X124065938Y-87353437D01*
X124178858Y-87293080D01*
X124277833Y-87211853D01*
X124298190Y-87187048D01*
X124707043Y-86778196D01*
X124731843Y-86757843D01*
X124813070Y-86658868D01*
X124873427Y-86545948D01*
X124884279Y-86510175D01*
X125078559Y-86614019D01*
X125304760Y-86682637D01*
X125540000Y-86705806D01*
X125775241Y-86682637D01*
X126001442Y-86614019D01*
X126209910Y-86502591D01*
X126392634Y-86352634D01*
X126542591Y-86169910D01*
X126654019Y-85961442D01*
X126722637Y-85735241D01*
X126740000Y-85558950D01*
X126740000Y-85497056D01*
X126780000Y-85457056D01*
X126780000Y-85600000D01*
X126824488Y-85851696D01*
X126917225Y-86089877D01*
X127054647Y-86305389D01*
X127231472Y-86489950D01*
X127440906Y-86636468D01*
X127674900Y-86739312D01*
X127778469Y-86764547D01*
X127980000Y-86658191D01*
X127980000Y-85100000D01*
X128180000Y-85100000D01*
X128180000Y-86658191D01*
X128381531Y-86764547D01*
X128485100Y-86739312D01*
X128719094Y-86636468D01*
X128928528Y-86489950D01*
X129105353Y-86305389D01*
X129242775Y-86089877D01*
X129335512Y-85851696D01*
X129380000Y-85600000D01*
X129380000Y-85100000D01*
X128180000Y-85100000D01*
X127980000Y-85100000D01*
X127960000Y-85100000D01*
X127960000Y-84900000D01*
X127980000Y-84900000D01*
X127980000Y-84880000D01*
X128180000Y-84880000D01*
X128180000Y-84900000D01*
X129380000Y-84900000D01*
X129380000Y-84400000D01*
X129355255Y-84260000D01*
X129438807Y-84260000D01*
X129437363Y-84264760D01*
X129420000Y-84441051D01*
X129420000Y-85558950D01*
X129437363Y-85735241D01*
X129505981Y-85961442D01*
X129617410Y-86169910D01*
X129767367Y-86352634D01*
X129950091Y-86502591D01*
X130158559Y-86614019D01*
X130384760Y-86682637D01*
X130620000Y-86705806D01*
X130855241Y-86682637D01*
X131081442Y-86614019D01*
X131233503Y-86532741D01*
X131887810Y-87187048D01*
X131908167Y-87211853D01*
X131932970Y-87232208D01*
X132007141Y-87293080D01*
X132120062Y-87353437D01*
X132242588Y-87390605D01*
X132338078Y-87400010D01*
X132338089Y-87400010D01*
X132370010Y-87403154D01*
X132401931Y-87400010D01*
X141485850Y-87400010D01*
X141517771Y-87403154D01*
X141549692Y-87400010D01*
X141549703Y-87400010D01*
X141645193Y-87390605D01*
X141767719Y-87353437D01*
X141880639Y-87293080D01*
X141979614Y-87211853D01*
X141999971Y-87187048D01*
X142707043Y-86479977D01*
X142731843Y-86459624D01*
X142752873Y-86434000D01*
X142766411Y-86417503D01*
X142870091Y-86502591D01*
X143078559Y-86614019D01*
X143304760Y-86682637D01*
X143540000Y-86705806D01*
X143775241Y-86682637D01*
X144001442Y-86614019D01*
X144209910Y-86502591D01*
X144392634Y-86352634D01*
X144542591Y-86169910D01*
X144654019Y-85961442D01*
X144722637Y-85735241D01*
X144740000Y-85558950D01*
X144740000Y-85100000D01*
X144780000Y-85100000D01*
X144780000Y-85600000D01*
X144824488Y-85851696D01*
X144917225Y-86089877D01*
X145054647Y-86305389D01*
X145231472Y-86489950D01*
X145440906Y-86636468D01*
X145674900Y-86739312D01*
X145778469Y-86764547D01*
X145980000Y-86658191D01*
X145980000Y-85100000D01*
X146180000Y-85100000D01*
X146180000Y-86658191D01*
X146381531Y-86764547D01*
X146485100Y-86739312D01*
X146719094Y-86636468D01*
X146928528Y-86489950D01*
X147105353Y-86305389D01*
X147242775Y-86089877D01*
X147335512Y-85851696D01*
X147380000Y-85600000D01*
X147380000Y-85100000D01*
X146180000Y-85100000D01*
X145980000Y-85100000D01*
X144780000Y-85100000D01*
X144740000Y-85100000D01*
X144740000Y-84991458D01*
X144831458Y-84900000D01*
X145980000Y-84900000D01*
X145980000Y-84880000D01*
X146180000Y-84880000D01*
X146180000Y-84900000D01*
X147380000Y-84900000D01*
X147380000Y-84400000D01*
X147355255Y-84260000D01*
X147438807Y-84260000D01*
X147437363Y-84264760D01*
X147420000Y-84441051D01*
X147420000Y-85558950D01*
X147437363Y-85735241D01*
X147505981Y-85961442D01*
X147617410Y-86169910D01*
X147767367Y-86352634D01*
X147950091Y-86502591D01*
X148158559Y-86614019D01*
X148384760Y-86682637D01*
X148620000Y-86705806D01*
X148855241Y-86682637D01*
X149081442Y-86614019D01*
X149233503Y-86532741D01*
X149887810Y-87187048D01*
X149908167Y-87211853D01*
X149932970Y-87232208D01*
X150007141Y-87293080D01*
X150120062Y-87353437D01*
X150242588Y-87390605D01*
X150338078Y-87400010D01*
X150338089Y-87400010D01*
X150370010Y-87403154D01*
X150401931Y-87400010D01*
X159485850Y-87400010D01*
X159517771Y-87403154D01*
X159549692Y-87400010D01*
X159549703Y-87400010D01*
X159645193Y-87390605D01*
X159767719Y-87353437D01*
X159880639Y-87293080D01*
X159979614Y-87211853D01*
X159999971Y-87187048D01*
X160707043Y-86479977D01*
X160731843Y-86459624D01*
X160752873Y-86434000D01*
X160766411Y-86417503D01*
X160870091Y-86502591D01*
X161078559Y-86614019D01*
X161304760Y-86682637D01*
X161540000Y-86705806D01*
X161775241Y-86682637D01*
X162001442Y-86614019D01*
X162209910Y-86502591D01*
X162392634Y-86352634D01*
X162542591Y-86169910D01*
X162654019Y-85961442D01*
X162722637Y-85735241D01*
X162740000Y-85558950D01*
X162740000Y-85497056D01*
X162780000Y-85457056D01*
X162780000Y-85600000D01*
X162824488Y-85851696D01*
X162917225Y-86089877D01*
X163054647Y-86305389D01*
X163231472Y-86489950D01*
X163440906Y-86636468D01*
X163674900Y-86739312D01*
X163778469Y-86764547D01*
X163980000Y-86658191D01*
X163980000Y-85100000D01*
X164180000Y-85100000D01*
X164180000Y-86658191D01*
X164381531Y-86764547D01*
X164485100Y-86739312D01*
X164719094Y-86636468D01*
X164928528Y-86489950D01*
X165105353Y-86305389D01*
X165242775Y-86089877D01*
X165335512Y-85851696D01*
X165380000Y-85600000D01*
X165380000Y-85100000D01*
X164180000Y-85100000D01*
X163980000Y-85100000D01*
X163960000Y-85100000D01*
X163960000Y-84900000D01*
X163980000Y-84900000D01*
X163980000Y-84880000D01*
X164180000Y-84880000D01*
X164180000Y-84900000D01*
X165380000Y-84900000D01*
X165380000Y-84400000D01*
X165355255Y-84260000D01*
X165438807Y-84260000D01*
X165437363Y-84264760D01*
X165420000Y-84441051D01*
X165420000Y-85558950D01*
X165437363Y-85735241D01*
X165505981Y-85961442D01*
X165617410Y-86169910D01*
X165767367Y-86352634D01*
X165950091Y-86502591D01*
X166158559Y-86614019D01*
X166384760Y-86682637D01*
X166620000Y-86705806D01*
X166855241Y-86682637D01*
X167081442Y-86614019D01*
X167233503Y-86532741D01*
X168221804Y-87521043D01*
X168242157Y-87545843D01*
X168266957Y-87566196D01*
X168266959Y-87566198D01*
X168319837Y-87609593D01*
X168341132Y-87627070D01*
X168454052Y-87687427D01*
X168576578Y-87724595D01*
X168672068Y-87734000D01*
X168672078Y-87734000D01*
X168703999Y-87737144D01*
X168735921Y-87734000D01*
X178238069Y-87734000D01*
X178270000Y-87737145D01*
X178397422Y-87724595D01*
X178519948Y-87687427D01*
X178632868Y-87627070D01*
X178731843Y-87545843D01*
X178813070Y-87446868D01*
X178873427Y-87333948D01*
X178910595Y-87211422D01*
X178920000Y-87115932D01*
X178923145Y-87084000D01*
X178920000Y-87052068D01*
X178920000Y-86529268D01*
X179078559Y-86614019D01*
X179304760Y-86682637D01*
X179540000Y-86705806D01*
X179775241Y-86682637D01*
X180001442Y-86614019D01*
X180209910Y-86502591D01*
X180392634Y-86352634D01*
X180542591Y-86169910D01*
X180654019Y-85961442D01*
X180722637Y-85735241D01*
X180740000Y-85558950D01*
X180740000Y-85100000D01*
X180780000Y-85100000D01*
X180780000Y-85600000D01*
X180824488Y-85851696D01*
X180917225Y-86089877D01*
X181054647Y-86305389D01*
X181231472Y-86489950D01*
X181440906Y-86636468D01*
X181674900Y-86739312D01*
X181778469Y-86764547D01*
X181980000Y-86658191D01*
X181980000Y-85100000D01*
X182180000Y-85100000D01*
X182180000Y-86658191D01*
X182381531Y-86764547D01*
X182485100Y-86739312D01*
X182719094Y-86636468D01*
X182928528Y-86489950D01*
X183105353Y-86305389D01*
X183242775Y-86089877D01*
X183335512Y-85851696D01*
X183380000Y-85600000D01*
X183380000Y-85100000D01*
X182180000Y-85100000D01*
X181980000Y-85100000D01*
X180780000Y-85100000D01*
X180740000Y-85100000D01*
X180740000Y-84991458D01*
X180831458Y-84900000D01*
X181980000Y-84900000D01*
X181980000Y-84880000D01*
X182180000Y-84880000D01*
X182180000Y-84900000D01*
X183380000Y-84900000D01*
X183380000Y-84400000D01*
X183355255Y-84260000D01*
X183438807Y-84260000D01*
X183437363Y-84264760D01*
X183420000Y-84441051D01*
X183420000Y-85558950D01*
X183437363Y-85735241D01*
X183505981Y-85961442D01*
X183617410Y-86169910D01*
X183767367Y-86352634D01*
X183950091Y-86502591D01*
X184158559Y-86614019D01*
X184384760Y-86682637D01*
X184620000Y-86705806D01*
X184855241Y-86682637D01*
X185081442Y-86614019D01*
X185289910Y-86502591D01*
X185472634Y-86352634D01*
X185622591Y-86169910D01*
X185734019Y-85961442D01*
X185767825Y-85850000D01*
X187057734Y-85850000D01*
X187159891Y-85933839D01*
X187281288Y-85998727D01*
X187413011Y-86038685D01*
X187549999Y-86052177D01*
X188450001Y-86052177D01*
X188586989Y-86038685D01*
X188718712Y-85998727D01*
X188840109Y-85933839D01*
X188946514Y-85846514D01*
X189033839Y-85740109D01*
X189098727Y-85618712D01*
X189138685Y-85486989D01*
X189152177Y-85350001D01*
X189152177Y-84649999D01*
X189138685Y-84513011D01*
X189098727Y-84381288D01*
X189033839Y-84259891D01*
X188946514Y-84153486D01*
X188840109Y-84066161D01*
X188718712Y-84001273D01*
X188714516Y-84000000D01*
X188718712Y-83998727D01*
X188840109Y-83933839D01*
X188946514Y-83846514D01*
X189033839Y-83740109D01*
X189098727Y-83618712D01*
X189138685Y-83486989D01*
X189152177Y-83350001D01*
X189152177Y-82649999D01*
X189138685Y-82513011D01*
X189098727Y-82381288D01*
X189033839Y-82259891D01*
X188946514Y-82153486D01*
X188840109Y-82066161D01*
X188718712Y-82001273D01*
X188586989Y-81961315D01*
X188450001Y-81947823D01*
X187549999Y-81947823D01*
X187413011Y-81961315D01*
X187281288Y-82001273D01*
X187159891Y-82066161D01*
X187090000Y-82123520D01*
X187090000Y-81901050D01*
X187072637Y-81724759D01*
X187004019Y-81498558D01*
X186892591Y-81290090D01*
X186742634Y-81107366D01*
X186559909Y-80957409D01*
X186351441Y-80845981D01*
X186125240Y-80777363D01*
X185890000Y-80754194D01*
X185654759Y-80777363D01*
X185428558Y-80845981D01*
X185220090Y-80957409D01*
X185037366Y-81107366D01*
X184887409Y-81290091D01*
X184775981Y-81498559D01*
X184707363Y-81724760D01*
X184690000Y-81901051D01*
X184690000Y-83018950D01*
X184707363Y-83195241D01*
X184740995Y-83306111D01*
X184620000Y-83294194D01*
X184608404Y-83295336D01*
X184650000Y-83060000D01*
X184650000Y-82560000D01*
X183450000Y-82560000D01*
X183450000Y-82580000D01*
X183250000Y-82580000D01*
X183250000Y-82560000D01*
X183230000Y-82560000D01*
X183230000Y-82360000D01*
X183250000Y-82360000D01*
X183250000Y-80801809D01*
X183450000Y-80801809D01*
X183450000Y-82360000D01*
X184650000Y-82360000D01*
X184650000Y-81860000D01*
X184605512Y-81608304D01*
X184512775Y-81370123D01*
X184375353Y-81154611D01*
X184198528Y-80970050D01*
X183989094Y-80823532D01*
X183755100Y-80720688D01*
X183651531Y-80695453D01*
X183450000Y-80801809D01*
X183250000Y-80801809D01*
X183048469Y-80695453D01*
X182944900Y-80720688D01*
X182710906Y-80823532D01*
X182501472Y-80970050D01*
X182324647Y-81154611D01*
X182233325Y-81297827D01*
X182156106Y-81043273D01*
X182021464Y-80791375D01*
X181840265Y-80570584D01*
X181784939Y-80525179D01*
X180194811Y-78935051D01*
X180149406Y-78879725D01*
X179928615Y-78698526D01*
X179676717Y-78563884D01*
X179403391Y-78480971D01*
X179190366Y-78459990D01*
X179190356Y-78459990D01*
X179119141Y-78452976D01*
X179047926Y-78459990D01*
X163239235Y-78459990D01*
X163168010Y-78452975D01*
X163096785Y-78459990D01*
X144751205Y-78459990D01*
X144679990Y-78452976D01*
X144608775Y-78459990D01*
X126717205Y-78459990D01*
X126645990Y-78452976D01*
X126574775Y-78459990D01*
X123271934Y-78459990D01*
X119595263Y-74783319D01*
X192800000Y-74783319D01*
X192800000Y-75216681D01*
X192884545Y-75641716D01*
X193050385Y-76042091D01*
X193291148Y-76402418D01*
X193597582Y-76708852D01*
X193957909Y-76949615D01*
X194358284Y-77115455D01*
X194783319Y-77200000D01*
X195216681Y-77200000D01*
X195641716Y-77115455D01*
X196042091Y-76949615D01*
X196402418Y-76708852D01*
X196708852Y-76402418D01*
X196949615Y-76042091D01*
X197115455Y-75641716D01*
X197200000Y-75216681D01*
X197200000Y-74783319D01*
X197115455Y-74358284D01*
X196949615Y-73957909D01*
X196708852Y-73597582D01*
X196402418Y-73291148D01*
X196042091Y-73050385D01*
X195641716Y-72884545D01*
X195216681Y-72800000D01*
X194783319Y-72800000D01*
X194358284Y-72884545D01*
X193957909Y-73050385D01*
X193597582Y-73291148D01*
X193291148Y-73597582D01*
X193050385Y-73957909D01*
X192884545Y-74358284D01*
X192800000Y-74783319D01*
X119595263Y-74783319D01*
X117286983Y-72475040D01*
X117241578Y-72419714D01*
X117020787Y-72238515D01*
X116768889Y-72103873D01*
X116495563Y-72020960D01*
X116282538Y-71999979D01*
X116282528Y-71999979D01*
X116211313Y-71992965D01*
X116140098Y-71999979D01*
X106819233Y-71999979D01*
X106748018Y-71992965D01*
X106676803Y-71999979D01*
X106676794Y-71999979D01*
X106463769Y-72020960D01*
X106190443Y-72103873D01*
X106064494Y-72171194D01*
X105938544Y-72238515D01*
X105773077Y-72374311D01*
X105773074Y-72374314D01*
X105717754Y-72419714D01*
X105672353Y-72475035D01*
X101975047Y-76172342D01*
X101919725Y-76217744D01*
X101874325Y-76273064D01*
X101874322Y-76273067D01*
X101738527Y-76438534D01*
X101738526Y-76438535D01*
X101603884Y-76690433D01*
X101520971Y-76963759D01*
X101499990Y-77176784D01*
X101499990Y-77176793D01*
X101492976Y-77248008D01*
X90475000Y-77248008D01*
X90475000Y-74783319D01*
X92800000Y-74783319D01*
X92800000Y-75216681D01*
X92884545Y-75641716D01*
X93050385Y-76042091D01*
X93291148Y-76402418D01*
X93597582Y-76708852D01*
X93957909Y-76949615D01*
X94358284Y-77115455D01*
X94783319Y-77200000D01*
X95216681Y-77200000D01*
X95641716Y-77115455D01*
X96042091Y-76949615D01*
X96402418Y-76708852D01*
X96708852Y-76402418D01*
X96949615Y-76042091D01*
X97115455Y-75641716D01*
X97200000Y-75216681D01*
X97200000Y-74783319D01*
X97115455Y-74358284D01*
X96949615Y-73957909D01*
X96708852Y-73597582D01*
X96402418Y-73291148D01*
X96042091Y-73050385D01*
X95641716Y-72884545D01*
X95216681Y-72800000D01*
X94783319Y-72800000D01*
X94358284Y-72884545D01*
X93957909Y-73050385D01*
X93597582Y-73291148D01*
X93291148Y-73597582D01*
X93050385Y-73957909D01*
X92884545Y-74358284D01*
X92800000Y-74783319D01*
X90475000Y-74783319D01*
X90475000Y-70475000D01*
X199525000Y-70475000D01*
X199525001Y-99525000D01*
G37*
%TD.AperFunction*%
D20*
X148775981Y-81498559D02*
X148707363Y-81724760D01*
X148690000Y-81901051D01*
X148690000Y-83018950D01*
X148707363Y-83195241D01*
X148740995Y-83306111D01*
X148620000Y-83294194D01*
X148608404Y-83295336D01*
X148650000Y-83060000D01*
X148650000Y-82560000D01*
X147450000Y-82560000D01*
X147450000Y-82580000D01*
X147250000Y-82580000D01*
X147250000Y-82560000D01*
X147230000Y-82560000D01*
X147230000Y-82360000D01*
X147250000Y-82360000D01*
X147250000Y-82340000D01*
X147450000Y-82340000D01*
X147450000Y-82360000D01*
X148650000Y-82360000D01*
X148650000Y-81860000D01*
X148605512Y-81608304D01*
X148512775Y-81370123D01*
X148506314Y-81359990D01*
X148850047Y-81359990D01*
X148775981Y-81498559D01*
%TA.AperFunction,Conductor*%
D21*
G36*
X148775981Y-81498559D02*
G01*
X148707363Y-81724760D01*
X148690000Y-81901051D01*
X148690000Y-83018950D01*
X148707363Y-83195241D01*
X148740995Y-83306111D01*
X148620000Y-83294194D01*
X148608404Y-83295336D01*
X148650000Y-83060000D01*
X148650000Y-82560000D01*
X147450000Y-82560000D01*
X147450000Y-82580000D01*
X147250000Y-82580000D01*
X147250000Y-82560000D01*
X147230000Y-82560000D01*
X147230000Y-82360000D01*
X147250000Y-82360000D01*
X147250000Y-82340000D01*
X147450000Y-82340000D01*
X147450000Y-82360000D01*
X148650000Y-82360000D01*
X148650000Y-81860000D01*
X148605512Y-81608304D01*
X148512775Y-81370123D01*
X148506314Y-81359990D01*
X148850047Y-81359990D01*
X148775981Y-81498559D01*
G37*
%TD.AperFunction*%
D20*
X130775981Y-81498559D02*
X130707363Y-81724760D01*
X130690000Y-81901051D01*
X130690000Y-83018950D01*
X130707363Y-83195241D01*
X130740995Y-83306111D01*
X130620000Y-83294194D01*
X130608404Y-83295336D01*
X130650000Y-83060000D01*
X130650000Y-82560000D01*
X129450000Y-82560000D01*
X129450000Y-82580000D01*
X129250000Y-82580000D01*
X129250000Y-82560000D01*
X129230000Y-82560000D01*
X129230000Y-82360000D01*
X129250000Y-82360000D01*
X129250000Y-82340000D01*
X129450000Y-82340000D01*
X129450000Y-82360000D01*
X130650000Y-82360000D01*
X130650000Y-81860000D01*
X130605512Y-81608304D01*
X130512775Y-81370123D01*
X130506314Y-81359990D01*
X130850047Y-81359990D01*
X130775981Y-81498559D01*
%TA.AperFunction,Conductor*%
D21*
G36*
X130775981Y-81498559D02*
G01*
X130707363Y-81724760D01*
X130690000Y-81901051D01*
X130690000Y-83018950D01*
X130707363Y-83195241D01*
X130740995Y-83306111D01*
X130620000Y-83294194D01*
X130608404Y-83295336D01*
X130650000Y-83060000D01*
X130650000Y-82560000D01*
X129450000Y-82560000D01*
X129450000Y-82580000D01*
X129250000Y-82580000D01*
X129250000Y-82560000D01*
X129230000Y-82560000D01*
X129230000Y-82360000D01*
X129250000Y-82360000D01*
X129250000Y-82340000D01*
X129450000Y-82340000D01*
X129450000Y-82360000D01*
X130650000Y-82360000D01*
X130650000Y-81860000D01*
X130605512Y-81608304D01*
X130512775Y-81370123D01*
X130506314Y-81359990D01*
X130850047Y-81359990D01*
X130775981Y-81498559D01*
G37*
%TD.AperFunction*%
D20*
X166775981Y-81498559D02*
X166707363Y-81724760D01*
X166690000Y-81901051D01*
X166690000Y-83018950D01*
X166707363Y-83195241D01*
X166740995Y-83306111D01*
X166620000Y-83294194D01*
X166608404Y-83295336D01*
X166650000Y-83060000D01*
X166650000Y-82560000D01*
X165450000Y-82560000D01*
X165450000Y-82580000D01*
X165250000Y-82580000D01*
X165250000Y-82560000D01*
X165230000Y-82560000D01*
X165230000Y-82360000D01*
X165250000Y-82360000D01*
X165250000Y-82340000D01*
X165450000Y-82340000D01*
X165450000Y-82360000D01*
X166650000Y-82360000D01*
X166650000Y-81860000D01*
X166605512Y-81608304D01*
X166512775Y-81370123D01*
X166506314Y-81359990D01*
X166850047Y-81359990D01*
X166775981Y-81498559D01*
%TA.AperFunction,Conductor*%
D21*
G36*
X166775981Y-81498559D02*
G01*
X166707363Y-81724760D01*
X166690000Y-81901051D01*
X166690000Y-83018950D01*
X166707363Y-83195241D01*
X166740995Y-83306111D01*
X166620000Y-83294194D01*
X166608404Y-83295336D01*
X166650000Y-83060000D01*
X166650000Y-82560000D01*
X165450000Y-82560000D01*
X165450000Y-82580000D01*
X165250000Y-82580000D01*
X165250000Y-82560000D01*
X165230000Y-82560000D01*
X165230000Y-82360000D01*
X165250000Y-82360000D01*
X165250000Y-82340000D01*
X165450000Y-82340000D01*
X165450000Y-82360000D01*
X166650000Y-82360000D01*
X166650000Y-81860000D01*
X166605512Y-81608304D01*
X166512775Y-81370123D01*
X166506314Y-81359990D01*
X166850047Y-81359990D01*
X166775981Y-81498559D01*
G37*
%TD.AperFunction*%
%TD*%
M02*
