<?xml version="1.0" encoding="UTF-8" standalone="no"?>
<svg
   version="1.1"
   width="29.700220cm"
   height="21.000720cm"
   viewBox="0 0 116930 82680"
   id="svg1119"
   sodipodi:docname="coupleur-5p-B_Paste.svg"
   inkscape:version="1.1.1 (3bf5ae0d25, 2021-09-20)"
   xmlns:inkscape="http://www.inkscape.org/namespaces/inkscape"
   xmlns:sodipodi="http://sodipodi.sourceforge.net/DTD/sodipodi-0.dtd"
   xmlns="http://www.w3.org/2000/svg"
   xmlns:svg="http://www.w3.org/2000/svg">
  <defs
     id="defs1123" />
  <sodipodi:namedview
     id="namedview1121"
     pagecolor="#ffffff"
     bordercolor="#666666"
     borderopacity="1.0"
     inkscape:pageshadow="2"
     inkscape:pageopacity="0.0"
     inkscape:pagecheckerboard="0"
     inkscape:document-units="cm"
     showgrid="false"
     inkscape:zoom="1.882171"
     inkscape:cx="574.33676"
     inkscape:cy="321.17167"
     inkscape:window-width="1461"
     inkscape:window-height="1080"
     inkscape:window-x="329"
     inkscape:window-y="-39"
     inkscape:window-maximized="0"
     inkscape:current-layer="svg1119" />
  <title
     id="title1047">SVG Picture created as coupleur-5p-B_Paste.svg date 2022/04/01 14:43:58 </title>
  <desc
     id="desc1049">Picture generated by PCBNEW </desc>
  <g
     style="fill:#000000; fill-opacity:1;stroke:#000000; stroke-opacity:1; stroke-linecap:round; stroke-linejoin:round;"
     transform="translate(0 0) scale(1 1)"
     id="g1051" />
  <g
     style="fill:#000000; fill-opacity:0.0;  stroke:#000000; stroke-width:-0.000393701; stroke-opacity:1;  stroke-linecap:round; stroke-linejoin:round;"
     id="g1053" />
  <path
     d="M 83465,25590 H 36221"
     id="path1055"
     style="fill:none;fill-opacity:0;stroke:#ff0000;stroke-width:19.6850404;stroke-linecap:round;stroke-linejoin:round;stroke-opacity:1;stroke-miterlimit:4;stroke-dasharray:none" />
  <path
     d="M 83465,41338 V 25590"
     id="path1057"
     style="fill:none;fill-opacity:0;stroke:#ff0000;stroke-width:19.6850404;stroke-linecap:round;stroke-linejoin:round;stroke-opacity:1;stroke-miterlimit:4;stroke-dasharray:none" />
  <path
     d="M 36221,41338 H 83465"
     id="path1059"
     style="fill:none;fill-opacity:0;stroke:#ff0000;stroke-width:19.6850404;stroke-linecap:round;stroke-linejoin:round;stroke-opacity:1;stroke-miterlimit:4;stroke-dasharray:none" />
  <path
     d="M 36221,25590 V 41338"
     id="path1061"
     style="fill:none;fill-opacity:0;stroke:#ff0000;stroke-width:19.6850404;stroke-linecap:round;stroke-linejoin:round;stroke-opacity:1;stroke-miterlimit:4;stroke-dasharray:none" />
  <path
     d="M 38189,27559 V 39370"
     id="path1063"
     style="fill:none;fill-opacity:0;stroke:#ffff00;stroke-width:19.685;stroke-linecap:round;stroke-linejoin:round;stroke-opacity:1" />
  <path
     d="M 81496,27559 H 38189"
     id="path1065"
     style="fill:none;fill-opacity:0;stroke:#ffff00;stroke-width:19.685;stroke-linecap:round;stroke-linejoin:round;stroke-opacity:1" />
  <path
     d="M 81496,39370 V 27559"
     id="path1067"
     style="fill:none;fill-opacity:0;stroke:#ffff00;stroke-width:19.685;stroke-linecap:round;stroke-linejoin:round;stroke-opacity:1" />
  <path
     d="M 38189,39370 H 81496"
     id="path1069"
     style="fill:none;fill-opacity:0;stroke:#ffff00;stroke-width:19.685;stroke-linecap:round;stroke-linejoin:round;stroke-opacity:1" />
  <g
     id="g1071"
     style="fill:#000000;fill-opacity:0;stroke:#000000;stroke-width:19.685;stroke-linecap:round;stroke-linejoin:round;stroke-opacity:1" />
  <g
     id="g1073"
     style="fill:#000000;fill-opacity:0;stroke:#000000;stroke-width:19.685;stroke-linecap:round;stroke-linejoin:round;stroke-opacity:1" />
  <g
     id="g1075"
     style="fill:#000000;fill-opacity:0;stroke:#000000;stroke-width:19.685;stroke-linecap:round;stroke-linejoin:round;stroke-opacity:1" />
  <g
     id="g1077"
     style="fill:#000000;fill-opacity:0;stroke:#000000;stroke-width:19.685;stroke-linecap:round;stroke-linejoin:round;stroke-opacity:1" />
  <g
     id="g1079"
     style="fill:#000000;fill-opacity:0;stroke:#000000;stroke-width:19.685;stroke-linecap:round;stroke-linejoin:round;stroke-opacity:1" />
  <g
     id="g1081"
     style="fill:#000000;fill-opacity:0;stroke:#000000;stroke-width:19.685;stroke-linecap:round;stroke-linejoin:round;stroke-opacity:1" />
  <g
     style="fill:#000000;fill-opacity:0;stroke:#000000;stroke-width:19.685;stroke-linecap:round;stroke-linejoin:round;stroke-opacity:1"
     id="g1083" />
  <g
     style="fill:#000000;fill-opacity:0;stroke:#000000;stroke-width:0;stroke-linecap:round;stroke-linejoin:round;stroke-opacity:1"
     id="g1085" />
  <g
     style="fill:#00ff00;stroke:none;stroke-width:0;stroke-linecap:round;stroke-linejoin:round;fill-opacity:1"
     id="g1091">
    <g
       id="path1087"
       style="fill:#00ff00;fill-opacity:1;stroke:none">
      <path
         style="color:#000000;fill-rule:evenodd;stroke:none;-inkscape-stroke:none;fill:#00ff00;fill-opacity:1"
         d="m 42727.4,33228.8 -9.5,1.4 -9.4,2.4 -9.1,3.2 -8.7,4.2 -8.3,4.9 -7.8,5.8 -7.1,6.5 -6.5,7.1 -5.8,7.8 -4.9,8.3 -4.1,8.7 -3.3,9.1 -2.3,9.4 -1.5,9.5 -0.4,9.7 v 275.6 l 0.4,9.6 1.5,9.6 2.3,9.3 3.3,9.1 4.1,8.8 4.9,8.2 5.8,7.8 6.5,7.2 7.1,6.4 7.8,5.8 8.3,5 8.7,4.1 9.1,3.2 9.4,2.4 9.5,1.4 9.7,0.5 h 354.3 l 9.7,-0.5 9.5,-1.4 9.4,-2.4 9.1,-3.2 8.7,-4.1 8.3,-5 7.8,-5.8 7.1,-6.4 6.5,-7.2 5.8,-7.8 4.9,-8.2 4.2,-8.8 3.2,-9.1 2.4,-9.3 1.4,-9.6 0.4,-9.6 v -275.6 l -0.4,-9.7 -1.4,-9.5 -2.4,-9.4 -3.2,-9.1 -4.2,-8.7 -4.9,-8.3 -5.8,-7.8 -6.5,-7.1 -7.1,-6.5 -7.8,-5.8 -8.3,-4.9 -8.7,-4.2 -9.1,-3.2 -9.4,-2.4 -9.5,-1.4 -9.7,-0.5 h -354.3 z"
         id="path2955" />
      <path
         style="color:#000000;fill-rule:evenodd;stroke:none;-inkscape-stroke:none;fill:#00ff00;fill-opacity:1"
         d="m 42727.4,33228.8 -9.5,1.4 -9.4,2.4 -9.1,3.2 -8.7,4.2 -8.3,4.9 -7.8,5.8 -7.1,6.5 -6.5,7.1 -5.8,7.8 -4.9,8.3 -4.1,8.7 -3.3,9.1 -2.3,9.4 -1.5,9.5 -0.4,9.7 v 275.6 l 0.4,9.6 1.5,9.6 2.3,9.3 3.3,9.1 4.1,8.8 4.9,8.2 5.8,7.8 6.5,7.2 7.1,6.4 7.8,5.8 8.3,5 8.7,4.1 9.1,3.2 9.4,2.4 9.5,1.4 9.7,0.5 h 354.3 l 9.7,-0.5 9.5,-1.4 9.4,-2.4 9.1,-3.2 8.7,-4.1 8.3,-5 7.8,-5.8 7.1,-6.4 6.5,-7.2 5.8,-7.8 4.9,-8.2 4.2,-8.8 3.2,-9.1 2.4,-9.3 1.4,-9.6 0.4,-9.6 v -275.6 l -0.4,-9.7 -1.4,-9.5 -2.4,-9.4 -3.2,-9.1 -4.2,-8.7 -4.9,-8.3 -5.8,-7.8 -6.5,-7.1 -7.1,-6.5 -7.8,-5.8 -8.3,-4.9 -8.7,-4.2 -9.1,-3.2 -9.4,-2.4 -9.5,-1.4 -9.7,-0.5 h -354.3 z"
         id="path2957" />
    </g>
    <g
       id="path1089"
       style="fill:#00ff00;fill-opacity:1;stroke:none">
      <path
         style="color:#000000;fill-rule:evenodd;stroke:none;-inkscape-stroke:none;fill:#00ff00;fill-opacity:1"
         d="m 42727.4,32441.4 -9.5,1.4 -9.4,2.4 -9.1,3.2 -8.7,4.2 -8.3,4.9 -7.8,5.8 -7.1,6.5 -6.5,7.1 -5.8,7.8 -4.9,8.3 -4.1,8.7 -3.3,9.1 -2.3,9.4 -1.5,9.5 -0.4,9.7 v 275.6 l 0.4,9.6 1.5,9.6 2.3,9.3 3.3,9.1 4.1,8.8 4.9,8.2 5.8,7.8 6.5,7.2 7.1,6.4 7.8,5.8 8.3,5 8.7,4.1 9.1,3.2 9.4,2.4 9.5,1.4 9.7,0.5 h 354.3 l 9.7,-0.5 9.5,-1.4 9.4,-2.4 9.1,-3.2 8.7,-4.1 8.3,-5 7.8,-5.8 7.1,-6.4 6.5,-7.2 5.8,-7.8 4.9,-8.2 4.2,-8.8 3.2,-9.1 2.4,-9.3 1.4,-9.6 0.4,-9.6 v -275.6 l -0.4,-9.7 -1.4,-9.5 -2.4,-9.4 -3.2,-9.1 -4.2,-8.7 -4.9,-8.3 -5.8,-7.8 -6.5,-7.1 -7.1,-6.5 -7.8,-5.8 -8.3,-4.9 -8.7,-4.2 -9.1,-3.2 -9.4,-2.4 -9.5,-1.4 -9.7,-0.5 h -354.3 z"
         id="path2961" />
      <path
         style="color:#000000;fill-rule:evenodd;stroke:none;-inkscape-stroke:none;fill:#00ff00;fill-opacity:1"
         d="m 42727.4,32441.4 -9.5,1.4 -9.4,2.4 -9.1,3.2 -8.7,4.2 -8.3,4.9 -7.8,5.8 -7.1,6.5 -6.5,7.1 -5.8,7.8 -4.9,8.3 -4.1,8.7 -3.3,9.1 -2.3,9.4 -1.5,9.5 -0.4,9.7 v 275.6 l 0.4,9.6 1.5,9.6 2.3,9.3 3.3,9.1 4.1,8.8 4.9,8.2 5.8,7.8 6.5,7.2 7.1,6.4 7.8,5.8 8.3,5 8.7,4.1 9.1,3.2 9.4,2.4 9.5,1.4 9.7,0.5 h 354.3 l 9.7,-0.5 9.5,-1.4 9.4,-2.4 9.1,-3.2 8.7,-4.1 8.3,-5 7.8,-5.8 7.1,-6.4 6.5,-7.2 5.8,-7.8 4.9,-8.2 4.2,-8.8 3.2,-9.1 2.4,-9.3 1.4,-9.6 0.4,-9.6 v -275.6 l -0.4,-9.7 -1.4,-9.5 -2.4,-9.4 -3.2,-9.1 -4.2,-8.7 -4.9,-8.3 -5.8,-7.8 -6.5,-7.1 -7.1,-6.5 -7.8,-5.8 -8.3,-4.9 -8.7,-4.2 -9.1,-3.2 -9.4,-2.4 -9.5,-1.4 -9.7,-0.5 h -354.3 z"
         id="path2963" />
    </g>
  </g>
  <g
     id="g1093"
     style="fill:#000000;fill-opacity:0;stroke:#000000;stroke-width:19.685;stroke-linecap:round;stroke-linejoin:round;stroke-opacity:1" />
  <g
     style="fill:#00ff00;stroke:none;stroke-width:0;stroke-linecap:round;stroke-linejoin:round;fill-opacity:1"
     id="g1099">
    <g
       id="path1095"
       style="fill:#00ff00;fill-opacity:1;stroke:none">
      <path
         style="color:#000000;fill-rule:evenodd;stroke:none;-inkscape-stroke:none;fill:#00ff00;fill-opacity:1"
         d="m 70680.2,33228.8 -9.6,1.4 -9.3,2.4 -9.1,3.2 -8.8,4.2 -8.2,4.9 -7.8,5.8 -7.2,6.5 -6.4,7.1 -5.8,7.8 -5,8.3 -4.1,8.7 -3.2,9.1 -2.4,9.4 -1.4,9.5 -0.5,9.7 v 275.6 l 0.5,9.6 1.4,9.6 2.4,9.3 3.2,9.1 4.1,8.8 5,8.2 5.8,7.8 6.4,7.2 7.2,6.4 7.8,5.8 8.2,5 8.8,4.1 9.1,3.2 9.3,2.4 9.6,1.4 9.6,0.5 h 354.4 l 9.6,-0.5 9.6,-1.4 9.3,-2.4 9.1,-3.2 8.8,-4.1 8.3,-5 7.7,-5.8 7.2,-6.4 6.5,-7.2 5.7,-7.8 5,-8.2 4.1,-8.8 3.3,-9.1 2.3,-9.3 1.4,-9.6 0.5,-9.6 v -275.6 l -0.5,-9.7 -1.4,-9.5 -2.3,-9.4 -3.3,-9.1 -4.1,-8.7 -5,-8.3 -5.7,-7.8 -6.5,-7.1 -7.2,-6.5 -7.7,-5.8 -8.3,-4.9 -8.8,-4.2 -9.1,-3.2 -9.3,-2.4 -9.6,-1.4 -9.6,-0.5 h -354.4 z"
         id="path2967" />
      <path
         style="color:#000000;fill-rule:evenodd;stroke:none;-inkscape-stroke:none;fill:#00ff00;fill-opacity:1"
         d="m 70680.2,33228.8 -9.6,1.4 -9.3,2.4 -9.1,3.2 -8.8,4.2 -8.2,4.9 -7.8,5.8 -7.2,6.5 -6.4,7.1 -5.8,7.8 -5,8.3 -4.1,8.7 -3.2,9.1 -2.4,9.4 -1.4,9.5 -0.5,9.7 v 275.6 l 0.5,9.6 1.4,9.6 2.4,9.3 3.2,9.1 4.1,8.8 5,8.2 5.8,7.8 6.4,7.2 7.2,6.4 7.8,5.8 8.2,5 8.8,4.1 9.1,3.2 9.3,2.4 9.6,1.4 9.6,0.5 h 354.4 l 9.6,-0.5 9.6,-1.4 9.3,-2.4 9.1,-3.2 8.8,-4.1 8.3,-5 7.7,-5.8 7.2,-6.4 6.5,-7.2 5.7,-7.8 5,-8.2 4.1,-8.8 3.3,-9.1 2.3,-9.3 1.4,-9.6 0.5,-9.6 v -275.6 l -0.5,-9.7 -1.4,-9.5 -2.3,-9.4 -3.3,-9.1 -4.1,-8.7 -5,-8.3 -5.7,-7.8 -6.5,-7.1 -7.2,-6.5 -7.7,-5.8 -8.3,-4.9 -8.8,-4.2 -9.1,-3.2 -9.3,-2.4 -9.6,-1.4 -9.6,-0.5 h -354.4 z"
         id="path2969" />
    </g>
    <g
       id="path1097"
       style="fill:#00ff00;fill-opacity:1;stroke:none">
      <path
         style="color:#000000;fill-rule:evenodd;stroke:none;-inkscape-stroke:none;fill:#00ff00;fill-opacity:1"
         d="m 70680.2,32441.4 -9.6,1.4 -9.3,2.4 -9.1,3.2 -8.8,4.2 -8.2,4.9 -7.8,5.8 -7.2,6.5 -6.4,7.1 -5.8,7.8 -5,8.3 -4.1,8.7 -3.2,9.1 -2.4,9.4 -1.4,9.5 -0.5,9.7 v 275.6 l 0.5,9.6 1.4,9.6 2.4,9.3 3.2,9.1 4.1,8.8 5,8.2 5.8,7.8 6.4,7.2 7.2,6.4 7.8,5.8 8.2,5 8.8,4.1 9.1,3.2 9.3,2.4 9.6,1.4 9.6,0.5 h 354.4 l 9.6,-0.5 9.6,-1.4 9.3,-2.4 9.1,-3.2 8.8,-4.1 8.3,-5 7.7,-5.8 7.2,-6.4 6.5,-7.2 5.7,-7.8 5,-8.2 4.1,-8.8 3.3,-9.1 2.3,-9.3 1.4,-9.6 0.5,-9.6 v -275.6 l -0.5,-9.7 -1.4,-9.5 -2.3,-9.4 -3.3,-9.1 -4.1,-8.7 -5,-8.3 -5.7,-7.8 -6.5,-7.1 -7.2,-6.5 -7.7,-5.8 -8.3,-4.9 -8.8,-4.2 -9.1,-3.2 -9.3,-2.4 -9.6,-1.4 -9.6,-0.5 h -354.4 z"
         id="path2973" />
      <path
         style="color:#000000;fill-rule:evenodd;stroke:none;-inkscape-stroke:none;fill:#00ff00;fill-opacity:1"
         d="m 70680.2,32441.4 -9.6,1.4 -9.3,2.4 -9.1,3.2 -8.8,4.2 -8.2,4.9 -7.8,5.8 -7.2,6.5 -6.4,7.1 -5.8,7.8 -5,8.3 -4.1,8.7 -3.2,9.1 -2.4,9.4 -1.4,9.5 -0.5,9.7 v 275.6 l 0.5,9.6 1.4,9.6 2.4,9.3 3.2,9.1 4.1,8.8 5,8.2 5.8,7.8 6.4,7.2 7.2,6.4 7.8,5.8 8.2,5 8.8,4.1 9.1,3.2 9.3,2.4 9.6,1.4 9.6,0.5 h 354.4 l 9.6,-0.5 9.6,-1.4 9.3,-2.4 9.1,-3.2 8.8,-4.1 8.3,-5 7.7,-5.8 7.2,-6.4 6.5,-7.2 5.7,-7.8 5,-8.2 4.1,-8.8 3.3,-9.1 2.3,-9.3 1.4,-9.6 0.5,-9.6 v -275.6 l -0.5,-9.7 -1.4,-9.5 -2.3,-9.4 -3.3,-9.1 -4.1,-8.7 -5,-8.3 -5.7,-7.8 -6.5,-7.1 -7.2,-6.5 -7.7,-5.8 -8.3,-4.9 -8.8,-4.2 -9.1,-3.2 -9.3,-2.4 -9.6,-1.4 -9.6,-0.5 h -354.4 z"
         id="path2975" />
    </g>
  </g>
  <g
     id="g1101"
     style="fill:#000000;fill-opacity:0;stroke:#000000;stroke-width:19.685;stroke-linecap:round;stroke-linejoin:round;stroke-opacity:1" />
  <g
     id="g1103"
     style="fill:#000000;fill-opacity:0;stroke:#000000;stroke-width:19.685;stroke-linecap:round;stroke-linejoin:round;stroke-opacity:1" />
  <g
     id="g1105"
     style="fill:#000000;fill-opacity:0;stroke:#000000;stroke-width:19.685;stroke-linecap:round;stroke-linejoin:round;stroke-opacity:1" />
  <g
     id="g1107"
     style="fill:#000000;fill-opacity:0;stroke:#000000;stroke-width:19.685;stroke-linecap:round;stroke-linejoin:round;stroke-opacity:1" />
  <g
     id="g1109"
     style="fill:#000000;fill-opacity:0;stroke:#000000;stroke-width:19.685;stroke-linecap:round;stroke-linejoin:round;stroke-opacity:1" />
  <g
     id="g1111"
     style="fill:#000000;fill-opacity:0;stroke:#000000;stroke-width:19.685;stroke-linecap:round;stroke-linejoin:round;stroke-opacity:1" />
  <g
     id="g1113"
     style="fill:#000000;fill-opacity:0;stroke:#000000;stroke-width:19.685;stroke-linecap:round;stroke-linejoin:round;stroke-opacity:1" />
  <g
     id="g1115"
     style="fill:#000000;fill-opacity:0;stroke:#000000;stroke-width:19.685;stroke-linecap:round;stroke-linejoin:round;stroke-opacity:1" />
</svg>
