M48
; DRILL file {KiCad 5.1.10} date Mon May  2 15:06:02 2022
; FORMAT={-:-/ absolute / inch / decimal}
; #@! TF.CreationDate,2022-05-02T15:06:02+02:00
; #@! TF.GenerationSoftware,Kicad,Pcbnew,5.1.10
FMAT,2
INCH
T1C0.0315
T2C0.0394
T3C0.1260
T4C0.1378
%
G90
G05
T1
X4.1339Y-3.3465
X4.1839Y-3.2465
X4.2339Y-3.3465
X4.2839Y-3.2465
X4.3339Y-3.3465
X4.3839Y-3.2465
X4.4339Y-3.3465
X4.4839Y-3.2465
X4.8425Y-3.3465
X4.8925Y-3.2465
X4.9425Y-3.3465
X4.9925Y-3.2465
X5.0425Y-3.3465
X5.0925Y-3.2465
X5.1425Y-3.3465
X5.1925Y-3.2465
X5.5512Y-3.3465
X5.6012Y-3.2465
X5.6512Y-3.3465
X5.7012Y-3.2465
X5.7512Y-3.3465
X5.8012Y-3.2465
X5.8512Y-3.3465
X5.9012Y-3.2465
X6.2598Y-3.3465
X6.3098Y-3.2465
X6.3598Y-3.3465
X6.4098Y-3.2465
X6.4598Y-3.3465
X6.5098Y-3.2465
X6.5598Y-3.3465
X6.6098Y-3.2465
X6.9685Y-3.3465
X7.0185Y-3.2465
X7.0685Y-3.3465
X7.1185Y-3.2465
X7.1685Y-3.3465
X7.2185Y-3.2465
X7.2685Y-3.3465
X7.3185Y-3.2465
T2
X4.1882Y-3.0315
X4.2882Y-3.0315
X4.3882Y-3.0315
X4.4882Y-3.0315
T3
X4.0839Y-3.5965
X4.5339Y-3.5965
X4.7925Y-3.5965
X5.2425Y-3.5965
X5.5012Y-3.5965
X5.9512Y-3.5965
X6.2098Y-3.5965
X6.6598Y-3.5965
X6.9185Y-3.5965
X7.3685Y-3.5965
T4
X3.7402Y-2.9528
X3.7402Y-3.7402
X7.6772Y-2.9528
X7.6772Y-3.7402
T0
M30
