<?xml version="1.0" standalone="no"?>
 <!DOCTYPE svg PUBLIC "-//W3C//DTD SVG 1.1//EN" 
 "http://www.w3.org/Graphics/SVG/1.1/DTD/svg11.dtd"> 
<svg
  xmlns:svg="http://www.w3.org/2000/svg"
  xmlns="http://www.w3.org/2000/svg"
  xmlns:xlink="http://www.w3.org/1999/xlink"
  version="1.1"
  width="29.700220cm" height="21.000720cm" viewBox="0 0 116930 82680">
<title>SVG Picture created as coupleur-5p-B_Mask.svg date 2022/05/02 15:05:40 </title>
  <desc>Picture generated by PCBNEW </desc>
<g style="fill:#000000; fill-opacity:1;stroke:#000000; stroke-opacity:1;
stroke-linecap:round; stroke-linejoin:round;"
 transform="translate(0 0) scale(1 1)">
</g>
<g style="fill:#000000; fill-opacity:0.0; 
stroke:#000000; stroke-width:-0.000393701; stroke-opacity:1; 
stroke-linecap:round; stroke-linejoin:round;">
</g>
<g style="fill:#000000; fill-opacity:0.0; 
stroke:#000000; stroke-width:19.685; stroke-opacity:1; 
stroke-linecap:round; stroke-linejoin:round;">
<path d="M83465 25590
L36221 25590
" />
<path d="M83465 41338
L83465 25590
" />
<path d="M36221 41338
L83465 41338
" />
<path d="M36221 25590
L36221 41338
" />
<path d="M38189 27559
L38189 39370
" />
<path d="M81496 27559
L38189 27559
" />
<path d="M81496 39370
L81496 27559
" />
<path d="M38189 39370
L81496 39370
" />
<g >
</g>
<g style="fill:#000000; fill-opacity:1.0; 
stroke:#000000; stroke-width:0; stroke-opacity:1; 
stroke-linecap:round; stroke-linejoin:round;">
<circle cx="75048.1" cy="30315" r="334.646" /> 
<circle cx="74048.1" cy="30315" r="334.646" /> 
<circle cx="73048.1" cy="30315" r="334.646" /> 
<path style="fill:#000000; fill-opacity:1.0; 
stroke:#000000; stroke-width:0; stroke-opacity:1; 
stroke-linecap:round; stroke-linejoin:round;fill-rule:evenodd;"
d="M 72382.8,29980.3
71713.5,29980.3
71713.5,30649.6
72382.8,30649.6
Z" /> 
</g>
<g >
</g>
<g style="fill:#000000; fill-opacity:1.0; 
stroke:#000000; stroke-width:0; stroke-opacity:1; 
stroke-linecap:round; stroke-linejoin:round;">
<circle cx="79528.4" cy="37401.6" r="688.976" /> 
</g>
<g style="fill:#000000; fill-opacity:1.0; 
stroke:#000000; stroke-width:39.3701; stroke-opacity:1; 
stroke-linecap:round; stroke-linejoin:round;">
</g>
<g >
</g>
<g style="fill:#000000; fill-opacity:1.0; 
stroke:#000000; stroke-width:39.3701; stroke-opacity:1; 
stroke-linecap:round; stroke-linejoin:round;">
</g>
<g style="fill:#000000; fill-opacity:1.0; 
stroke:#000000; stroke-width:0; stroke-opacity:1; 
stroke-linecap:round; stroke-linejoin:round;">
<circle cx="40158.3" cy="37401.6" r="688.976" /> 
</g>
<g style="fill:#000000; fill-opacity:1.0; 
stroke:#000000; stroke-width:39.3701; stroke-opacity:1; 
stroke-linecap:round; stroke-linejoin:round;">
</g>
<g >
</g>
<g style="fill:#000000; fill-opacity:1.0; 
stroke:#000000; stroke-width:39.3701; stroke-opacity:1; 
stroke-linecap:round; stroke-linejoin:round;">
</g>
<g style="fill:#000000; fill-opacity:1.0; 
stroke:#000000; stroke-width:0; stroke-opacity:1; 
stroke-linecap:round; stroke-linejoin:round;">
<circle cx="40158.3" cy="29527.6" r="688.976" /> 
</g>
<g style="fill:#000000; fill-opacity:1.0; 
stroke:#000000; stroke-width:39.3701; stroke-opacity:1; 
stroke-linecap:round; stroke-linejoin:round;">
</g>
<g >
</g>
<g style="fill:#000000; fill-opacity:1.0; 
stroke:#000000; stroke-width:39.3701; stroke-opacity:1; 
stroke-linecap:round; stroke-linejoin:round;">
</g>
<g style="fill:#000000; fill-opacity:1.0; 
stroke:#000000; stroke-width:0; stroke-opacity:1; 
stroke-linecap:round; stroke-linejoin:round;">
<circle cx="79528.4" cy="29527.6" r="688.976" /> 
</g>
<g style="fill:#000000; fill-opacity:1.0; 
stroke:#000000; stroke-width:39.3701; stroke-opacity:1; 
stroke-linecap:round; stroke-linejoin:round;">
</g>
<g >
</g>
<g style="fill:#000000; fill-opacity:1.0; 
stroke:#000000; stroke-width:39.3701; stroke-opacity:1; 
stroke-linecap:round; stroke-linejoin:round;">
</g>
<g style="fill:#000000; fill-opacity:1.0; 
stroke:#000000; stroke-width:0; stroke-opacity:1; 
stroke-linecap:round; stroke-linejoin:round;">
<path style="fill:#000000; fill-opacity:1.0; 
stroke:#000000; stroke-width:0; stroke-opacity:1; 
stroke-linecap:round; stroke-linejoin:round;fill-rule:evenodd;"
d="M 42727.4,33228.8
42717.9,33230.2
42708.5,33232.6
42699.4,33235.8
42690.7,33240
42682.4,33244.9
42674.6,33250.7
42667.5,33257.2
42661,33264.3
42655.2,33272.1
42650.3,33280.4
42646.2,33289.1
42642.9,33298.2
42640.6,33307.6
42639.1,33317.1
42638.7,33326.8
42638.7,33602.4
42639.1,33612
42640.6,33621.6
42642.9,33630.9
42646.2,33640
42650.3,33648.8
42655.2,33657
42661,33664.8
42667.5,33672
42674.6,33678.4
42682.4,33684.2
42690.7,33689.2
42699.4,33693.3
42708.5,33696.5
42717.9,33698.9
42727.4,33700.3
42737.1,33700.8
43091.4,33700.8
43101.1,33700.3
43110.6,33698.9
43120,33696.5
43129.1,33693.3
43137.8,33689.2
43146.1,33684.2
43153.9,33678.4
43161,33672
43167.5,33664.8
43173.3,33657
43178.2,33648.8
43182.4,33640
43185.6,33630.9
43188,33621.6
43189.4,33612
43189.8,33602.4
43189.8,33326.8
43189.4,33317.1
43188,33307.6
43185.6,33298.2
43182.4,33289.1
43178.2,33280.4
43173.3,33272.1
43167.5,33264.3
43161,33257.2
43153.9,33250.7
43146.1,33244.9
43137.8,33240
43129.1,33235.8
43120,33232.6
43110.6,33230.2
43101.1,33228.8
43091.4,33228.3
42737.1,33228.3
Z" /> 
<path style="fill:#000000; fill-opacity:1.0; 
stroke:#000000; stroke-width:0; stroke-opacity:1; 
stroke-linecap:round; stroke-linejoin:round;fill-rule:evenodd;"
d="M 42727.4,32441.4
42717.9,32442.8
42708.5,32445.2
42699.4,32448.4
42690.7,32452.6
42682.4,32457.5
42674.6,32463.3
42667.5,32469.8
42661,32476.9
42655.2,32484.7
42650.3,32493
42646.2,32501.7
42642.9,32510.8
42640.6,32520.2
42639.1,32529.7
42638.7,32539.4
42638.7,32815
42639.1,32824.6
42640.6,32834.2
42642.9,32843.5
42646.2,32852.6
42650.3,32861.4
42655.2,32869.6
42661,32877.4
42667.5,32884.6
42674.6,32891
42682.4,32896.8
42690.7,32901.8
42699.4,32905.9
42708.5,32909.1
42717.9,32911.5
42727.4,32912.9
42737.1,32913.4
43091.4,32913.4
43101.1,32912.9
43110.6,32911.5
43120,32909.1
43129.1,32905.9
43137.8,32901.8
43146.1,32896.8
43153.9,32891
43161,32884.6
43167.5,32877.4
43173.3,32869.6
43178.2,32861.4
43182.4,32852.6
43185.6,32843.5
43188,32834.2
43189.4,32824.6
43189.8,32815
43189.8,32539.4
43189.4,32529.7
43188,32520.2
43185.6,32510.8
43182.4,32501.7
43178.2,32493
43173.3,32484.7
43167.5,32476.9
43161,32469.8
43153.9,32463.3
43146.1,32457.5
43137.8,32452.6
43129.1,32448.4
43120,32445.2
43110.6,32442.8
43101.1,32441.4
43091.4,32440.9
42737.1,32440.9
Z" /> 
</g>
<g >
</g>
<g style="fill:#000000; fill-opacity:1.0; 
stroke:#000000; stroke-width:0; stroke-opacity:1; 
stroke-linecap:round; stroke-linejoin:round;">
<path style="fill:#000000; fill-opacity:1.0; 
stroke:#000000; stroke-width:0; stroke-opacity:1; 
stroke-linecap:round; stroke-linejoin:round;fill-rule:evenodd;"
d="M 70680.2,33228.8
70670.6,33230.2
70661.3,33232.6
70652.2,33235.8
70643.4,33240
70635.2,33244.9
70627.4,33250.7
70620.2,33257.2
70613.8,33264.3
70608,33272.1
70603,33280.4
70598.9,33289.1
70595.7,33298.2
70593.3,33307.6
70591.9,33317.1
70591.4,33326.8
70591.4,33602.4
70591.9,33612
70593.3,33621.6
70595.7,33630.9
70598.9,33640
70603,33648.8
70608,33657
70613.8,33664.8
70620.2,33672
70627.4,33678.4
70635.2,33684.2
70643.4,33689.2
70652.2,33693.3
70661.3,33696.5
70670.6,33698.9
70680.2,33700.3
70689.8,33700.8
71044.2,33700.8
71053.8,33700.3
71063.4,33698.9
71072.7,33696.5
71081.8,33693.3
71090.6,33689.2
71098.9,33684.2
71106.6,33678.4
71113.8,33672
71120.3,33664.8
71126,33657
71131,33648.8
71135.1,33640
71138.4,33630.9
71140.7,33621.6
71142.1,33612
71142.6,33602.4
71142.6,33326.8
71142.1,33317.1
71140.7,33307.6
71138.4,33298.2
71135.1,33289.1
71131,33280.4
71126,33272.1
71120.3,33264.3
71113.8,33257.2
71106.6,33250.7
71098.9,33244.9
71090.6,33240
71081.8,33235.8
71072.7,33232.6
71063.4,33230.2
71053.8,33228.8
71044.2,33228.3
70689.8,33228.3
Z" /> 
<path style="fill:#000000; fill-opacity:1.0; 
stroke:#000000; stroke-width:0; stroke-opacity:1; 
stroke-linecap:round; stroke-linejoin:round;fill-rule:evenodd;"
d="M 70680.2,32441.4
70670.6,32442.8
70661.3,32445.2
70652.2,32448.4
70643.4,32452.6
70635.2,32457.5
70627.4,32463.3
70620.2,32469.8
70613.8,32476.9
70608,32484.7
70603,32493
70598.9,32501.7
70595.7,32510.8
70593.3,32520.2
70591.9,32529.7
70591.4,32539.4
70591.4,32815
70591.9,32824.6
70593.3,32834.2
70595.7,32843.5
70598.9,32852.6
70603,32861.4
70608,32869.6
70613.8,32877.4
70620.2,32884.6
70627.4,32891
70635.2,32896.8
70643.4,32901.8
70652.2,32905.9
70661.3,32909.1
70670.6,32911.5
70680.2,32912.9
70689.8,32913.4
71044.2,32913.4
71053.8,32912.9
71063.4,32911.5
71072.7,32909.1
71081.8,32905.9
71090.6,32901.8
71098.9,32896.8
71106.6,32891
71113.8,32884.6
71120.3,32877.4
71126,32869.6
71131,32861.4
71135.1,32852.6
71138.4,32843.5
71140.7,32834.2
71142.1,32824.6
71142.6,32815
71142.6,32539.4
71142.1,32529.7
71140.7,32520.2
71138.4,32510.8
71135.1,32501.7
71131,32493
71126,32484.7
71120.3,32476.9
71113.8,32469.8
71106.6,32463.3
71098.9,32457.5
71090.6,32452.6
71081.8,32448.4
71072.7,32445.2
71063.4,32442.8
71053.8,32441.4
71044.2,32440.9
70689.8,32440.9
Z" /> 
</g>
<g >
</g>
<g style="fill:#000000; fill-opacity:1.0; 
stroke:#000000; stroke-width:0; stroke-opacity:1; 
stroke-linecap:round; stroke-linejoin:round;">
</g>
<g style="fill:#000000; fill-opacity:1.0; 
stroke:#000000; stroke-width:590.551; stroke-opacity:1; 
stroke-linecap:round; stroke-linejoin:round;">
</g>
<g style="fill:#000000; fill-opacity:0.0; 
stroke:#000000; stroke-width:590.551; stroke-opacity:1; 
stroke-linecap:round; stroke-linejoin:round;">
<path d="M43744 32267
L43744 32661
" />
<path d="M44244 33267
L44244 33661
" />
<path d="M44744 32267
L44744 32661
" />
<path d="M45244 33267
L45244 33661
" />
<path d="M45744 32267
L45744 32661
" />
<path d="M46244 33267
L46244 33661
" />
<path d="M46744 32267
L46744 32661
" />
<path d="M47244 33267
L47244 33661
" />
</g>
<g style="fill:#000000; fill-opacity:1.0; 
stroke:#000000; stroke-width:0; stroke-opacity:1; 
stroke-linecap:round; stroke-linejoin:round;">
<circle cx="47745" cy="35964.6" r="629.921" /> 
</g>
<g style="fill:#000000; fill-opacity:1.0; 
stroke:#000000; stroke-width:39.3701; stroke-opacity:1; 
stroke-linecap:round; stroke-linejoin:round;">
</g>
<g style="fill:#000000; fill-opacity:1.0; 
stroke:#000000; stroke-width:0; stroke-opacity:1; 
stroke-linecap:round; stroke-linejoin:round;">
<circle cx="43245" cy="35964.6" r="629.921" /> 
</g>
<g style="fill:#000000; fill-opacity:1.0; 
stroke:#000000; stroke-width:39.3701; stroke-opacity:1; 
stroke-linecap:round; stroke-linejoin:round;">
</g>
<g >
</g>
<g style="fill:#000000; fill-opacity:1.0; 
stroke:#000000; stroke-width:39.3701; stroke-opacity:1; 
stroke-linecap:round; stroke-linejoin:round;">
</g>
<g style="fill:#000000; fill-opacity:1.0; 
stroke:#000000; stroke-width:590.551; stroke-opacity:1; 
stroke-linecap:round; stroke-linejoin:round;">
</g>
<g style="fill:#000000; fill-opacity:0.0; 
stroke:#000000; stroke-width:590.551; stroke-opacity:1; 
stroke-linecap:round; stroke-linejoin:round;">
<path d="M65004 32267
L65004 32661
" />
<path d="M65504 33267
L65504 33661
" />
<path d="M66004 32267
L66004 32661
" />
<path d="M66504 33267
L66504 33661
" />
<path d="M67004 32267
L67004 32661
" />
<path d="M67504 33267
L67504 33661
" />
<path d="M68004 32267
L68004 32661
" />
<path d="M68504 33267
L68504 33661
" />
</g>
<g style="fill:#000000; fill-opacity:1.0; 
stroke:#000000; stroke-width:0; stroke-opacity:1; 
stroke-linecap:round; stroke-linejoin:round;">
<circle cx="69004.8" cy="35964.6" r="629.921" /> 
</g>
<g style="fill:#000000; fill-opacity:1.0; 
stroke:#000000; stroke-width:39.3701; stroke-opacity:1; 
stroke-linecap:round; stroke-linejoin:round;">
</g>
<g style="fill:#000000; fill-opacity:1.0; 
stroke:#000000; stroke-width:0; stroke-opacity:1; 
stroke-linecap:round; stroke-linejoin:round;">
<circle cx="64504.8" cy="35964.6" r="629.921" /> 
</g>
<g style="fill:#000000; fill-opacity:1.0; 
stroke:#000000; stroke-width:39.3701; stroke-opacity:1; 
stroke-linecap:round; stroke-linejoin:round;">
</g>
<g >
</g>
<g style="fill:#000000; fill-opacity:1.0; 
stroke:#000000; stroke-width:39.3701; stroke-opacity:1; 
stroke-linecap:round; stroke-linejoin:round;">
</g>
<g style="fill:#000000; fill-opacity:1.0; 
stroke:#000000; stroke-width:590.551; stroke-opacity:1; 
stroke-linecap:round; stroke-linejoin:round;">
</g>
<g style="fill:#000000; fill-opacity:0.0; 
stroke:#000000; stroke-width:590.551; stroke-opacity:1; 
stroke-linecap:round; stroke-linejoin:round;">
<path d="M50831 32267
L50831 32661
" />
<path d="M51331 33267
L51331 33661
" />
<path d="M51831 32267
L51831 32661
" />
<path d="M52331 33267
L52331 33661
" />
<path d="M52831 32267
L52831 32661
" />
<path d="M53331 33267
L53331 33661
" />
<path d="M53831 32267
L53831 32661
" />
<path d="M54331 33267
L54331 33661
" />
</g>
<g style="fill:#000000; fill-opacity:1.0; 
stroke:#000000; stroke-width:0; stroke-opacity:1; 
stroke-linecap:round; stroke-linejoin:round;">
<circle cx="54831.6" cy="35964.6" r="629.921" /> 
</g>
<g style="fill:#000000; fill-opacity:1.0; 
stroke:#000000; stroke-width:39.3701; stroke-opacity:1; 
stroke-linecap:round; stroke-linejoin:round;">
</g>
<g style="fill:#000000; fill-opacity:1.0; 
stroke:#000000; stroke-width:0; stroke-opacity:1; 
stroke-linecap:round; stroke-linejoin:round;">
<circle cx="50331.6" cy="35964.6" r="629.921" /> 
</g>
<g style="fill:#000000; fill-opacity:1.0; 
stroke:#000000; stroke-width:39.3701; stroke-opacity:1; 
stroke-linecap:round; stroke-linejoin:round;">
</g>
<g >
</g>
<g style="fill:#000000; fill-opacity:1.0; 
stroke:#000000; stroke-width:39.3701; stroke-opacity:1; 
stroke-linecap:round; stroke-linejoin:round;">
</g>
<g style="fill:#000000; fill-opacity:1.0; 
stroke:#000000; stroke-width:590.551; stroke-opacity:1; 
stroke-linecap:round; stroke-linejoin:round;">
</g>
<g style="fill:#000000; fill-opacity:0.0; 
stroke:#000000; stroke-width:590.551; stroke-opacity:1; 
stroke-linecap:round; stroke-linejoin:round;">
<path d="M57918 32267
L57918 32661
" />
<path d="M58418 33267
L58418 33661
" />
<path d="M58918 32267
L58918 32661
" />
<path d="M59418 33267
L59418 33661
" />
<path d="M59918 32267
L59918 32661
" />
<path d="M60418 33267
L60418 33661
" />
<path d="M60918 32267
L60918 32661
" />
<path d="M61418 33267
L61418 33661
" />
</g>
<g style="fill:#000000; fill-opacity:1.0; 
stroke:#000000; stroke-width:0; stroke-opacity:1; 
stroke-linecap:round; stroke-linejoin:round;">
<circle cx="61918.2" cy="35964.6" r="629.921" /> 
</g>
<g style="fill:#000000; fill-opacity:1.0; 
stroke:#000000; stroke-width:39.3701; stroke-opacity:1; 
stroke-linecap:round; stroke-linejoin:round;">
</g>
<g style="fill:#000000; fill-opacity:1.0; 
stroke:#000000; stroke-width:0; stroke-opacity:1; 
stroke-linecap:round; stroke-linejoin:round;">
<circle cx="57418.2" cy="35964.6" r="629.921" /> 
</g>
<g style="fill:#000000; fill-opacity:1.0; 
stroke:#000000; stroke-width:39.3701; stroke-opacity:1; 
stroke-linecap:round; stroke-linejoin:round;">
</g>
<g >
</g>
<g style="fill:#000000; fill-opacity:1.0; 
stroke:#000000; stroke-width:39.3701; stroke-opacity:1; 
stroke-linecap:round; stroke-linejoin:round;">
</g>
<g style="fill:#000000; fill-opacity:1.0; 
stroke:#000000; stroke-width:590.551; stroke-opacity:1; 
stroke-linecap:round; stroke-linejoin:round;">
</g>
<g style="fill:#000000; fill-opacity:0.0; 
stroke:#000000; stroke-width:590.551; stroke-opacity:1; 
stroke-linecap:round; stroke-linejoin:round;">
<path d="M72091 32267
L72091 32661
" />
<path d="M72591 33267
L72591 33661
" />
<path d="M73091 32267
L73091 32661
" />
<path d="M73591 33267
L73591 33661
" />
<path d="M74091 32267
L74091 32661
" />
<path d="M74591 33267
L74591 33661
" />
<path d="M75091 32267
L75091 32661
" />
<path d="M75591 33267
L75591 33661
" />
</g>
<g style="fill:#000000; fill-opacity:1.0; 
stroke:#000000; stroke-width:0; stroke-opacity:1; 
stroke-linecap:round; stroke-linejoin:round;">
<circle cx="76091.4" cy="35964.6" r="629.921" /> 
</g>
<g style="fill:#000000; fill-opacity:1.0; 
stroke:#000000; stroke-width:39.3701; stroke-opacity:1; 
stroke-linecap:round; stroke-linejoin:round;">
</g>
<g style="fill:#000000; fill-opacity:1.0; 
stroke:#000000; stroke-width:0; stroke-opacity:1; 
stroke-linecap:round; stroke-linejoin:round;">
<circle cx="71591.4" cy="35964.6" r="629.921" /> 
</g>
<g style="fill:#000000; fill-opacity:1.0; 
stroke:#000000; stroke-width:39.3701; stroke-opacity:1; 
stroke-linecap:round; stroke-linejoin:round;">
</g>
<g >
</g>
<g >
</g>
<g >
</g>
</g> 
</svg>
